<svg width="126" height="124" viewBox="0 0 126 124" fill="none" xmlns="http://www.w3.org/2000/svg">
<g filter="url(#filter0_d_106_547)">
<path d="M34.6264 8.69658C32.7973 9.73039 31.0473 10.8552 29.3764 12.0503C24.9223 15.0607 21.1931 18.3069 19.0806 21.1975L19.0723 21.2099L19.064 21.214C18.9848 21.367 18.9431 21.4911 18.8681 21.6399C17.5723 22.9549 16.489 24.3651 15.614 25.8579C3.3348 43.2756 1.33064 66.6274 12.3598 86.1417C12.364 86.1624 12.3681 86.183 12.3723 86.2037L12.389 86.2327C12.4223 86.2947 12.4681 86.3443 12.5015 86.4063C12.5265 86.4477 12.5431 86.489 12.5681 86.5304C18.0723 96.0994 26.014 103.439 35.1973 108.269C36.2306 109.063 37.4973 109.659 38.9723 110.089C50.8348 115.262 64.3931 116.432 77.364 113.004C82.1556 111.739 86.864 109.857 91.3765 107.302C92.914 106.433 94.3848 105.499 95.8098 104.523C95.8556 104.49 95.9098 104.461 95.9515 104.424C97.5348 103.328 99.0473 102.17 100.493 100.946C103.831 98.3076 106.672 95.4667 108.518 92.6382C113.276 86.6089 116.735 79.7568 118.764 72.5284C118.768 72.5077 118.772 72.487 118.781 72.4664C119.943 68.7736 120.589 64.965 120.735 61.1316C121.476 50.4296 119.176 39.4381 113.439 29.468C107.285 18.7783 98.0973 10.8634 87.5306 6.1327C87.4056 6.07894 87.2806 6.02519 87.1556 5.97143C77.3639 1.67077 66.4098 0.0993694 55.5764 1.60047C55.5681 1.60047 55.5598 1.6046 55.5556 1.6046C51.2473 1.78656 46.1306 3.32901 41.0556 5.57032C38.8806 6.47594 36.7306 7.50562 34.6264 8.69658ZM33.7848 9.57739C34.6806 9.05221 35.5973 8.53944 36.5223 8.05147C37.8681 7.34021 39.2348 6.6827 40.6056 6.06242C40.8431 5.95903 41.0848 5.86806 41.3264 5.76881C39.7931 6.86879 38.4889 8.89093 37.4223 11.8104C37.4098 11.8187 37.3973 11.827 37.3848 11.8394C37.1764 11.889 36.9764 11.9262 36.7681 11.98L36.7348 11.9841L36.7098 12.0048C36.5598 12.1371 36.4181 12.2653 36.2723 12.3976C35.014 11.8807 33.8765 11.5003 32.9681 11.3928C32.0181 11.277 31.2348 11.3804 30.6389 11.6946C30.439 11.798 30.2556 11.9262 30.0931 12.0792C29.4515 12.6788 29.1431 13.6175 29.1098 14.8292C29.1056 14.9077 29.1306 15.0111 29.1306 15.0938C27.5556 15.7265 26.0681 16.4088 24.739 17.1656C23.3348 17.9637 22.1015 18.8404 20.9598 19.7625C23.5806 16.9754 26.5098 14.4156 29.7389 12.133C29.7514 12.1247 29.7639 12.1123 29.7764 12.104C31.0681 11.2398 32.3973 10.3879 33.7848 9.57739ZM30.7639 11.9262C31.3056 11.645 32.0181 11.5458 32.9348 11.6533C33.7848 11.7567 34.8681 12.1123 36.0598 12.5961C35.9014 12.7367 35.7514 12.8773 35.5931 13.0179C33.3473 13.5803 31.2764 14.2378 29.3931 14.9822C29.3931 14.9408 29.3765 14.8829 29.3765 14.8374C29.4098 13.6672 29.7098 12.8029 30.2806 12.2694C30.4265 12.1371 30.5848 12.0213 30.7639 11.9262ZM42.0973 5.58686C42.3806 5.43386 42.6639 5.31393 42.9556 5.21469C44.2056 4.79289 45.5681 4.87146 47.0181 5.37183C46.7806 5.49588 46.5473 5.59099 46.3098 5.71918C43.5473 7.21201 40.7139 9.14318 37.8264 11.4796C39.0014 8.44019 40.4389 6.48835 42.0973 5.58686ZM44.0389 4.72259C47.8598 3.36209 51.7514 2.41098 55.6639 1.8734C55.9806 1.86099 56.2681 1.8858 56.5764 1.88993C53.6056 2.48955 50.5181 3.60607 47.3473 5.21468C46.1973 4.78462 45.0889 4.6068 44.0389 4.72259ZM22.0806 18.2159C21.9181 18.3814 21.7515 18.5426 21.589 18.708C21.7515 18.5426 21.914 18.3814 22.0806 18.2159ZM24.8765 17.3848C26.1723 16.6487 27.6181 15.9912 29.1515 15.3709C29.1723 16.0077 29.2515 16.7107 29.3931 17.4799C24.0515 21.429 19.7223 25.4775 16.2806 29.5714C16.6056 27.5161 17.5265 24.9481 19.0556 21.8839C19.1973 21.7185 19.3348 21.5572 19.4765 21.3918C20.9931 19.9321 22.764 18.5798 24.8765 17.3848ZM29.4056 15.2634C31.1681 14.5645 33.089 13.9442 35.1681 13.4025C35.0265 13.5348 34.8848 13.6589 34.7431 13.7912C32.9556 14.9491 31.2389 16.1194 29.6306 17.302C29.4931 16.5536 29.4181 15.8754 29.4056 15.2634ZM46.4306 5.94663C46.7431 5.77708 47.0473 5.66129 47.3556 5.50002C48.1223 5.79776 48.9181 6.25677 49.7264 6.78195C46.2056 8.03906 42.5431 9.61046 38.7264 11.521C38.4765 11.5788 38.2223 11.6367 37.9681 11.6988C40.8556 9.36235 43.6806 7.43945 46.4306 5.94663ZM47.6806 5.33874C51.2514 3.55231 54.6931 2.44406 58.0014 1.93956C60.0014 2.29519 61.6139 2.78315 62.8973 3.3745C58.8556 3.98651 54.5681 5.06995 50.0389 6.66616C49.2389 6.13685 48.4473 5.65716 47.6806 5.33874ZM36.8765 12.2239C36.889 12.2239 36.9014 12.2198 36.9139 12.2157C36.8348 12.286 36.7514 12.348 36.6681 12.4183C36.7389 12.3563 36.8015 12.2901 36.8765 12.2239ZM18.3681 22.7316C17.0265 25.5808 16.2098 28.0041 15.9681 29.9559C14.9723 31.1593 14.0348 32.3627 13.1931 33.5743C13.5723 30.998 14.3848 28.5624 15.6473 26.3045C16.5015 25.0805 17.414 23.8937 18.3681 22.7316ZM36.3389 12.7119C36.3514 12.7202 36.3723 12.7243 36.3848 12.7326C36.3139 12.7739 36.2515 12.8236 36.1806 12.869C36.1765 12.8691 36.1723 12.869 36.164 12.8691C36.2265 12.8194 36.2806 12.7657 36.3389 12.7119ZM37.614 12.0503C37.6515 12.042 37.689 12.0379 37.7223 12.0255C37.6806 12.0503 37.639 12.0709 37.5973 12.0916C37.6056 12.0792 37.6098 12.0668 37.614 12.0503ZM37.0515 12.6664C37.0723 12.6582 37.0973 12.6499 37.1181 12.6375C37.1139 12.6499 37.1098 12.6582 37.1056 12.6664C37.0889 12.6664 37.0681 12.6706 37.0515 12.6664ZM37.4639 12.4597C37.9181 12.224 38.3681 12.0006 38.8223 11.7732C43.7848 10.6195 48.5389 9.84204 53.0889 9.42024C53.5056 9.80896 53.9306 10.2638 54.3473 10.698C52.1098 11.6119 49.8723 12.6209 47.6598 13.7168C44.3265 13.1792 40.9014 12.8277 37.3806 12.6871C37.4056 12.6085 37.4348 12.5382 37.4639 12.4597ZM36.0348 13.2743C34.0931 16.1152 32.389 19.0016 30.9056 21.917C30.564 20.9493 30.2723 20.0313 30.0431 19.1795C30.0098 19.0637 29.9973 18.9686 29.9681 18.8528C31.5348 17.2193 33.1973 15.5942 34.9598 13.9732C35.3181 13.7416 35.6681 13.5059 36.0348 13.2743ZM36.4931 13.0593C36.6348 13.0262 36.764 12.989 36.9098 12.9559C36.9348 12.9683 36.9556 12.9766 36.9806 12.989C36.9681 13.0427 36.9515 13.0799 36.9348 13.1337L36.9265 13.1337L36.9264 13.1461C36.4598 15.3419 36.2181 17.728 36.1431 20.2298C34.5556 21.2471 33.0015 22.2974 31.4806 23.3643C31.3348 22.9922 31.1681 22.6076 31.0348 22.2478C32.6015 19.1464 34.4056 16.0739 36.4931 13.0593ZM39.8306 11.2646C43.3514 9.5443 46.7389 8.12177 50.0015 6.9639C50.3306 7.18307 50.6514 7.35262 50.9848 7.609C51.5848 8.06801 52.1973 8.61387 52.8139 9.1804C48.6556 9.57738 44.3306 10.2597 39.8306 11.2646ZM33.5806 14.8622C32.2931 16.078 31.0764 17.3062 29.9014 18.5344C29.8223 18.2077 29.7556 17.8934 29.6931 17.5874C30.939 16.6735 32.2265 15.7637 33.5806 14.8622ZM37.2348 13.0924C37.3806 13.1627 37.4931 13.1916 37.6431 13.266C37.6473 13.2702 37.6514 13.2702 37.6556 13.2743C38.9806 14.4198 40.3181 15.6438 41.6556 16.9051C41.2639 17.1284 40.8681 17.3434 40.4764 17.575C39.2889 18.2656 38.1098 18.9768 36.9515 19.7046C36.7765 19.8163 36.6056 19.9321 36.4306 20.0437C36.514 17.6329 36.739 15.3295 37.189 13.2123C37.2014 13.1668 37.2223 13.1378 37.2348 13.0924ZM37.5848 12.9559C40.8889 13.0924 44.1098 13.4273 47.2431 13.9194C45.4431 14.8209 43.6598 15.7761 41.8973 16.7686C40.5306 15.4825 39.1723 14.2337 37.8223 13.0675L37.8098 13.0593L37.7931 13.0427C37.7181 13.0055 37.6598 12.989 37.5848 12.9559ZM57.6139 1.64182C58.2598 1.57152 58.9056 1.50536 59.5514 1.45987C59.0473 1.50949 58.5348 1.59633 58.0264 1.6749C57.9764 1.66663 57.9348 1.65423 57.8848 1.64595L57.8764 1.64596C57.7931 1.63769 57.6973 1.64596 57.6139 1.64182ZM29.4515 17.7693C29.5223 18.096 29.5848 18.4186 29.6723 18.7701C24.5431 24.15 20.4598 29.6086 17.3181 35.0464C16.8306 34.4675 16.4723 33.7686 16.289 32.9085C16.114 32.098 16.1015 31.1386 16.2306 30.0511C19.6765 25.8951 24.039 21.7805 29.4515 17.7693ZM58.7764 1.83204C62.7014 1.33994 66.4264 1.69144 69.9181 2.76247C67.8139 2.80382 65.6306 2.9775 63.3723 3.30006C62.1639 2.69631 60.6348 2.20835 58.7764 1.83204ZM50.3139 6.84811C54.9056 5.2395 59.2431 4.16846 63.3223 3.57712C64.8556 4.35455 65.8681 5.28912 66.4098 6.35188C66.4723 6.47593 66.5098 6.60826 66.5598 6.73232C66.4306 6.76127 66.3056 6.78194 66.1806 6.81089C63.9473 7.34434 61.6806 8.01425 59.4056 8.79168C57.3806 8.83717 55.3056 8.95296 53.1848 9.14318C52.5014 8.50635 51.8181 7.91087 51.1473 7.3981C50.8639 7.18307 50.5931 7.03833 50.3139 6.84811ZM29.7473 19.0926C29.7598 19.1505 29.7681 19.196 29.7806 19.2498C30.0348 20.1761 30.3681 21.1809 30.7515 22.2354C30.3306 23.0707 29.9265 23.9102 29.539 24.7538C25.2431 27.9049 21.3056 31.2255 17.9056 34.5543C20.9598 29.3894 24.889 24.2079 29.7473 19.0926ZM61.1264 1.3813C61.7806 1.35235 62.4348 1.33581 63.0848 1.32754C69.0139 1.26964 74.8889 2.10496 80.5014 3.79215C77.4639 3.10156 74.2139 2.7542 70.7598 2.75834C68.3056 1.93128 65.7556 1.41438 63.0848 1.32754C62.4431 1.30686 61.7806 1.35648 61.1264 1.3813ZM14.5348 27.9752C13.7181 29.8319 13.1515 31.7796 12.8723 33.8224C12.8598 33.9092 12.8598 34.0002 12.8515 34.0871C9.31396 39.2934 7.14313 44.5327 6.15147 49.6894C7.4098 42.0144 10.2515 34.6081 14.5348 27.9752ZM15.9181 30.4274C15.8348 31.3702 15.8681 32.2221 16.0265 32.9623C16.2306 33.8968 16.6223 34.666 17.1681 35.2946C15.9181 36.5434 14.7265 37.7964 13.6473 39.037C13.4306 39.2851 13.2431 39.5249 13.0348 39.773C12.8681 37.8543 12.889 35.9851 13.1098 34.178C13.964 32.9251 14.8973 31.6762 15.9181 30.4274ZM63.7764 3.50682C66.1848 3.176 68.4931 3.02713 70.7264 3.02299C71.1306 3.15946 71.5389 3.27524 71.9389 3.42825C73.3014 3.96583 74.6181 4.62334 75.9014 5.37182C72.9681 5.52483 69.9306 5.9673 66.8264 6.67443C66.7681 6.52556 66.7223 6.37669 66.6473 6.23195C66.1139 5.18573 65.1723 4.27184 63.7764 3.50682ZM53.4681 9.39129C55.2181 9.23829 56.9514 9.11837 58.6389 9.06461C57.3014 9.53603 55.9598 10.0447 54.6181 10.5905C54.2348 10.1894 53.8473 9.75519 53.4681 9.39129ZM30.8806 22.5662C30.9931 22.8764 31.1306 23.2031 31.2556 23.5256C30.8306 23.8234 30.4015 24.117 29.9848 24.4188C30.2723 23.7985 30.5723 23.1824 30.8806 22.5662ZM40.6098 17.8024C41.0223 17.5626 41.4431 17.331 41.8598 17.0953C44.864 19.9362 47.8806 23.0335 50.8806 26.3376C48.9514 27.5864 46.9431 28.7857 44.8973 29.8898C42.4223 31.2296 39.9098 32.4164 37.4431 33.4502C36.6723 28.827 36.3056 24.423 36.414 20.3745C36.6431 20.2298 36.864 20.0727 37.0973 19.9279C38.2515 19.2001 39.4264 18.493 40.6098 17.8024ZM42.0973 16.963C43.9431 15.9209 45.8139 14.9243 47.7014 13.9897C51.7848 14.6596 55.7014 15.6273 59.4764 16.8265C59.9098 17.4178 60.3473 18.0092 60.7848 18.6336C58.1139 21.2099 54.7931 23.8027 51.114 26.197C48.1181 22.8929 45.1015 19.8039 42.0973 16.963ZM36.1265 20.5606C36.0348 24.5966 36.414 28.9759 37.1848 33.5577C36.9181 33.6653 36.6556 33.7686 36.3931 33.872C34.4098 30.1131 32.7681 26.656 31.5765 23.6249C33.0598 22.5786 34.5765 21.5572 36.1265 20.5606ZM48.1181 13.7912C50.2514 12.7491 52.4015 11.7815 54.5515 10.9007C56.0806 12.4969 57.6389 14.366 59.2139 16.4791C55.6473 15.3626 51.9598 14.4363 48.1181 13.7912ZM31.3514 23.782C32.5431 26.8049 34.1681 30.2454 36.139 33.9795C32.2723 35.5055 28.6015 36.5434 25.4723 36.9114C26.514 32.9044 27.9431 28.8973 29.7515 24.9316C30.2806 24.547 30.814 24.1624 31.3514 23.782ZM54.8223 10.7973C56.3723 10.1687 57.9181 9.57738 59.4639 9.04807C62.0014 8.99431 64.4639 9.04807 66.8598 9.20934C66.7014 10.5616 66.1056 12.0337 65.1139 13.5762C64.3181 14.8168 63.2514 16.107 62.0181 17.4054C61.2348 17.1284 60.4389 16.8596 59.6389 16.6032C58.0139 14.4032 56.4056 12.4555 54.8223 10.7973ZM29.2973 25.2707C27.5681 29.133 26.2056 33.0367 25.1931 36.9363C23.8515 37.081 22.5848 37.1347 21.489 36.9983C20.0931 36.8287 18.9265 36.4235 18.0431 35.7536C17.8598 35.6171 17.6973 35.4558 17.539 35.2946C20.9473 31.8995 24.9348 28.5045 29.2973 25.2707ZM12.7931 34.6495C12.614 36.4028 12.6223 38.2141 12.7973 40.0666C9.70146 43.776 7.41396 47.3736 6.26396 50.6281C6.3098 50.3676 6.33896 50.1071 6.3848 49.8465C7.3348 44.8305 9.41813 39.7234 12.7931 34.6495ZM60.2723 8.78341C62.2764 8.12177 64.2681 7.5387 66.2348 7.06728C66.3764 7.0342 66.5181 7.01765 66.6556 6.98457C66.8639 7.60486 66.9431 8.26237 66.8889 8.95295C64.7431 8.80822 62.5389 8.75447 60.2723 8.78341ZM71.5723 3.0354C76.4639 3.10983 80.9306 3.92035 84.9473 5.37595C85.7056 5.64888 86.4473 5.94662 87.1723 6.26503C87.8306 6.55036 88.4639 6.8605 89.0973 7.17892C85.2723 5.6985 80.9598 5.14438 76.3681 5.3346C74.9681 4.50342 73.5264 3.77148 72.0348 3.18427C71.8848 3.12224 71.7223 3.08916 71.5723 3.0354ZM66.9223 6.92254C70.1389 6.19474 73.2806 5.73572 76.2973 5.60339C79.2306 7.36501 81.9514 9.65181 84.4473 12.3563C79.2056 10.5946 73.4348 9.42024 67.1556 8.97363C67.2098 8.25823 67.1389 7.57178 66.9223 6.92254ZM17.364 35.5013C17.5265 35.6667 17.6931 35.828 17.8806 35.9686C18.8098 36.6757 20.0265 37.0893 21.4556 37.2629C22.5515 37.3994 23.8015 37.3539 25.1265 37.2216C23.2348 44.632 22.614 52.0217 22.9723 59.1591C22.789 59.3535 22.589 59.5478 22.4098 59.7463C21.9348 60.2674 21.5181 60.7926 21.0681 61.3136C17.3223 55.2679 14.6556 49.1187 13.5265 43.3004C14.5931 40.7159 15.8723 38.1107 17.364 35.5013ZM16.689 36.1506C15.4556 38.3753 14.3723 40.5918 13.4431 42.7959C13.2806 41.9027 13.1598 41.0219 13.0723 40.1452C13.3348 39.8351 13.5723 39.5249 13.8473 39.2106C14.7306 38.1975 15.6931 37.1761 16.689 36.1506ZM67.1223 9.23002C73.5598 9.68489 79.4639 10.9048 84.8014 12.745C87.5348 15.7803 89.9681 19.3407 92.1098 23.2444C91.6473 23.2982 91.2098 23.3271 90.7389 23.3933C87.1764 23.9019 83.3556 24.7869 79.4056 25.9365C74.2056 22.5828 68.4806 19.717 62.2848 17.5047C63.4931 16.2269 64.5473 14.9491 65.3389 13.7168C66.3431 12.1495 66.9598 10.636 67.1223 9.22588L67.1223 9.23002ZM12.8306 40.4388C12.9306 41.3775 13.064 42.3162 13.2473 43.2756C10.6098 49.6853 9.22646 56.0039 8.9098 62.0579C7.40563 60.7181 6.33897 58.9482 5.81397 56.6614C5.78897 56.5291 5.7973 56.3802 5.78063 56.2438C5.78897 55.0404 5.85563 53.8288 5.98896 52.613C6.78896 49.0029 9.2223 44.8098 12.8306 40.4347L12.8306 40.4388ZM76.7639 5.57031C82.3848 5.38836 87.5556 6.34774 91.8973 8.77513C94.0723 11.1529 94.8889 13.8822 94.6264 16.8513C91.6473 15.1806 88.4348 13.7292 84.9848 12.5341C82.4723 9.75519 79.7264 7.3981 76.7639 5.57031ZM59.9014 16.9505C60.5514 17.1614 61.1889 17.3889 61.8306 17.6122C61.564 17.8892 61.2639 18.1663 60.9764 18.4475C60.6181 17.9347 60.2598 17.4426 59.9014 16.9505ZM13.3473 43.747C14.5306 49.5116 17.1806 55.5739 20.8848 61.5328C19.8306 62.7733 18.8473 64.0181 17.9556 65.271C15.8473 65.1263 13.939 64.75 12.2931 64.1008C11.1098 63.6335 10.0681 63.0215 9.16397 62.273C9.45146 56.3017 10.789 50.0781 13.3473 43.747ZM25.4015 37.1968C28.6015 36.837 32.339 35.7784 36.2681 34.2194C36.789 35.2036 37.3223 36.2043 37.889 37.2257C38.4181 39.7772 39.0556 42.3783 39.7848 45.0083C33.5015 49.3255 27.8181 54.0273 23.2306 58.8903C22.8973 51.8315 23.5223 44.5203 25.4015 37.1926L25.4015 37.1968ZM62.0973 17.7156C68.2348 19.8948 73.9014 22.7234 79.0598 26.0316C75.4723 27.0861 71.7806 28.3597 68.0431 29.865C65.7723 25.771 63.4473 22.0038 61.1306 18.6708C61.4556 18.3524 61.7931 18.034 62.0973 17.7114L62.0973 17.7156ZM60.9348 18.861C63.2348 22.1651 65.5389 25.9034 67.7931 29.9683C64.5764 31.2668 61.3431 32.7265 58.1306 34.3104C55.8765 31.5852 53.5973 28.9304 51.2973 26.3913C54.9556 24.0094 58.2681 21.4332 60.9348 18.861ZM36.5181 34.116C36.7515 34.025 36.989 33.9299 37.2265 33.8307C37.3681 34.666 37.5598 35.5179 37.7265 36.3615C37.3056 35.5964 36.914 34.8604 36.5181 34.116ZM37.4848 33.7232C39.9806 32.6811 42.5223 31.4777 45.0265 30.1255C47.089 29.009 49.1181 27.7973 51.064 26.5361C53.3598 29.071 55.6348 31.7134 57.8848 34.4303C56.7515 34.9927 55.6181 35.5468 54.4931 36.1381C52.9431 36.9487 51.4098 37.7881 49.889 38.6565C47.1598 40.2155 44.489 41.8572 41.9015 43.5651C40.5931 41.3734 39.2973 39.1941 38.1473 37.1182C37.9098 35.9769 37.6765 34.8397 37.4848 33.7232ZM5.48063 55.8427C5.48897 55.9626 5.49313 56.0825 5.5098 56.2024C5.46397 62.2192 6.95147 68.0334 9.60564 73.463C10.0973 76.246 10.814 78.9381 11.7473 81.5267C11.7473 82.7715 11.8848 84.0079 12.1473 85.2237C7.08481 75.9152 4.95564 65.7755 5.48063 55.8427ZM38.314 37.9742C39.3515 39.8268 40.5181 41.7704 41.6806 43.7139C41.1181 44.0861 40.5723 44.4666 40.0223 44.8429C39.3806 42.5271 38.7973 40.2321 38.314 37.9742ZM5.80564 57.6001C6.4223 59.5933 7.46814 61.1895 8.89313 62.4053C8.73897 65.8707 8.9348 69.2492 9.44731 72.516C7.25564 67.7853 5.9723 62.7692 5.80564 57.6001ZM85.3348 12.9269C88.6473 14.1013 91.7389 15.5197 94.6056 17.1366C94.5598 17.5667 94.4889 18.0009 94.3931 18.4434C94.0723 19.9734 93.4348 21.5655 92.6139 23.1865C92.5431 23.1948 92.4681 23.203 92.3973 23.2113C90.3223 19.411 87.9764 15.9209 85.3348 12.9269ZM92.6098 9.23001C98.1931 12.9021 102.631 17.9926 105.931 23.9598C105.572 23.844 105.214 23.7282 104.839 23.6331C104.576 23.5669 104.276 23.538 104.006 23.4801C101.281 21.0775 98.2348 18.9024 94.8806 16.996C95.1556 14.1758 94.4556 11.5458 92.6098 9.23001ZM93.7264 9.66008C101.197 14.1882 107.676 20.4945 112.476 28.368C111.026 26.3748 108.918 24.9605 106.293 24.0673C103.151 18.3193 98.9681 13.3487 93.7264 9.66008ZM50.0223 38.8964C51.539 38.028 53.0723 37.1844 54.6181 36.3739C55.7556 35.7742 56.9056 35.2077 58.0556 34.6412C61.3973 38.6937 64.6306 42.9241 67.764 47.1917C64.989 49.0071 62.1056 50.7439 59.164 52.3773C56.2431 54.0024 53.2681 55.516 50.2931 56.9013C48.3473 53.9859 46.4681 51.0788 44.6806 48.2172C43.7431 46.712 42.914 45.2729 42.0348 43.8049C44.6223 42.0971 47.2931 40.4512 50.0223 38.8964ZM58.2931 34.5213C61.4973 32.9499 64.714 31.5025 67.9181 30.2082C68.5848 31.4115 69.2473 32.6273 69.8973 33.8762C71.3765 36.7047 72.8181 39.6572 74.2098 42.6677C72.214 44.1605 70.139 45.6244 67.9806 47.0387C64.8556 42.7794 61.6306 38.5655 58.2931 34.5213ZM41.814 43.9538C42.6931 45.4218 43.5181 46.8567 44.4556 48.3578C46.2348 51.2112 48.1056 54.1141 50.0431 57.0171C48.3015 57.8234 46.564 58.5678 44.8348 59.279C43.389 55.5449 42.0598 51.786 40.9306 48.0601C40.6306 47.0759 40.3681 46.1 40.0931 45.1241C40.664 44.7312 41.2306 44.3384 41.814 43.9538ZM9.15147 62.6038C10.039 63.3151 11.0473 63.9023 12.1848 64.353C13.8223 64.994 15.7015 65.3786 17.7681 65.5274C14.9515 69.5304 12.9723 73.5705 12.164 77.528C11.3181 76.1674 10.5431 74.778 9.85147 73.3555C9.24314 69.8984 8.99731 66.3007 9.15147 62.6038ZM39.864 45.2853C40.1306 46.2323 40.3848 47.1793 40.6723 48.1345C41.8056 51.8728 43.1348 55.6359 44.5806 59.3742C37.6515 62.1944 30.8931 64.2083 25.0056 64.9816C24.5765 65.0395 24.1806 65.0519 23.764 65.0932C23.514 63.1745 23.3473 61.2268 23.2431 59.2584C27.8265 54.3622 33.539 49.6315 39.864 45.2853ZM68.1681 30.1048C71.9681 28.5789 75.7181 27.2845 79.3598 26.2218C81.9306 27.8842 84.3598 29.6665 86.6639 31.5397C83.3348 35.2408 79.1556 38.9542 74.4265 42.5064C73.0389 39.5084 71.6056 36.5682 70.1348 33.748C69.4848 32.5074 68.8265 31.2999 68.1681 30.1048ZM94.8514 17.2772C98.0181 19.0843 100.918 21.1354 103.522 23.3933C100.443 22.8019 96.8681 22.744 92.9264 23.1576C93.7181 21.5738 94.3348 20.0106 94.6514 18.5013C94.7389 18.0919 94.8014 17.6825 94.8473 17.2772L94.8514 17.2772ZM79.7056 26.1267C83.5639 25.0143 87.2973 24.1542 90.7723 23.6579C91.2764 23.5835 91.7514 23.5545 92.2431 23.4966C92.2848 23.5711 92.3306 23.6373 92.3681 23.7117C91.2848 25.7338 89.8681 27.8015 88.1348 29.8898C87.7348 30.3694 87.2765 30.8533 86.8473 31.3371C84.5931 29.501 82.2139 27.756 79.7056 26.1267ZM22.9806 59.5272C23.0848 61.3549 23.2431 63.1662 23.4765 64.9526C22.689 63.8237 21.9223 62.6948 21.2098 61.5534C21.6765 61.0117 22.1098 60.4659 22.6015 59.9242C22.7223 59.7918 22.8598 59.6595 22.9806 59.5272ZM21.0265 61.7726C21.7348 62.8974 22.4931 64.0222 23.2723 65.1346C21.5223 65.2959 19.839 65.3703 18.2806 65.2834C19.1265 64.109 20.039 62.9388 21.0265 61.7726ZM18.0806 65.5481C19.7431 65.6515 21.5556 65.5646 23.439 65.3868C23.4723 65.4323 23.5015 65.4819 23.539 65.5274C24.9223 75.6671 28.3348 85.0417 33.0806 92.8325C30.8181 93.0806 28.689 93.1385 26.6806 93.0476C23.0098 90.2728 19.6515 87.1962 16.7765 83.8259C15.1515 81.9196 13.6806 79.9223 12.3723 77.8629C13.1431 73.8145 15.164 69.6668 18.0806 65.5481ZM92.7931 23.4388C96.9639 22.9921 100.726 23.0583 103.906 23.7282C105.26 24.9316 106.531 26.1887 107.726 27.4913C108.397 28.9635 109.01 30.4811 109.556 32.0318C110.768 35.4765 111.635 39.099 112.231 42.8042C111.106 45.2812 109.576 47.8244 107.597 50.4048C106.414 50.351 105.189 50.3551 103.901 50.4461C102.822 48.7217 101.647 47.018 100.381 45.3349C99.1973 39.7275 97.5306 34.2731 95.3681 29.2405C94.5431 27.3176 93.6306 25.4857 92.6723 23.6993C92.7181 23.6124 92.7473 23.5256 92.7931 23.4388ZM92.5306 24.0011C93.4473 25.7256 94.3264 27.4996 95.1223 29.348C97.2056 34.1946 98.8348 39.4298 100.01 44.818C96.3889 40.0873 92.0348 35.584 87.0556 31.5025C87.4848 31.0187 87.9473 30.5349 88.3473 30.051C90.0389 28.0124 91.4514 25.9861 92.5306 24.0011ZM23.7931 65.3537C24.214 65.3083 24.614 65.3 25.0431 65.2421C30.964 64.4647 37.739 62.4508 44.6806 59.6223C46.5848 64.5184 48.7223 69.3484 51.0015 73.984C46.9806 77.0813 43.3556 80.2862 40.3515 83.4951C34.1765 78.1606 28.5723 72.1314 24.0806 65.85C23.9806 65.7135 23.9015 65.5729 23.8056 65.4406C23.8015 65.4116 23.7973 65.3827 23.7931 65.3537ZM23.864 66.0112C28.3681 72.3051 33.9765 78.3467 40.164 83.6936C39.139 84.7977 38.164 85.9018 37.2931 86.9977C35.7473 88.9495 34.4723 90.8848 33.4973 92.7705C33.4556 92.7746 33.4098 92.7829 33.3681 92.7912C28.689 85.1451 25.2973 75.9607 23.864 66.0112ZM10.0265 74.3273C10.6556 75.543 11.3431 76.7422 12.0848 77.9167C11.9056 78.8884 11.8098 79.8437 11.7723 80.8031C11.0473 78.7106 10.464 76.5479 10.0265 74.3273ZM86.8723 31.7051C92.0014 35.9024 96.4514 40.5546 100.126 45.43C100.497 47.1958 100.81 48.9698 101.076 50.7563C100.731 50.8018 100.406 50.8224 100.051 50.8803C94.0848 51.7983 87.3348 53.928 80.4556 56.8392C78.6515 52.0961 76.664 47.3488 74.5473 42.7545C79.3098 39.1817 83.5139 35.4393 86.8723 31.7051ZM104.372 23.8151C104.501 23.844 104.647 23.8564 104.772 23.8895C105.231 24.0053 105.676 24.1417 106.11 24.2865C106.535 25.0681 106.943 25.862 107.326 26.6684C106.393 25.6883 105.401 24.7372 104.372 23.8151ZM106.489 24.423C109.468 25.4981 111.735 27.2556 113.068 29.807C113.926 31.6514 114.264 33.628 114.156 35.7081C112.418 32.7679 110.339 29.9683 107.943 27.3548C107.489 26.3583 107.001 25.3782 106.489 24.423ZM44.9306 59.5272C46.6806 58.8118 48.4348 58.055 50.1931 57.2404C52.7973 61.144 55.5181 65.0022 58.264 68.7984C55.8098 70.4236 53.4556 72.1025 51.214 73.8186C48.9431 69.2037 46.8265 64.3985 44.9306 59.5272ZM74.3223 42.9158C76.4306 47.4936 78.4098 52.2202 80.2056 56.9468C78.8723 57.5133 77.5348 58.1129 76.1973 58.7415C73.6598 54.9246 70.939 51.0788 68.139 47.2578C70.2765 45.8519 72.339 44.4004 74.3223 42.9158ZM12.2973 78.264C13.5681 80.2448 15.0015 82.1636 16.5681 83.9996C19.3723 87.2872 22.6473 90.3017 26.214 93.031C24.639 92.9359 23.1223 92.7705 21.7431 92.4397C19.5431 91.9145 17.6265 91.0709 16.0223 89.8965C14.4306 87.2541 13.0806 84.438 12.0098 81.4771C12.0098 80.4144 12.1098 79.3475 12.2973 78.264ZM50.4431 57.1287C53.414 55.7434 56.3806 54.2299 59.2973 52.6089C62.2431 50.9713 65.1348 49.2304 67.9181 47.4108C70.7098 51.2236 73.4181 55.0528 75.9473 58.8572C72.4973 60.4783 69.0515 62.2564 65.6931 64.1917C63.2306 65.6101 60.8306 67.1154 58.489 68.6537C55.7515 64.8699 53.0431 61.02 50.4431 57.1287ZM12.0348 82.3042C12.989 84.8019 14.1306 87.1962 15.4556 89.4664C14.3348 88.5443 13.3806 87.4402 12.6348 86.1334C12.6306 86.1251 12.6265 86.1169 12.6223 86.1086C12.6223 86.1045 12.6181 86.1045 12.6181 86.1045C12.6181 86.1003 12.6181 86.1003 12.614 86.0962C12.2723 84.8515 12.0931 83.5861 12.0348 82.3042ZM108.239 28.0661C110.501 30.6093 112.476 33.322 114.122 36.1588C113.993 37.7343 113.622 39.3595 113.01 41.0343C112.851 41.4602 112.622 41.9027 112.435 42.3369C111.839 38.7682 110.976 35.278 109.806 31.9533C109.335 30.6258 108.797 29.3398 108.239 28.0661ZM113.401 29.9228C117.951 37.9535 120.264 46.6376 120.564 55.2926C120.076 50.0946 118.697 44.938 116.443 40.0542C115.822 38.7144 115.139 37.3952 114.389 36.1009C114.56 33.9299 114.256 31.854 113.401 29.9228ZM14.114 88.5774C14.6306 89.1273 15.2056 89.6236 15.814 90.0743C16.5723 91.3273 17.3765 92.5472 18.239 93.7216C19.889 95.9712 21.739 98.0554 23.7431 99.9783C20.1015 96.6866 16.8515 92.8739 14.114 88.5774ZM16.389 90.4837C17.914 91.4886 19.6848 92.2247 21.6765 92.7002C23.1806 93.06 24.8431 93.2336 26.5723 93.3164C28.2681 94.5941 30.0181 95.8099 31.8431 96.9388C31.714 97.4392 31.6015 97.9354 31.5223 98.4234C31.0056 101.694 31.7765 104.713 34.1015 107.265C27.9556 103.903 22.6098 99.2215 18.4556 93.5645C17.7265 92.572 17.0431 91.5382 16.389 90.4837ZM114.356 36.5971C115.018 37.7674 115.639 38.9542 116.197 40.1617C118.868 45.947 120.314 52.1168 120.481 58.2783C119.285 54.8005 116.776 52.5592 113.343 51.389C113.247 48.5025 112.947 45.6451 112.497 42.829C112.751 42.2583 113.047 41.6876 113.251 41.1253C113.818 39.5787 114.193 38.0652 114.356 36.5971ZM65.8223 64.4233C69.1931 62.4839 72.6431 60.7016 76.1015 59.0764C78.9265 63.3399 81.4765 67.4875 83.8473 71.5194C80.4306 73.831 76.8806 76.0516 73.2348 78.111C71.4515 79.1241 69.6473 80.0877 67.8348 81.0264C64.8056 77.2219 61.7181 73.1115 58.6473 68.8728C60.9806 67.3345 63.3681 65.8376 65.8223 64.4233ZM58.4181 69.0176C61.4806 73.2521 64.564 77.346 67.589 81.1463C64.289 82.8417 60.9681 84.3925 57.664 85.7902C57.5973 85.6785 57.5265 85.5751 57.4598 85.4635C55.3473 81.8824 53.2931 78.0407 51.3348 74.0667C53.5848 72.3382 55.9515 70.651 58.414 69.0176L58.4181 69.0176ZM76.3473 58.9689C77.6681 58.3486 78.989 57.7531 80.3056 57.1949C82.0473 61.7891 83.5848 66.371 84.9015 70.804C84.6265 70.9942 84.3473 71.1844 84.0723 71.3705C81.7056 67.3511 79.1598 63.2158 76.3473 58.9689ZM80.5515 57.0956C87.414 54.1885 94.1514 52.0589 100.089 51.1408C100.439 51.0871 100.764 51.0664 101.11 51.0209C101.401 53.0058 101.622 54.9908 101.781 56.9881C97.1181 61.6858 91.3973 66.3255 85.1348 70.6469C83.8223 66.2304 82.2848 61.6692 80.5515 57.0956ZM100.497 45.9552C101.601 47.4439 102.635 48.9533 103.593 50.4751C102.864 50.5288 102.101 50.6322 101.343 50.7315C101.101 49.127 100.822 47.539 100.497 45.9552ZM51.114 74.2363C53.0723 78.1978 55.1181 82.023 57.2265 85.5917C57.289 85.6951 57.3473 85.7943 57.4098 85.8977C54.1931 87.2499 51.014 88.4367 47.9015 89.4457C45.3806 87.6469 42.9223 85.7199 40.5473 83.6771C43.5265 80.4971 47.1223 77.3129 51.114 74.2363ZM40.3556 83.8673C42.689 85.8729 45.1056 87.771 47.5806 89.545C43.7056 90.7897 39.939 91.778 36.4015 92.3818C35.5223 92.5307 34.6806 92.6216 33.8265 92.7291C34.7806 90.9138 36.0056 89.0529 37.4973 87.1672C38.364 86.0714 39.3306 84.9714 40.3556 83.8673ZM112.293 43.3045C112.697 45.9387 112.972 48.6059 113.064 51.3021C111.514 50.8059 109.768 50.5412 107.889 50.4337C109.726 48.0229 111.193 45.6368 112.293 43.3045ZM101.381 50.992C102.176 50.8927 102.985 50.7769 103.751 50.719C104.272 51.5544 104.776 52.3938 105.251 53.2333C105.11 53.3987 104.993 53.56 104.847 53.7254C103.968 54.722 103.018 55.7227 102.039 56.7193C101.881 54.8047 101.66 52.8983 101.381 50.992ZM27.0306 93.3329C28.9848 93.3991 31.0431 93.3205 33.2223 93.0724C33.2431 93.1096 33.264 93.1468 33.2848 93.1799C32.6973 94.3708 32.2431 95.5328 31.9181 96.6783C30.2306 95.6321 28.6056 94.5032 27.0306 93.3329ZM104.064 50.7108C105.218 50.6363 106.331 50.6157 107.397 50.6529C106.785 51.4386 106.114 52.2284 105.439 53.0141C105.001 52.245 104.543 51.4758 104.064 50.7108ZM107.714 50.6818C109.676 50.7811 111.489 51.0664 113.085 51.5875C113.251 57.1452 112.718 62.7526 111.568 68.1822C110.631 64.1917 109.131 60.0978 107.085 56.0204C106.622 55.1024 106.093 54.1844 105.576 53.2664C106.318 52.4021 107.051 51.542 107.714 50.6818ZM33.6723 93.0103C34.589 92.8987 35.5056 92.7995 36.4556 92.634C40.0598 92.0179 43.9015 91.0089 47.8515 89.7352C49.9931 91.2611 52.164 92.7209 54.3723 94.0359C57.6348 95.9795 60.9473 97.6418 64.2598 99.0313C62.1265 101.277 60.5223 103.456 59.7098 105.437C59.5431 105.846 59.4223 106.247 59.3223 106.64C52.314 105.685 45.3765 103.526 38.914 100.45C37.0848 98.3283 35.364 96.0125 33.7931 93.5149C33.7223 93.4073 33.6681 93.2874 33.5973 93.1799C33.6265 93.122 33.6431 93.0682 33.6723 93.0103ZM33.4681 93.4859C33.5015 93.5397 33.5306 93.6017 33.564 93.6596C35.039 95.996 36.6515 98.1587 38.3473 100.173C36.2306 99.1388 34.1598 98.0388 32.164 96.8106C32.4681 95.7313 32.9223 94.6148 33.4681 93.4859ZM105.393 53.4855C105.893 54.3705 106.401 55.2513 106.847 56.1404C108.985 60.4038 110.51 64.6797 111.426 68.8273C111.222 69.7371 111.047 70.6551 110.806 71.5566C110.056 74.3727 109.085 77.1061 107.968 79.7527C106.414 78.7726 104.26 78.4625 101.735 78.6651C101.476 78.6858 101.197 78.7437 100.935 78.7768C101.526 75.8325 101.951 72.8055 102.172 69.7123C102.468 65.5688 102.401 61.326 102.068 57.0832C103.118 56.0246 104.118 54.9577 105.056 53.8991C105.176 53.7585 105.276 53.622 105.393 53.4814L105.393 53.4855ZM101.814 57.3272C102.131 61.4831 102.189 65.6391 101.901 69.6957C101.681 72.8096 101.251 75.8531 100.656 78.814C97.4848 79.2234 93.8098 80.344 89.9598 81.965C88.9015 79.8892 87.764 77.7512 86.5098 75.5141C86.2056 74.3562 85.8973 73.1942 85.5556 72.0074C85.4515 71.6476 85.3306 71.2754 85.2265 70.9115C91.4556 66.615 97.1473 62.0042 101.814 57.3272ZM32.089 97.0794C34.2348 98.3945 36.4681 99.5895 38.7598 100.681C42.2431 104.713 46.1556 107.976 50.3181 110.354C46.6598 110.759 43.3806 110.734 40.664 110.225C38.6473 109.493 36.6973 108.621 34.814 107.633C32.1265 105.023 31.2515 101.909 31.7931 98.4606C31.8681 98.0057 31.9681 97.5426 32.089 97.0794ZM113.356 51.6784C116.776 52.8735 119.231 55.1066 120.343 58.6587C120.214 64.9526 117.301 71.172 112.643 77.0152C112.622 74.3769 112.314 71.6476 111.701 68.848C112.943 63.2406 113.522 57.4347 113.356 51.6784ZM48.1806 89.636C51.2515 88.6311 54.3848 87.4526 57.5556 86.121C60.1473 90.4672 62.8015 94.4205 65.4306 97.861C65.0973 98.1835 64.7723 98.5061 64.464 98.8245C61.1306 97.4309 57.7973 95.7603 54.514 93.8043C52.3681 92.5306 50.2598 91.1123 48.1806 89.636ZM57.8098 86.0135C61.1181 84.6158 64.4473 83.0568 67.7556 81.3572C67.9806 81.6425 68.214 81.9609 68.439 82.2421C70.7223 85.083 72.9348 87.7213 75.0681 90.1363C71.5098 92.5472 68.2598 95.1193 65.6265 97.6625C63.0223 94.2509 60.3806 90.3266 57.8098 86.0135ZM84.9931 71.0728C85.0931 71.4078 85.2015 71.751 85.2973 72.0859C85.5431 72.9378 85.7556 73.7648 85.9848 74.6043C85.4306 73.6284 84.7973 72.607 84.214 71.6062C84.4723 71.4284 84.7348 71.2506 84.9931 71.0728ZM83.989 71.7551C84.7098 72.9833 85.4973 74.2528 86.1681 75.4479C86.1973 75.5017 86.2223 75.5513 86.2515 75.605C86.9098 78.1069 87.4723 80.526 87.9348 82.8583C85.4306 84.0037 82.8931 85.3146 80.4056 86.7661C79.339 87.3864 78.2806 88.0315 77.2431 88.6931C76.5806 89.1149 75.939 89.5491 75.2931 89.9833C73.1598 87.5642 70.939 84.9218 68.6515 82.0767C68.439 81.8079 68.214 81.5061 68.0015 81.2373C69.8015 80.3068 71.5973 79.3475 73.3765 78.3426C77.0181 76.2791 80.5723 74.0626 83.989 71.7551ZM39.3973 100.987C45.7015 103.923 52.4473 105.974 59.2598 106.909C59.1265 107.538 59.089 108.141 59.1598 108.716C57.464 109.134 55.8015 109.514 54.2015 109.799C53.0223 110.01 51.8765 110.176 50.7598 110.308C46.6806 108.03 42.8431 104.879 39.3973 100.987ZM86.8223 76.6595C87.8473 78.5121 88.8223 80.3275 89.7098 82.0684C89.2015 82.2835 88.6973 82.5068 88.1848 82.7383C87.789 80.77 87.3515 78.752 86.8223 76.6595ZM120.501 59.9779C120.497 60.3294 120.485 60.6767 120.472 61.0282C120.206 64.9237 119.547 68.7819 118.485 72.5408C118.476 72.5573 118.472 72.578 118.468 72.5946C116.989 77.2095 114.672 81.6342 111.526 85.6826C112.293 83.1105 112.631 80.3358 112.643 77.4411C117.126 71.8957 120.018 65.9906 120.497 59.9779L120.501 59.9779ZM80.5431 86.9935C83.0015 85.5586 85.514 84.2684 87.9848 83.1353C88.939 87.9943 89.4598 92.4273 89.4098 96.1366C87.6806 97.1539 85.9181 98.1215 84.1431 99.0478C81.5973 96.8024 78.6515 93.7836 75.4723 90.1901C76.1098 89.7642 76.7348 89.33 77.3848 88.9164C78.4223 88.2548 79.4806 87.6138 80.5431 86.9935ZM111.556 69.4931C112.106 72.1893 112.376 74.8152 112.376 77.3501C111.401 78.5493 110.368 79.7403 109.256 80.9064C108.951 80.526 108.585 80.2117 108.193 79.9305C109.326 77.2509 110.31 74.4802 111.072 71.6269C111.26 70.9239 111.389 70.2044 111.556 69.4931ZM75.2515 90.339C78.4098 93.9118 81.339 96.9264 83.8931 99.1801C83.5223 99.3745 83.1515 99.5771 82.7765 99.7674C80.8306 100.752 78.864 101.661 76.9015 102.534C73.8056 102.025 70.639 101.165 67.4515 100.011C66.9015 99.3373 66.3431 98.6095 65.789 97.8858C68.4223 95.3385 71.6848 92.7581 75.2515 90.339ZM88.239 83.0113C88.7765 82.7714 89.3098 82.5399 89.8431 82.3124C91.8306 86.2202 93.4473 89.8014 94.6056 92.8904C92.9931 93.9573 91.3556 94.9952 89.6765 95.9877C89.714 92.2577 89.1931 87.8454 88.239 83.0113ZM90.0931 82.209C93.8848 80.617 97.4931 79.5046 100.601 79.0869C99.6806 83.5447 98.3265 87.7792 96.4931 91.6333C95.9515 92.0096 95.3931 92.3694 94.839 92.7374C93.6806 89.6484 92.064 86.092 90.0931 82.209ZM40.6515 110.498C40.6681 110.502 40.6848 110.507 40.7015 110.507C45.8098 112.347 51.3015 113.343 57.0098 113.331C57.564 113.505 58.1181 113.662 58.6765 113.798C60.8556 114.336 63.0723 114.605 65.3098 114.605C56.8306 115.035 48.4098 113.612 40.6515 110.498ZM42.1015 110.713C44.6265 111.011 47.5265 110.953 50.7056 110.577C52.4973 111.569 54.3223 112.425 56.1931 113.062C51.2931 112.988 46.5556 112.173 42.1015 110.713ZM65.5931 98.0802C66.0431 98.6632 66.4973 99.2546 66.9431 99.8087C66.2098 99.5358 65.4765 99.238 64.7431 98.9362C65.0181 98.6508 65.3015 98.3655 65.5931 98.0802ZM64.5348 99.1347C65.4515 99.5151 66.3681 99.9038 67.2806 100.235C68.6848 101.947 70.0723 103.46 71.4265 104.812C69.1723 105.681 66.9306 106.471 64.7348 107.157C63.0181 107.078 61.2973 106.913 59.5806 106.686C59.6765 106.313 59.789 105.933 59.9515 105.536C60.7515 103.584 62.3765 101.393 64.5348 99.1347ZM100.885 79.0497C101.172 79.0125 101.481 78.9587 101.76 78.9381C104.276 78.7354 106.376 79.058 107.864 80.0173C107.256 81.4357 106.61 82.8335 105.897 84.1857C103.164 86.6834 100.151 89.0777 96.9431 91.3231C98.6973 87.5394 99.989 83.3959 100.885 79.0497ZM67.8265 100.441C70.7306 101.467 73.6181 102.24 76.4556 102.732C74.8681 103.427 73.289 104.097 71.7098 104.713C70.439 103.452 69.1431 102.029 67.8265 100.441ZM51.1473 110.536C52.1556 110.407 53.1931 110.25 54.2515 110.06C55.8473 109.779 57.5056 109.402 59.1931 108.985C59.3931 110.039 59.9765 110.966 60.9931 111.714C61.5056 112.09 62.1306 112.413 62.864 112.698C60.9098 112.938 58.9765 113.066 57.064 113.075C55.0515 112.45 53.0723 111.578 51.1473 110.536ZM59.5223 106.95C61.0306 107.149 62.5348 107.285 64.0431 107.376C62.4723 107.856 60.939 108.269 59.4223 108.65C59.3598 108.116 59.3973 107.55 59.5223 106.95ZM108.093 80.1869C108.456 80.4515 108.789 80.7493 109.068 81.1008C108.96 81.2124 108.872 81.3241 108.764 81.4357C108.047 82.1677 107.289 82.8872 106.522 83.6067C107.089 82.4902 107.597 81.3406 108.093 80.1869ZM112.372 77.7719C112.331 80.6914 111.96 83.491 111.135 86.0631C111.11 86.1458 111.076 86.2285 111.047 86.3112C110.856 86.5511 110.643 86.7826 110.443 87.0183C110.776 84.4173 110.389 82.4778 109.41 81.1215C110.464 80.0256 111.443 78.905 112.372 77.7719ZM59.4515 108.923C61.1848 108.489 62.9473 107.997 64.7515 107.43C67.839 107.575 70.9098 107.48 73.939 107.12C74.8265 107.868 75.7015 108.542 76.5473 109.084C72.1556 110.887 67.7765 112.041 63.4765 112.62C62.5348 112.31 61.7556 111.937 61.1556 111.499C60.1765 110.784 59.6348 109.915 59.4515 108.923ZM109.222 81.3282C110.176 82.6846 110.547 84.653 110.131 87.3864C106.56 91.5382 102.039 95.2351 96.5348 98.2786C96.464 97.9685 96.414 97.6749 96.3265 97.3441C100.281 93.6596 103.543 89.2307 106.126 84.3387C107.106 83.4455 108.051 82.5399 108.956 81.6177C109.047 81.5226 109.126 81.4233 109.222 81.3282ZM116.851 77.4245C115.064 82.0974 112.647 86.5593 109.647 90.6739L109.647 90.6615C109.743 90.3472 109.81 90.0578 109.889 89.7559C110.443 88.6849 110.91 87.5642 111.297 86.398C113.564 83.5778 115.41 80.5632 116.851 77.4245ZM65.4765 107.198C67.5015 106.549 69.5556 105.83 71.6265 105.027C72.314 105.701 72.9931 106.309 73.6598 106.88C70.9598 107.186 68.2223 107.294 65.4765 107.198ZM105.556 84.8473C103.064 89.4251 99.9598 93.5645 96.2473 97.0546C96.0181 96.2069 95.739 95.2889 95.4056 94.3253C95.864 93.5066 96.2973 92.663 96.7098 91.8028C99.8681 89.6111 102.835 87.283 105.556 84.8473ZM71.914 104.92C73.5848 104.267 75.264 103.551 76.9431 102.807C80.7015 103.411 84.3598 103.506 87.8306 103.001C87.7431 103.059 87.6598 103.117 87.5765 103.175C83.2681 105.077 78.7056 106.272 74.0265 106.835C73.3348 106.247 72.6306 105.619 71.914 104.916L71.914 104.92ZM57.9098 113.306C59.7265 113.269 61.5681 113.133 63.4265 112.884C65.1598 113.455 67.5348 113.761 70.4723 113.823C66.5181 114.613 62.5723 114.485 58.739 113.542C58.4598 113.472 58.1848 113.385 57.9098 113.306ZM77.4015 102.608C79.239 101.785 81.0765 100.925 82.8973 100.003C83.3015 99.8004 83.7015 99.5771 84.1056 99.3662C85.7056 100.764 87.1556 101.868 88.4098 102.588C88.3806 102.612 88.3473 102.633 88.3181 102.658C84.8515 103.224 81.1806 103.183 77.4015 102.608ZM96.2681 92.0964C95.9556 92.7374 95.6265 93.3701 95.2848 93.9904C95.1681 93.6637 95.0598 93.337 94.9348 92.9938C95.3806 92.7002 95.8265 92.3983 96.2681 92.0964ZM94.7015 93.1509C94.8473 93.5479 94.9765 93.9325 95.1056 94.3129C93.6265 96.9512 91.8973 99.3745 89.914 101.533C89.589 101.773 89.2556 101.996 88.9265 102.228C88.9306 102.215 88.9348 102.203 88.939 102.191C88.939 102.186 88.9348 102.182 88.9348 102.178C89.4098 100.503 89.6473 98.5144 89.689 96.2855C91.3931 95.2806 93.064 94.2344 94.7015 93.1509ZM84.3515 99.2339C86.0598 98.3407 87.7515 97.4144 89.414 96.4385C89.3681 98.5971 89.1306 100.508 88.6765 102.116L88.6765 102.124L88.6681 102.129C88.6515 102.228 88.6223 102.298 88.6015 102.397C87.3765 101.699 85.939 100.619 84.3515 99.2339ZM95.2306 94.6479C95.5431 95.5701 95.8098 96.4467 96.0223 97.2572C94.7765 98.4151 93.4556 99.4944 92.0723 100.495C91.5973 100.706 91.1223 100.921 90.6348 101.124C92.3681 99.1553 93.9015 96.9885 95.2306 94.6479ZM64.0515 112.806C68.264 112.194 72.5431 111.028 76.8348 109.249C77.6598 109.758 78.464 110.172 79.239 110.465C76.7348 111.913 74.2056 112.938 71.6681 113.567C68.489 113.579 65.9223 113.331 64.0515 112.806ZM74.2973 107.078C78.4015 106.566 82.4056 105.565 86.239 104.031C83.1223 106.016 79.9848 107.653 76.8515 108.96C76.8223 108.939 76.7931 108.931 76.764 108.91C75.964 108.402 75.139 107.773 74.2973 107.078ZM110.806 86.9935C110.618 87.5022 110.414 88.0067 110.193 88.4988C110.264 88.1555 110.339 87.804 110.393 87.4773C110.531 87.3161 110.668 87.1548 110.806 86.9935ZM110.035 87.9033C109.935 88.4533 109.801 89.0363 109.643 89.6442C107.164 94.4535 102.976 98.2828 96.8931 100.59C96.8681 100.284 96.8681 100.003 96.8181 99.6681C96.764 99.3207 96.664 98.9196 96.5848 98.5433C101.997 95.5659 106.476 91.9558 110.035 87.9033ZM96.1098 97.5467C96.189 97.8527 96.2223 98.1174 96.2848 98.411C95.3056 98.9444 94.2973 99.4613 93.2556 99.9534C94.2473 99.1925 95.1931 98.3903 96.1098 97.5467ZM90.3806 101.529C90.3931 101.525 90.4015 101.517 90.4098 101.512C90.6265 101.421 90.8306 101.326 91.0431 101.239C90.6556 101.496 90.2598 101.736 89.864 101.98C89.939 101.901 90.0056 101.818 90.0806 101.736C90.1806 101.665 90.2806 101.599 90.3806 101.529ZM77.1556 109.125C80.6765 107.641 84.2015 105.751 87.6973 103.415C87.9181 103.315 88.1431 103.216 88.364 103.113C88.2056 103.266 88.0556 103.427 87.8931 103.58L87.8848 103.58C85.1681 106.409 82.3681 108.621 79.5265 110.296C78.7681 110.027 77.9765 109.618 77.1556 109.125ZM88.9556 102.534C88.9473 102.542 88.939 102.555 88.9265 102.563C88.9223 102.567 88.914 102.567 88.9056 102.567C88.9223 102.554 88.939 102.546 88.9556 102.534ZM92.214 100.718C93.6473 100.077 95.0223 99.3993 96.3431 98.6839C96.4098 99.023 96.5056 99.391 96.5515 99.7053C96.6056 100.061 96.6056 100.363 96.6306 100.685C94.5181 101.463 92.1765 102.062 89.6056 102.455C90.5015 101.909 91.3723 101.33 92.214 100.718ZM88.9473 102.906C90.4181 103.783 91.689 104.395 92.739 104.697C93.3223 104.866 93.8473 104.945 94.3098 104.949C93.9431 105.18 93.5806 105.424 93.2098 105.648C90.6931 107.161 88.0973 108.522 85.5515 109.68C86.9473 108.427 88.0265 106.272 88.7306 103.121C88.8015 103.047 88.8723 102.976 88.9473 102.906ZM89.2681 102.778C91.9806 102.385 94.4348 101.769 96.6556 100.954C96.689 101.69 96.6723 102.36 96.5431 102.881C96.4598 103.224 96.339 103.506 96.1806 103.75C95.7265 104.056 95.2598 104.345 94.7973 104.643C94.264 104.73 93.614 104.676 92.8181 104.444C91.8473 104.167 90.6431 103.584 89.2681 102.778ZM108.66 91.8525C108.543 92.0468 108.456 92.237 108.331 92.4314C108.101 92.7167 107.864 92.9979 107.631 93.2833C107.997 92.8201 108.335 92.3404 108.66 91.8525ZM88.314 103.53C87.4348 107.083 86.0848 109.274 84.3556 110.205C84.0431 110.337 83.739 110.469 83.4306 110.598C82.3515 110.908 81.1431 110.829 79.839 110.411C82.639 108.737 85.3973 106.553 88.0723 103.774C88.0765 103.77 88.0765 103.766 88.0806 103.762C88.1598 103.688 88.2348 103.605 88.314 103.53ZM70.1515 114.158C70.664 114.063 71.1765 113.964 71.6931 113.835C71.8931 113.835 72.0681 113.844 72.2765 113.844C71.564 113.964 70.8598 114.063 70.1515 114.158ZM107.231 93.7671C105.064 96.3557 102.639 98.7707 99.9806 100.991C98.9098 101.827 97.7973 102.641 96.6431 103.427C96.7056 103.278 96.764 103.121 96.8056 102.947C96.9473 102.373 96.9598 101.649 96.914 100.859C101.293 99.2091 104.714 96.7817 107.231 93.7671ZM72.6015 113.579C74.9306 112.922 77.2515 111.933 79.5473 110.589C80.5515 110.937 81.5098 111.081 82.4056 111.024C80.6723 111.71 78.9931 112.276 77.4181 112.707C77.2098 112.76 77.0015 112.81 76.7931 112.864C75.3973 113.215 74.0806 113.476 72.9056 113.583C72.9015 113.583 72.8973 113.583 72.8973 113.583C72.789 113.587 72.7098 113.579 72.6015 113.579Z" fill="#D9D9D9"/>
<path d="M63.0848 1.32754C62.4348 1.33581 61.7806 1.35235 61.1264 1.3813C61.7806 1.35648 62.4431 1.30687 63.0848 1.32754ZM63.0848 1.32754C69.0139 1.26965 74.8889 2.10497 80.5014 3.79215C77.4639 3.10156 74.2139 2.7542 70.7598 2.75834C68.3056 1.93129 65.7556 1.41438 63.0848 1.32754ZM34.6264 8.69658C32.7973 9.73039 31.0473 10.8552 29.3764 12.0503C24.9223 15.0607 21.1931 18.3069 19.0806 21.1975L19.0723 21.2099L19.064 21.214C18.9848 21.367 18.9431 21.4911 18.8681 21.6399C17.5723 22.9549 16.489 24.3651 15.614 25.8579C3.3348 43.2756 1.33064 66.6274 12.3598 86.1417C12.364 86.1624 12.3681 86.183 12.3723 86.2037L12.389 86.2327C12.4223 86.2947 12.4681 86.3443 12.5015 86.4063C12.5265 86.4477 12.5431 86.489 12.5681 86.5304C18.0723 96.0994 26.014 103.439 35.1973 108.269C36.2306 109.063 37.4973 109.659 38.9723 110.089C50.8348 115.262 64.3931 116.432 77.364 113.004C82.1556 111.739 86.864 109.857 91.3765 107.302C92.914 106.433 94.3848 105.499 95.8098 104.523C95.8556 104.49 95.9098 104.461 95.9515 104.424C97.5348 103.328 99.0473 102.17 100.493 100.946C103.831 98.3076 106.672 95.4667 108.518 92.6382C113.276 86.6089 116.735 79.7568 118.764 72.5284C118.768 72.5077 118.772 72.487 118.781 72.4664C119.943 68.7736 120.589 64.965 120.735 61.1316C121.476 50.4296 119.176 39.4381 113.439 29.468C107.285 18.7783 98.0973 10.8634 87.5306 6.1327C87.4056 6.07894 87.2806 6.02519 87.1556 5.97143C77.3639 1.67076 66.4098 0.0993696 55.5764 1.60047C55.5681 1.60047 55.5598 1.6046 55.5556 1.6046C51.2473 1.78655 46.1306 3.32901 41.0556 5.57032C38.8806 6.47594 36.7306 7.50562 34.6264 8.69658ZM33.7848 9.57739C34.6806 9.05221 35.5973 8.53944 36.5223 8.05148C37.8681 7.34021 39.2348 6.6827 40.6056 6.06241C40.8431 5.95903 41.0848 5.86806 41.3264 5.76881C39.7931 6.86879 38.4889 8.89093 37.4223 11.8104C37.4098 11.8187 37.3973 11.827 37.3848 11.8394C37.1764 11.889 36.9764 11.9262 36.7681 11.98L36.7348 11.9841L36.7098 12.0048C36.5598 12.1371 36.4181 12.2653 36.2723 12.3976C35.014 11.8807 33.8765 11.5003 32.9681 11.3928C32.0181 11.277 31.2348 11.3804 30.6389 11.6946C30.4389 11.798 30.2556 11.9262 30.0931 12.0792C29.4514 12.6788 29.1431 13.6175 29.1098 14.8292C29.1056 14.9077 29.1306 15.0111 29.1306 15.0938C27.5556 15.7265 26.0681 16.4088 24.739 17.1656C23.3348 17.9637 22.1015 18.8404 20.9598 19.7625C23.5806 16.9754 26.5098 14.4156 29.7389 12.133C29.7514 12.1247 29.7639 12.1123 29.7764 12.104C31.0681 11.2398 32.3973 10.3879 33.7848 9.57739ZM30.7639 11.9262C31.3056 11.645 32.0181 11.5458 32.9348 11.6533C33.7848 11.7567 34.8681 12.1123 36.0598 12.5961C35.9014 12.7367 35.7514 12.8773 35.5931 13.0179C33.3473 13.5803 31.2764 14.2378 29.3931 14.9822C29.3931 14.9408 29.3765 14.8829 29.3765 14.8374C29.4098 13.6672 29.7098 12.8029 30.2806 12.2694C30.4265 12.1371 30.5848 12.0213 30.7639 11.9262ZM42.0973 5.58686C42.3806 5.43386 42.6639 5.31393 42.9556 5.21469C44.2056 4.79289 45.5681 4.87146 47.0181 5.37183C46.7806 5.49588 46.5473 5.59099 46.3098 5.71919C43.5473 7.21201 40.7139 9.14318 37.8264 11.4796C39.0014 8.44019 40.4389 6.48835 42.0973 5.58686ZM44.0389 4.72259C47.8598 3.36209 51.7514 2.41098 55.6639 1.87339C55.9806 1.86099 56.2681 1.8858 56.5764 1.88993C53.6056 2.48955 50.5181 3.60607 47.3473 5.21468C46.1973 4.78462 45.0889 4.6068 44.0389 4.72259ZM22.0806 18.2159C21.9181 18.3814 21.7515 18.5426 21.589 18.708C21.7515 18.5426 21.914 18.3814 22.0806 18.2159ZM24.8765 17.3848C26.1723 16.6487 27.6181 15.9912 29.1514 15.3709C29.1723 16.0077 29.2515 16.7107 29.3931 17.4799C24.0515 21.429 19.7223 25.4775 16.2806 29.5714C16.6056 27.5161 17.5265 24.9481 19.0556 21.8839C19.1973 21.7185 19.3348 21.5572 19.4765 21.3918C20.9931 19.9321 22.764 18.5798 24.8765 17.3848ZM29.4056 15.2634C31.1681 14.5645 33.089 13.9442 35.1681 13.4025C35.0265 13.5348 34.8848 13.6589 34.7431 13.7912C32.9556 14.9491 31.2389 16.1194 29.6306 17.302C29.4931 16.5536 29.4181 15.8754 29.4056 15.2634ZM46.4306 5.94663C46.7431 5.77708 47.0473 5.66129 47.3556 5.50002C48.1223 5.79775 48.9181 6.25677 49.7264 6.78195C46.2056 8.03907 42.5431 9.61046 38.7265 11.521C38.4765 11.5788 38.2223 11.6367 37.9681 11.6988C40.8556 9.36235 43.6806 7.43945 46.4306 5.94663ZM47.6806 5.33874C51.2514 3.55231 54.6931 2.44406 58.0014 1.93956C60.0014 2.29519 61.6139 2.78315 62.8973 3.3745C58.8556 3.98651 54.5681 5.06995 50.0389 6.66616C49.2389 6.13685 48.4473 5.65716 47.6806 5.33874ZM36.8765 12.2239C36.889 12.2239 36.9014 12.2198 36.9139 12.2157C36.8348 12.286 36.7514 12.348 36.6681 12.4183C36.7389 12.3563 36.8015 12.2901 36.8765 12.2239ZM18.3681 22.7316C17.0265 25.5808 16.2098 28.0041 15.9681 29.9559C14.9723 31.1593 14.0348 32.3627 13.1931 33.5743C13.5723 30.998 14.3848 28.5624 15.6473 26.3045C16.5015 25.0805 17.414 23.8937 18.3681 22.7316ZM36.3389 12.7119C36.3514 12.7202 36.3723 12.7243 36.3848 12.7326C36.314 12.7739 36.2515 12.8236 36.1806 12.869C36.1765 12.869 36.1723 12.869 36.164 12.869C36.2265 12.8194 36.2806 12.7657 36.3389 12.7119ZM37.614 12.0503C37.6515 12.042 37.6889 12.0379 37.7223 12.0255C37.6806 12.0503 37.639 12.0709 37.5973 12.0916C37.6056 12.0792 37.6098 12.0668 37.614 12.0503ZM37.0514 12.6664C37.0723 12.6582 37.0973 12.6499 37.1181 12.6375C37.1139 12.6499 37.1098 12.6582 37.1056 12.6664C37.0889 12.6664 37.0681 12.6706 37.0514 12.6664ZM37.4639 12.4597C37.9181 12.224 38.3681 12.0006 38.8223 11.7732C43.7848 10.6195 48.5389 9.84204 53.0889 9.42024C53.5056 9.80896 53.9306 10.2638 54.3473 10.698C52.1098 11.6119 49.8723 12.6209 47.6598 13.7168C44.3264 13.1792 40.9014 12.8277 37.3806 12.6871C37.4056 12.6085 37.4348 12.5382 37.4639 12.4597ZM36.0348 13.2743C34.0931 16.1152 32.389 19.0016 30.9056 21.917C30.564 20.9493 30.2723 20.0313 30.0431 19.1795C30.0098 19.0637 29.9973 18.9686 29.9681 18.8528C31.5348 17.2193 33.1973 15.5942 34.9598 13.9732C35.3181 13.7416 35.6681 13.5059 36.0348 13.2743ZM36.4931 13.0593C36.6348 13.0262 36.764 12.989 36.9098 12.9559C36.9348 12.9683 36.9556 12.9766 36.9806 12.989C36.9681 13.0427 36.9514 13.0799 36.9348 13.1337L36.9265 13.1337L36.9264 13.1461C36.4598 15.3419 36.2181 17.728 36.1431 20.2298C34.5556 21.2471 33.0015 22.2974 31.4806 23.3643C31.3348 22.9922 31.1681 22.6076 31.0348 22.2478C32.6015 19.1464 34.4056 16.0739 36.4931 13.0593ZM39.8306 11.2646C43.3514 9.5443 46.7389 8.12177 50.0014 6.9639C50.3306 7.18307 50.6514 7.35262 50.9848 7.609C51.5848 8.06801 52.1973 8.61387 52.8139 9.1804C48.6556 9.57738 44.3306 10.2597 39.8306 11.2646ZM33.5806 14.8622C32.2931 16.078 31.0764 17.3062 29.9014 18.5344C29.8223 18.2077 29.7556 17.8934 29.6931 17.5874C30.939 16.6735 32.2265 15.7637 33.5806 14.8622ZM37.2348 13.0924C37.3806 13.1627 37.4931 13.1916 37.6431 13.266C37.6473 13.2702 37.6514 13.2702 37.6556 13.2743C38.9806 14.4198 40.3181 15.6438 41.6556 16.9051C41.2639 17.1284 40.8681 17.3434 40.4764 17.575C39.2889 18.2656 38.1098 18.9768 36.9515 19.7046C36.7765 19.8163 36.6056 19.9321 36.4306 20.0437C36.5139 17.6329 36.739 15.3295 37.189 13.2123C37.2015 13.1668 37.2223 13.1378 37.2348 13.0924ZM37.5848 12.9559C40.8889 13.0924 44.1098 13.4273 47.2431 13.9194C45.4431 14.8209 43.6598 15.7761 41.8973 16.7686C40.5306 15.4825 39.1723 14.2337 37.8223 13.0675L37.8098 13.0593L37.7931 13.0427C37.7181 13.0055 37.6598 12.989 37.5848 12.9559ZM57.6139 1.64182C58.2598 1.57152 58.9056 1.50536 59.5514 1.45987C59.0473 1.50949 58.5348 1.59633 58.0264 1.6749C57.9764 1.66663 57.9348 1.65423 57.8848 1.64596L57.8764 1.64596C57.7931 1.63769 57.6973 1.64596 57.6139 1.64182ZM29.4515 17.7693C29.5223 18.096 29.5848 18.4186 29.6723 18.7701C24.5431 24.15 20.4598 29.6086 17.3181 35.0464C16.8306 34.4675 16.4723 33.7686 16.289 32.9085C16.114 32.098 16.1015 31.1386 16.2306 30.0511C19.6765 25.8951 24.039 21.7805 29.4515 17.7693ZM58.7764 1.83204C62.7014 1.33995 66.4264 1.69144 69.9181 2.76247C67.8139 2.80383 65.6306 2.9775 63.3723 3.30005C62.1639 2.69631 60.6348 2.20835 58.7764 1.83204ZM50.3139 6.84811C54.9056 5.2395 59.2431 4.16846 63.3223 3.57712C64.8556 4.35455 65.8681 5.28912 66.4098 6.35188C66.4723 6.47594 66.5098 6.60826 66.5598 6.73232C66.4306 6.76127 66.3056 6.78194 66.1806 6.81089C63.9473 7.34434 61.6806 8.01425 59.4056 8.79168C57.3806 8.83717 55.3056 8.95296 53.1848 9.14318C52.5014 8.50635 51.8181 7.91087 51.1473 7.3981C50.8639 7.18307 50.5931 7.03833 50.3139 6.84811ZM29.7473 19.0926C29.7598 19.1505 29.7681 19.196 29.7806 19.2498C30.0348 20.1761 30.3681 21.1809 30.7515 22.2354C30.3306 23.0707 29.9265 23.9102 29.539 24.7538C25.2431 27.9049 21.3056 31.2255 17.9056 34.5543C20.9598 29.3894 24.889 24.2079 29.7473 19.0926ZM14.5348 27.9752C13.7181 29.8319 13.1515 31.7796 12.8723 33.8224C12.8598 33.9092 12.8598 34.0002 12.8515 34.0871C9.31396 39.2934 7.14313 44.5327 6.15147 49.6894C7.4098 42.0144 10.2515 34.6081 14.5348 27.9752ZM15.9181 30.4274C15.8348 31.3702 15.8681 32.2221 16.0265 32.9623C16.2306 33.8968 16.6223 34.666 17.1681 35.2946C15.9181 36.5434 14.7265 37.7964 13.6473 39.037C13.4306 39.2851 13.2431 39.5249 13.0348 39.773C12.8681 37.8543 12.889 35.9851 13.1098 34.178C13.964 32.9251 14.8973 31.6762 15.9181 30.4274ZM63.7764 3.50682C66.1848 3.176 68.4931 3.02713 70.7264 3.02299C71.1306 3.15945 71.5389 3.27524 71.9389 3.42825C73.3014 3.96583 74.6181 4.62334 75.9014 5.37182C72.9681 5.52483 69.9306 5.9673 66.8264 6.67443C66.7681 6.52556 66.7223 6.37669 66.6473 6.23195C66.1139 5.18573 65.1723 4.27184 63.7764 3.50682ZM53.4681 9.39129C55.2181 9.23829 56.9514 9.11837 58.6389 9.06461C57.3014 9.53603 55.9598 10.0447 54.6181 10.5905C54.2348 10.1894 53.8473 9.75519 53.4681 9.39129ZM30.8806 22.5662C30.9931 22.8764 31.1306 23.2031 31.2556 23.5256C30.8306 23.8233 30.4015 24.117 29.9848 24.4188C30.2723 23.7985 30.5723 23.1824 30.8806 22.5662ZM40.6098 17.8024C41.0223 17.5626 41.4431 17.331 41.8598 17.0953C44.8639 19.9362 47.8806 23.0335 50.8806 26.3376C48.9514 27.5864 46.9431 28.7857 44.8973 29.8898C42.4223 31.2296 39.9098 32.4164 37.4431 33.4502C36.6723 28.827 36.3056 24.423 36.414 20.3745C36.6431 20.2298 36.864 20.0727 37.0973 19.9279C38.2515 19.2001 39.4264 18.493 40.6098 17.8024ZM42.0973 16.963C43.9431 15.9209 45.8139 14.9243 47.7014 13.9897C51.7848 14.6596 55.7014 15.6273 59.4764 16.8265C59.9098 17.4178 60.3473 18.0092 60.7848 18.6336C58.114 21.2099 54.7931 23.8027 51.114 26.197C48.1181 22.8929 45.1015 19.8039 42.0973 16.963ZM36.1265 20.5606C36.0348 24.5966 36.414 28.9759 37.1848 33.5577C36.9181 33.6653 36.6556 33.7686 36.3931 33.872C34.4098 30.1131 32.7681 26.656 31.5765 23.6249C33.0598 22.5786 34.5765 21.5572 36.1265 20.5606ZM48.1181 13.7912C50.2514 12.7491 52.4014 11.7815 54.5514 10.9007C56.0806 12.4969 57.6389 14.366 59.2139 16.4791C55.6473 15.3626 51.9598 14.4363 48.1181 13.7912ZM31.3515 23.782C32.5431 26.8049 34.1681 30.2454 36.139 33.9795C32.2723 35.5055 28.6015 36.5434 25.4723 36.9114C26.514 32.9044 27.9431 28.8973 29.7515 24.9316C30.2806 24.547 30.814 24.1624 31.3515 23.782ZM54.8223 10.7973C56.3723 10.1687 57.9181 9.57738 59.4639 9.04807C62.0014 8.99431 64.4639 9.04807 66.8598 9.20934C66.7014 10.5616 66.1056 12.0337 65.1139 13.5762C64.3181 14.8168 63.2514 16.107 62.0181 17.4054C61.2348 17.1284 60.439 16.8596 59.639 16.6032C58.014 14.4032 56.4056 12.4555 54.8223 10.7973ZM29.2973 25.2707C27.5681 29.133 26.2056 33.0367 25.1931 36.9363C23.8515 37.081 22.5848 37.1347 21.489 36.9983C20.0931 36.8287 18.9265 36.4235 18.0431 35.7536C17.8598 35.6171 17.6973 35.4558 17.539 35.2946C20.9473 31.8995 24.9348 28.5045 29.2973 25.2707ZM12.7931 34.6495C12.614 36.4028 12.6223 38.2141 12.7973 40.0666C9.70146 43.776 7.41396 47.3736 6.26396 50.6281C6.3098 50.3676 6.33897 50.1071 6.3848 49.8465C7.3348 44.8305 9.41813 39.7234 12.7931 34.6495ZM60.2723 8.78341C62.2764 8.12177 64.2681 7.5387 66.2348 7.06728C66.3764 7.0342 66.5181 7.01765 66.6556 6.98457C66.8639 7.60486 66.9431 8.26237 66.8889 8.95295C64.7431 8.80822 62.5389 8.75447 60.2723 8.78341ZM71.5723 3.0354C76.4639 3.10983 80.9306 3.92034 84.9473 5.37595C85.7056 5.64888 86.4473 5.94662 87.1723 6.26503C87.8306 6.55037 88.4639 6.8605 89.0973 7.17892C85.2723 5.6985 80.9598 5.14438 76.3681 5.33461C74.9681 4.50342 73.5264 3.77148 72.0348 3.18427C71.8848 3.12224 71.7223 3.08916 71.5723 3.0354ZM66.9223 6.92254C70.1389 6.19474 73.2806 5.73572 76.2973 5.60339C79.2306 7.36501 81.9514 9.65181 84.4473 12.3563C79.2056 10.5946 73.4348 9.42024 67.1556 8.97363C67.2098 8.25823 67.1389 7.57178 66.9223 6.92254ZM17.364 35.5013C17.5265 35.6667 17.6931 35.828 17.8806 35.9686C18.8098 36.6757 20.0265 37.0893 21.4556 37.2629C22.5515 37.3994 23.8015 37.3539 25.1265 37.2216C23.2348 44.632 22.614 52.0217 22.9723 59.1591C22.789 59.3535 22.589 59.5478 22.4098 59.7463C21.9348 60.2674 21.5181 60.7926 21.0681 61.3136C17.3223 55.2679 14.6556 49.1187 13.5265 43.3004C14.5931 40.7159 15.8723 38.1107 17.364 35.5013ZM16.689 36.1506C15.4556 38.3753 14.3723 40.5918 13.4431 42.7959C13.2806 41.9027 13.1598 41.0219 13.0723 40.1452C13.3348 39.8351 13.5723 39.5249 13.8473 39.2106C14.7306 38.1975 15.6931 37.1761 16.689 36.1506ZM67.1223 9.23002C73.5598 9.68489 79.4639 10.9048 84.8014 12.745C87.5348 15.7803 89.9681 19.3407 92.1098 23.2444C91.6473 23.2982 91.2098 23.3271 90.7389 23.3933C87.1764 23.9019 83.3556 24.7869 79.4056 25.9365C74.2056 22.5828 68.4806 19.717 62.2848 17.5047C63.4931 16.2269 64.5473 14.9491 65.3389 13.7168C66.3431 12.1495 66.9598 10.636 67.1223 9.22588L67.1223 9.23002ZM12.8306 40.4388C12.9306 41.3775 13.064 42.3162 13.2473 43.2756C10.6098 49.6853 9.22647 56.0039 8.9098 62.0579C7.40563 60.7181 6.33897 58.9482 5.81397 56.6614C5.78897 56.5291 5.7973 56.3802 5.78063 56.2438C5.78897 55.0404 5.85563 53.8288 5.98897 52.613C6.78896 49.0029 9.2223 44.8098 12.8306 40.4347L12.8306 40.4388ZM76.7639 5.57031C82.3848 5.38836 87.5556 6.34774 91.8973 8.77513C94.0723 11.1529 94.8889 13.8822 94.6264 16.8513C91.6473 15.1806 88.4348 13.7292 84.9848 12.5341C82.4723 9.75519 79.7264 7.39809 76.7639 5.57031ZM59.9014 16.9505C60.5514 17.1614 61.1889 17.3889 61.8306 17.6122C61.5639 17.8892 61.2639 18.1663 60.9764 18.4475C60.6181 17.9347 60.2598 17.4426 59.9014 16.9505ZM13.3473 43.747C14.5306 49.5116 17.1806 55.5739 20.8848 61.5328C19.8306 62.7733 18.8473 64.0181 17.9556 65.271C15.8473 65.1263 13.939 64.75 12.2931 64.1008C11.1098 63.6335 10.0681 63.0215 9.16397 62.273C9.45146 56.3017 10.789 50.0781 13.3473 43.747ZM25.4015 37.1968C28.6015 36.837 32.339 35.7784 36.2681 34.2194C36.789 35.2036 37.3223 36.2043 37.889 37.2257C38.4181 39.7772 39.0556 42.3782 39.7848 45.0083C33.5015 49.3255 27.8181 54.0273 23.2306 58.8903C22.8973 51.8315 23.5223 44.5203 25.4015 37.1926L25.4015 37.1968ZM62.0973 17.7156C68.2348 19.8948 73.9014 22.7234 79.0598 26.0316C75.4723 27.0861 71.7806 28.3597 68.0431 29.865C65.7723 25.771 63.4473 22.0038 61.1306 18.6708C61.4556 18.3524 61.7931 18.034 62.0973 17.7114L62.0973 17.7156ZM60.9348 18.861C63.2348 22.1651 65.5389 25.9034 67.7931 29.9683C64.5764 31.2668 61.3431 32.7266 58.1306 34.3104C55.8765 31.5852 53.5973 28.9304 51.2973 26.3913C54.9556 24.0094 58.2681 21.4332 60.9348 18.861ZM36.5181 34.116C36.7515 34.025 36.989 33.9299 37.2265 33.8307C37.3681 34.666 37.5598 35.5179 37.7265 36.3615C37.3056 35.5964 36.914 34.8604 36.5181 34.116ZM37.4848 33.7232C39.9806 32.6811 42.5223 31.4777 45.0265 30.1255C47.089 29.009 49.1181 27.7973 51.064 26.5361C53.3598 29.071 55.6348 31.7134 57.8848 34.4303C56.7515 34.9927 55.6181 35.5468 54.4931 36.1381C52.9431 36.9487 51.4098 37.7881 49.889 38.6565C47.1598 40.2155 44.489 41.8572 41.9015 43.5651C40.5931 41.3734 39.2973 39.1941 38.1473 37.1182C37.9098 35.9769 37.6765 34.8397 37.4848 33.7232ZM5.48063 55.8427C5.48897 55.9626 5.49313 56.0825 5.5098 56.2024C5.46397 62.2192 6.95147 68.0334 9.60564 73.463C10.0973 76.246 10.814 78.9381 11.7473 81.5267C11.7473 82.7715 11.8848 84.0079 12.1473 85.2237C7.08481 75.9152 4.95564 65.7755 5.48063 55.8427ZM38.314 37.9742C39.3515 39.8268 40.5181 41.7704 41.6806 43.7139C41.1181 44.0861 40.5723 44.4666 40.0223 44.8429C39.3806 42.5271 38.7973 40.2321 38.314 37.9742ZM5.80564 57.6001C6.4223 59.5933 7.46814 61.1895 8.89314 62.4053C8.73897 65.8707 8.9348 69.2492 9.44731 72.516C7.25564 67.7853 5.9723 62.7692 5.80564 57.6001ZM85.3348 12.9269C88.6473 14.1013 91.7389 15.5197 94.6056 17.1366C94.5598 17.5667 94.4889 18.0009 94.3931 18.4434C94.0723 19.9734 93.4348 21.5655 92.6139 23.1865C92.5431 23.1948 92.4681 23.203 92.3973 23.2113C90.3223 19.411 87.9764 15.9209 85.3348 12.9269ZM92.6098 9.23001C98.1931 12.9021 102.631 17.9926 105.931 23.9598C105.572 23.844 105.214 23.7282 104.839 23.6331C104.576 23.5669 104.276 23.538 104.006 23.4801C101.281 21.0775 98.2348 18.9024 94.8806 16.996C95.1556 14.1758 94.4556 11.5458 92.6098 9.23001ZM93.7264 9.66008C101.197 14.1882 107.676 20.4945 112.476 28.368C111.026 26.3748 108.918 24.9605 106.293 24.0673C103.151 18.3193 98.9681 13.3487 93.7264 9.66008ZM50.0223 38.8964C51.539 38.028 53.0723 37.1844 54.6181 36.3739C55.7556 35.7742 56.9056 35.2077 58.0556 34.6412C61.3973 38.6937 64.6306 42.9241 67.764 47.1917C64.989 49.0071 62.1056 50.7439 59.164 52.3773C56.2431 54.0024 53.2681 55.516 50.2931 56.9013C48.3473 53.9859 46.4681 51.0788 44.6806 48.2172C43.7431 46.712 42.914 45.2729 42.0348 43.8049C44.6223 42.0971 47.2931 40.4512 50.0223 38.8964ZM58.2931 34.5213C61.4973 32.9499 64.714 31.5025 67.9181 30.2082C68.5848 31.4115 69.2473 32.6273 69.8973 33.8762C71.3765 36.7047 72.8181 39.6572 74.2098 42.6677C72.214 44.1605 70.139 45.6244 67.9806 47.0387C64.8556 42.7794 61.6306 38.5655 58.2931 34.5213ZM41.814 43.9538C42.6931 45.4218 43.5181 46.8567 44.4556 48.3578C46.2348 51.2112 48.1056 54.1141 50.0431 57.0171C48.3015 57.8234 46.564 58.5678 44.8348 59.279C43.389 55.5449 42.0598 51.786 40.9306 48.0601C40.6306 47.0759 40.3681 46.1 40.0931 45.1241C40.664 44.7312 41.2306 44.3384 41.814 43.9538ZM9.15147 62.6038C10.039 63.3151 11.0473 63.9023 12.1848 64.353C13.8223 64.994 15.7015 65.3786 17.7681 65.5274C14.9515 69.5304 12.9723 73.5705 12.164 77.5279C11.3181 76.1674 10.5431 74.778 9.85147 73.3555C9.24314 69.8984 8.99731 66.3007 9.15147 62.6038ZM39.864 45.2853C40.1306 46.2323 40.3848 47.1793 40.6723 48.1345C41.8056 51.8728 43.1348 55.6359 44.5806 59.3742C37.6515 62.1944 30.8931 64.2083 25.0056 64.9816C24.5765 65.0395 24.1806 65.0519 23.764 65.0932C23.514 63.1745 23.3473 61.2268 23.2431 59.2584C27.8265 54.3622 33.539 49.6315 39.864 45.2853ZM68.1681 30.1048C71.9681 28.5789 75.7181 27.2845 79.3598 26.2218C81.9306 27.8842 84.3598 29.6665 86.6639 31.5397C83.3348 35.2408 79.1556 38.9542 74.4265 42.5064C73.039 39.5084 71.6056 36.5682 70.1348 33.748C69.4848 32.5074 68.8265 31.2999 68.1681 30.1048ZM94.8514 17.2772C98.0181 19.0843 100.918 21.1354 103.522 23.3933C100.443 22.8019 96.8681 22.744 92.9264 23.1576C93.7181 21.5738 94.3348 20.0106 94.6514 18.5013C94.7389 18.0919 94.8014 17.6825 94.8473 17.2772L94.8514 17.2772ZM79.7056 26.1267C83.5639 25.0143 87.2973 24.1542 90.7723 23.6579C91.2764 23.5835 91.7514 23.5545 92.2431 23.4966C92.2848 23.5711 92.3306 23.6373 92.3681 23.7117C91.2848 25.7338 89.8681 27.8014 88.1348 29.8898C87.7348 30.3694 87.2765 30.8533 86.8473 31.3371C84.5931 29.501 82.2139 27.756 79.7056 26.1267ZM22.9806 59.5272C23.0848 61.355 23.2431 63.1662 23.4765 64.9526C22.689 63.8237 21.9223 62.6948 21.2098 61.5534C21.6765 61.0117 22.1098 60.4659 22.6015 59.9242C22.7223 59.7918 22.8598 59.6595 22.9806 59.5272ZM21.0265 61.7726C21.7348 62.8974 22.4931 64.0222 23.2723 65.1346C21.5223 65.2959 19.839 65.3703 18.2806 65.2834C19.1265 64.109 20.039 62.9388 21.0265 61.7726ZM18.0806 65.5481C19.7431 65.6515 21.5556 65.5646 23.439 65.3868C23.4723 65.4323 23.5015 65.4819 23.539 65.5274C24.9223 75.6671 28.3348 85.0417 33.0806 92.8325C30.8181 93.0806 28.689 93.1385 26.6806 93.0476C23.0098 90.2728 19.6515 87.1962 16.7765 83.8259C15.1515 81.9196 13.6806 79.9223 12.3723 77.8629C13.1431 73.8145 15.164 69.6668 18.0806 65.5481ZM92.7931 23.4388C96.9639 22.9921 100.726 23.0583 103.906 23.7282C105.26 24.9316 106.531 26.1887 107.726 27.4913C108.397 28.9635 109.01 30.4811 109.556 32.0318C110.768 35.4765 111.635 39.099 112.231 42.8042C111.106 45.2812 109.576 47.8244 107.597 50.4048C106.414 50.351 105.189 50.3551 103.901 50.4461C102.822 48.7217 101.647 47.018 100.381 45.3349C99.1973 39.7275 97.5306 34.2731 95.3681 29.2405C94.5431 27.3176 93.6306 25.4857 92.6723 23.6993C92.7181 23.6124 92.7473 23.5256 92.7931 23.4388ZM92.5306 24.0011C93.4473 25.7256 94.3264 27.4996 95.1223 29.348C97.2056 34.1946 98.8348 39.4298 100.01 44.818C96.3889 40.0873 92.0348 35.584 87.0556 31.5025C87.4848 31.0187 87.9473 30.5349 88.3473 30.051C90.0389 28.0124 91.4514 25.9861 92.5306 24.0011ZM23.7931 65.3537C24.214 65.3083 24.614 65.3 25.0431 65.2421C30.964 64.4647 37.739 62.4508 44.6806 59.6223C46.5848 64.5184 48.7223 69.3484 51.0015 73.984C46.9806 77.0813 43.3556 80.2862 40.3515 83.4951C34.1765 78.1606 28.5723 72.1314 24.0806 65.85C23.9806 65.7135 23.9015 65.5729 23.8056 65.4406C23.8015 65.4116 23.7973 65.3827 23.7931 65.3537ZM23.864 66.0112C28.3681 72.3051 33.9765 78.3467 40.164 83.6936C39.139 84.7977 38.164 85.9018 37.2931 86.9977C35.7473 88.9495 34.4723 90.8848 33.4973 92.7705C33.4556 92.7746 33.4098 92.7829 33.3681 92.7912C28.689 85.1451 25.2973 75.9607 23.864 66.0112ZM10.0265 74.3273C10.6556 75.543 11.3431 76.7422 12.0848 77.9167C11.9056 78.8884 11.8098 79.8437 11.7723 80.8031C11.0473 78.7106 10.464 76.5479 10.0265 74.3273ZM86.8723 31.7051C92.0014 35.9024 96.4514 40.5546 100.126 45.43C100.497 47.1958 100.81 48.9698 101.076 50.7563C100.731 50.8018 100.406 50.8224 100.051 50.8803C94.0848 51.7983 87.3348 53.928 80.4556 56.8392C78.6515 52.0961 76.664 47.3488 74.5473 42.7545C79.3098 39.1817 83.5139 35.4393 86.8723 31.7051ZM104.372 23.8151C104.501 23.844 104.647 23.8564 104.772 23.8895C105.231 24.0053 105.676 24.1418 106.11 24.2865C106.535 25.068 106.943 25.862 107.326 26.6684C106.393 25.6883 105.401 24.7372 104.372 23.8151ZM106.489 24.423C109.468 25.4981 111.735 27.2556 113.068 29.807C113.926 31.6514 114.264 33.628 114.156 35.7081C112.418 32.7679 110.339 29.9683 107.943 27.3548C107.489 26.3583 107.001 25.3782 106.489 24.423ZM44.9306 59.5272C46.6806 58.8118 48.4348 58.055 50.1931 57.2404C52.7973 61.144 55.5181 65.0022 58.264 68.7984C55.8098 70.4236 53.4556 72.1025 51.214 73.8186C48.9431 69.2037 46.8265 64.3985 44.9306 59.5272ZM74.3223 42.9158C76.4306 47.4936 78.4098 52.2202 80.2056 56.9468C78.8723 57.5133 77.5348 58.1129 76.1973 58.7415C73.6598 54.9246 70.939 51.0788 68.139 47.2578C70.2765 45.8519 72.339 44.4004 74.3223 42.9158ZM12.2973 78.264C13.5681 80.2448 15.0015 82.1636 16.5681 83.9996C19.3723 87.2872 22.6473 90.3018 26.214 93.031C24.639 92.9359 23.1223 92.7705 21.7431 92.4397C19.5431 91.9145 17.6265 91.0709 16.0223 89.8965C14.4306 87.2541 13.0806 84.438 12.0098 81.4771C12.0098 80.4144 12.1098 79.3475 12.2973 78.264ZM50.4431 57.1287C53.414 55.7434 56.3806 54.2299 59.2973 52.6089C62.2431 50.9713 65.1348 49.2304 67.9181 47.4108C70.7098 51.2236 73.4181 55.0528 75.9473 58.8572C72.4973 60.4783 69.0515 62.2564 65.6931 64.1917C63.2306 65.6101 60.8306 67.1154 58.489 68.6537C55.7515 64.8699 53.0431 61.02 50.4431 57.1287ZM12.0348 82.3042C12.989 84.8019 14.1306 87.1962 15.4556 89.4664C14.3348 88.5443 13.3806 87.4402 12.6348 86.1334C12.6306 86.1251 12.6265 86.1169 12.6223 86.1086C12.6223 86.1045 12.6181 86.1045 12.6181 86.1045C12.6181 86.1003 12.6181 86.1003 12.614 86.0962C12.2723 84.8515 12.0931 83.5861 12.0348 82.3042ZM108.239 28.0661C110.501 30.6093 112.476 33.322 114.122 36.1588C113.993 37.7343 113.622 39.3595 113.01 41.0343C112.851 41.4602 112.622 41.9027 112.435 42.3369C111.839 38.7682 110.976 35.278 109.806 31.9533C109.335 30.6258 108.797 29.3398 108.239 28.0661ZM113.401 29.9228C117.951 37.9535 120.264 46.6376 120.564 55.2926C120.076 50.0946 118.697 44.938 116.443 40.0542C115.822 38.7144 115.139 37.3952 114.389 36.1009C114.56 33.9299 114.256 31.854 113.401 29.9228ZM14.114 88.5774C14.6306 89.1273 15.2056 89.6236 15.814 90.0743C16.5723 91.3273 17.3765 92.5472 18.239 93.7216C19.889 95.9712 21.739 98.0554 23.7431 99.9783C20.1015 96.6866 16.8515 92.8739 14.114 88.5774ZM16.389 90.4837C17.914 91.4886 19.6848 92.2247 21.6765 92.7002C23.1806 93.06 24.8431 93.2337 26.5723 93.3164C28.2681 94.5941 30.0181 95.8099 31.8431 96.9388C31.714 97.4392 31.6015 97.9354 31.5223 98.4234C31.0056 101.694 31.7765 104.713 34.1015 107.265C27.9556 103.903 22.6098 99.2215 18.4556 93.5645C17.7265 92.572 17.0431 91.5382 16.389 90.4837ZM114.356 36.5971C115.018 37.7674 115.639 38.9542 116.197 40.1617C118.868 45.947 120.314 52.1168 120.481 58.2783C119.285 54.8005 116.776 52.5592 113.343 51.389C113.247 48.5025 112.947 45.6451 112.497 42.829C112.751 42.2583 113.047 41.6876 113.251 41.1253C113.818 39.5787 114.193 38.0652 114.356 36.5971ZM65.8223 64.4233C69.1931 62.4839 72.6431 60.7016 76.1015 59.0764C78.9265 63.3399 81.4765 67.4875 83.8473 71.5194C80.4306 73.831 76.8806 76.0516 73.2348 78.111C71.4515 79.1241 69.6473 80.0877 67.8348 81.0264C64.8056 77.2219 61.7181 73.1115 58.6473 68.8728C60.9806 67.3345 63.3681 65.8376 65.8223 64.4233ZM58.4181 69.0176C61.4806 73.2521 64.564 77.346 67.589 81.1463C64.289 82.8417 60.9681 84.3925 57.664 85.7902C57.5973 85.6785 57.5265 85.5751 57.4598 85.4635C55.3473 81.8824 53.2931 78.0407 51.3348 74.0667C53.5848 72.3382 55.9515 70.651 58.414 69.0176L58.4181 69.0176ZM76.3473 58.9689C77.6681 58.3486 78.989 57.7531 80.3056 57.1949C82.0473 61.7891 83.5848 66.371 84.9015 70.804C84.6265 70.9942 84.3473 71.1844 84.0723 71.3705C81.7056 67.3511 79.1598 63.2158 76.3473 58.9689ZM80.5515 57.0956C87.414 54.1885 94.1514 52.0589 100.089 51.1408C100.439 51.0871 100.764 51.0664 101.11 51.0209C101.401 53.0058 101.622 54.9908 101.781 56.9881C97.1181 61.6858 91.3973 66.3255 85.1348 70.6469C83.8223 66.2304 82.2848 61.6692 80.5515 57.0956ZM100.497 45.9552C101.601 47.4439 102.635 48.9533 103.593 50.4751C102.864 50.5288 102.101 50.6322 101.343 50.7315C101.101 49.127 100.822 47.539 100.497 45.9552ZM51.114 74.2363C53.0723 78.1978 55.1181 82.023 57.2265 85.5917C57.289 85.6951 57.3473 85.7943 57.4098 85.8977C54.1931 87.2499 51.014 88.4367 47.9015 89.4457C45.3806 87.6469 42.9223 85.7199 40.5473 83.6771C43.5265 80.4971 47.1223 77.3129 51.114 74.2363ZM40.3556 83.8673C42.689 85.8729 45.1056 87.771 47.5806 89.545C43.7056 90.7897 39.939 91.778 36.4015 92.3818C35.5223 92.5307 34.6806 92.6216 33.8265 92.7291C34.7806 90.9138 36.0056 89.0529 37.4973 87.1672C38.364 86.0714 39.3306 84.9714 40.3556 83.8673ZM112.293 43.3045C112.697 45.9387 112.972 48.6059 113.064 51.3021C111.514 50.8059 109.768 50.5412 107.889 50.4337C109.726 48.0229 111.193 45.6368 112.293 43.3045ZM101.381 50.992C102.176 50.8927 102.985 50.7769 103.751 50.719C104.272 51.5544 104.776 52.3938 105.251 53.2333C105.11 53.3987 104.993 53.56 104.847 53.7254C103.968 54.722 103.018 55.7227 102.039 56.7193C101.881 54.8047 101.66 52.8983 101.381 50.992ZM27.0306 93.3329C28.9848 93.3991 31.0431 93.3205 33.2223 93.0724C33.2431 93.1096 33.264 93.1468 33.2848 93.1799C32.6973 94.3708 32.2431 95.5328 31.9181 96.6783C30.2306 95.6321 28.6056 94.5032 27.0306 93.3329ZM104.064 50.7108C105.218 50.6363 106.331 50.6157 107.397 50.6529C106.785 51.4386 106.114 52.2284 105.439 53.0141C105.001 52.245 104.543 51.4758 104.064 50.7108ZM107.714 50.6818C109.676 50.7811 111.489 51.0664 113.085 51.5875C113.251 57.1452 112.718 62.7526 111.568 68.1822C110.631 64.1917 109.131 60.0978 107.085 56.0205C106.622 55.1024 106.093 54.1844 105.576 53.2664C106.318 52.4021 107.051 51.542 107.714 50.6818ZM33.6723 93.0103C34.589 92.8987 35.5056 92.7994 36.4556 92.634C40.0598 92.0179 43.9015 91.0089 47.8515 89.7352C49.9931 91.2611 52.164 92.7209 54.3723 94.0359C57.6348 95.9795 60.9473 97.6418 64.2598 99.0313C62.1265 101.277 60.5223 103.456 59.7098 105.437C59.5431 105.846 59.4223 106.247 59.3223 106.64C52.314 105.685 45.3765 103.526 38.914 100.45C37.0848 98.3283 35.364 96.0125 33.7931 93.5149C33.7223 93.4073 33.6681 93.2874 33.5973 93.1799C33.6265 93.122 33.6431 93.0682 33.6723 93.0103ZM33.4681 93.4859C33.5015 93.5397 33.5306 93.6017 33.564 93.6596C35.039 95.996 36.6515 98.1587 38.3473 100.173C36.2306 99.1388 34.1598 98.0388 32.164 96.8106C32.4681 95.7313 32.9223 94.6148 33.4681 93.4859ZM105.393 53.4855C105.893 54.3705 106.401 55.2513 106.847 56.1404C108.985 60.4038 110.51 64.6797 111.426 68.8273C111.222 69.7371 111.047 70.6551 110.806 71.5566C110.056 74.3727 109.085 77.1061 107.968 79.7527C106.414 78.7726 104.26 78.4625 101.735 78.6651C101.476 78.6858 101.197 78.7437 100.935 78.7768C101.526 75.8325 101.951 72.8055 102.172 69.7123C102.468 65.5688 102.401 61.326 102.068 57.0832C103.118 56.0246 104.118 54.9577 105.056 53.8991C105.176 53.7585 105.276 53.622 105.393 53.4814L105.393 53.4855ZM101.814 57.3272C102.131 61.4831 102.189 65.6391 101.901 69.6957C101.681 72.8096 101.251 75.8531 100.656 78.814C97.4848 79.2234 93.8098 80.344 89.9598 81.9651C88.9015 79.8892 87.764 77.7512 86.5098 75.5141C86.2056 74.3562 85.8973 73.1942 85.5556 72.0074C85.4515 71.6476 85.3306 71.2754 85.2265 70.9115C91.4556 66.615 97.1473 62.0042 101.814 57.3272ZM32.089 97.0794C34.2348 98.3945 36.4681 99.5895 38.7598 100.681C42.2431 104.713 46.1556 107.976 50.3181 110.354C46.6598 110.759 43.3806 110.734 40.664 110.225C38.6473 109.493 36.6973 108.621 34.814 107.633C32.1265 105.023 31.2515 101.909 31.7931 98.4606C31.8681 98.0057 31.9681 97.5426 32.089 97.0794ZM113.356 51.6784C116.776 52.8735 119.231 55.1066 120.343 58.6587C120.214 64.9526 117.301 71.172 112.643 77.0152C112.622 74.3769 112.314 71.6476 111.701 68.848C112.943 63.2406 113.522 57.4347 113.356 51.6784ZM48.1806 89.636C51.2515 88.6311 54.3848 87.4526 57.5556 86.121C60.1473 90.4672 62.8015 94.4205 65.4306 97.861C65.0973 98.1835 64.7723 98.5061 64.464 98.8245C61.1306 97.4309 57.7973 95.7603 54.514 93.8043C52.3681 92.5307 50.2598 91.1123 48.1806 89.636ZM57.8098 86.0135C61.1181 84.6158 64.4473 83.0568 67.7556 81.3572C67.9806 81.6425 68.214 81.9609 68.439 82.2421C70.7223 85.0831 72.9348 87.7213 75.0681 90.1363C71.5098 92.5472 68.2598 95.1193 65.6265 97.6625C63.0223 94.2509 60.3806 90.3266 57.8098 86.0135ZM84.9931 71.0728C85.0931 71.4078 85.2015 71.751 85.2973 72.0859C85.5431 72.9378 85.7556 73.7648 85.9848 74.6043C85.4306 73.6284 84.7973 72.607 84.214 71.6062C84.4723 71.4284 84.7348 71.2506 84.9931 71.0728ZM83.989 71.7551C84.7098 72.9833 85.4973 74.2528 86.1681 75.4479C86.1973 75.5017 86.2223 75.5513 86.2515 75.605C86.9098 78.1069 87.4723 80.526 87.9348 82.8583C85.4306 84.0037 82.8931 85.3146 80.4056 86.7661C79.339 87.3864 78.2806 88.0315 77.2431 88.6931C76.5806 89.1149 75.939 89.5491 75.2931 89.9833C73.1598 87.5642 70.939 84.9218 68.6515 82.0767C68.439 81.8079 68.214 81.5061 68.0015 81.2373C69.8015 80.3068 71.5973 79.3475 73.3765 78.3426C77.0181 76.2791 80.5723 74.0626 83.989 71.7551ZM39.3973 100.987C45.7015 103.923 52.4473 105.974 59.2598 106.909C59.1265 107.537 59.089 108.141 59.1598 108.716C57.464 109.134 55.8015 109.514 54.2015 109.799C53.0223 110.01 51.8765 110.176 50.7598 110.308C46.6806 108.03 42.8431 104.879 39.3973 100.987ZM86.8223 76.6595C87.8473 78.5121 88.8223 80.3275 89.7098 82.0684C89.2015 82.2835 88.6973 82.5068 88.1848 82.7383C87.789 80.77 87.3515 78.752 86.8223 76.6595ZM120.501 59.9779C120.497 60.3294 120.485 60.6767 120.472 61.0282C120.206 64.9237 119.547 68.7819 118.485 72.5408C118.476 72.5573 118.472 72.578 118.468 72.5946C116.989 77.2095 114.672 81.6342 111.526 85.6826C112.293 83.1105 112.631 80.3358 112.643 77.4411C117.126 71.8957 120.018 65.9906 120.497 59.9779L120.501 59.9779ZM80.5431 86.9935C83.0015 85.5586 85.514 84.2684 87.9848 83.1353C88.939 87.9943 89.4598 92.4273 89.4098 96.1366C87.6806 97.1539 85.9181 98.1215 84.1431 99.0478C81.5973 96.8024 78.6515 93.7836 75.4723 90.1901C76.1098 89.7642 76.7348 89.33 77.3848 88.9164C78.4223 88.2548 79.4806 87.6138 80.5431 86.9935ZM111.556 69.4931C112.106 72.1893 112.376 74.8152 112.376 77.3501C111.401 78.5493 110.368 79.7403 109.256 80.9064C108.951 80.526 108.585 80.2117 108.193 79.9305C109.326 77.2509 110.31 74.4802 111.072 71.6269C111.26 70.9239 111.389 70.2044 111.556 69.4931ZM75.2515 90.339C78.4098 93.9118 81.339 96.9264 83.8931 99.1801C83.5223 99.3745 83.1515 99.5771 82.7765 99.7674C80.8306 100.752 78.864 101.661 76.9015 102.534C73.8056 102.025 70.639 101.165 67.4515 100.011C66.9015 99.3373 66.3431 98.6095 65.789 97.8858C68.4223 95.3385 71.6848 92.7581 75.2515 90.339ZM88.239 83.0113C88.7765 82.7714 89.3098 82.5399 89.8431 82.3124C91.8306 86.2202 93.4473 89.8014 94.6056 92.8904C92.9931 93.9573 91.3556 94.9953 89.6765 95.9877C89.714 92.2577 89.1931 87.8454 88.239 83.0113ZM90.0931 82.209C93.8848 80.617 97.4931 79.5046 100.601 79.0869C99.6806 83.5447 98.3265 87.7792 96.4931 91.6333C95.9515 92.0096 95.3931 92.3694 94.839 92.7374C93.6806 89.6484 92.064 86.092 90.0931 82.209ZM40.6515 110.498C40.6681 110.502 40.6848 110.507 40.7015 110.507C45.8098 112.347 51.3015 113.343 57.0098 113.331C57.564 113.505 58.1181 113.662 58.6765 113.798C60.8556 114.336 63.0723 114.605 65.3098 114.605C56.8306 115.035 48.4098 113.612 40.6515 110.498ZM42.1015 110.713C44.6265 111.011 47.5265 110.953 50.7056 110.577C52.4973 111.569 54.3223 112.425 56.1931 113.062C51.2931 112.988 46.5556 112.173 42.1015 110.713ZM65.5931 98.0802C66.0431 98.6632 66.4973 99.2546 66.9431 99.8087C66.2098 99.5358 65.4765 99.238 64.7431 98.9362C65.0181 98.6508 65.3015 98.3655 65.5931 98.0802ZM64.5348 99.1347C65.4515 99.5151 66.3681 99.9038 67.2806 100.235C68.6848 101.947 70.0723 103.46 71.4265 104.812C69.1723 105.681 66.9306 106.471 64.7348 107.157C63.0181 107.078 61.2973 106.913 59.5806 106.686C59.6765 106.313 59.789 105.933 59.9515 105.536C60.7515 103.584 62.3765 101.393 64.5348 99.1347ZM100.885 79.0497C101.172 79.0125 101.481 78.9587 101.76 78.9381C104.276 78.7354 106.376 79.058 107.864 80.0173C107.256 81.4357 106.61 82.8335 105.897 84.1857C103.164 86.6834 100.151 89.0777 96.9431 91.3231C98.6973 87.5394 99.989 83.3959 100.885 79.0497ZM67.8265 100.441C70.7306 101.467 73.6181 102.24 76.4556 102.732C74.8681 103.427 73.289 104.097 71.7098 104.713C70.439 103.452 69.1431 102.029 67.8265 100.441ZM51.1473 110.536C52.1556 110.407 53.1931 110.25 54.2515 110.06C55.8473 109.779 57.5056 109.402 59.1931 108.985C59.3931 110.039 59.9765 110.966 60.9931 111.714C61.5056 112.09 62.1306 112.413 62.864 112.698C60.9098 112.938 58.9765 113.066 57.064 113.075C55.0515 112.45 53.0723 111.578 51.1473 110.536ZM59.5223 106.95C61.0306 107.149 62.5348 107.285 64.0431 107.376C62.4723 107.856 60.939 108.269 59.4223 108.65C59.3598 108.116 59.3973 107.55 59.5223 106.95ZM108.093 80.1869C108.456 80.4515 108.789 80.7493 109.068 81.1008C108.96 81.2124 108.872 81.3241 108.764 81.4357C108.047 82.1677 107.289 82.8872 106.522 83.6067C107.089 82.4902 107.597 81.3406 108.093 80.1869ZM112.372 77.7719C112.331 80.6914 111.96 83.491 111.135 86.0631C111.11 86.1458 111.076 86.2285 111.047 86.3112C110.856 86.5511 110.643 86.7826 110.443 87.0183C110.776 84.4173 110.389 82.4778 109.41 81.1215C110.464 80.0256 111.443 78.905 112.372 77.7719ZM59.4515 108.923C61.1848 108.489 62.9473 107.997 64.7515 107.43C67.839 107.575 70.9098 107.48 73.939 107.12C74.8265 107.868 75.7015 108.542 76.5473 109.084C72.1556 110.887 67.7765 112.041 63.4765 112.62C62.5348 112.31 61.7556 111.937 61.1556 111.499C60.1765 110.784 59.6348 109.915 59.4515 108.923ZM109.222 81.3282C110.176 82.6846 110.547 84.653 110.131 87.3864C106.56 91.5382 102.039 95.2351 96.5348 98.2786C96.464 97.9685 96.414 97.6749 96.3265 97.3441C100.281 93.6596 103.543 89.2307 106.126 84.3387C107.106 83.4455 108.051 82.5399 108.956 81.6177C109.047 81.5226 109.126 81.4233 109.222 81.3282ZM116.851 77.4245C115.064 82.0974 112.647 86.5593 109.647 90.6739L109.647 90.6615C109.743 90.3472 109.81 90.0578 109.889 89.7559C110.443 88.6849 110.91 87.5642 111.297 86.3981C113.564 83.5778 115.41 80.5632 116.851 77.4245ZM65.4765 107.198C67.5015 106.549 69.5556 105.83 71.6265 105.027C72.314 105.701 72.9931 106.309 73.6598 106.88C70.9598 107.186 68.2223 107.294 65.4765 107.198ZM105.556 84.8473C103.064 89.4251 99.9598 93.5645 96.2473 97.0546C96.0181 96.2069 95.739 95.2889 95.4056 94.3253C95.864 93.5066 96.2973 92.663 96.7098 91.8028C99.8681 89.6111 102.835 87.283 105.556 84.8473ZM71.914 104.92C73.5848 104.267 75.264 103.551 76.9431 102.807C80.7015 103.411 84.3598 103.506 87.8306 103.001C87.7431 103.059 87.6598 103.117 87.5765 103.175C83.2681 105.077 78.7056 106.272 74.0265 106.835C73.3348 106.247 72.6306 105.619 71.914 104.916L71.914 104.92ZM57.9098 113.306C59.7265 113.269 61.5681 113.133 63.4265 112.884C65.1598 113.455 67.5348 113.761 70.4723 113.823C66.5181 114.613 62.5723 114.485 58.739 113.542C58.4598 113.472 58.1848 113.385 57.9098 113.306ZM77.4015 102.608C79.239 101.785 81.0765 100.925 82.8973 100.003C83.3015 99.8004 83.7015 99.5771 84.1056 99.3662C85.7056 100.764 87.1556 101.868 88.4098 102.588C88.3806 102.612 88.3473 102.633 88.3181 102.658C84.8515 103.224 81.1806 103.183 77.4015 102.608ZM96.2681 92.0964C95.9556 92.7374 95.6265 93.3701 95.2848 93.9904C95.1681 93.6637 95.0598 93.337 94.9348 92.9938C95.3806 92.7002 95.8265 92.3983 96.2681 92.0964ZM94.7015 93.1509C94.8473 93.5479 94.9765 93.9325 95.1056 94.3129C93.6265 96.9512 91.8973 99.3745 89.914 101.533C89.589 101.773 89.2556 101.996 88.9265 102.228C88.9306 102.215 88.9348 102.203 88.939 102.191C88.939 102.186 88.9348 102.182 88.9348 102.178C89.4098 100.503 89.6473 98.5144 89.689 96.2855C91.3931 95.2806 93.064 94.2344 94.7015 93.1509ZM84.3515 99.2339C86.0598 98.3407 87.7515 97.4144 89.414 96.4385C89.3681 98.5971 89.1306 100.508 88.6765 102.116L88.6765 102.124L88.6681 102.129C88.6515 102.228 88.6223 102.298 88.6015 102.397C87.3765 101.699 85.939 100.619 84.3515 99.2339ZM95.2306 94.6479C95.5431 95.5701 95.8098 96.4467 96.0223 97.2572C94.7765 98.4151 93.4556 99.4944 92.0723 100.495C91.5973 100.706 91.1223 100.921 90.6348 101.124C92.3681 99.1553 93.9015 96.9885 95.2306 94.6479ZM64.0515 112.806C68.264 112.194 72.5431 111.028 76.8348 109.249C77.6598 109.758 78.464 110.172 79.239 110.465C76.7348 111.913 74.2056 112.938 71.6681 113.567C68.489 113.579 65.9223 113.331 64.0515 112.806ZM74.2973 107.078C78.4015 106.566 82.4056 105.565 86.239 104.031C83.1223 106.016 79.9848 107.653 76.8515 108.96C76.8223 108.939 76.7931 108.931 76.764 108.91C75.964 108.402 75.139 107.773 74.2973 107.078ZM110.806 86.9935C110.618 87.5022 110.414 88.0067 110.193 88.4988C110.264 88.1555 110.339 87.804 110.393 87.4773C110.531 87.3161 110.668 87.1548 110.806 86.9935ZM110.035 87.9033C109.935 88.4533 109.801 89.0363 109.643 89.6442C107.164 94.4535 102.976 98.2828 96.8931 100.59C96.8681 100.284 96.8681 100.003 96.8181 99.6681C96.764 99.3207 96.664 98.9196 96.5848 98.5433C101.997 95.5659 106.476 91.9558 110.035 87.9033ZM96.1098 97.5467C96.189 97.8527 96.2223 98.1174 96.2848 98.411C95.3056 98.9444 94.2973 99.4613 93.2556 99.9534C94.2473 99.1925 95.1931 98.3903 96.1098 97.5467ZM90.3806 101.529C90.3931 101.525 90.4015 101.517 90.4098 101.512C90.6265 101.421 90.8306 101.326 91.0431 101.239C90.6556 101.496 90.2598 101.736 89.864 101.98C89.939 101.901 90.0056 101.818 90.0806 101.736C90.1806 101.665 90.2806 101.599 90.3806 101.529ZM77.1556 109.125C80.6765 107.641 84.2015 105.751 87.6973 103.415C87.9181 103.315 88.1431 103.216 88.364 103.113C88.2056 103.266 88.0556 103.427 87.8931 103.58L87.8848 103.58C85.1681 106.409 82.3681 108.621 79.5265 110.296C78.7681 110.027 77.9765 109.618 77.1556 109.125ZM88.9556 102.534C88.9473 102.542 88.939 102.555 88.9265 102.563C88.9223 102.567 88.914 102.567 88.9056 102.567C88.9223 102.554 88.939 102.546 88.9556 102.534ZM92.214 100.718C93.6473 100.077 95.0223 99.3993 96.3431 98.6839C96.4098 99.023 96.5056 99.391 96.5515 99.7053C96.6056 100.061 96.6056 100.363 96.6306 100.685C94.5181 101.463 92.1765 102.062 89.6056 102.455C90.5015 101.909 91.3723 101.33 92.214 100.718ZM88.9473 102.906C90.4181 103.783 91.689 104.395 92.739 104.697C93.3223 104.866 93.8473 104.945 94.3098 104.949C93.9431 105.18 93.5806 105.424 93.2098 105.648C90.6931 107.161 88.0973 108.522 85.5515 109.68C86.9473 108.427 88.0265 106.272 88.7306 103.121C88.8015 103.047 88.8723 102.976 88.9473 102.906ZM89.2681 102.778C91.9806 102.385 94.4348 101.769 96.6556 100.954C96.689 101.69 96.6723 102.36 96.5431 102.881C96.4598 103.224 96.339 103.506 96.1806 103.75C95.7265 104.056 95.2598 104.345 94.7973 104.643C94.264 104.73 93.614 104.676 92.8181 104.444C91.8473 104.167 90.6431 103.584 89.2681 102.778ZM108.66 91.8524C108.543 92.0468 108.456 92.237 108.331 92.4314C108.101 92.7167 107.864 92.9979 107.631 93.2833C107.997 92.8201 108.335 92.3404 108.66 91.8524ZM88.314 103.53C87.4348 107.083 86.0848 109.274 84.3556 110.205C84.0431 110.337 83.739 110.469 83.4306 110.598C82.3515 110.908 81.1431 110.829 79.839 110.411C82.639 108.737 85.3973 106.553 88.0723 103.774C88.0765 103.77 88.0765 103.766 88.0806 103.762C88.1598 103.688 88.2348 103.605 88.314 103.53ZM70.1515 114.158C70.664 114.063 71.1765 113.964 71.6931 113.835C71.8931 113.835 72.0681 113.844 72.2765 113.844C71.564 113.964 70.8598 114.063 70.1515 114.158ZM107.231 93.7671C105.064 96.3558 102.639 98.7707 99.9806 100.991C98.9098 101.827 97.7973 102.641 96.6431 103.427C96.7056 103.278 96.764 103.121 96.8056 102.947C96.9473 102.373 96.9598 101.649 96.914 100.859C101.293 99.2091 104.714 96.7817 107.231 93.7671ZM72.6015 113.579C74.9306 112.922 77.2515 111.933 79.5473 110.589C80.5515 110.937 81.5098 111.081 82.4056 111.024C80.6723 111.71 78.9931 112.277 77.4181 112.707C77.2098 112.76 77.0015 112.81 76.7931 112.864C75.3973 113.215 74.0806 113.476 72.9056 113.583C72.9015 113.583 72.8973 113.583 72.8973 113.583C72.789 113.587 72.7098 113.579 72.6015 113.579Z" stroke="#30637C" stroke-width="1.5"/>
</g>
<g clip-path="url(#clip0_106_547)">
<path d="M44.7228 81.8276L42.1471 82.0662L41.889 74.3441L39.4834 74.5675L39.3983 72.029L46.7851 71.3385L46.8702 73.877L44.4646 74.1004L44.7228 81.8276Z" stroke="#041116" stroke-width="1.59894"/>
<path d="M51.9819 81.5485C50.4633 81.6246 49.3334 81.1626 48.5983 80.1523C47.9453 79.2587 47.6051 78.0149 47.5778 76.4156C47.5474 74.8214 47.839 73.5471 48.4556 72.5875C49.1542 71.5011 50.2628 70.9223 51.7815 70.8461C53.3001 70.7649 54.427 71.2269 55.1651 72.2372C55.815 73.1308 56.1552 74.3746 56.1856 75.9688C56.216 77.5681 55.9213 78.8475 55.3048 79.802C54.6092 80.8884 53.5006 81.4672 51.9819 81.5485ZM51.9303 78.7916C52.5529 78.7561 53.0025 78.4362 53.2819 77.8219C53.5097 77.3295 53.616 76.7558 53.6039 76.1008C53.5917 75.4459 53.4641 74.8874 53.2212 74.4254C52.9174 73.8365 52.4557 73.5623 51.8331 73.5928C51.2104 73.6232 50.7579 73.9482 50.4754 74.5676C50.2506 75.055 50.1413 75.6287 50.1534 76.2836C50.1686 76.9335 50.2962 77.497 50.5392 77.9692C50.8429 78.5479 51.3076 78.8221 51.9303 78.7916Z" stroke="#041116" stroke-width="1.59895"/>
<path d="M61.3642 81.051L57.2486 81.0764L57.2273 70.7955L61.3399 70.7701C63.0226 70.7599 64.2345 71.1458 64.9725 71.9276C65.5678 72.5623 65.908 73.4253 65.9931 74.5169C66.0326 74.9891 66.0508 75.446 66.0538 75.8826C66.0538 76.3192 66.0356 76.7711 66.0022 77.2483C65.9688 77.7256 65.8746 78.1876 65.7197 78.6343C65.5678 79.0811 65.3218 79.4822 64.9877 79.8427C64.6536 80.2031 64.195 80.4925 63.6118 80.7108C63.0256 80.9292 62.2784 81.0408 61.3642 81.051ZM61.1151 78.5074C62.4242 78.4973 63.1653 77.9388 63.3354 76.832C63.3779 76.5223 63.4022 76.2126 63.3992 75.8978C63.3992 75.5831 63.3749 75.2734 63.3263 74.9637C63.2807 74.6591 63.1805 74.3798 63.0256 74.131C62.8737 73.8823 62.6429 73.6792 62.3361 73.532C62.0294 73.3847 61.6193 73.3086 61.103 73.3137L59.8121 73.3238L59.8242 78.5176L61.1151 78.5074Z" stroke="#041116" stroke-width="1.59894"/>
<path d="M76.6694 81.4468L74.0542 81.3351L73.5014 79.6292L69.6258 79.4617L69.0214 81.1218L66.4093 81.0102L70.4975 70.912L72.8909 71.0085L76.6694 81.4468ZM72.6722 77.0501L71.6517 73.8871L70.534 76.9587L72.6722 77.0501Z" stroke="#041116" stroke-width="1.59894"/>
<path d="M82.6621 81.9955L80.0865 81.762L80.2414 76.8982L77.0643 71.1967L79.9194 71.4556L81.6052 74.6846L83.4822 71.7755L86.3373 72.0293L82.817 77.1317L82.6621 81.9955Z" stroke="#041116" stroke-width="1.59895"/>
<path d="M44.494 82.0444L41.9468 82.2958L41.6945 74.3355L39.3155 74.5659L39.2314 71.9474L46.5365 71.2352L46.6206 73.8537L44.2417 74.0841L44.494 82.0444Z" fill="white"/>
<path d="M51.8005 81.3653C50.3298 81.4422 49.24 81.01 48.5311 80.0593C47.9041 79.2047 47.576 78.0187 47.5467 76.5062C47.5145 74.9986 47.7957 73.7934 48.3905 72.8955C49.0701 71.8728 50.1423 71.3206 51.613 71.2438C53.0719 71.167 54.1588 71.6039 54.8707 72.5498C55.4946 73.3949 55.8228 74.576 55.855 76.0837C55.8843 77.5962 55.603 78.8061 55.0113 79.7136C54.3316 80.7412 53.2594 81.2885 51.8005 81.3653ZM51.7536 78.7533C52.3454 78.7293 52.7789 78.4268 53.0543 77.8506C53.2711 77.3897 53.3736 76.8471 53.359 76.2181C53.3502 75.6035 53.2301 75.0802 52.9957 74.6432C52.6969 74.0815 52.2516 73.8126 51.6598 73.8366C51.0564 73.8654 50.6199 74.1775 50.3474 74.7777C50.1277 75.2386 50.0222 75.7764 50.031 76.391C50.0457 77.02 50.1716 77.553 50.406 77.9851C50.7019 78.5229 51.1501 78.7821 51.7536 78.7533Z" fill="white"/>
<path d="M61.1131 81.354L56.8061 81.374L56.7807 71.2554L61.0877 71.2354C62.8409 71.2254 64.1019 71.5953 64.8737 72.3552C65.509 72.9851 65.8679 73.835 65.9536 74.9149C65.9949 75.3848 66.0172 75.8298 66.0172 76.2547C66.0172 76.6847 65.9949 77.1296 65.9536 77.5945C65.9187 78.0645 65.8202 78.5144 65.6614 78.9544C65.509 79.3943 65.2549 79.7942 64.8991 80.1542C64.5497 80.5142 64.0733 80.8041 63.4635 81.0141C62.8536 81.2291 62.0691 81.344 61.1131 81.354ZM60.859 78.8544C62.2311 78.8444 62.9997 78.2894 63.1713 77.1946C63.2125 76.8896 63.2348 76.5847 63.2348 76.2747C63.2348 75.9697 63.2094 75.6648 63.1586 75.3548C63.1141 75.0499 63.0124 74.7749 62.8536 74.5349C62.6916 74.285 62.4503 74.085 62.1295 73.935C61.815 73.79 61.3862 73.725 60.8463 73.735H59.4995L59.5123 78.8544H60.859Z" fill="white"/>
<path d="M77.1009 81.374L74.2808 81.2764L73.6774 79.6354L69.4931 79.4791L68.8373 81.081L66.0172 80.9638L70.4375 71.2352L73.0216 71.3328L77.1009 81.374ZM72.7723 77.1544L71.6836 74.1264L70.4638 77.0763L72.7723 77.1544Z" fill="white"/>
<path d="M82.6815 82.2958L80.1151 82.0666L80.2725 77.0675L77.1009 71.2352L79.9457 71.506L81.6162 74.8179L83.4926 71.8392L86.3373 72.0892L82.8389 77.2966L82.6815 82.2958Z" fill="white"/>
<path d="M28.9017 65.4987L33.4429 65.1473C34.1947 65.0891 34.6154 64.6037 34.5539 63.8351L33.5327 51.0241C33.4788 50.3617 34.0022 49.7903 34.6719 49.7372L37.2247 49.54C37.9765 49.4818 38.3973 48.9964 38.3382 48.2556L38.0534 44.6805C37.9944 43.9397 37.5018 43.5251 36.7501 43.5832L22.2155 44.6831C21.4355 44.7437 21.043 45.2267 21.102 45.9675L21.3893 49.5678C21.4484 50.3086 21.941 50.7232 22.6927 50.6651L25.2173 50.4704C25.9152 50.4148 26.5207 50.9002 26.5746 51.5626L27.5957 64.3761C27.6573 65.1422 28.1499 65.5569 28.9017 65.4987Z" fill="white"/>
<path d="M42.8376 64.4887L60.8308 64.0083C61.5312 63.9906 62.0546 63.4445 62.0366 62.7543L61.9494 59.5964C61.9289 58.9062 61.3772 58.3904 60.6768 58.4081L49.6341 58.7014C48.9593 58.7216 48.4052 58.2033 48.3872 57.5409C48.3692 56.8759 48.8926 56.3045 49.5674 56.2868L59.5325 56.0214C60.233 56.0037 60.7563 55.4575 60.7384 54.7673L60.6614 51.9811C60.6435 51.2909 60.0893 50.7751 59.3888 50.7928L49.4237 51.0583C48.749 51.076 48.1973 50.5602 48.1794 49.8952C48.1589 49.205 48.6823 48.6614 49.357 48.6437L60.3997 48.3479C61.1002 48.3302 61.6236 47.7841 61.6056 47.0939L61.5209 43.9613C61.5004 43.2711 60.9488 42.7553 60.2483 42.7755L42.2552 43.2534C41.5548 43.2736 41.0288 43.8172 41.0493 44.5074L41.5651 63.3004C41.583 63.9906 42.1372 64.5064 42.8376 64.4887Z" fill="white"/>
<path d="M70.0152 64.1476L83.1875 64.5168C83.8879 64.537 84.4421 63.9959 84.4626 63.3057L84.5652 59.7737C84.5832 59.0834 84.0623 58.5373 83.3619 58.5196L72.3449 58.2086C71.6701 58.1909 71.1493 57.6448 71.1672 56.9799L71.3648 50.1332C71.3853 49.4429 71.9395 48.9272 72.6117 48.9449L83.6287 49.2559C84.3292 49.2761 84.8834 48.7603 84.9039 48.0701L85.0065 44.5405C85.0245 43.8503 84.5011 43.3042 83.8006 43.284L70.631 42.9123C67.1289 42.8162 64.5247 45.2384 64.4246 48.6895L64.1552 58.0064C64.0552 61.455 66.5157 64.049 70.0152 64.1476Z" fill="white"/>
<path d="M87.6186 64.802L92.106 65.1534C92.8039 65.209 93.3837 64.7211 93.4376 64.0334L93.8635 58.7391C93.92 58.0514 94.4998 57.5634 95.172 57.6165C95.8699 57.6696 96.3625 58.2688 96.306 58.9565L95.8827 64.223C95.8263 64.9107 96.3214 65.4821 97.0193 65.5377L101.507 65.8892C102.205 65.9423 102.784 65.4543 102.841 64.7666L104.347 46.0267C104.403 45.339 103.908 44.7676 103.21 44.712L98.7255 44.3605C98.025 44.3074 97.4452 44.7954 97.3913 45.4831L96.968 50.7496C96.9115 51.4373 96.3317 51.9253 95.6338 51.8722C94.9616 51.8191 94.4664 51.2477 94.5229 50.56L94.9462 45.291C95.0027 44.6033 94.5075 44.0319 93.8096 43.9788L89.3223 43.6273C88.6244 43.5717 88.0445 44.0597 87.9907 44.7474L86.482 63.4898C86.4256 64.1775 86.9208 64.7489 87.6186 64.802Z" fill="white"/>
</g>
<defs>
<filter id="filter0_d_106_547" x="0.383057" y="0.297729" width="125.239" height="123.403" filterUnits="userSpaceOnUse" color-interpolation-filters="sRGB">
<feFlood flood-opacity="0" result="BackgroundImageFix"/>
<feColorMatrix in="SourceAlpha" type="matrix" values="0 0 0 0 0 0 0 0 0 0 0 0 0 0 0 0 0 0 127 0" result="hardAlpha"/>
<feOffset dy="4"/>
<feGaussianBlur stdDeviation="2"/>
<feComposite in2="hardAlpha" operator="out"/>
<feColorMatrix type="matrix" values="0 0 0 0 0 0 0 0 0 0 0 0 0 0 0 0 0 0 0.25 0"/>
<feBlend mode="normal" in2="BackgroundImageFix" result="effect1_dropShadow_106_547"/>
<feBlend mode="normal" in="SourceGraphic" in2="effect1_dropShadow_106_547" result="shape"/>
</filter>
<clipPath id="clip0_106_547">
<rect width="100" height="50" fill="white" transform="translate(13 32.1667)"/>
</clipPath>
</defs>
</svg>
