<svg width="56" height="57" viewBox="0 0 56 57" fill="none" xmlns="http://www.w3.org/2000/svg">
<g filter="url(#filter0_d_119_1466)">
<path d="M17.3759 9.82836C16.7458 10.1845 16.1439 10.5736 15.5701 10.9883C14.0392 12.0313 12.7625 13.1634 12.0467 14.1797L12.0438 14.1841L12.041 14.1855C12.0145 14.2396 12.0008 14.2835 11.9757 14.3361C11.5334 14.7962 11.1658 15.2916 10.8714 15.818C6.71471 21.9454 6.17983 30.2598 10.1594 37.2953C10.161 37.3027 10.1626 37.3101 10.1642 37.3175L10.1702 37.3279C10.1823 37.3503 10.1986 37.3683 10.2106 37.3907C10.2196 37.4056 10.2257 37.4204 10.2347 37.4354C12.2196 40.8859 15.0381 43.5583 18.2718 45.3441C18.6374 45.6343 19.0829 45.8554 19.5999 46.019C23.7695 47.9455 28.5019 48.4562 32.9975 47.3228C34.6582 46.9045 36.2856 46.2658 37.8401 45.3854C38.3697 45.0863 38.8757 44.7631 39.3654 44.4249C39.3811 44.4134 39.3998 44.4034 39.414 44.3904C39.958 44.0105 40.477 43.608 40.9722 43.1814C42.1166 42.2634 43.0869 41.2698 43.7103 40.2737C45.3261 38.1562 46.4831 35.7362 47.1396 33.1722C47.1409 33.1649 47.1422 33.1575 47.1449 33.1502C47.5241 31.8412 47.7225 30.4873 47.7465 29.1212C47.93 25.3095 47.0517 21.3737 44.9827 17.7785C42.7635 13.9238 39.5069 11.0378 35.7919 9.27791C35.748 9.25788 35.704 9.23785 35.6601 9.21782C32.2182 7.61667 28.3903 6.98088 24.6261 7.44172C24.6232 7.44166 24.6189 7.44305 24.6189 7.44305C23.1189 7.4783 21.3469 7.9932 19.5942 8.75763C18.8427 9.06565 18.1008 9.41809 17.3759 9.82836ZM17.0888 10.1367C17.3973 9.95557 17.7131 9.779 18.032 9.61133C18.496 9.36692 18.9676 9.14183 19.4409 8.93004C19.5229 8.89481 19.6065 8.86402 19.69 8.83029C19.1634 9.21204 18.7232 9.92425 18.3719 10.9581C18.3676 10.961 18.3633 10.9638 18.3591 10.9682C18.2868 10.9844 18.2174 10.9963 18.1452 11.0141L18.1336 11.0153L18.125 11.0225C18.0737 11.0687 18.0252 11.1134 17.9753 11.1596C17.5333 10.9666 17.1342 10.8231 16.817 10.7785C16.4852 10.7307 16.2129 10.7622 16.0075 10.8702C15.9386 10.9057 15.8756 10.9501 15.82 11.0036C15.6006 11.213 15.4998 11.5457 15.4966 11.9775C15.4957 12.0055 15.5052 12.0426 15.5058 12.0721C14.9614 12.2869 14.4479 12.52 13.99 12.7807C13.5063 13.0557 13.0827 13.3599 12.6914 13.6809C13.5851 12.7049 14.5878 11.8122 15.697 11.0203C15.7013 11.0174 15.7056 11.0131 15.7099 11.0102C16.1539 10.7109 16.611 10.4162 17.0888 10.1367ZM16.0527 10.9536C16.2395 10.8571 16.487 10.8266 16.8072 10.8712C17.1041 10.9139 17.4841 11.0482 17.9027 11.229C17.8485 11.278 17.7972 11.3271 17.743 11.3762C16.9644 11.5613 16.2475 11.7816 15.5964 12.0341C15.5961 12.0193 15.5899 11.9985 15.5896 11.9823C15.593 11.5652 15.6915 11.259 15.8867 11.0727C15.9366 11.0265 15.9909 10.9863 16.0527 10.9536ZM19.9573 8.7707C20.055 8.71808 20.1528 8.67726 20.2538 8.64387C20.6864 8.50204 21.1617 8.53944 21.6704 8.72786C21.5885 8.77047 21.5079 8.80279 21.426 8.84687C20.4739 9.36027 19.5002 10.0295 18.5104 10.8429C18.8986 9.76702 19.3858 9.0808 19.9573 8.7707ZM20.6278 8.47582C21.9496 8.0169 23.299 7.70446 24.6585 7.53965C24.7687 7.53741 24.8691 7.54823 24.9766 7.55183C23.9456 7.74524 22.8776 8.1222 21.784 8.67408C21.3803 8.51279 20.9929 8.44175 20.6278 8.47582ZM13.0711 13.1371C13.0156 13.1949 12.9587 13.2513 12.9032 13.3092C12.9587 13.2513 13.0142 13.1949 13.0711 13.1371ZM14.0395 12.8598C14.4858 12.6062 14.985 12.3817 15.5149 12.171C15.5267 12.3983 15.5592 12.6496 15.6139 12.9248C13.7803 14.2965 12.3002 15.7106 11.1296 17.147C11.2285 16.4162 11.5314 15.5067 12.0427 14.4244C12.091 14.3664 12.1377 14.3098 12.1859 14.2518C12.7042 13.7416 13.3118 13.2715 14.0395 12.8598ZM15.6028 12.1344C16.212 11.8973 16.8769 11.6893 17.5976 11.5104C17.5492 11.5566 17.5007 11.5999 17.4523 11.6461C16.8375 12.0468 16.2476 12.4523 15.6954 12.8631C15.6423 12.5952 15.6114 12.3528 15.6028 12.1344ZM21.4697 8.92882C21.5774 8.8705 21.6826 8.8313 21.7889 8.7759C22.0581 8.88736 22.3386 9.05654 22.624 9.2494C21.406 9.67352 20.1408 10.2087 18.8243 10.8639C18.7376 10.8828 18.6495 10.9017 18.5613 10.9221C19.5511 10.1087 20.522 9.4423 21.4697 8.92882ZM21.901 8.72062C23.1327 8.10807 24.3242 7.7365 25.4734 7.57933C26.1728 7.71992 26.7381 7.90504 27.1894 8.12477C25.7854 8.31523 24.299 8.67214 22.7321 9.21026C22.4496 9.01598 22.1704 8.83945 21.901 8.72062ZM18.1846 11.1018C18.189 11.1019 18.1933 11.1005 18.1976 11.0992C18.1705 11.1237 18.1419 11.1452 18.1134 11.1697C18.1376 11.1481 18.159 11.1249 18.1846 11.1018ZM11.8091 14.722C11.3616 15.7289 11.094 16.5875 11.0234 17.282C10.6849 17.7043 10.3666 18.127 10.0818 18.5533C10.1959 17.6371 10.462 16.7741 10.8861 15.9775C11.1751 15.5468 11.4848 15.1299 11.8091 14.722ZM18.0007 11.2722C18.0052 11.2752 18.0125 11.2768 18.0169 11.2799C17.9925 11.2941 17.971 11.3114 17.9467 11.3271C17.9467 11.3271 17.9438 11.3271 17.9409 11.327C17.9623 11.3097 17.9808 11.2909 18.0007 11.2722ZM18.4404 11.045C18.4534 11.0423 18.4664 11.0411 18.478 11.0369C18.4636 11.0454 18.4492 11.0525 18.4349 11.0596C18.4377 11.0552 18.439 11.0508 18.4404 11.045ZM18.2487 11.2609C18.2559 11.258 18.2645 11.2553 18.2717 11.251C18.2704 11.2554 18.269 11.2583 18.2676 11.2612C18.2618 11.2611 18.2545 11.2624 18.2487 11.2609ZM18.391 11.19C18.5476 11.109 18.7028 11.0325 18.8595 10.9545C20.5805 10.5771 22.2316 10.3326 23.8141 10.2135C23.962 10.355 24.1132 10.5201 24.2615 10.6778C23.4882 10.9884 22.7157 11.3328 21.9524 11.7084C20.7872 11.4938 19.5913 11.3449 18.3635 11.2705C18.3717 11.2426 18.3814 11.2178 18.391 11.19ZM17.8987 11.4707C17.242 12.4705 16.6684 13.4882 16.172 14.5177C16.0462 14.1703 15.9381 13.8408 15.8523 13.5355C15.8399 13.4939 15.8349 13.4599 15.8239 13.4184C16.3583 12.8467 16.9262 12.2785 17.529 11.7125C17.6523 11.6324 17.7726 11.5507 17.8987 11.4707ZM18.0569 11.3971C18.106 11.3863 18.1508 11.3739 18.2014 11.3631C18.2102 11.3677 18.2175 11.3708 18.2263 11.3754C18.2223 11.3945 18.2167 11.4076 18.2113 11.4267L18.2084 11.4266L18.2085 11.4311C18.0613 12.211 17.9938 13.0603 17.9851 13.952C17.4391 14.3039 16.9049 14.6678 16.3825 15.0378C16.3291 14.9041 16.2683 14.7658 16.2193 14.6366C16.7435 13.5413 17.3506 12.4579 18.0569 11.3971ZM19.2073 10.78C20.422 10.1907 21.5924 9.70668 22.7211 9.31618C22.8373 9.39661 22.9503 9.45929 23.0682 9.55302C23.2805 9.72085 23.4977 9.91974 23.7166 10.126C22.2704 10.239 20.7682 10.4526 19.2073 10.78ZM17.0547 12.0201C16.6146 12.4448 16.1992 12.8745 15.7984 13.3044C15.7685 13.1874 15.7431 13.0748 15.7192 12.9652C16.1469 12.6479 16.5892 12.3323 17.0547 12.0201ZM18.3156 11.414C18.3669 11.4401 18.4063 11.4512 18.4591 11.4788C18.4605 11.4803 18.462 11.4803 18.4635 11.4818C18.9332 11.8994 19.4078 12.3452 19.8826 12.8042C19.7477 12.8811 19.6113 12.9551 19.4765 13.035C19.0675 13.2731 18.6616 13.5187 18.2631 13.7703C18.2029 13.8089 18.1442 13.849 18.084 13.8876C18.0962 13.0284 18.1584 12.2085 18.3004 11.4565C18.3045 11.4403 18.3115 11.4302 18.3156 11.414ZM18.4366 11.3678C19.5888 11.4392 20.7134 11.5808 21.8086 11.7778C21.1878 12.087 20.5731 12.4154 19.9659 12.7572C19.4807 12.2891 18.9986 11.8344 18.5201 11.4092L18.5157 11.4062L18.5098 11.4002C18.4834 11.3864 18.4629 11.3801 18.4366 11.3678ZM25.3363 7.47048C25.5609 7.44985 25.7854 7.4307 26.0101 7.41892C25.8348 7.43315 25.6569 7.46059 25.4803 7.48512C25.4628 7.48182 25.4482 7.47711 25.4307 7.47382L25.4278 7.47376C25.3987 7.47024 25.3654 7.47253 25.3363 7.47048ZM15.6363 13.0285C15.6632 13.1455 15.6873 13.2609 15.7202 13.3869C13.9707 15.2703 12.5861 17.189 11.5295 19.1067C11.3555 18.8969 11.2258 18.6452 11.1559 18.3372C11.0892 18.0469 11.0782 17.7047 11.1156 17.3177C12.2871 15.8592 13.7784 14.4218 15.6363 13.0285ZM25.7427 7.54632C27.1069 7.39782 28.4073 7.5488 29.6314 7.95479C28.8985 7.95507 28.139 8.00199 27.3544 8.10149C26.9291 7.87785 26.3929 7.69331 25.7427 7.54632ZM22.8292 9.27704C24.4178 8.73493 25.9217 8.38279 27.3389 8.19996C27.8786 8.48777 28.2379 8.82804 28.4341 9.21079C28.4567 9.25546 28.4707 9.30291 28.489 9.3475C28.4442 9.35694 28.4008 9.36345 28.3575 9.37291C27.583 9.5478 26.7979 9.77113 26.0107 10.0327C25.3054 10.035 24.5832 10.0621 23.8455 10.1153C23.603 9.88348 23.3607 9.66641 23.1234 9.47892C23.0231 9.40028 22.9278 9.3468 22.8292 9.27704ZM15.7486 13.5024C15.7534 13.5232 15.7566 13.5395 15.7613 13.5587C15.8564 13.8908 15.9796 14.2515 16.1205 14.6302C15.9797 14.9252 15.8448 15.2218 15.7156 15.52C14.2409 16.6143 12.8921 17.7715 11.7307 18.9353C12.7588 17.1143 14.0916 15.2934 15.7486 13.5024ZM26.5584 7.40173C26.7861 7.39591 27.0139 7.39451 27.2404 7.39603C29.3059 7.41617 31.3589 7.75449 33.3263 8.39482C32.2631 8.12763 31.1282 7.98139 29.9247 7.95911C29.0637 7.64726 28.1716 7.44537 27.2404 7.39603C27.0166 7.38424 26.7862 7.39738 26.5584 7.40173ZM10.5101 16.5657C10.2386 17.2222 10.0548 17.913 9.97179 18.6396C9.96804 18.6705 9.96868 18.7029 9.96638 18.7339C8.77022 20.5663 8.05049 22.4199 7.74104 24.2522C8.12578 21.5236 9.06409 18.9018 10.5101 16.5657ZM11.0093 17.4498C10.9869 17.7854 11.0045 18.0895 11.0648 18.3546C11.1425 18.6893 11.2843 18.9663 11.4789 19.1942C11.0521 19.631 10.6457 20.0697 10.2783 20.5047C10.2046 20.5917 10.1409 20.6759 10.0701 20.763C9.99856 20.0775 9.99273 19.4111 10.057 18.7681C10.3459 18.3271 10.6624 17.8881 11.0093 17.4498ZM27.4966 8.17801C28.3335 8.07659 29.1368 8.03938 29.9149 8.05326C30.0567 8.10471 30.1998 8.14882 30.3402 8.20614C30.8187 8.40723 31.2821 8.65079 31.7345 8.92655C30.7135 8.96094 29.6582 9.09785 28.5815 9.32869C28.5602 9.27519 28.5432 9.22179 28.516 9.16965C28.3229 8.79286 27.9884 8.46045 27.4966 8.17801ZM23.946 10.2057C24.5547 10.1632 25.1578 10.1324 25.7454 10.1248C25.2827 10.2837 24.8188 10.4559 24.3551 10.6413C24.2187 10.4957 24.0807 10.3381 23.946 10.2057ZM16.1678 14.7491C16.2092 14.8605 16.2594 14.9779 16.3052 15.0938C16.1592 15.1971 16.0117 15.2988 15.8686 15.4036C15.9645 15.1844 16.0647 14.9667 16.1678 14.7491ZM19.5245 13.117C19.6666 13.0343 19.8116 12.9546 19.9551 12.8734C21.0218 13.9073 22.0946 15.0327 23.163 16.2317C22.4996 16.6638 21.8082 17.0777 21.103 17.4574C20.25 17.9182 19.3829 18.3242 18.5306 18.6759C18.2297 17.0218 18.0711 15.4486 18.0805 14.0055C18.1594 13.9555 18.2352 13.9009 18.3155 13.8509C18.7126 13.5993 19.117 13.3552 19.5245 13.117ZM20.0369 12.8279C20.6728 12.4689 21.3177 12.1264 21.9688 11.8061C23.3963 12.0731 24.7678 12.4451 26.0916 12.8988C26.2467 13.1126 26.4033 13.3266 26.5601 13.5523C25.6475 14.4527 24.5085 15.3545 23.2433 16.1831C22.1763 14.9842 21.1036 13.8617 20.0369 12.8279ZM17.9816 14.0699C17.9779 15.5087 18.1407 17.0731 18.4414 18.7125C18.3492 18.749 18.2585 18.784 18.1677 18.8191C17.4503 17.4649 16.8541 16.2206 16.4177 15.1314C16.9272 14.7685 17.4485 14.4147 17.9816 14.0699ZM22.1126 11.7381C22.8487 11.3812 23.5911 11.0508 24.334 10.7515C24.878 11.3313 25.4341 12.0086 25.9977 12.7731C24.7471 12.3503 23.4557 11.9946 22.1126 11.7381ZM16.3404 15.1859C16.7768 16.2722 17.3671 17.5104 18.0799 18.8557C16.7433 19.3733 15.4715 19.7182 14.3838 19.828C14.7187 18.406 15.1886 16.9868 15.7909 15.5849C15.9726 15.4514 16.1558 15.3179 16.3404 15.1859ZM24.4277 10.7165C24.9634 10.503 25.4978 10.3027 26.0328 10.1246C26.9166 10.1229 27.775 10.159 28.6109 10.233C28.5652 10.7141 28.3679 11.2351 28.0332 11.7784C27.7645 12.2153 27.4019 12.6681 26.9812 13.1227C26.7064 13.0185 26.4272 12.9172 26.1466 12.8202C25.565 12.0245 24.991 11.3188 24.4277 10.7165ZM15.6351 15.7027C15.0596 17.0683 14.6122 18.4511 14.2867 19.8349C13.8202 19.8773 13.3792 19.8877 12.9964 19.8315C12.5089 19.7615 12.0995 19.6089 11.787 19.3639C11.7222 19.314 11.6644 19.2554 11.6081 19.1967C12.772 18.0094 14.1376 16.826 15.6351 15.7027ZM9.94999 18.934C9.89984 19.5581 9.91542 20.2041 9.98936 20.866C8.93661 22.1677 8.16474 23.435 7.78681 24.5878C7.80096 24.4952 7.8093 24.4024 7.82344 24.3098C8.11935 22.5274 8.80952 20.7204 9.94999 18.934ZM26.3126 10.0358C27.0063 9.81357 27.6962 9.61932 28.3781 9.46472C28.4273 9.4539 28.4765 9.44897 28.5242 9.43812C28.6011 9.66078 28.6333 9.89582 28.6193 10.1417C27.8706 10.0754 27.1022 10.041 26.3126 10.0358ZM30.2097 8.06351C31.9147 8.12371 33.4767 8.44349 34.8865 8.99026C35.1526 9.09281 35.4131 9.2041 35.668 9.32264C35.8994 9.42893 36.1222 9.5439 36.3451 9.66182C35.002 9.10752 33.4954 8.88024 31.8969 8.91649C31.4032 8.61043 30.8958 8.33947 30.3719 8.11978C30.3192 8.09663 30.2624 8.08371 30.2097 8.06351ZM28.6167 9.41784C29.7324 9.1804 30.8239 9.03831 31.8741 9.01186C32.9085 9.66031 33.8725 10.4946 34.7611 11.4763C32.9224 10.812 30.9034 10.3534 28.7123 10.1509C28.7262 9.89618 28.6967 9.65087 28.6167 9.41784ZM11.5486 19.2693C11.6064 19.3294 11.6656 19.3881 11.7319 19.4395C12.0606 19.6981 12.4875 19.8539 12.9866 19.9257C13.3694 19.9819 13.8047 19.9743 14.2654 19.9362C13.6582 22.566 13.4936 25.1972 13.6684 27.7452C13.6058 27.8133 13.5375 27.8812 13.4765 27.9508C13.3146 28.1333 13.1731 28.3178 13.02 28.5005C11.6724 26.3186 10.7002 24.1072 10.2661 22.0244C10.6196 21.1099 11.0471 20.1896 11.5486 19.2693ZM11.318 19.4962C10.9038 20.2811 10.5418 21.0642 10.2335 21.8439C10.1706 21.5242 10.1224 21.2092 10.0857 20.896C10.175 20.7872 10.2556 20.6782 10.3492 20.568C10.6499 20.2127 10.9782 19.8551 11.318 19.4962ZM28.7025 10.2422C30.9488 10.4487 33.0146 10.9243 34.8872 11.6173C35.8609 12.7187 36.7337 14.0052 37.5072 15.4122C37.3465 15.4281 37.1942 15.4355 37.0306 15.4558C35.7929 15.6127 34.4677 15.902 33.0994 16.2849C31.2641 15.053 29.2492 13.9916 27.0749 13.16C27.4869 12.7126 27.8453 12.2641 28.1125 11.83C28.4515 11.278 28.6557 10.7425 28.7025 10.2407L28.7025 10.2422ZM10.0036 20.999C10.045 21.3345 10.098 21.6702 10.1686 22.0136C9.29447 24.2814 8.85669 26.5254 8.78873 28.6823C8.25524 28.1941 7.87118 27.5556 7.67224 26.7364C7.66261 26.689 7.66447 26.636 7.6577 26.5872C7.65219 26.1581 7.66693 25.7264 7.70488 25.2938C7.95837 24.0118 8.77689 22.5331 10.0036 20.9975L10.0036 20.999ZM32.0364 9.00328C33.9937 8.97705 35.8021 9.35477 37.3319 10.2504C38.1064 11.1133 38.4101 12.0923 38.3394 13.1494C37.2896 12.5331 36.1601 11.9934 34.9496 11.5434C34.0547 10.535 33.0815 9.67552 32.0364 9.00328ZM26.2405 12.9459C26.4685 13.0256 26.6922 13.1111 26.9174 13.1952C26.8264 13.2922 26.7238 13.3889 26.6256 13.4872C26.4971 13.3019 26.3688 13.1239 26.2405 12.9459ZM10.2068 22.1824C10.6594 24.2464 11.6252 26.4267 12.9576 28.5774C12.599 29.0126 12.2651 29.4497 11.9631 29.8905C11.2275 29.8243 10.5599 29.677 9.98191 29.4341C9.56632 29.2593 9.19908 29.0339 8.87879 28.7607C8.93717 26.6331 9.35965 24.4227 10.2068 22.1824ZM14.3611 19.9292C15.4736 19.8229 16.7684 19.4711 18.1266 18.9421C18.315 19.2967 18.5078 19.6573 18.7124 20.0255C18.9147 20.9391 19.155 21.8711 19.4275 22.8141C17.2683 24.3106 15.3209 25.9483 13.7565 27.6511C13.5909 25.1313 13.7575 22.5282 14.361 19.9278L14.3611 19.9292ZM27.011 13.2339C29.1648 14.0533 31.1591 15.1011 32.9796 16.3164C31.737 16.6678 30.4596 17.0966 29.1678 17.6078C28.3479 16.1321 27.5114 14.7725 26.6809 13.5679C26.7919 13.4566 26.9072 13.3453 27.011 13.2324L27.011 13.2339ZM26.614 13.6344C27.4385 14.8286 28.2675 16.1777 29.0814 17.6429C27.9697 18.0839 26.8533 18.5822 25.745 19.125C24.9405 18.1376 24.1278 17.1751 23.3086 16.2537C24.5666 15.4294 25.7028 14.5334 26.614 13.6344ZM18.213 18.907C18.2937 18.8761 18.3757 18.8439 18.4578 18.8101C18.513 19.109 18.5858 19.4141 18.6497 19.7161C18.4977 19.4404 18.3561 19.1752 18.213 18.907ZM18.5471 18.7735C19.4094 18.419 20.2866 18.0074 21.1497 17.5423C21.8605 17.1583 22.5591 16.7402 23.2283 16.3037C24.046 17.2236 24.8572 18.1816 25.6602 19.1661C25.2692 19.3588 24.8782 19.5487 24.4903 19.7518C23.9559 20.0302 23.4275 20.3191 22.9037 20.6183C21.9637 21.1555 21.0445 21.7226 20.1549 22.3139C19.6837 21.5233 19.2169 20.7372 18.8017 19.9889C18.7109 19.5802 18.6217 19.173 18.5471 18.7735ZM7.55037 26.4421C7.55411 26.4849 7.5564 26.5277 7.56305 26.5706C7.58919 28.7161 8.14819 30.7999 9.11101 32.7546C9.3018 33.7505 9.57036 34.7156 9.91369 35.6452C9.9224 36.0891 9.97897 36.531 10.0789 36.9664C8.24981 33.6118 7.43696 29.981 7.55037 26.4421ZM18.8657 20.2953C19.2402 20.9632 19.6603 21.6644 20.079 22.3655C19.8856 22.4944 19.6981 22.6263 19.5091 22.7567C19.2693 21.9264 19.05 21.1039 18.8657 20.2953ZM7.67591 27.0711C7.90473 27.7862 8.28031 28.3627 8.78535 28.8061C8.75589 30.0409 8.84777 31.2472 9.04921 32.4158C8.25244 30.7135 7.77016 28.9158 7.67591 27.0711ZM35.0743 11.6859C36.2368 12.1275 37.324 12.6547 38.3341 13.251C38.3212 13.4041 38.2995 13.5585 38.2692 13.7156C38.1682 14.2591 37.9572 14.8225 37.6825 15.395C37.6579 15.3974 37.6318 15.3999 37.6072 15.4023C36.8576 14.0327 36.0158 12.7718 35.0743 11.6859ZM37.5834 10.4175C39.5545 11.7655 41.1364 13.6115 42.328 15.7624C42.2023 15.7186 42.0766 15.6748 41.9453 15.6383C41.8534 15.6129 41.7486 15.6006 41.6539 15.578C40.6876 14.7024 39.611 13.9057 38.429 13.2028C38.505 12.1989 38.2427 11.2561 37.5834 10.4175ZM37.9755 10.5785C40.6103 12.2448 42.912 14.5385 44.6396 17.3795C44.1205 16.6587 43.3759 16.1398 42.455 15.8032C41.3201 13.7316 39.8277 11.9301 37.9755 10.5785ZM22.9518 20.7048C23.4742 20.4055 24.0026 20.1152 24.5356 19.8367C24.9277 19.6307 25.3244 19.4366 25.7212 19.2424C26.9139 20.7107 28.0702 22.2417 29.1918 23.7853C28.2376 24.4136 27.2451 25.0132 26.2315 25.5755C25.2252 26.135 24.1991 26.6543 23.1722 27.1279C22.4738 26.0748 21.7987 25.0251 21.1558 23.9922C20.8186 23.4489 20.5196 22.93 20.203 22.4004C21.0927 21.8091 22.0118 21.2405 22.9518 20.7048ZM25.8031 19.2013C26.9086 18.6629 28.0192 18.1689 29.1266 17.7293C29.3674 18.1631 29.6067 18.6012 29.8419 19.0511C30.3771 20.07 30.9001 21.1329 31.4061 22.2162C30.7211 22.7348 30.0084 23.2426 29.2662 23.7322C28.1475 22.1916 26.9943 20.6666 25.8031 19.2013ZM20.1271 22.452C20.4437 22.9816 20.7412 23.499 21.0784 24.0408C21.7183 25.0707 22.3905 26.1188 23.0859 27.1675C22.4847 27.4431 21.8845 27.6966 21.287 27.9384C20.757 26.5967 20.2676 25.2469 19.8481 23.9104C19.7367 23.5573 19.6384 23.2074 19.5357 22.8575C19.7319 22.7213 19.9266 22.5851 20.1271 22.452ZM8.87675 28.8786C9.19097 29.1384 9.54643 29.3548 9.94593 29.5234C10.521 29.7632 11.1785 29.9133 11.8996 29.9806C10.9462 31.3888 10.2848 32.8161 10.0309 34.2219C9.72664 33.7309 9.44688 33.23 9.19592 32.718C8.95975 31.4808 8.84891 30.1961 8.87675 28.8786ZM19.457 22.9134C19.5565 23.253 19.6517 23.5925 19.7586 23.9351C20.1797 25.2762 20.6691 26.6274 21.1991 27.9705C18.8044 28.9287 16.4636 29.6004 14.4176 29.8357C14.2685 29.8534 14.1306 29.8551 13.9858 29.867C13.8852 29.181 13.8135 28.4852 13.7634 27.7825C15.3262 26.0678 17.2835 24.42 19.457 22.9134ZM29.213 17.6942C30.5264 17.1761 31.824 16.7403 33.0855 16.3863C33.9929 16.9969 34.8518 17.6492 35.6678 18.3331C34.5336 19.6302 33.1034 20.9258 31.4805 22.1601C30.976 21.0814 30.456 20.0229 29.9238 19.007C29.6886 18.5601 29.4508 18.1249 29.213 17.6942ZM38.4208 13.3029C39.5368 13.9691 40.5616 14.7206 41.4848 15.5438C40.4078 15.3117 39.1617 15.2664 37.7912 15.3868C38.056 14.8274 38.2599 14.2742 38.3597 13.738C38.3873 13.5926 38.4062 13.4471 38.4193 13.3028L38.4208 13.3029ZM33.2053 16.3548C34.5419 15.9846 35.8367 15.7035 37.0441 15.5504C37.2192 15.5274 37.3846 15.5203 37.5555 15.503C37.5705 15.5299 37.5869 15.5538 37.6005 15.5806C37.2372 16.2943 36.758 17.022 36.1687 17.7548C36.0327 17.9231 35.8764 18.0925 35.7302 18.2621C34.9319 17.5918 34.0907 16.9531 33.2053 16.3548ZM13.6738 27.8765C13.7229 28.5291 13.7908 29.1762 13.8846 29.8149C13.6023 29.4068 13.3273 28.9989 13.071 28.587C13.2298 28.397 13.377 28.2053 13.5445 28.0155C13.5857 27.9691 13.6327 27.9229 13.6738 27.8765ZM13.0087 28.6639C13.2633 29.0699 13.5354 29.4763 13.8147 29.8784C13.2061 29.9238 12.6201 29.9388 12.0765 29.8971C12.363 29.4841 12.6727 29.073 13.0087 28.6639ZM12.0086 29.9901C12.5886 30.0384 13.2196 30.0199 13.8746 29.9695C13.8865 29.9859 13.897 30.0038 13.9104 30.0203C14.4634 33.646 15.718 37.0129 17.4262 39.8241C16.6396 39.897 15.8981 39.903 15.1977 39.8567C13.8992 38.8419 12.7075 37.7215 11.6821 36.4998C11.1026 35.8087 10.5761 35.0863 10.1058 34.3428C10.3461 32.9043 11.0212 31.439 12.0086 29.9901ZM37.7467 15.4862C39.1969 15.3556 40.5083 15.4051 41.6208 15.6658C42.101 16.1043 42.5526 16.5614 42.9784 17.0342C43.2225 17.5638 43.4465 18.1093 43.6476 18.6661C44.0942 19.903 44.4215 21.2009 44.655 22.5264C44.2804 23.402 43.7654 24.2985 43.0938 25.2052C42.6811 25.1779 42.2543 25.1709 41.8063 25.1945C41.4182 24.5721 40.9969 23.9564 40.5437 23.3474C40.0922 21.3395 39.4733 19.3827 38.6845 17.573C38.3836 16.8816 38.0528 16.222 37.7064 15.5782C37.7218 15.5476 37.7313 15.5168 37.7467 15.4862ZM37.6592 15.6849C37.9906 16.3062 38.3094 16.945 38.5996 17.6097C39.3595 19.3525 39.9638 21.2308 40.4109 23.1605C39.1162 21.4485 37.5675 19.8124 35.804 18.3226C35.9501 18.153 36.1079 17.9836 36.2439 17.8138C36.8191 17.0984 37.297 16.3854 37.6592 15.6849ZM13.9977 29.9601C14.1441 29.9468 14.2834 29.9466 14.4325 29.9289C16.4901 29.6924 18.8367 29.0207 21.2357 28.0597C21.9334 29.819 22.712 31.5563 23.5386 33.2252C22.1593 34.3022 20.9186 35.4202 19.8943 36.544C17.7053 34.599 15.7104 32.4102 14.1014 30.1391C14.0656 30.0897 14.037 30.039 14.0027 29.9912C14.001 29.9808 13.9994 29.9705 13.9977 29.9601ZM14.027 30.1951C15.6405 32.4707 17.637 34.664 19.8304 36.6135C19.4809 37.0002 19.1489 37.3873 18.8532 37.7721C18.3282 38.4576 17.8975 39.139 17.571 39.8048C17.5565 39.806 17.5405 39.8086 17.5261 39.8113C15.8422 37.0522 14.5961 33.7533 14.027 30.1951ZM9.26369 33.0657C9.49143 33.5037 9.73938 33.9361 10.006 34.36C9.95039 34.7054 9.92369 35.0454 9.91734 35.3873C9.65007 34.636 9.43168 33.8607 9.26369 33.0657ZM35.7415 18.3936C37.5581 19.9258 39.1412 21.6155 40.4558 23.3796C40.5974 24.0119 40.7187 24.6467 40.8241 25.2857C40.704 25.2995 40.5909 25.3047 40.4679 25.3229C38.3953 25.6093 36.0582 26.3223 33.6816 27.3133C33.0198 25.6093 32.294 23.9025 31.5243 22.2495C33.1588 21.008 34.5975 19.7022 35.7415 18.3936ZM41.784 15.7C41.8292 15.7112 41.8801 15.7167 41.9239 15.7293C42.0844 15.7738 42.2407 15.8255 42.3927 15.8801C42.5462 16.1618 42.6941 16.4477 42.8333 16.738C42.5012 16.382 42.149 16.036 41.784 15.7ZM42.5258 15.9314C43.5713 16.3353 44.3734 16.9777 44.8559 17.8968C45.1679 18.5605 45.2993 19.2678 45.2761 20.0089C44.6501 18.9483 43.9061 17.9356 43.053 16.987C42.8877 16.6285 42.711 16.2756 42.5258 15.9314ZM21.3221 28.0275C21.9269 27.7844 22.5328 27.5266 23.1398 27.2482C24.0745 28.6583 25.0495 30.053 26.0329 31.4258C25.1891 31.9885 24.3806 32.571 23.6115 33.1677C22.7879 31.5062 22.0168 29.7779 21.3221 28.0275ZM31.4471 22.3054C32.2137 23.9525 32.9364 25.6519 33.5952 27.3499C33.1346 27.5428 32.6728 27.7474 32.2111 27.9624C31.3003 26.5837 30.3253 25.1934 29.3229 23.8114C30.0579 23.3247 30.7664 22.8212 31.4471 22.3054ZM10.0825 34.4854C10.5392 35.2005 11.052 35.8947 11.6108 36.5603C12.6109 37.7521 13.7731 38.8497 15.035 39.8476C14.4855 39.8029 13.9559 39.7334 13.473 39.606C12.7028 39.4035 12.029 39.0895 11.4619 38.6596C10.8888 37.7063 10.3987 36.6926 10.0048 35.6293C9.99737 35.2503 10.0247 34.8705 10.0825 34.4854ZM23.2261 27.2101C24.2515 26.7364 25.2747 26.2171 26.2796 25.659C27.2946 25.0952 28.29 24.4942 29.247 23.8645C30.2465 25.2435 31.217 26.6278 32.1248 28.002C30.9341 28.5564 29.7459 29.1668 28.5892 29.8339C27.7411 30.3228 26.9154 30.8432 26.1102 31.3757C25.1299 30.0074 24.1593 28.6157 23.2261 27.2101ZM10.0193 35.9244C10.3693 36.8218 10.7838 37.6836 11.2614 38.5023C10.8644 38.1657 10.5242 37.7654 10.2552 37.2942C10.2537 37.2913 10.2522 37.2883 10.2506 37.2853L10.2492 37.2838C10.2492 37.2838 10.2491 37.2823 10.2477 37.2808C10.1199 36.8346 10.0486 36.382 10.0193 35.9244ZM43.161 17.2427C43.9672 18.1653 44.6743 19.1464 45.2677 20.1694C45.2337 20.7304 45.1158 21.3074 44.9141 21.9005C44.8619 22.0513 44.7852 22.2076 44.7229 22.3611C44.4903 21.0843 44.1654 19.8336 43.7341 18.6398C43.5608 18.1632 43.3645 17.7008 43.161 17.2427ZM44.9728 17.9404C46.6145 20.8358 47.481 23.9488 47.6461 27.0376C47.4399 25.1804 46.9232 23.3319 46.1036 21.5746C45.8779 21.0925 45.6306 20.6173 45.3602 20.1506C45.4045 19.3775 45.284 18.635 44.9728 17.9404ZM10.7877 38.176C10.9716 38.3757 11.1754 38.5567 11.3905 38.7216C11.6635 39.1737 11.9523 39.6143 12.261 40.0391C12.8517 40.8527 13.5109 41.6087 14.2227 42.3083C12.9307 41.1093 11.7716 39.7272 10.7877 38.176ZM11.5937 38.8716C12.1321 39.2404 12.7543 39.5151 13.4516 39.6984C13.9782 39.8371 14.5587 39.9105 15.1618 39.9518C15.7617 40.4192 16.3799 40.8649 17.0238 41.28C16.9822 41.4576 16.9465 41.6338 16.9223 41.8073C16.7652 42.9703 17.0549 44.0522 17.8829 44.9782C15.7179 43.7369 13.8225 42.0306 12.3354 39.9845C12.0744 39.6255 11.829 39.2521 11.5937 38.8716ZM45.352 20.3273C45.5911 20.7492 45.8157 21.1768 46.0187 21.6113C46.9898 23.6929 47.5368 25.9032 47.638 28.1018C47.197 26.8533 46.3073 26.0367 45.1028 25.5957C45.0492 24.5657 44.9246 23.5445 44.7481 22.5371C44.8327 22.3353 44.9318 22.1338 44.999 21.9346C45.1856 21.387 45.3057 20.8498 45.352 20.3273ZM28.6359 29.9174C29.7968 29.2489 30.9865 28.637 32.1801 28.0812C33.1943 29.6211 34.1118 31.1179 34.9661 32.5722C33.7918 33.3731 32.5704 34.1406 31.3145 34.85C30.7002 35.1991 30.0783 35.5303 29.4533 35.8526C28.3712 34.4749 27.2666 32.9877 26.1669 31.4549C26.9692 30.9224 27.7906 30.4049 28.6359 29.9174ZM26.0881 31.505C27.1848 33.0362 28.2878 34.5175 29.3685 35.8937C28.2305 36.4756 27.0842 37.0058 25.9427 37.4816C25.9187 37.4413 25.8933 37.404 25.8693 37.3637C25.1081 36.072 24.3655 34.6877 23.6553 33.257C24.4272 32.656 25.2401 32.0706 26.0867 31.5049L26.0881 31.505ZM32.265 28.0445C32.7209 27.8324 33.177 27.6291 33.6318 27.4391C34.2709 29.0896 34.8386 30.7342 35.3285 32.3243C35.234 32.3902 35.138 32.4561 35.0435 32.5206C34.1907 31.0708 33.2747 29.5785 32.265 28.0445ZM33.7168 27.4054C36.0876 26.4158 38.4203 25.7026 40.4827 25.4161C40.6043 25.3993 40.7174 25.3942 40.8376 25.3803C40.9531 26.0902 41.044 26.7997 41.1131 27.5131C39.5214 29.1564 37.5605 30.7717 35.4087 32.2698C34.9204 30.6857 34.3528 29.0484 33.7168 27.4054ZM40.5887 23.5695C40.9839 24.108 41.3545 24.6534 41.6991 25.2027C41.4454 25.2169 41.1804 25.2485 40.9169 25.2787C40.8215 24.7048 40.7131 24.1366 40.5887 23.5695ZM23.5796 33.3159C24.2897 34.7423 25.0293 36.1205 25.7889 37.4078C25.8114 37.4451 25.8324 37.4809 25.8549 37.5182C24.7436 37.9783 23.6441 38.3797 22.5667 38.7182C21.6757 38.0593 20.8056 37.3551 19.9638 36.6102C20.9796 35.4966 22.2102 34.3857 23.5796 33.3159ZM19.8984 36.6767C20.7254 37.4081 21.5808 38.1016 22.4556 38.7513C21.1141 39.1686 19.8085 39.4952 18.5802 39.6862C18.2749 39.7332 17.9822 39.7599 17.6854 39.7923C18.0051 39.1515 18.4189 38.4962 18.9255 37.834C19.2198 37.4491 19.5489 37.0635 19.8984 36.6767ZM44.6803 22.7053C44.8396 23.6475 44.9541 24.6006 45.0049 25.5628C44.4613 25.3752 43.8512 25.2688 43.1956 25.2175C43.819 24.3704 44.3134 23.5295 44.6803 22.7053ZM40.9318 25.3719C41.2084 25.3419 41.4892 25.3062 41.756 25.2908C41.9433 25.5923 42.1248 25.8952 42.2962 26.1978C42.248 26.2558 42.2085 26.3126 42.1588 26.3705C41.8595 26.7199 41.5355 27.0703 41.2013 27.419C41.1327 26.7351 41.0424 26.0537 40.9318 25.3719ZM15.3216 39.9609C16.003 39.9979 16.7197 39.9841 17.4772 39.9106C17.4848 39.924 17.4923 39.9374 17.4998 39.9494C17.3034 40.3701 17.1533 40.7814 17.0481 41.1876C16.4527 40.8029 15.8786 40.3891 15.3216 39.9609ZM41.8648 25.29C42.2664 25.2714 42.6539 25.2717 43.0258 25.2923C42.8179 25.5683 42.5897 25.8454 42.36 26.121C42.2022 25.8436 42.0371 25.5662 41.8648 25.29ZM43.1364 25.3048C43.8209 25.3537 44.4544 25.4679 45.0141 25.6647C45.1111 27.648 44.9645 29.6442 44.6018 31.5727C44.2472 30.1431 43.6959 28.6727 42.9545 27.2045C42.787 26.8739 42.5961 26.5428 42.4097 26.2119C42.6621 25.9087 42.9116 25.607 43.1364 25.3048ZM17.6336 39.8916C17.9522 39.858 18.2709 39.829 18.6008 39.7765C19.8523 39.5815 21.1838 39.2481 22.5513 38.8211C23.3082 39.38 24.0748 39.9155 24.8535 40.3997C26.0039 41.1153 27.1697 41.731 28.3336 42.2493C27.606 43.0354 27.0623 43.8016 26.7931 44.5025C26.7379 44.6473 26.6986 44.7895 26.6665 44.929C24.2178 44.5401 21.7854 43.7225 19.5121 42.5808C18.8599 41.8116 18.2441 40.9739 17.6792 40.0723C17.6538 40.0335 17.6341 39.9903 17.6087 39.9515C17.6184 39.9311 17.6238 39.912 17.6336 39.8916ZM17.5658 40.0598C17.5778 40.0792 17.5884 40.1015 17.6004 40.1224C18.1307 40.9658 18.7077 41.7482 19.3127 42.4781C18.5679 42.0948 17.8387 41.6883 17.1346 41.2365C17.2331 40.8537 17.3835 40.4586 17.5658 40.0598ZM42.3473 26.2888C42.5278 26.6078 42.711 26.9254 42.8726 27.2456C43.6472 28.7808 44.2085 30.3163 44.557 31.8018C44.4922 32.1248 44.4377 32.451 44.3598 32.7709C44.1181 33.7701 43.799 34.7382 43.4284 35.6744C42.88 35.3142 42.1273 35.1888 41.2489 35.2437C41.159 35.2493 41.0621 35.268 40.9709 35.278C41.1565 34.232 41.2834 33.1554 41.3387 32.0537C41.4127 30.578 41.3598 29.0644 41.214 27.549C41.5724 27.1786 41.9134 26.805 42.2326 26.4339C42.2738 26.3846 42.3076 26.3366 42.3473 26.2873L42.3473 26.2888ZM41.1271 27.6342C41.2665 29.1186 41.316 30.6012 41.2442 32.046C41.189 33.155 41.0608 34.2375 40.8739 35.2893C39.7719 35.4135 38.4992 35.7879 37.1691 36.3396C36.7858 35.5919 36.3745 34.8216 35.9218 34.0151C35.8077 33.6001 35.6922 33.1836 35.5648 32.7579C35.526 32.6289 35.4813 32.4954 35.4424 32.3649C37.5829 30.8754 39.5338 29.2701 41.1271 27.6342ZM17.1104 41.3319C17.8673 41.8156 18.6538 42.2572 19.46 42.6623C20.7019 44.1242 22.088 45.3147 23.5551 46.1914C22.2832 46.3108 21.1404 46.2793 20.1903 46.0793C19.4825 45.8043 18.7969 45.4797 18.1338 45.1143C17.1791 44.1652 16.8524 43.0487 17.017 41.8224C17.0399 41.6607 17.0715 41.4962 17.1104 41.3319ZM45.1091 25.6991C46.3095 26.1488 47.1802 26.9621 47.5927 28.2366C47.5918 30.4803 46.6205 32.6784 45.0382 34.7303C45.0125 33.7892 44.886 32.8137 44.6529 31.811C45.0463 29.8198 45.2075 27.7531 45.1091 25.6991ZM22.6653 38.7879C23.7282 38.4507 24.8118 38.0519 25.9073 37.5988C26.8407 39.1667 27.7932 40.5948 28.7334 41.84C28.6195 41.9527 28.5085 42.0655 28.4033 42.1769C27.2321 41.657 26.059 41.0383 24.9012 40.3181C24.1446 39.8491 23.4001 39.3287 22.6653 38.7879ZM25.9951 37.5622C27.1381 37.0865 28.2872 36.5534 29.428 35.97C29.5084 36.0733 29.592 36.1885 29.6723 36.2903C30.4878 37.3192 31.2772 38.2754 32.0374 39.1513C30.8144 39.9867 29.7 40.8816 28.8003 41.7705C27.869 40.5359 26.9211 39.1181 25.9951 37.5622ZM35.3623 32.4208C35.3995 32.5409 35.4396 32.6641 35.4753 32.7842C35.567 33.0897 35.6468 33.3861 35.7325 33.6871C35.5326 33.3352 35.3048 32.9666 35.0945 32.6057C35.1833 32.544 35.2735 32.4824 35.3623 32.4208ZM35.0172 32.6572C35.2769 33.1002 35.5602 33.5584 35.8023 33.9892C35.8128 34.0086 35.8219 34.0264 35.8324 34.0458C36.0793 34.9426 36.2923 35.8092 36.4698 36.6442C35.6052 37.0355 34.7302 37.4855 33.8737 37.9861C33.5063 38.2 33.1421 38.4228 32.7852 38.6516C32.5573 38.7975 32.3368 38.9479 32.1148 39.0983C31.3545 38.2209 30.5622 37.2632 29.7452 36.2328C29.6693 36.1355 29.5888 36.0263 29.5128 35.9289C30.1335 35.6095 30.7526 35.2797 31.3654 34.9336C32.6199 34.2227 33.8428 33.4566 35.0172 32.6572ZM19.6843 42.7758C21.9014 43.8663 24.2663 44.6442 26.6466 45.0244C26.6045 45.2476 26.5957 45.4627 26.6244 45.6682C26.0364 45.8055 25.4598 45.9297 24.9043 46.0205C24.4949 46.0876 24.0968 46.1387 23.7086 46.1782C22.2714 45.3375 20.9122 44.1873 19.6843 42.7758ZM36.0387 34.4258C36.4089 35.0936 36.7613 35.7477 37.0827 36.3747C36.9071 36.4479 36.733 36.5241 36.556 36.6031C36.4043 35.8984 36.2378 35.1757 36.0387 34.4258ZM47.6571 28.7081C47.6581 28.8335 47.6562 28.9573 47.6543 29.0825C47.5887 30.47 47.3863 31.8414 47.0424 33.1747C47.0396 33.1806 47.0383 33.1879 47.0369 33.1938C46.5538 34.8295 45.7776 36.3916 44.7098 37.8138C44.9589 36.9017 45.0571 35.9144 45.0412 34.8822C46.5646 32.9353 47.5308 30.8492 47.6557 28.7081L47.6571 28.7081ZM33.9231 38.0681C34.7697 37.5733 35.6361 37.1304 36.4891 36.7433C36.8556 38.4828 37.0681 40.0674 37.0766 41.3899C36.4813 41.7408 35.8739 42.0738 35.2619 42.392C34.3591 41.5736 33.3115 40.4768 32.1786 39.1733C32.3978 39.0258 32.6125 38.8752 32.8361 38.7322C33.193 38.5034 33.5573 38.2821 33.9231 38.0681ZM44.6066 32.0401C44.8172 33.0055 44.9299 33.9438 44.9476 34.8479C44.6163 35.2689 44.2646 35.6865 43.8851 36.0948C43.7765 35.957 43.6465 35.8424 43.5081 35.7394C43.8842 34.7915 44.2075 33.8102 44.4532 32.7978C44.5136 32.5484 44.5536 32.2926 44.6066 32.0401ZM32.1027 39.2249C33.2282 40.5208 34.27 41.6161 35.1757 42.4374C35.0479 42.5042 34.9201 42.5739 34.7907 42.6392C34.1196 42.9768 33.4407 43.2877 32.763 43.5854C31.6807 43.3827 30.5713 43.0542 29.4526 42.6208C29.2562 42.3766 29.0566 42.1132 28.8585 41.8513C29.7582 40.9609 30.8769 40.0631 32.1027 39.2249ZM36.5768 36.7008C36.7624 36.619 36.9466 36.5401 37.1309 36.4626C37.8507 37.87 38.4391 39.1583 38.8644 40.2679C38.31 40.6374 37.7467 40.9963 37.1685 41.3387C37.1555 40.0087 36.9431 38.4315 36.5768 36.7008ZM37.2173 36.4275C38.5273 35.8858 39.7768 35.5139 40.8569 35.3863C40.5673 36.9698 40.1251 38.4707 39.5132 39.8326C39.3271 39.9631 39.1351 40.0875 38.9446 40.215C38.5194 39.1053 37.9312 37.8259 37.2173 36.4275ZM20.1878 46.1765C20.1937 46.1781 20.1995 46.1797 20.2053 46.1798C21.9981 46.8712 23.9186 47.2644 25.9075 47.2993C26.1019 47.365 26.296 47.4249 26.4915 47.4774C27.2546 47.6841 28.0289 47.7952 28.8085 47.8106C25.857 47.9057 22.9129 47.3404 20.1878 46.1765ZM20.6946 46.2632C21.5765 46.3867 22.5865 46.386 23.6916 46.2737C24.3229 46.64 24.9648 46.9578 25.6211 47.1978C23.9132 47.1375 22.2568 46.8144 20.6946 46.2632ZM28.7916 41.9192C28.9525 42.1303 29.1148 42.3443 29.2741 42.545C29.0166 42.4426 28.759 42.3314 28.5014 42.2187C28.5952 42.1188 28.6919 42.019 28.7916 41.9192ZM28.4302 42.288C28.7523 42.43 29.0744 42.575 29.3946 42.6992C29.8959 43.3195 30.3899 43.8688 30.8713 44.3604C30.0919 44.6546 29.3163 44.9208 28.556 45.1505C27.9573 45.1107 27.3566 45.0399 26.7568 44.947C26.7876 44.8149 26.8241 44.68 26.878 44.5395C27.1431 43.8489 27.6939 43.0784 28.4302 42.288ZM40.9554 35.375C41.0553 35.3637 41.1624 35.3466 41.2595 35.3412C42.135 35.2862 42.869 35.4157 43.394 35.7681C43.1919 36.2698 42.9767 36.7638 42.7379 37.2412C41.803 38.1131 40.7701 38.9463 39.6679 39.7251C40.2526 38.3877 40.6737 36.9188 40.9554 35.375ZM29.5863 42.7767C30.6054 43.1625 31.6169 43.4581 32.6091 43.6531C32.0608 43.89 31.5152 44.118 30.9693 44.3269C30.5177 43.8684 30.0562 43.3521 29.5863 42.7767ZM23.8453 46.262C24.1957 46.2232 24.5561 46.1743 24.9235 46.1137C25.4776 46.0244 26.0528 45.9016 26.6379 45.7643C26.715 46.1417 26.9247 46.4761 27.2842 46.75C27.4654 46.8878 27.6854 47.0071 27.9429 47.1139C27.2637 47.186 26.591 47.2184 25.9246 47.2082C25.219 46.9717 24.5233 46.6469 23.8453 46.262ZM26.7383 45.0409C27.2653 45.1221 27.7904 45.1811 28.3166 45.2239C27.7726 45.3842 27.2412 45.5211 26.7154 45.6464C26.6899 45.4557 26.699 45.2539 26.7383 45.0409ZM43.475 35.8301C43.6032 35.927 43.7214 36.0355 43.8211 36.1628C43.7842 36.2018 43.7545 36.2411 43.7175 36.2801C43.4729 36.5363 43.2137 36.7877 42.9516 37.039C43.1412 36.6447 43.3103 36.2382 43.475 35.8301ZM44.9491 34.9983C44.9551 36.0392 44.8454 37.0351 44.576 37.9468C44.5679 37.9761 44.5568 38.0054 44.5472 38.0346C44.4821 38.1189 44.4097 38.2 44.3417 38.2827C44.4396 37.3573 44.291 36.663 43.9403 36.1725C44.3 35.7889 44.6333 35.396 44.9491 34.9983ZM26.7275 45.7439C27.3284 45.601 27.9391 45.4376 28.5637 45.248C29.6406 45.3208 30.7099 45.3081 31.7629 45.2006C32.0773 45.4736 32.3869 45.72 32.6855 45.9191C31.1678 46.5319 29.6501 46.9132 28.1558 47.0901C27.8255 46.973 27.5514 46.8349 27.3393 46.6745C26.9931 46.4126 26.7983 46.0991 26.7275 45.7439ZM43.8765 36.245C44.2184 36.7353 44.3614 37.4398 44.2354 38.4118C43.0202 39.8679 41.4708 41.1553 39.5743 42.2029C39.5474 42.0918 39.5279 41.9867 39.4951 41.8682C40.8471 40.5813 41.9529 39.0242 42.8188 37.2973C43.1537 36.9855 43.477 36.669 43.7856 36.3464C43.8168 36.3131 43.8437 36.2782 43.8765 36.245ZM46.5074 34.9052C45.9173 36.5594 45.1065 38.1341 44.09 39.5809L44.0899 39.5765C44.1211 39.4651 44.1423 39.3623 44.1677 39.2552C44.3533 38.877 44.5081 38.4806 44.635 38.0673C45.405 37.0771 46.0271 36.0147 46.5074 34.9052ZM28.8147 45.1704C29.5158 44.9528 30.2265 44.7103 30.9425 44.4384C31.1867 44.6835 31.4276 44.905 31.6639 45.1131C30.7253 45.2037 29.7722 45.2232 28.8147 45.1704ZM42.6235 37.4748C41.7873 39.0903 40.7347 40.5452 39.4655 41.7644C39.3797 41.4605 39.276 41.1311 39.1531 40.7852C39.3071 40.4964 39.4522 40.1985 39.5899 39.8946C40.6751 39.1346 41.6925 38.3247 42.6235 37.4748ZM31.0419 44.4021C31.6195 44.1805 32.1996 43.9369 32.7794 43.683C34.0932 43.9242 35.3686 43.9833 36.5744 43.8272C36.5444 43.8473 36.5157 43.8674 36.4871 43.8874C34.9992 44.5362 33.4178 44.931 31.7914 45.0994C31.5462 44.8852 31.2965 44.6562 31.0418 44.4006L31.0419 44.4021ZM26.221 47.2966C26.8537 47.2958 27.4945 47.2598 28.1402 47.1841C28.7482 47.3996 29.5779 47.5251 30.6019 47.5674C29.2296 47.8219 27.8538 47.749 26.5115 47.3864C26.4138 47.3594 26.3173 47.3265 26.221 47.2966ZM32.9378 43.6154C33.5723 43.3345 34.2065 43.0404 34.8345 42.7241C34.9739 42.6546 35.1117 42.5777 35.2511 42.5053C35.8183 43.0148 36.3313 43.4185 36.7734 43.6837C36.7634 43.6924 36.7519 43.6995 36.7419 43.7082C35.5379 43.8864 34.2586 43.8464 32.9378 43.6154ZM39.4381 39.9962C39.3337 40.2227 39.2234 40.4461 39.1087 40.6649C39.0658 40.5476 39.0257 40.4304 38.9798 40.3071C39.1331 40.2054 39.2863 40.1008 39.4381 39.9962ZM38.8996 40.3615C38.9532 40.5041 39.0009 40.6422 39.0485 40.7787C38.5516 41.7095 37.9661 42.5618 37.2901 43.318C37.1785 43.4013 37.0639 43.4787 36.9509 43.559C36.9522 43.5546 36.9536 43.5502 36.955 43.5458L36.9534 43.5414C37.1072 42.9473 37.176 42.2396 37.175 41.4449C37.7617 41.0983 38.3366 40.7367 38.8996 40.3615ZM35.3358 42.4598C35.9248 42.153 36.5078 41.8342 37.0802 41.4976C37.0793 42.2671 37.01 42.9469 36.863 43.5175L36.863 43.5204L36.8602 43.5218C36.855 43.5571 36.8454 43.582 36.8388 43.6172C36.4071 43.3596 35.8986 42.9647 35.3358 42.4598ZM39.0944 40.899C39.2098 41.2301 39.3088 41.5446 39.3885 41.8351C38.9626 42.2395 38.5099 42.6153 38.0349 42.9627C37.8708 43.0346 37.7068 43.1081 37.5384 43.177C38.1286 42.4869 38.6477 41.7246 39.0944 40.899ZM28.3575 47.1604C29.821 46.9711 31.3039 46.5847 32.7868 45.98C33.0778 46.1671 33.3609 46.3201 33.633 46.4302C32.7706 46.9291 31.8965 47.2775 31.0167 47.4842C29.9091 47.4667 29.013 47.3606 28.3575 47.1604ZM31.8874 45.1883C33.3139 45.0337 34.7021 44.7043 36.0271 44.1835C34.955 44.87 33.8732 45.4324 32.7906 45.8769C32.7803 45.8693 32.77 45.8662 32.7597 45.8586C32.4774 45.6717 32.1856 45.4419 31.8874 45.1883ZM44.4678 38.2763C44.406 38.4564 44.3384 38.635 44.2649 38.8089C44.2872 38.687 44.3109 38.5622 44.3275 38.446C44.3742 38.3895 44.421 38.3329 44.4678 38.2763ZM44.2056 38.5955C44.1746 38.7909 44.1322 38.998 44.0813 39.2137C43.2511 40.9118 41.8188 42.2487 39.7153 43.0298C39.7045 42.9205 39.7025 42.8202 39.6827 42.7004C39.6614 42.5761 39.6238 42.4324 39.5935 42.2976C41.4586 41.273 42.9941 40.0163 44.2056 38.5955ZM39.4211 41.9389C39.4508 42.0486 39.4643 42.1432 39.4881 42.2484C39.1506 42.4319 38.8029 42.6093 38.4434 42.7776C38.7836 42.5131 39.1076 42.2335 39.4211 41.9389ZM37.4527 43.3197C37.457 43.3184 37.4598 43.3155 37.4627 43.314C37.5376 43.2831 37.608 43.2506 37.6815 43.2211C37.5483 43.3099 37.412 43.3927 37.2758 43.4769C37.3014 43.4494 37.324 43.4204 37.3496 43.3914C37.3839 43.367 37.4183 43.3441 37.4527 43.3197ZM32.8977 45.938C34.1141 45.4328 35.3291 44.783 36.5309 43.9738C36.6071 43.9399 36.6848 43.9061 36.7611 43.8707C36.707 43.9242 36.6558 43.9807 36.6003 44.0341L36.5974 44.0341C35.6706 45.0242 34.7104 45.7939 33.732 46.3717C33.4659 46.2706 33.1872 46.1191 32.8977 45.938ZM36.9632 43.6683C36.9603 43.6712 36.9575 43.6756 36.9532 43.6784C36.9518 43.6799 36.9489 43.6798 36.946 43.6798C36.9517 43.6755 36.9574 43.6726 36.9632 43.6683ZM38.0858 43.0433C38.5807 42.8246 39.0551 42.5922 39.5103 42.3461C39.5359 42.4675 39.5719 42.5994 39.5901 42.7118C39.6114 42.839 39.6135 42.9467 39.6245 43.0619C38.8939 43.3246 38.0821 43.5224 37.1891 43.6448C37.4974 43.4563 37.7968 43.2558 38.0858 43.0433ZM36.9629 43.801C37.4815 44.1238 37.9286 44.3508 38.2966 44.4657C38.501 44.5302 38.6845 44.5618 38.8457 44.5664C38.7195 44.6465 38.5949 44.731 38.4673 44.8081C37.601 45.3306 36.706 45.7979 35.827 46.1934C36.3046 45.7561 36.6656 44.9952 36.8889 43.8762C36.913 43.8501 36.9372 43.8256 36.9629 43.801ZM37.0738 43.7575C38.0162 43.636 38.867 43.4332 39.6351 43.1579C39.6519 43.4207 39.6507 43.6595 39.6094 43.8444C39.5827 43.9662 39.5426 44.0657 39.4892 44.1516C39.333 44.2576 39.1725 44.3577 39.0134 44.4607C38.8282 44.488 38.6013 44.4643 38.3224 44.3763C37.9822 44.2708 37.5585 44.0545 37.0738 43.7575ZM43.7541 39.9945C43.7148 40.063 43.6857 40.1302 43.6435 40.1987C43.5656 40.2989 43.4848 40.3975 43.4055 40.4977C43.53 40.335 43.6443 40.1662 43.7541 39.9945ZM36.7466 44.0193C36.4651 45.2801 36.01 46.0525 35.414 46.3724C35.3061 46.4175 35.201 46.4626 35.0945 46.5062C34.7206 46.6094 34.299 46.573 33.8417 46.4151C34.8056 45.8371 35.7514 45.0774 36.6641 44.1047C36.6655 44.1032 36.6655 44.1018 36.6669 44.1003C36.6939 44.0743 36.7195 44.0453 36.7466 44.0193ZM30.4924 47.6846C30.6703 47.6543 30.8482 47.6224 31.0273 47.5802C31.097 47.5816 31.1581 47.5857 31.2306 47.5872C30.9832 47.625 30.7386 47.6556 30.4924 47.6846ZM43.2695 40.6675C42.5327 41.5758 41.7046 42.4204 40.7939 43.1941C40.4266 43.4846 40.0447 43.7675 39.6481 44.0398C39.6688 43.9871 39.688 43.9315 39.7013 43.8698C39.7467 43.6658 39.7459 43.4078 39.7244 43.1258C41.2388 42.5675 42.4137 41.7253 43.2695 40.6675ZM31.342 47.495C32.149 47.2766 32.9508 46.94 33.7413 46.4765C34.0936 46.6073 34.4286 46.6655 34.7403 46.651C34.1412 46.8839 33.56 47.0744 33.0142 47.217C32.942 47.2347 32.8698 47.251 32.7976 47.2687C32.3137 47.3845 31.8567 47.4683 31.4481 47.4986L31.4451 47.4985C31.4074 47.4993 31.3798 47.4958 31.342 47.495Z" fill="#C0E0EF" fill-opacity="0.5" shape-rendering="crispEdges"/>
<path d="M27.2404 7.39603C27.0139 7.39451 26.7861 7.39591 26.5584 7.40173C26.7862 7.39738 27.0166 7.38424 27.2404 7.39603ZM27.2404 7.39603C29.3059 7.41617 31.3589 7.75449 33.3263 8.39482C32.2631 8.12763 31.1282 7.98139 29.9247 7.95911C29.0637 7.64726 28.1716 7.44537 27.2404 7.39603ZM17.3759 9.82836C16.7458 10.1845 16.1439 10.5736 15.5701 10.9883C14.0392 12.0313 12.7625 13.1634 12.0467 14.1797L12.0438 14.1841L12.041 14.1855C12.0145 14.2396 12.0008 14.2835 11.9757 14.3361C11.5334 14.7962 11.1658 15.2916 10.8714 15.818C6.71471 21.9454 6.17983 30.2598 10.1594 37.2953C10.161 37.3027 10.1626 37.3101 10.1642 37.3175L10.1702 37.3279C10.1823 37.3503 10.1986 37.3683 10.2106 37.3907C10.2196 37.4056 10.2257 37.4204 10.2347 37.4354C12.2196 40.8859 15.0381 43.5583 18.2718 45.3441C18.6374 45.6343 19.0829 45.8554 19.5999 46.019C23.7694 47.9455 28.5019 48.4562 32.9975 47.3228C34.6582 46.9045 36.2856 46.2658 37.8401 45.3854C38.3697 45.0863 38.8757 44.7631 39.3654 44.4249C39.3811 44.4134 39.3998 44.4034 39.414 44.3904C39.958 44.0105 40.477 43.608 40.9722 43.1814C42.1166 42.2634 43.0869 41.2698 43.7103 40.2737C45.3261 38.1562 46.4831 35.7362 47.1396 33.1722C47.1409 33.1649 47.1422 33.1575 47.1449 33.1502C47.5241 31.8412 47.7225 30.4873 47.7465 29.1212C47.93 25.3095 47.0517 21.3737 44.9827 17.7785C42.7635 13.9238 39.5069 11.0378 35.7919 9.27791C35.748 9.25788 35.704 9.23785 35.6601 9.21782C32.2182 7.61667 28.3903 6.98089 24.6261 7.44172C24.6232 7.44166 24.6189 7.44305 24.6189 7.44305C23.1189 7.4783 21.3469 7.9932 19.5942 8.75763C18.8427 9.06565 18.1008 9.41809 17.3759 9.82836ZM17.0888 10.1367C17.3973 9.95557 17.7131 9.779 18.032 9.61133C18.496 9.36692 18.9676 9.14183 19.4409 8.93004C19.5229 8.89481 19.6065 8.86402 19.69 8.83029C19.1634 9.21204 18.7232 9.92425 18.3719 10.9581C18.3676 10.961 18.3633 10.9638 18.3591 10.9682C18.2868 10.9844 18.2174 10.9963 18.1452 11.0141L18.1336 11.0153L18.125 11.0225C18.0737 11.0687 18.0252 11.1134 17.9753 11.1596C17.5333 10.9666 17.1342 10.8231 16.817 10.7785C16.4852 10.7307 16.2129 10.7622 16.0075 10.8702C15.9386 10.9057 15.8756 10.9501 15.82 11.0036C15.6006 11.213 15.4998 11.5457 15.4966 11.9775C15.4957 12.0055 15.5052 12.0426 15.5058 12.0721C14.9614 12.2869 14.4479 12.52 13.99 12.7807C13.5063 13.0557 13.0827 13.3599 12.6914 13.6809C13.5851 12.7049 14.5878 11.8122 15.697 11.0203C15.7013 11.0174 15.7056 11.0131 15.7099 11.0102C16.1539 10.7109 16.611 10.4162 17.0888 10.1367ZM16.0527 10.9536C16.2395 10.8571 16.487 10.8266 16.8072 10.8712C17.1041 10.9139 17.4841 11.0482 17.9027 11.229C17.8485 11.278 17.7972 11.3271 17.743 11.3762C16.9644 11.5613 16.2475 11.7816 15.5964 12.0341C15.5961 12.0193 15.5899 11.9985 15.5896 11.9823C15.593 11.5652 15.6915 11.259 15.8867 11.0727C15.9366 11.0265 15.9909 10.9863 16.0527 10.9536ZM19.9573 8.7707C20.055 8.71808 20.1529 8.67726 20.2538 8.64387C20.6864 8.50204 21.1617 8.53944 21.6704 8.72786C21.5885 8.77047 21.5079 8.80279 21.426 8.84687C20.4739 9.36027 19.5002 10.0295 18.5104 10.8429C18.8986 9.76702 19.3858 9.0808 19.9573 8.7707ZM20.6278 8.47582C21.9496 8.0169 23.299 7.70446 24.6585 7.53965C24.7687 7.53741 24.8691 7.54823 24.9766 7.55183C23.9456 7.74524 22.8776 8.1222 21.784 8.67408C21.3803 8.51279 20.9929 8.44175 20.6278 8.47582ZM13.0711 13.1371C13.0156 13.1949 12.9587 13.2513 12.9032 13.3092C12.9587 13.2513 13.0142 13.1949 13.0711 13.1371ZM14.0395 12.8598C14.4858 12.6062 14.985 12.3817 15.5149 12.171C15.5267 12.3983 15.5592 12.6496 15.6139 12.9248C13.7803 14.2965 12.3002 15.7106 11.1296 17.147C11.2285 16.4162 11.5314 15.5067 12.0427 14.4244C12.091 14.3664 12.1377 14.3098 12.1859 14.2518C12.7042 13.7416 13.3118 13.2715 14.0395 12.8598ZM15.6028 12.1344C16.212 11.8973 16.8769 11.6893 17.5976 11.5104C17.5492 11.5566 17.5007 11.5999 17.4523 11.6461C16.8375 12.0468 16.2476 12.4523 15.6954 12.8631C15.6423 12.5952 15.6114 12.3528 15.6028 12.1344ZM21.4697 8.92882C21.5774 8.8705 21.6826 8.8313 21.7889 8.7759C22.0581 8.88736 22.3386 9.05654 22.624 9.2494C21.406 9.67352 20.1408 10.2088 18.8243 10.8639C18.7376 10.8828 18.6495 10.9017 18.5613 10.9221C19.5511 10.1087 20.522 9.4423 21.4697 8.92882ZM21.901 8.72062C23.1327 8.10807 24.3242 7.7365 25.4734 7.57933C26.1728 7.71992 26.7381 7.90504 27.1894 8.12477C25.7854 8.31523 24.299 8.67214 22.7321 9.21026C22.4496 9.01598 22.1704 8.83945 21.901 8.72062ZM18.1846 11.1018C18.189 11.1019 18.1933 11.1005 18.1976 11.0992C18.1705 11.1237 18.1419 11.1452 18.1134 11.1697C18.1376 11.1481 18.159 11.1249 18.1846 11.1018ZM11.8091 14.722C11.3616 15.7289 11.094 16.5875 11.0234 17.282C10.6849 17.7043 10.3666 18.127 10.0818 18.5533C10.1959 17.6371 10.462 16.7741 10.8861 15.9775C11.1751 15.5468 11.4848 15.1299 11.8091 14.722ZM18.0007 11.2722C18.0052 11.2752 18.0125 11.2768 18.0169 11.2799C17.9925 11.2941 17.971 11.3114 17.9467 11.3271C17.9467 11.3271 17.9438 11.3271 17.9409 11.327C17.9623 11.3097 17.9808 11.2909 18.0007 11.2722ZM18.4404 11.045C18.4534 11.0423 18.4664 11.0411 18.478 11.0369C18.4636 11.0454 18.4492 11.0525 18.4349 11.0596C18.4377 11.0552 18.439 11.0508 18.4404 11.045ZM18.2487 11.2609C18.2559 11.258 18.2645 11.2553 18.2717 11.251C18.2704 11.2554 18.269 11.2583 18.2676 11.2612C18.2618 11.2611 18.2545 11.2624 18.2487 11.2609ZM18.391 11.19C18.5476 11.109 18.7028 11.0325 18.8595 10.9545C20.5805 10.5771 22.2316 10.3326 23.8141 10.2135C23.962 10.355 24.1132 10.5201 24.2615 10.6778C23.4882 10.9884 22.7157 11.3328 21.9524 11.7084C20.7872 11.4938 19.5913 11.3449 18.3635 11.2705C18.3717 11.2426 18.3814 11.2178 18.391 11.19ZM17.8987 11.4707C17.242 12.4705 16.6684 13.4882 16.172 14.5177C16.0462 14.1703 15.9381 13.8408 15.8523 13.5355C15.8399 13.4939 15.8349 13.4599 15.8239 13.4184C16.3583 12.8467 16.9262 12.2785 17.529 11.7125C17.6523 11.6324 17.7726 11.5507 17.8987 11.4707ZM18.0569 11.3971C18.106 11.3863 18.1508 11.3739 18.2014 11.3631C18.2102 11.3677 18.2175 11.3708 18.2263 11.3754C18.2223 11.3945 18.2167 11.4076 18.2113 11.4267L18.2084 11.4266L18.2085 11.4311C18.0613 12.211 17.9938 13.0603 17.9851 13.952C17.4391 14.3039 16.9049 14.6678 16.3825 15.0378C16.3291 14.9041 16.2683 14.7658 16.2193 14.6366C16.7435 13.5413 17.3506 12.4579 18.0569 11.3971ZM19.2073 10.78C20.422 10.1907 21.5924 9.70668 22.7211 9.31618C22.8373 9.39661 22.9503 9.45929 23.0682 9.55302C23.2805 9.72085 23.4977 9.91974 23.7166 10.126C22.2704 10.239 20.7682 10.4526 19.2073 10.78ZM17.0547 12.0201C16.6146 12.4448 16.1992 12.8745 15.7984 13.3044C15.7686 13.1874 15.7431 13.0748 15.7192 12.9652C16.1469 12.6479 16.5892 12.3323 17.0547 12.0201ZM18.3156 11.414C18.3669 11.4401 18.4063 11.4512 18.4591 11.4788C18.4605 11.4803 18.462 11.4803 18.4635 11.4818C18.9332 11.8994 19.4078 12.3452 19.8826 12.8042C19.7477 12.8811 19.6113 12.9551 19.4765 13.035C19.0675 13.2731 18.6616 13.5187 18.2631 13.7703C18.2029 13.8089 18.1442 13.849 18.084 13.8876C18.0962 13.0284 18.1584 12.2085 18.3004 11.4565C18.3045 11.4403 18.3115 11.4302 18.3156 11.414ZM18.4366 11.3678C19.5888 11.4392 20.7134 11.5808 21.8086 11.7778C21.1878 12.087 20.5731 12.4154 19.9659 12.7572C19.4807 12.2891 18.9986 11.8344 18.5201 11.4092L18.5157 11.4062L18.5098 11.4002C18.4834 11.3864 18.4629 11.3801 18.4366 11.3678ZM25.3363 7.47048C25.5609 7.44985 25.7854 7.4307 26.0101 7.41892C25.8348 7.43315 25.6569 7.46059 25.4803 7.48512C25.4628 7.48182 25.4482 7.47711 25.4307 7.47382L25.4278 7.47376C25.3987 7.47024 25.3654 7.47253 25.3363 7.47048ZM15.6363 13.0285C15.6632 13.1455 15.6873 13.2609 15.7202 13.3869C13.9707 15.2703 12.5861 17.189 11.5295 19.1067C11.3555 18.8969 11.2258 18.6452 11.1559 18.3372C11.0892 18.0469 11.0782 17.7047 11.1156 17.3177C12.2871 15.8592 13.7784 14.4218 15.6363 13.0285ZM25.7427 7.54632C27.1069 7.39782 28.4073 7.5488 29.6314 7.95479C28.8985 7.95507 28.139 8.00199 27.3544 8.10149C26.9291 7.87785 26.3929 7.69331 25.7427 7.54632ZM22.8292 9.27704C24.4178 8.73493 25.9217 8.38279 27.3389 8.19996C27.8786 8.48777 28.2379 8.82804 28.4341 9.21079C28.4567 9.25546 28.4707 9.30291 28.489 9.3475C28.4442 9.35694 28.4008 9.36345 28.3575 9.37291C27.583 9.5478 26.7979 9.77113 26.0107 10.0327C25.3054 10.035 24.5832 10.0621 23.8455 10.1153C23.603 9.88348 23.3607 9.66641 23.1234 9.47892C23.0231 9.40028 22.9278 9.3468 22.8292 9.27704ZM15.7486 13.5024C15.7534 13.5232 15.7566 13.5395 15.7613 13.5587C15.8564 13.8908 15.9796 14.2515 16.1205 14.6302C15.9797 14.9252 15.8448 15.2218 15.7156 15.52C14.2409 16.6143 12.8921 17.7715 11.7307 18.9353C12.7588 17.1143 14.0916 15.2934 15.7486 13.5024ZM10.5101 16.5657C10.2386 17.2222 10.0548 17.913 9.97179 18.6396C9.96804 18.6705 9.96868 18.7029 9.96638 18.7339C8.77022 20.5663 8.05049 22.4199 7.74104 24.2522C8.12578 21.5236 9.06409 18.9018 10.5101 16.5657ZM11.0093 17.4498C10.9869 17.7854 11.0045 18.0895 11.0648 18.3546C11.1425 18.6893 11.2843 18.9663 11.4789 19.1942C11.0521 19.631 10.6457 20.0697 10.2783 20.5047C10.2046 20.5917 10.1409 20.6759 10.0701 20.763C9.99856 20.0775 9.99274 19.4111 10.057 18.7681C10.3459 18.3271 10.6624 17.8881 11.0093 17.4498ZM27.4966 8.17801C28.3335 8.07659 29.1368 8.03938 29.9149 8.05326C30.0567 8.10471 30.1998 8.14882 30.3402 8.20614C30.8187 8.40723 31.2821 8.65079 31.7345 8.92655C30.7135 8.96094 29.6582 9.09785 28.5815 9.32869C28.5602 9.27519 28.5432 9.22179 28.516 9.16965C28.3229 8.79286 27.9884 8.46045 27.4966 8.17801ZM23.946 10.2057C24.5547 10.1632 25.1578 10.1324 25.7454 10.1248C25.2827 10.2837 24.8188 10.4559 24.3551 10.6413C24.2187 10.4957 24.0807 10.3381 23.946 10.2057ZM16.1678 14.7491C16.2092 14.8605 16.2594 14.9779 16.3052 15.0938C16.1592 15.1971 16.0117 15.2988 15.8686 15.4036C15.9645 15.1844 16.0647 14.9667 16.1678 14.7491ZM19.5245 13.117C19.6666 13.0343 19.8116 12.9546 19.9551 12.8734C21.0218 13.9073 22.0946 15.0327 23.163 16.2317C22.4996 16.6638 21.8082 17.0777 21.103 17.4574C20.25 17.9182 19.3829 18.3242 18.5306 18.6759C18.2297 17.0218 18.0711 15.4486 18.0805 14.0055C18.1594 13.9555 18.2352 13.9009 18.3155 13.8509C18.7126 13.5993 19.117 13.3552 19.5245 13.117ZM20.0369 12.8279C20.6728 12.4689 21.3177 12.1264 21.9688 11.8061C23.3963 12.0731 24.7678 12.4451 26.0916 12.8988C26.2467 13.1126 26.4033 13.3266 26.5601 13.5523C25.6475 14.4527 24.5085 15.3545 23.2433 16.1831C22.1763 14.9842 21.1036 13.8617 20.0369 12.8279ZM17.9816 14.0699C17.9779 15.5087 18.1407 17.0731 18.4414 18.7125C18.3492 18.749 18.2585 18.7841 18.1677 18.8191C17.4503 17.4649 16.8541 16.2206 16.4177 15.1314C16.9272 14.7685 17.4485 14.4147 17.9816 14.0699ZM22.1126 11.7381C22.8487 11.3812 23.5911 11.0508 24.334 10.7515C24.878 11.3313 25.4341 12.0086 25.9977 12.7731C24.7471 12.3503 23.4557 11.9946 22.1126 11.7381ZM16.3404 15.1859C16.7768 16.2722 17.3671 17.5104 18.0799 18.8557C16.7433 19.3733 15.4715 19.7182 14.3838 19.828C14.7187 18.406 15.1886 16.9868 15.7909 15.5849C15.9726 15.4514 16.1558 15.3179 16.3404 15.1859ZM24.4277 10.7165C24.9634 10.503 25.4978 10.3027 26.0328 10.1246C26.9166 10.1229 27.775 10.159 28.6109 10.233C28.5652 10.7141 28.3679 11.2351 28.0332 11.7784C27.7645 12.2153 27.4019 12.6681 26.9812 13.1227C26.7064 13.0185 26.4272 12.9172 26.1466 12.8202C25.565 12.0245 24.991 11.3188 24.4277 10.7165ZM15.6351 15.7027C15.0596 17.0683 14.6122 18.4511 14.2867 19.8349C13.8202 19.8773 13.3792 19.8877 12.9964 19.8315C12.5089 19.7615 12.0995 19.6089 11.787 19.3639C11.7222 19.314 11.6644 19.2554 11.6081 19.1967C12.772 18.0094 14.1376 16.826 15.6351 15.7027ZM9.94999 18.934C9.89984 19.5581 9.91542 20.2041 9.98936 20.866C8.93661 22.1677 8.16474 23.435 7.78681 24.5878C7.80096 24.4952 7.8093 24.4024 7.82344 24.3098C8.11935 22.5274 8.80952 20.7204 9.94999 18.934ZM26.3126 10.0358C27.0063 9.81357 27.6962 9.61932 28.3781 9.46472C28.4273 9.4539 28.4765 9.44897 28.5242 9.43812C28.6011 9.66078 28.6333 9.89582 28.6193 10.1417C27.8706 10.0754 27.1022 10.041 26.3126 10.0358ZM30.2097 8.06351C31.9147 8.12371 33.4767 8.44349 34.8865 8.99026C35.1526 9.09281 35.4131 9.2041 35.668 9.32264C35.8994 9.42893 36.1222 9.5439 36.3451 9.66182C35.002 9.10752 33.4954 8.88024 31.8969 8.91649C31.4032 8.61043 30.8958 8.33947 30.3719 8.11978C30.3192 8.09663 30.2624 8.08371 30.2097 8.06351ZM28.6167 9.41784C29.7324 9.1804 30.8239 9.0383 31.8741 9.01186C32.9085 9.66031 33.8725 10.4946 34.7611 11.4763C32.9224 10.812 30.9034 10.3534 28.7123 10.1509C28.7262 9.89618 28.6967 9.65087 28.6167 9.41784ZM11.5486 19.2693C11.6064 19.3294 11.6656 19.3881 11.7319 19.4395C12.0606 19.6981 12.4875 19.8539 12.9866 19.9257C13.3694 19.9819 13.8047 19.9743 14.2654 19.9362C13.6582 22.566 13.4936 25.1972 13.6684 27.7452C13.6058 27.8133 13.5375 27.8812 13.4765 27.9508C13.3146 28.1333 13.1731 28.3178 13.02 28.5005C11.6724 26.3186 10.7002 24.1072 10.2661 22.0244C10.6196 21.1099 11.0471 20.1896 11.5486 19.2693ZM11.318 19.4962C10.9038 20.2811 10.5418 21.0642 10.2335 21.8439C10.1706 21.5242 10.1224 21.2092 10.0857 20.896C10.175 20.7872 10.2556 20.6782 10.3492 20.568C10.6499 20.2127 10.9782 19.8551 11.318 19.4962ZM28.7025 10.2422C30.9488 10.4487 33.0146 10.9243 34.8872 11.6173C35.8609 12.7187 36.7337 14.0052 37.5072 15.4122C37.3465 15.4281 37.1942 15.4355 37.0306 15.4558C35.7929 15.6127 34.4677 15.902 33.0994 16.2849C31.2641 15.053 29.2492 13.9916 27.0749 13.16C27.4869 12.7126 27.8453 12.2641 28.1125 11.83C28.4515 11.278 28.6557 10.7425 28.7025 10.2407L28.7025 10.2422ZM10.0036 20.999C10.045 21.3345 10.098 21.6702 10.1686 22.0136C9.29447 24.2814 8.85669 26.5254 8.78873 28.6823C8.25524 28.1941 7.87118 27.5556 7.67224 26.7364C7.66261 26.689 7.66447 26.636 7.6577 26.5872C7.65219 26.1581 7.66693 25.7264 7.70488 25.2938C7.95837 24.0118 8.77689 22.5331 10.0036 20.9975L10.0036 20.999ZM32.0364 9.00328C33.9937 8.97705 35.8021 9.35478 37.3319 10.2504C38.1064 11.1133 38.4101 12.0923 38.3394 13.1494C37.2896 12.5331 36.1601 11.9933 34.9496 11.5434C34.0547 10.535 33.0815 9.67552 32.0364 9.00328ZM26.2405 12.9459C26.4685 13.0256 26.6922 13.1111 26.9174 13.1952C26.8264 13.2922 26.7238 13.3889 26.6256 13.4872C26.4971 13.3019 26.3688 13.1239 26.2405 12.9459ZM10.2068 22.1824C10.6594 24.2464 11.6252 26.4267 12.9576 28.5774C12.599 29.0126 12.2651 29.4497 11.9631 29.8905C11.2275 29.8243 10.5599 29.677 9.98191 29.4341C9.56632 29.2593 9.19908 29.0339 8.87879 28.7607C8.93717 26.6331 9.35965 24.4227 10.2068 22.1824ZM14.3611 19.9292C15.4736 19.8229 16.7684 19.4711 18.1266 18.9421C18.315 19.2967 18.5078 19.6573 18.7124 20.0255C18.9147 20.9391 19.155 21.8711 19.4275 22.8141C17.2683 24.3106 15.3209 25.9483 13.7565 27.6511C13.5909 25.1313 13.7575 22.5282 14.361 19.9278L14.3611 19.9292ZM27.011 13.2339C29.1648 14.0533 31.1591 15.1011 32.9796 16.3164C31.737 16.6678 30.4596 17.0966 29.1678 17.6078C28.3479 16.1321 27.5114 14.7725 26.6809 13.5679C26.7919 13.4566 26.9072 13.3453 27.011 13.2324L27.011 13.2339ZM26.614 13.6344C27.4385 14.8286 28.2675 16.1777 29.0814 17.6429C27.9697 18.0839 26.8533 18.5822 25.745 19.125C24.9405 18.1376 24.1278 17.1751 23.3086 16.2537C24.5666 15.4294 25.7028 14.5334 26.614 13.6344ZM18.213 18.907C18.2937 18.8761 18.3757 18.8439 18.4578 18.8101C18.513 19.109 18.5858 19.4141 18.6497 19.7161C18.4977 19.4404 18.3561 19.1752 18.213 18.907ZM18.5471 18.7735C19.4094 18.419 20.2866 18.0074 21.1497 17.5423C21.8605 17.1583 22.5591 16.7402 23.2283 16.3037C24.046 17.2236 24.8572 18.1816 25.6602 19.1661C25.2692 19.3588 24.8782 19.5487 24.4903 19.7518C23.9559 20.0302 23.4275 20.3191 22.9037 20.6183C21.9637 21.1555 21.0445 21.7226 20.1549 22.3139C19.6837 21.5233 19.2169 20.7372 18.8017 19.9889C18.7109 19.5802 18.6217 19.173 18.5471 18.7735ZM7.55037 26.4421C7.55411 26.4849 7.5564 26.5277 7.56305 26.5706C7.58919 28.7161 8.14819 30.7999 9.11101 32.7546C9.3018 33.7505 9.57036 34.7156 9.91369 35.6452C9.9224 36.0891 9.97897 36.531 10.0789 36.9664C8.24981 33.6118 7.43696 29.981 7.55037 26.4421ZM18.8657 20.2953C19.2402 20.9632 19.6603 21.6644 20.079 22.3655C19.8856 22.4944 19.6981 22.6263 19.5091 22.7567C19.2693 21.9264 19.05 21.1039 18.8657 20.2953ZM7.67591 27.0711C7.90473 27.7862 8.28031 28.3627 8.78535 28.8061C8.75589 30.0409 8.84777 31.2472 9.04921 32.4158C8.25244 30.7135 7.77016 28.9158 7.67591 27.0711ZM35.0743 11.6859C36.2368 12.1275 37.324 12.6547 38.3341 13.251C38.3212 13.4041 38.2995 13.5585 38.2692 13.7156C38.1682 14.2591 37.9572 14.8225 37.6825 15.395C37.6579 15.3974 37.6318 15.3999 37.6072 15.4023C36.8576 14.0327 36.0158 12.7718 35.0743 11.6859ZM37.5834 10.4175C39.5545 11.7655 41.1364 13.6115 42.328 15.7624C42.2023 15.7186 42.0766 15.6748 41.9453 15.6383C41.8534 15.6129 41.7486 15.6006 41.6539 15.578C40.6876 14.7024 39.611 13.9057 38.429 13.2028C38.5051 12.1989 38.2427 11.2561 37.5834 10.4175ZM37.9755 10.5785C40.6103 12.2448 42.912 14.5385 44.6397 17.3795C44.1205 16.6587 43.3759 16.1398 42.455 15.8032C41.3201 13.7316 39.8277 11.9301 37.9755 10.5785ZM22.9518 20.7048C23.4742 20.4055 24.0026 20.1152 24.5356 19.8367C24.9277 19.6307 25.3244 19.4366 25.7212 19.2424C26.9139 20.7107 28.0702 22.2417 29.1918 23.7853C28.2376 24.4136 27.2451 25.0132 26.2315 25.5755C25.2252 26.135 24.1991 26.6543 23.1722 27.1279C22.4738 26.0748 21.7987 25.0251 21.1558 23.9922C20.8186 23.4489 20.5196 22.93 20.203 22.4004C21.0927 21.8091 22.0118 21.2405 22.9518 20.7048ZM25.8031 19.2013C26.9086 18.6629 28.0192 18.1689 29.1266 17.7293C29.3674 18.1631 29.6067 18.6012 29.8419 19.0511C30.3771 20.07 30.9001 21.1329 31.4061 22.2162C30.7211 22.7348 30.0084 23.2426 29.2662 23.7322C28.1475 22.1916 26.9943 20.6666 25.8031 19.2013ZM20.1271 22.452C20.4437 22.9816 20.7412 23.499 21.0784 24.0408C21.7183 25.0707 22.3905 26.1188 23.0859 27.1675C22.4847 27.4431 21.8845 27.6966 21.287 27.9384C20.757 26.5967 20.2676 25.2469 19.8481 23.9104C19.7367 23.5573 19.6384 23.2074 19.5357 22.8575C19.7319 22.7213 19.9266 22.5851 20.1271 22.452ZM8.87675 28.8786C9.19097 29.1384 9.54643 29.3548 9.94593 29.5234C10.521 29.7632 11.1785 29.9133 11.8996 29.9806C10.9462 31.3888 10.2848 32.8161 10.0309 34.2219C9.72664 33.7309 9.44688 33.23 9.19592 32.718C8.95975 31.4808 8.84891 30.1961 8.87675 28.8786ZM19.457 22.9134C19.5565 23.253 19.6517 23.5925 19.7586 23.9351C20.1797 25.2762 20.6691 26.6274 21.1991 27.9705C18.8044 28.9287 16.4636 29.6004 14.4176 29.8357C14.2685 29.8534 14.1306 29.8551 13.9858 29.867C13.8852 29.181 13.8135 28.4852 13.7634 27.7825C15.3262 26.0678 17.2835 24.42 19.457 22.9134ZM29.213 17.6942C30.5264 17.1761 31.824 16.7403 33.0855 16.3863C33.9929 16.9969 34.8518 17.6492 35.6678 18.3331C34.5336 19.6302 33.1034 20.9258 31.4805 22.1601C30.976 21.0814 30.456 20.0229 29.9238 19.007C29.6886 18.5601 29.4508 18.1249 29.213 17.6942ZM38.4208 13.3029C39.5368 13.9691 40.5616 14.7206 41.4848 15.5438C40.4078 15.3117 39.1617 15.2664 37.7912 15.3868C38.056 14.8274 38.2599 14.2742 38.3597 13.738C38.3873 13.5926 38.4062 13.4471 38.4193 13.3028L38.4208 13.3029ZM33.2053 16.3548C34.5419 15.9846 35.8367 15.7035 37.0441 15.5504C37.2192 15.5274 37.3846 15.5203 37.5555 15.503C37.5705 15.5299 37.5869 15.5538 37.6005 15.5806C37.2372 16.2943 36.7581 17.022 36.1687 17.7548C36.0327 17.9231 35.8764 18.0925 35.7302 18.2621C34.9319 17.5918 34.0907 16.9531 33.2053 16.3548ZM13.6738 27.8765C13.7229 28.5291 13.7908 29.1762 13.8846 29.8149C13.6023 29.4068 13.3273 28.9989 13.071 28.587C13.2298 28.397 13.377 28.2053 13.5445 28.0155C13.5857 27.9691 13.6327 27.9229 13.6738 27.8765ZM13.0087 28.6639C13.2633 29.0699 13.5354 29.4763 13.8147 29.8784C13.2061 29.9238 12.6201 29.9388 12.0765 29.8971C12.363 29.4841 12.6727 29.073 13.0087 28.6639ZM12.0086 29.9901C12.5886 30.0384 13.2196 30.0199 13.8746 29.9695C13.8865 29.9859 13.897 30.0038 13.9104 30.0203C14.4634 33.646 15.718 37.0129 17.4262 39.8241C16.6396 39.897 15.8981 39.903 15.1977 39.8567C13.8992 38.8419 12.7075 37.7215 11.6821 36.4998C11.1026 35.8087 10.5761 35.0863 10.1058 34.3428C10.3461 32.9043 11.0212 31.439 12.0086 29.9901ZM37.7467 15.4862C39.1969 15.3556 40.5083 15.4051 41.6208 15.6658C42.101 16.1043 42.5526 16.5614 42.9784 17.0342C43.2225 17.5638 43.4465 18.1093 43.6476 18.6661C44.0942 19.903 44.4215 21.2009 44.655 22.5264C44.2804 23.402 43.7654 24.2985 43.0938 25.2052C42.6811 25.1779 42.2543 25.1709 41.8063 25.1945C41.4182 24.5721 40.9969 23.9564 40.5437 23.3474C40.0922 21.3395 39.4733 19.3827 38.6845 17.573C38.3836 16.8816 38.0528 16.222 37.7064 15.5782C37.7218 15.5476 37.7313 15.5168 37.7467 15.4862ZM37.6592 15.6849C37.9906 16.3062 38.3094 16.945 38.5996 17.6097C39.3595 19.3525 39.9638 21.2308 40.4109 23.1605C39.1162 21.4485 37.5675 19.8124 35.804 18.3226C35.9501 18.153 36.1079 17.9836 36.2439 17.8138C36.8191 17.0984 37.297 16.3854 37.6592 15.6849ZM13.9977 29.9601C14.1441 29.9468 14.2834 29.9466 14.4325 29.9289C16.4901 29.6924 18.8367 29.0207 21.2357 28.0597C21.9334 29.819 22.712 31.5563 23.5386 33.2252C22.1593 34.3022 20.9186 35.4202 19.8943 36.544C17.7053 34.599 15.7104 32.4102 14.1014 30.1391C14.0656 30.0897 14.037 30.039 14.0027 29.9912C14.001 29.9808 13.9994 29.9705 13.9977 29.9601ZM14.027 30.1951C15.6405 32.4707 17.637 34.664 19.8304 36.6135C19.4809 37.0002 19.1489 37.3873 18.8532 37.7721C18.3282 38.4576 17.8975 39.139 17.571 39.8048C17.5565 39.806 17.5405 39.8086 17.5261 39.8113C15.8422 37.0522 14.5961 33.7533 14.027 30.1951ZM9.26369 33.0657C9.49143 33.5037 9.73938 33.9361 10.006 34.36C9.95039 34.7054 9.92369 35.0454 9.91734 35.3873C9.65007 34.636 9.43168 33.8607 9.26369 33.0657ZM35.7415 18.3936C37.5581 19.9258 39.1412 21.6155 40.4558 23.3796C40.5974 24.0119 40.7187 24.6467 40.8241 25.2857C40.704 25.2995 40.5909 25.3047 40.4679 25.3229C38.3953 25.6093 36.0582 26.3223 33.6816 27.3133C33.0198 25.6093 32.294 23.9025 31.5243 22.2495C33.1588 21.008 34.5975 19.7022 35.7415 18.3936ZM41.784 15.7C41.8292 15.7112 41.8801 15.7167 41.9239 15.7293C42.0844 15.7738 42.2407 15.8255 42.3927 15.8801C42.5462 16.1618 42.6941 16.4477 42.8333 16.738C42.5012 16.382 42.149 16.036 41.784 15.7ZM42.5258 15.9314C43.5713 16.3353 44.3734 16.9777 44.8559 17.8968C45.1679 18.5605 45.2993 19.2678 45.2761 20.0089C44.6501 18.9483 43.9061 17.9356 43.053 16.987C42.8877 16.6285 42.711 16.2756 42.5258 15.9314ZM21.3221 28.0275C21.9269 27.7844 22.5328 27.5266 23.1398 27.2482C24.0745 28.6583 25.0495 30.053 26.0329 31.4258C25.1891 31.9885 24.3806 32.571 23.6115 33.1677C22.7879 31.5062 22.0168 29.7779 21.3221 28.0275ZM31.4471 22.3054C32.2137 23.9525 32.9364 25.6519 33.5952 27.3499C33.1346 27.5428 32.6728 27.7474 32.2111 27.9624C31.3003 26.5837 30.3253 25.1934 29.3229 23.8114C30.0579 23.3247 30.7664 22.8212 31.4471 22.3054ZM10.0825 34.4854C10.5392 35.2005 11.052 35.8947 11.6108 36.5603C12.6109 37.7521 13.7731 38.8497 15.035 39.8476C14.4855 39.8029 13.9559 39.7334 13.473 39.606C12.7028 39.4035 12.029 39.0895 11.4619 38.6596C10.8888 37.7063 10.3987 36.6926 10.0048 35.6293C9.99737 35.2503 10.0247 34.8705 10.0825 34.4854ZM23.2261 27.2101C24.2515 26.7364 25.2747 26.2171 26.2796 25.659C27.2946 25.0952 28.29 24.4942 29.247 23.8645C30.2465 25.2435 31.217 26.6278 32.1248 28.002C30.9341 28.5564 29.7459 29.1668 28.5892 29.8339C27.7411 30.3228 26.9154 30.8432 26.1102 31.3757C25.1299 30.0074 24.1593 28.6157 23.2261 27.2101ZM10.0193 35.9244C10.3693 36.8218 10.7838 37.6836 11.2614 38.5023C10.8644 38.1657 10.5242 37.7654 10.2552 37.2942C10.2537 37.2913 10.2522 37.2883 10.2506 37.2853L10.2492 37.2838C10.2492 37.2838 10.2491 37.2823 10.2477 37.2808C10.1199 36.8346 10.0486 36.382 10.0193 35.9244ZM43.161 17.2427C43.9672 18.1653 44.6743 19.1464 45.2677 20.1694C45.2337 20.7304 45.1158 21.3074 44.9141 21.9005C44.862 22.0513 44.7852 22.2076 44.7229 22.3611C44.4903 21.0843 44.1654 19.8336 43.7341 18.6398C43.5608 18.1632 43.3645 17.7008 43.161 17.2427ZM44.9728 17.9404C46.6145 20.8358 47.481 23.9488 47.6461 27.0376C47.4399 25.1804 46.9232 23.3319 46.1036 21.5746C45.8779 21.0925 45.6306 20.6173 45.3602 20.1506C45.4045 19.3775 45.284 18.635 44.9728 17.9404ZM10.7877 38.176C10.9716 38.3757 11.1754 38.5567 11.3905 38.7216C11.6635 39.1737 11.9523 39.6143 12.261 40.0391C12.8517 40.8527 13.5109 41.6087 14.2227 42.3083C12.9307 41.1093 11.7716 39.7272 10.7877 38.176ZM11.5937 38.8716C12.1321 39.2404 12.7543 39.5151 13.4516 39.6984C13.9782 39.8371 14.5587 39.9105 15.1618 39.9518C15.7617 40.4192 16.3799 40.8649 17.0238 41.28C16.9822 41.4576 16.9465 41.6338 16.9223 41.8073C16.7652 42.9703 17.0549 44.0522 17.8829 44.9782C15.7179 43.7369 13.8225 42.0306 12.3354 39.9845C12.0744 39.6255 11.829 39.2521 11.5937 38.8716ZM45.352 20.3273C45.5911 20.7493 45.8157 21.1768 46.0187 21.6113C46.9898 23.6929 47.5368 25.9032 47.638 28.1018C47.197 26.8533 46.3073 26.0367 45.1028 25.5957C45.0492 24.5657 44.9246 23.5445 44.7481 22.5371C44.8327 22.3353 44.9318 22.1338 44.999 21.9346C45.1856 21.387 45.3057 20.8498 45.352 20.3273ZM28.6359 29.9174C29.7968 29.2489 30.9865 28.637 32.1801 28.0812C33.1943 29.6212 34.1118 31.1179 34.9661 32.5722C33.7918 33.3731 32.5704 34.1406 31.3145 34.85C30.7002 35.1991 30.0783 35.5303 29.4533 35.8526C28.3712 34.4749 27.2666 32.9877 26.1669 31.4549C26.9692 30.9224 27.7906 30.4049 28.6359 29.9174ZM26.0881 31.505C27.1848 33.0362 28.2878 34.5175 29.3685 35.8937C28.2305 36.4756 27.0842 37.0058 25.9427 37.4816C25.9187 37.4413 25.8933 37.404 25.8693 37.3637C25.1081 36.072 24.3655 34.6877 23.6553 33.257C24.4272 32.656 25.2401 32.0706 26.0867 31.5049L26.0881 31.505ZM32.265 28.0445C32.7209 27.8324 33.177 27.6291 33.6318 27.4391C34.2709 29.0896 34.8386 30.7342 35.3285 32.3243C35.234 32.3902 35.138 32.4561 35.0435 32.5206C34.1907 31.0708 33.2747 29.5785 32.265 28.0445ZM33.7168 27.4054C36.0876 26.4158 38.4203 25.7026 40.4827 25.4161C40.6043 25.3993 40.7174 25.3942 40.8376 25.3803C40.9531 26.0902 41.044 26.7997 41.1131 27.5131C39.5214 29.1564 37.5605 30.7717 35.4087 32.2698C34.9204 30.6857 34.3528 29.0484 33.7168 27.4054ZM40.5887 23.5695C40.9839 24.108 41.3545 24.6534 41.6991 25.2027C41.4454 25.2169 41.1804 25.2485 40.9169 25.2787C40.8215 24.7048 40.7131 24.1366 40.5887 23.5695ZM23.5796 33.3159C24.2897 34.7423 25.0293 36.1205 25.7889 37.4078C25.8114 37.4451 25.8324 37.4809 25.8549 37.5182C24.7436 37.9783 23.6441 38.3797 22.5667 38.7182C21.6757 38.0593 20.8056 37.3551 19.9638 36.6102C20.9796 35.4966 22.2102 34.3857 23.5796 33.3159ZM19.8984 36.6767C20.7254 37.4081 21.5808 38.1016 22.4556 38.7513C21.1141 39.1686 19.8085 39.4952 18.5802 39.6862C18.2749 39.7332 17.9822 39.7599 17.6854 39.7923C18.0051 39.1515 18.4189 38.4962 18.9255 37.834C19.2198 37.4491 19.5489 37.0635 19.8984 36.6767ZM44.6803 22.7053C44.8396 23.6475 44.9541 24.6006 45.0049 25.5628C44.4613 25.3752 43.8512 25.2688 43.1956 25.2175C43.819 24.3704 44.3134 23.5295 44.6803 22.7053ZM40.9318 25.3719C41.2084 25.3419 41.4892 25.3062 41.756 25.2908C41.9433 25.5923 42.1248 25.8952 42.2962 26.1978C42.248 26.2558 42.2085 26.3126 42.1588 26.3705C41.8595 26.7199 41.5355 27.0703 41.2013 27.419C41.1327 26.7351 41.0424 26.0537 40.9318 25.3719ZM15.3216 39.9609C16.003 39.9979 16.7197 39.9841 17.4772 39.9106C17.4848 39.924 17.4923 39.9374 17.4998 39.9494C17.3034 40.3701 17.1533 40.7814 17.0481 41.1876C16.4527 40.8029 15.8786 40.3891 15.3216 39.9609ZM41.8648 25.29C42.2664 25.2714 42.6539 25.2717 43.0258 25.2923C42.8179 25.5683 42.5897 25.8454 42.36 26.121C42.2022 25.8436 42.0371 25.5662 41.8648 25.29ZM43.1364 25.3048C43.8209 25.3537 44.4544 25.4679 45.0141 25.6647C45.1111 27.648 44.9645 29.6442 44.6018 31.5727C44.2472 30.1431 43.6959 28.6727 42.9545 27.2045C42.787 26.8739 42.5961 26.5428 42.4097 26.2119C42.6621 25.9087 42.9116 25.607 43.1364 25.3048ZM17.6336 39.8916C17.9522 39.858 18.2709 39.829 18.6008 39.7765C19.8523 39.5815 21.1838 39.2481 22.5513 38.821C23.3082 39.38 24.0748 39.9155 24.8535 40.3997C26.0039 41.1153 27.1697 41.731 28.3336 42.2493C27.606 43.0354 27.0623 43.8016 26.7931 44.5025C26.7379 44.6473 26.6986 44.7895 26.6665 44.929C24.2178 44.5401 21.7854 43.7225 19.5121 42.5808C18.8599 41.8116 18.2441 40.9739 17.6792 40.0723C17.6538 40.0335 17.6341 39.9903 17.6087 39.9515C17.6184 39.9311 17.6238 39.912 17.6336 39.8916ZM17.5658 40.0598C17.5778 40.0792 17.5884 40.1015 17.6004 40.1224C18.1307 40.9658 18.7077 41.7482 19.3127 42.4781C18.5679 42.0948 17.8387 41.6883 17.1346 41.2365C17.2331 40.8537 17.3835 40.4586 17.5658 40.0598ZM42.3473 26.2888C42.5278 26.6078 42.711 26.9254 42.8726 27.2456C43.6472 28.7808 44.2085 30.3163 44.557 31.8018C44.4922 32.1248 44.4377 32.451 44.3598 32.7709C44.1181 33.7701 43.799 34.7382 43.4284 35.6744C42.88 35.3142 42.1273 35.1888 41.2489 35.2437C41.159 35.2493 41.0621 35.268 40.9709 35.278C41.1565 34.232 41.2834 33.1554 41.3387 32.0537C41.4127 30.578 41.3598 29.0644 41.214 27.549C41.5724 27.1786 41.9134 26.805 42.2326 26.4339C42.2738 26.3846 42.3076 26.3366 42.3473 26.2873L42.3473 26.2888ZM41.1271 27.6342C41.2665 29.1186 41.316 30.6012 41.2442 32.046C41.189 33.155 41.0608 34.2375 40.8739 35.2893C39.7719 35.4135 38.4992 35.7879 37.1691 36.3396C36.7858 35.5919 36.3745 34.8216 35.9218 34.0151C35.8077 33.6001 35.6922 33.1836 35.5648 32.7579C35.526 32.6289 35.4813 32.4954 35.4424 32.3649C37.5829 30.8754 39.5338 29.2701 41.1271 27.6342ZM17.1104 41.3319C17.8673 41.8156 18.6538 42.2572 19.46 42.6623C20.7019 44.1242 22.088 45.3147 23.5551 46.1914C22.2832 46.3108 21.1404 46.2793 20.1903 46.0793C19.4825 45.8043 18.7969 45.4797 18.1338 45.1143C17.1791 44.1652 16.8524 43.0487 17.017 41.8224C17.0399 41.6607 17.0715 41.4962 17.1104 41.3319ZM45.1091 25.6991C46.3095 26.1488 47.1802 26.9621 47.5927 28.2366C47.5918 30.4803 46.6205 32.6784 45.0382 34.7303C45.0125 33.7892 44.886 32.8137 44.6529 31.811C45.0463 29.8198 45.2075 27.7531 45.1091 25.6991ZM22.6653 38.7879C23.7282 38.4507 24.8118 38.0519 25.9073 37.5988C26.8407 39.1667 27.7932 40.5948 28.7334 41.84C28.6195 41.9527 28.5085 42.0655 28.4033 42.1769C27.2321 41.657 26.059 41.0383 24.9012 40.3181C24.1446 39.8491 23.4001 39.3287 22.6653 38.7879ZM25.9951 37.5622C27.1381 37.0865 28.2872 36.5534 29.428 35.97C29.5084 36.0733 29.592 36.1885 29.6723 36.2903C30.4878 37.3192 31.2772 38.2754 32.0374 39.1513C30.8144 39.9867 29.7 40.8816 28.8003 41.7705C27.869 40.5359 26.9211 39.1181 25.9951 37.5622ZM35.3623 32.4208C35.3995 32.5409 35.4396 32.6641 35.4753 32.7842C35.567 33.0897 35.6468 33.3861 35.7325 33.6871C35.5326 33.3352 35.3048 32.9666 35.0945 32.6057C35.1833 32.544 35.2735 32.4824 35.3623 32.4208ZM35.0172 32.6572C35.2769 33.1002 35.5602 33.5584 35.8023 33.9892C35.8128 34.0086 35.8219 34.0264 35.8324 34.0458C36.0793 34.9426 36.2923 35.8092 36.4698 36.6442C35.6052 37.0355 34.7302 37.4855 33.8737 37.9861C33.5063 38.2 33.1421 38.4228 32.7852 38.6516C32.5573 38.7975 32.3368 38.9479 32.1148 39.0983C31.3545 38.2209 30.5622 37.2632 29.7452 36.2328C29.6693 36.1355 29.5888 36.0263 29.5128 35.9289C30.1335 35.6095 30.7526 35.2797 31.3654 34.9336C32.6199 34.2227 33.8428 33.4566 35.0172 32.6572ZM19.6843 42.7758C21.9014 43.8663 24.2663 44.6442 26.6466 45.0244C26.6045 45.2476 26.5957 45.4627 26.6244 45.6682C26.0364 45.8055 25.4598 45.9297 24.9043 46.0205C24.4949 46.0876 24.0968 46.1387 23.7086 46.1782C22.2714 45.3375 20.9122 44.1873 19.6843 42.7758ZM36.0387 34.4258C36.4088 35.0936 36.7613 35.7477 37.0827 36.3747C36.9071 36.4479 36.733 36.5241 36.556 36.6031C36.4043 35.8984 36.2378 35.1757 36.0387 34.4258ZM47.6571 28.7081C47.6581 28.8335 47.6562 28.9573 47.6543 29.0825C47.5887 30.47 47.3863 31.8414 47.0424 33.1747C47.0396 33.1806 47.0383 33.1879 47.0369 33.1938C46.5538 34.8295 45.7776 36.3916 44.7098 37.8138C44.9589 36.9017 45.0571 35.9144 45.0412 34.8822C46.5646 32.9353 47.5308 30.8492 47.6557 28.7081L47.6571 28.7081ZM33.9231 38.0681C34.7697 37.5733 35.6361 37.1304 36.4891 36.7433C36.8556 38.4828 37.0681 40.0674 37.0766 41.3899C36.4813 41.7408 35.8739 42.0738 35.2619 42.392C34.3591 41.5736 33.3115 40.4768 32.1786 39.1733C32.3978 39.0258 32.6125 38.8752 32.8361 38.7322C33.193 38.5034 33.5573 38.2821 33.9231 38.0681ZM44.6066 32.0401C44.8172 33.0055 44.9299 33.9438 44.9476 34.8479C44.6163 35.2689 44.2646 35.6865 43.8851 36.0948C43.7765 35.957 43.6465 35.8424 43.5081 35.7394C43.8842 34.7915 44.2075 33.8102 44.4532 32.7978C44.5136 32.5484 44.5536 32.2926 44.6066 32.0401ZM32.1027 39.2249C33.2282 40.5208 34.27 41.6161 35.1757 42.4374C35.0479 42.5042 34.9201 42.5739 34.7907 42.6392C34.1196 42.9768 33.4407 43.2877 32.763 43.5854C31.6807 43.3827 30.5713 43.0542 29.4526 42.6208C29.2563 42.3766 29.0566 42.1132 28.8585 41.8513C29.7582 40.9609 30.8769 40.0631 32.1027 39.2249ZM36.5768 36.7008C36.7624 36.619 36.9466 36.5401 37.1309 36.4626C37.8507 37.87 38.4391 39.1583 38.8644 40.2679C38.31 40.6374 37.7467 40.9963 37.1685 41.3387C37.1555 40.0087 36.9431 38.4315 36.5768 36.7008ZM37.2173 36.4275C38.5273 35.8858 39.7768 35.5139 40.8569 35.3863C40.5673 36.9698 40.1251 38.4707 39.5132 39.8326C39.3271 39.9631 39.1351 40.0875 38.9446 40.215C38.5194 39.1053 37.9312 37.8259 37.2173 36.4275ZM20.1878 46.1765C20.1937 46.1781 20.1995 46.1797 20.2053 46.1798C21.9981 46.8712 23.9186 47.2644 25.9075 47.2993C26.1019 47.365 26.296 47.4249 26.4915 47.4774C27.2546 47.6841 28.0289 47.7952 28.8085 47.8106C25.857 47.9057 22.9129 47.3404 20.1878 46.1765ZM20.6946 46.2632C21.5765 46.3867 22.5865 46.386 23.6916 46.2737C24.3229 46.64 24.9648 46.9578 25.6211 47.1978C23.9132 47.1375 22.2568 46.8144 20.6946 46.2632ZM28.7916 41.9192C28.9525 42.1303 29.1148 42.3443 29.2741 42.545C29.0166 42.4426 28.759 42.3314 28.5014 42.2187C28.5952 42.1188 28.6919 42.019 28.7916 41.9192ZM28.4302 42.288C28.7523 42.43 29.0744 42.575 29.3946 42.6992C29.8959 43.3195 30.3899 43.8688 30.8713 44.3604C30.0919 44.6546 29.3163 44.9208 28.556 45.1505C27.9573 45.1107 27.3566 45.0399 26.7568 44.947C26.7876 44.8149 26.8241 44.68 26.878 44.5395C27.1431 43.8489 27.6939 43.0784 28.4302 42.288ZM40.9554 35.375C41.0553 35.3637 41.1624 35.3466 41.2595 35.3412C42.135 35.2862 42.869 35.4157 43.394 35.7681C43.1919 36.2698 42.9767 36.7638 42.7379 37.2412C41.803 38.1131 40.7701 38.9463 39.6679 39.7251C40.2526 38.3877 40.6737 36.9188 40.9554 35.375ZM29.5863 42.7767C30.6054 43.1625 31.6169 43.4581 32.6091 43.6531C32.0608 43.89 31.5152 44.118 30.9693 44.3269C30.5177 43.8684 30.0562 43.3521 29.5863 42.7767ZM23.8453 46.262C24.1957 46.2232 24.5561 46.1743 24.9235 46.1137C25.4776 46.0244 26.0528 45.9016 26.6379 45.7643C26.715 46.1417 26.9247 46.4761 27.2842 46.75C27.4654 46.8878 27.6854 47.0071 27.9429 47.1139C27.2637 47.186 26.591 47.2184 25.9246 47.2082C25.219 46.9717 24.5233 46.6469 23.8453 46.262ZM26.7383 45.0409C27.2653 45.1221 27.7904 45.1811 28.3166 45.2239C27.7726 45.3842 27.2412 45.5211 26.7154 45.6464C26.6899 45.4557 26.699 45.2539 26.7383 45.0409ZM43.475 35.8301C43.6032 35.927 43.7214 36.0355 43.8211 36.1628C43.7842 36.2018 43.7545 36.2411 43.7175 36.2801C43.4729 36.5363 43.2137 36.7877 42.9516 37.039C43.1412 36.6447 43.3103 36.2382 43.475 35.8301ZM44.9491 34.9983C44.9551 36.0392 44.8454 37.0351 44.576 37.9468C44.5679 37.9761 44.5568 38.0054 44.5472 38.0346C44.4821 38.1189 44.4097 38.2 44.3417 38.2827C44.4396 37.3573 44.291 36.663 43.9403 36.1725C44.3 35.7889 44.6333 35.396 44.9491 34.9983ZM26.7275 45.7439C27.3284 45.601 27.9391 45.4376 28.5637 45.248C29.6406 45.3208 30.7099 45.3081 31.7629 45.2006C32.0773 45.4736 32.3869 45.72 32.6855 45.9191C31.1678 46.5319 29.65 46.9132 28.1558 47.0901C27.8255 46.973 27.5514 46.8349 27.3393 46.6745C26.9931 46.4126 26.7983 46.0991 26.7275 45.7439ZM43.8765 36.245C44.2184 36.7353 44.3614 37.4398 44.2354 38.4118C43.0202 39.8679 41.4708 41.1553 39.5743 42.2029C39.5474 42.0918 39.5279 41.9867 39.4951 41.8682C40.8471 40.5813 41.9529 39.0242 42.8188 37.2973C43.1537 36.9855 43.477 36.669 43.7856 36.3464C43.8168 36.3131 43.8437 36.2782 43.8765 36.245ZM46.5074 34.9052C45.9173 36.5595 45.1065 38.1341 44.09 39.5809L44.0899 39.5765C44.1211 39.4651 44.1423 39.3623 44.1677 39.2552C44.3533 38.877 44.5081 38.4806 44.635 38.0673C45.405 37.0771 46.0271 36.0147 46.5074 34.9052ZM28.8147 45.1704C29.5158 44.9528 30.2265 44.7103 30.9425 44.4384C31.1867 44.6835 31.4276 44.905 31.6639 45.1131C30.7253 45.2037 29.7722 45.2232 28.8147 45.1704ZM42.6235 37.4748C41.7873 39.0903 40.7347 40.5452 39.4655 41.7644C39.3797 41.4605 39.276 41.1311 39.1531 40.7852C39.3071 40.4964 39.4522 40.1985 39.5899 39.8946C40.6751 39.1346 41.6925 38.3247 42.6235 37.4748ZM31.0419 44.4021C31.6195 44.1805 32.1996 43.9369 32.7794 43.683C34.0932 43.9242 35.3686 43.9833 36.5744 43.8272C36.5444 43.8473 36.5157 43.8674 36.4871 43.8874C34.9992 44.5362 33.4178 44.931 31.7914 45.0994C31.5462 44.8852 31.2965 44.6562 31.0418 44.4006L31.0419 44.4021ZM26.221 47.2966C26.8537 47.2958 27.4945 47.2598 28.1402 47.1841C28.7482 47.3996 29.5779 47.5251 30.6019 47.5674C29.2296 47.8219 27.8538 47.749 26.5115 47.3864C26.4138 47.3594 26.3173 47.3265 26.221 47.2966ZM32.9378 43.6154C33.5723 43.3345 34.2065 43.0404 34.8345 42.7241C34.9739 42.6546 35.1117 42.5777 35.2511 42.5053C35.8183 43.0148 36.3313 43.4185 36.7734 43.6837C36.7634 43.6924 36.7519 43.6995 36.7419 43.7082C35.5379 43.8864 34.2586 43.8464 32.9378 43.6154ZM39.4381 39.9962C39.3337 40.2227 39.2234 40.4461 39.1087 40.6649C39.0658 40.5476 39.0257 40.4304 38.9798 40.3071C39.1331 40.2054 39.2863 40.1008 39.4381 39.9962ZM38.8996 40.3615C38.9532 40.5041 39.0009 40.6422 39.0485 40.7787C38.5516 41.7095 37.9661 42.5618 37.2901 43.318C37.1785 43.4013 37.0639 43.4787 36.9509 43.559C36.9522 43.5546 36.9536 43.5502 36.955 43.5458L36.9534 43.5414C37.1072 42.9473 37.176 42.2396 37.175 41.4449C37.7617 41.0983 38.3366 40.7367 38.8996 40.3615ZM35.3358 42.4598C35.9248 42.153 36.5078 41.8342 37.0802 41.4976C37.0793 42.2672 37.01 42.9469 36.863 43.5175L36.863 43.5204L36.8602 43.5218C36.855 43.5571 36.8454 43.582 36.8388 43.6172C36.4071 43.3596 35.8986 42.9647 35.3358 42.4598ZM39.0944 40.899C39.2098 41.2301 39.3088 41.5446 39.3885 41.8351C38.9626 42.2395 38.5099 42.6153 38.0349 42.9627C37.8708 43.0346 37.7068 43.1081 37.5384 43.177C38.1286 42.4869 38.6477 41.7246 39.0944 40.899ZM28.3575 47.1604C29.821 46.9711 31.3039 46.5847 32.7868 45.98C33.0778 46.1671 33.3609 46.3201 33.633 46.4302C32.7706 46.9291 31.8965 47.2775 31.0167 47.4842C29.9091 47.4667 29.013 47.3606 28.3575 47.1604ZM31.8874 45.1883C33.3139 45.0337 34.7021 44.7043 36.0271 44.1835C34.955 44.87 33.8732 45.4324 32.7906 45.8769C32.7803 45.8693 32.77 45.8662 32.7597 45.8586C32.4774 45.6717 32.1856 45.4419 31.8874 45.1883ZM44.4678 38.2763C44.406 38.4564 44.3384 38.635 44.2649 38.8089C44.2872 38.687 44.3109 38.5622 44.3275 38.446C44.3742 38.3895 44.421 38.3329 44.4678 38.2763ZM44.2056 38.5955C44.1746 38.7909 44.1322 38.998 44.0813 39.2137C43.2511 40.9118 41.8188 42.2487 39.7153 43.0298C39.7045 42.9205 39.7025 42.8202 39.6827 42.7004C39.6614 42.5761 39.6238 42.4324 39.5935 42.2976C41.4586 41.273 42.9941 40.0163 44.2056 38.5955ZM39.4211 41.9389C39.4508 42.0486 39.4643 42.1432 39.4881 42.2484C39.1506 42.4319 38.8029 42.6093 38.4434 42.7776C38.7836 42.5131 39.1076 42.2335 39.4211 41.9389ZM37.4527 43.3197C37.457 43.3184 37.4598 43.3155 37.4627 43.3141C37.5376 43.2831 37.608 43.2506 37.6815 43.2211C37.5483 43.3098 37.412 43.3927 37.2758 43.4769C37.3014 43.4494 37.324 43.4204 37.3496 43.3914C37.3839 43.367 37.4183 43.3441 37.4527 43.3197ZM32.8977 45.938C34.1141 45.4328 35.3291 44.783 36.5309 43.9738C36.6071 43.9399 36.6848 43.9061 36.7611 43.8707C36.707 43.9242 36.6558 43.9807 36.6003 44.0341L36.5974 44.0341C35.6706 45.0242 34.7104 45.7939 33.732 46.3717C33.4659 46.2706 33.1872 46.1191 32.8977 45.938ZM36.9632 43.6683C36.9603 43.6712 36.9575 43.6756 36.9532 43.6785C36.9518 43.6799 36.9489 43.6798 36.946 43.6798C36.9517 43.6755 36.9574 43.6726 36.9632 43.6683ZM38.0858 43.0433C38.5807 42.8246 39.0551 42.5922 39.5103 42.3461C39.5359 42.4675 39.5719 42.5994 39.5901 42.7118C39.6114 42.839 39.6135 42.9467 39.6245 43.0619C38.8939 43.3246 38.0821 43.5224 37.1891 43.6448C37.4974 43.4563 37.7968 43.2558 38.0858 43.0433ZM36.9629 43.801C37.4815 44.1238 37.9286 44.3508 38.2966 44.4657C38.501 44.5302 38.6845 44.5618 38.8457 44.5664C38.7195 44.6465 38.5949 44.731 38.4673 44.8081C37.601 45.3306 36.706 45.7979 35.827 46.1934C36.3046 45.7561 36.6656 44.9952 36.8889 43.8762C36.913 43.8501 36.9372 43.8256 36.9629 43.801ZM37.0738 43.7575C38.0162 43.636 38.867 43.4332 39.6351 43.1579C39.6519 43.4207 39.6507 43.6595 39.6094 43.8444C39.5827 43.9662 39.5426 44.0657 39.4892 44.1516C39.333 44.2576 39.1725 44.3577 39.0134 44.4607C38.8282 44.488 38.6013 44.4643 38.3224 44.3763C37.9822 44.2708 37.5585 44.0545 37.0738 43.7575ZM43.7541 39.9945C43.7148 40.063 43.6857 40.1302 43.6435 40.1987C43.5656 40.2989 43.4848 40.3975 43.4055 40.4977C43.53 40.335 43.6443 40.1662 43.7541 39.9945ZM36.7466 44.0193C36.4651 45.2801 36.01 46.0525 35.414 46.3724C35.3061 46.4175 35.201 46.4626 35.0945 46.5062C34.7206 46.6094 34.299 46.573 33.8417 46.4151C34.8056 45.8371 35.7514 45.0774 36.6641 44.1047C36.6655 44.1032 36.6655 44.1018 36.6669 44.1003C36.6939 44.0743 36.7195 44.0453 36.7466 44.0193ZM30.4924 47.6846C30.6703 47.6543 30.8482 47.6224 31.0273 47.5802C31.097 47.5816 31.1581 47.5857 31.2306 47.5872C30.9832 47.625 30.7386 47.6556 30.4924 47.6846ZM43.2695 40.6675C42.5327 41.5758 41.7046 42.4204 40.7939 43.1941C40.4266 43.4846 40.0447 43.7675 39.6481 44.0398C39.6688 43.9871 39.688 43.9315 39.7013 43.8698C39.7467 43.6658 39.7459 43.4078 39.7244 43.1258C41.2388 42.5675 42.4137 41.7253 43.2695 40.6675ZM31.342 47.495C32.149 47.2766 32.9508 46.94 33.7413 46.4765C34.0936 46.6073 34.4286 46.6655 34.7403 46.651C34.1412 46.8839 33.56 47.0744 33.0142 47.217C32.942 47.2347 32.8698 47.251 32.7976 47.2687C32.3137 47.3845 31.8567 47.4683 31.4481 47.4986L31.4451 47.4985C31.4074 47.4993 31.3798 47.4958 31.342 47.495Z" stroke="#1A3645" shape-rendering="crispEdges"/>
</g>
<path d="M19.561 35.8864L17.8374 36L17.6667 32.4015L16.0569 32.5057L16 31.322L20.9431 31L21 32.1837L19.3902 32.2879L19.561 35.8864Z" fill="white"/>
<path d="M23.56 35.9957C22.6755 36.0336 22.02 35.8205 21.5936 35.3517C21.2165 34.9302 21.0191 34.3453 21.0015 33.5994C20.9821 32.8559 21.1513 32.2616 21.509 31.8188C21.9178 31.3144 22.5627 31.0421 23.4473 31.0042C24.3248 30.9664 24.9785 31.1818 25.4067 31.6483C25.782 32.0651 25.9794 32.6475 25.9988 33.3911C26.0164 34.1369 25.8472 34.7336 25.4913 35.1812C25.0825 35.6879 24.4376 35.9578 23.56 35.9957ZM23.5318 34.7076C23.8878 34.6958 24.1486 34.5466 24.3142 34.2624C24.4446 34.0351 24.5063 33.7676 24.4975 33.4574C24.4922 33.1543 24.4199 32.8962 24.279 32.6807C24.0992 32.4037 23.8314 32.2711 23.4755 32.2829C23.1125 32.2971 22.8499 32.451 22.686 32.747C22.5539 32.9743 22.4905 33.2395 22.4957 33.5426C22.5045 33.8528 22.5803 34.1156 22.7213 34.3287C22.8993 34.5939 23.1689 34.7218 23.5318 34.7076Z" fill="white"/>
<path d="M29.3453 35.9901L27.0138 36L27 31.01L29.3315 31.0001C30.2806 30.9952 30.9632 31.1776 31.381 31.5524C31.7249 31.863 31.9192 32.2821 31.9656 32.8147C31.988 33.0464 32 33.2658 32 33.4754C32 33.6874 31.988 33.9068 31.9656 34.1361C31.9467 34.3679 31.8934 34.5898 31.8074 34.8067C31.7249 35.0237 31.5873 35.2209 31.3948 35.3984C31.2056 35.5759 30.9477 35.7189 30.6176 35.8225C30.2875 35.9285 29.8628 35.9852 29.3453 35.9901ZM29.2077 34.7574C29.9505 34.7525 30.3666 34.4788 30.4594 33.9389C30.4818 33.7885 30.4938 33.6381 30.4938 33.4853C30.4938 33.3349 30.4801 33.1845 30.4525 33.0316C30.4285 32.8812 30.3735 32.7456 30.2875 32.6273C30.1998 32.504 30.0691 32.4054 29.8955 32.3314C29.7252 32.2599 29.4931 32.2279 29.2008 32.2328H28.4718L28.4787 34.7574H29.2077Z" fill="white"/>
<path d="M38 36L36.7278 35.9518L36.4556 35.1426L34.568 35.0655L34.2722 35.8555L33 35.7977L34.9941 31L36.1598 31.0482L38 36ZM36.0473 33.9191L35.5562 32.4258L35.0059 33.8805L36.0473 33.9191Z" fill="white"/>
<path d="M41.021 36L39.6317 35.8964L39.7169 33.6365L38 31L39.54 31.1224L40.4443 32.6196L41.46 31.2731L43 31.3861L41.1062 33.7401L41.021 36Z" fill="white"/>
<path d="M20.6819 29.9998L27.5402 29.7786C27.8072 29.7704 28.0067 29.5189 27.9998 29.201L27.9666 27.7468C27.9588 27.4289 27.7485 27.1914 27.4815 27.1995L23.2724 27.3346C23.0152 27.3439 22.804 27.1052 22.7972 26.8001C22.7903 26.4939 22.9898 26.2308 23.247 26.2226L27.0454 26.1004C27.3123 26.0922 27.5118 25.8407 27.505 25.5228L27.4756 24.2397C27.4688 23.9218 27.2576 23.6843 26.9906 23.6925L23.1922 23.8147C22.935 23.8229 22.7248 23.5853 22.7179 23.2791C22.7101 22.9612 22.9096 22.7109 23.1668 22.7027L27.3759 22.5665C27.6429 22.5584 27.8424 22.3069 27.8355 21.989L27.8033 20.5464C27.7954 20.2285 27.5852 19.9909 27.3182 20.0003L20.4599 20.2203C20.1929 20.2296 19.9924 20.48 20.0002 20.7979L20.1968 29.4525C20.2036 29.7704 20.4149 30.0079 20.6819 29.9998Z" fill="#D9D9D9"/>
<path d="M31.2491 29.8289L36.302 29.9997C36.5707 30.0091 36.7833 29.7587 36.7912 29.4393L36.8305 27.8046C36.8374 27.4852 36.6376 27.2325 36.3689 27.2243L32.1427 27.0804C31.8839 27.0722 31.6841 26.8194 31.691 26.5117L31.7668 23.3431C31.7746 23.0236 31.9872 22.7849 32.2451 22.7931L36.4713 22.937C36.74 22.9464 36.9526 22.7077 36.9605 22.3883L36.9998 20.7548C37.0067 20.4354 36.8059 20.1826 36.5372 20.1733L31.4853 20.0013C30.1418 19.9568 29.1429 21.0778 29.1045 22.6749L29.0011 26.9867C28.9627 28.5828 29.9066 29.7833 31.2491 29.8289Z" fill="#D9D9D9"/>
<path d="M38.5107 30.51L40.5192 30.6679C40.8315 30.6928 41.0911 30.4737 41.1152 30.1649L41.3058 27.7876C41.3311 27.4788 41.5906 27.2597 41.8915 27.2835C42.2038 27.3074 42.4243 27.5764 42.3991 27.8852L42.2096 30.2501C42.1843 30.5589 42.4059 30.8154 42.7183 30.8404L44.7268 30.9982C45.0392 31.0221 45.2987 30.803 45.3239 30.4942L45.998 22.0793C46.0233 21.7705 45.8017 21.514 45.4893 21.489L43.482 21.3312C43.1685 21.3073 42.9089 21.5264 42.8848 21.8352L42.6953 24.2001C42.6701 24.5089 42.4105 24.728 42.0982 24.7041C41.7973 24.6803 41.5757 24.4237 41.6009 24.1149L41.7904 21.749C41.8157 21.4402 41.5941 21.1836 41.2817 21.1597L39.2732 21.0019C38.9608 20.977 38.7013 21.1961 38.6772 21.5049L38.002 29.9208C37.9767 30.2296 38.1983 30.4862 38.5107 30.51Z" fill="#D9D9D9"/>
<path d="M14.6204 30.9976L16.7268 30.8373C17.0755 30.8108 17.2707 30.5894 17.2421 30.2389L16.7685 24.3961C16.7435 24.094 16.9863 23.8334 17.2969 23.8092L18.481 23.7192C18.8297 23.6927 19.0248 23.4713 18.9975 23.1334L18.8654 21.503C18.838 21.1651 18.6095 20.976 18.2608 21.0025L11.5192 21.5041C11.1574 21.5318 10.9753 21.752 11.0027 22.0899L11.136 23.7319C11.1633 24.0698 11.3918 24.2589 11.7405 24.2323L12.9115 24.1436C13.2352 24.1182 13.5161 24.3396 13.5411 24.6417L14.0147 30.4856C14.0433 30.835 14.2718 31.0241 14.6204 30.9976Z" fill="#D9D9D9"/>
<defs>
<filter id="filter0_d_119_1466" x="2.94482" y="6.79688" width="49.327" height="49.6201" filterUnits="userSpaceOnUse" color-interpolation-filters="sRGB">
<feFlood flood-opacity="0" result="BackgroundImageFix"/>
<feColorMatrix in="SourceAlpha" type="matrix" values="0 0 0 0 0 0 0 0 0 0 0 0 0 0 0 0 0 0 127 0" result="hardAlpha"/>
<feOffset dy="4"/>
<feGaussianBlur stdDeviation="2"/>
<feComposite in2="hardAlpha" operator="out"/>
<feColorMatrix type="matrix" values="0 0 0 0 0 0 0 0 0 0 0 0 0 0 0 0 0 0 0.25 0"/>
<feBlend mode="normal" in2="BackgroundImageFix" result="effect1_dropShadow_119_1466"/>
<feBlend mode="normal" in="SourceGraphic" in2="effect1_dropShadow_119_1466" result="shape"/>
</filter>
</defs>
</svg>
