<svg width="138" height="140" viewBox="0 0 138 140" fill="none" xmlns="http://www.w3.org/2000/svg">
<g filter="url(#filter0_d_110_697)">
<path d="M40.6263 20.6966C38.7972 21.7304 37.0472 22.8552 35.3763 24.0503C30.9222 27.0608 27.193 30.3069 25.0805 33.1975L25.0722 33.2099L25.0638 33.214C24.9847 33.367 24.943 33.4911 24.868 33.64C23.5722 34.955 22.4888 36.3651 21.6138 37.8579C9.33468 55.2756 7.33052 78.6274 18.3597 98.1417C18.3639 98.1624 18.368 98.1831 18.3722 98.2037L18.3889 98.2327C18.4222 98.2947 18.468 98.3443 18.5014 98.4064C18.5264 98.4477 18.543 98.4891 18.568 98.5304C24.0722 108.099 32.0139 115.439 41.1972 120.269C42.2305 121.063 43.4972 121.659 44.9722 122.089C56.8347 127.262 70.393 128.432 83.3638 125.004C88.1555 123.739 92.8638 121.857 97.3763 119.302C98.9138 118.433 100.385 117.499 101.81 116.523C101.856 116.49 101.91 116.461 101.951 116.424C103.535 115.328 105.047 114.17 106.493 112.946C109.831 110.308 112.672 107.467 114.518 104.638C119.276 98.609 122.735 91.7569 124.764 84.5284C124.768 84.5078 124.772 84.4871 124.78 84.4664C125.943 80.7736 126.589 76.965 126.735 73.1316C127.476 62.4296 125.176 51.4381 119.439 41.468C113.285 30.7784 104.097 22.8635 93.5305 18.1327C93.4055 18.079 93.2805 18.0252 93.1555 17.9715C83.3638 13.6708 72.4096 12.0994 61.5763 13.6005C61.568 13.6005 61.5597 13.6046 61.5555 13.6046C57.2472 13.7866 52.1305 15.329 47.0555 17.5703C44.8805 18.476 42.7305 19.5057 40.6263 20.6966ZM39.7847 21.5774C40.6805 21.0522 41.5972 20.5395 42.5222 20.0515C43.868 19.3402 45.2347 18.6827 46.6055 18.0624C46.843 17.9591 47.0847 17.8681 47.3263 17.7688C45.793 18.8688 44.4888 20.891 43.4222 23.8105C43.4097 23.8187 43.3972 23.827 43.3847 23.8394C43.1763 23.889 42.9763 23.9262 42.768 23.98L42.7347 23.9841L42.7097 24.0048C42.5597 24.1371 42.418 24.2653 42.2722 24.3977C41.0138 23.8808 39.8763 23.5003 38.968 23.3928C38.018 23.277 37.2347 23.3804 36.6388 23.6947C36.4388 23.7981 36.2555 23.9262 36.093 24.0792C35.4513 24.6789 35.143 25.6176 35.1097 26.8292C35.1055 26.9078 35.1305 27.0111 35.1305 27.0939C33.5555 27.7265 32.068 28.4089 30.7388 29.1656C29.3347 29.9637 28.1013 30.8404 26.9597 31.7626C29.5805 28.9754 32.5097 26.4157 35.7388 24.133C35.7513 24.1247 35.7638 24.1123 35.7763 24.1041C37.068 23.2398 38.3972 22.3879 39.7847 21.5774ZM36.7638 23.9262C37.3055 23.645 38.018 23.5458 38.9347 23.6533C39.7847 23.7567 40.868 24.1123 42.0597 24.5962C41.9013 24.7368 41.7513 24.8774 41.593 25.018C39.3472 25.5803 37.2763 26.2379 35.393 26.9822C35.393 26.9408 35.3763 26.883 35.3763 26.8375C35.4097 25.6672 35.7097 24.8029 36.2805 24.2695C36.4263 24.1371 36.5847 24.0214 36.7638 23.9262ZM48.0972 17.5869C48.3805 17.4339 48.6638 17.314 48.9555 17.2147C50.2055 16.7929 51.568 16.8715 53.018 17.3719C52.7805 17.4959 52.5472 17.591 52.3097 17.7192C49.5472 19.212 46.7138 21.1432 43.8263 23.4796C45.0013 20.4402 46.4388 18.4884 48.0972 17.5869ZM50.0388 16.7226C53.8597 15.3621 57.7513 14.411 61.6638 13.8734C61.9805 13.861 62.268 13.8858 62.5763 13.89C59.6055 14.4896 56.518 15.6061 53.3472 17.2147C52.1972 16.7846 51.0888 16.6068 50.0388 16.7226ZM28.0805 30.216C27.918 30.3814 27.7513 30.5427 27.5888 30.7081C27.7513 30.5427 27.9138 30.3814 28.0805 30.216ZM30.8763 29.3848C32.1722 28.6487 33.618 27.9912 35.1513 27.3709C35.1722 28.0077 35.2513 28.7107 35.393 29.4799C30.0513 33.4291 25.7222 37.4775 22.2805 41.5714C22.6055 39.5162 23.5263 36.9482 25.0555 33.8839C25.1972 33.7185 25.3347 33.5573 25.4763 33.3919C26.993 31.9321 28.7638 30.5799 30.8763 29.3848ZM35.4055 27.2634C37.168 26.5645 39.0888 25.9442 41.168 25.4025C41.0263 25.5349 40.8847 25.6589 40.743 25.7912C38.9555 26.9491 37.2388 28.1194 35.6305 29.3021C35.493 28.5536 35.418 27.8754 35.4055 27.2634ZM52.4305 17.9467C52.743 17.7771 53.0472 17.6613 53.3555 17.5C54.1222 17.7978 54.918 18.2568 55.7263 18.782C52.2055 20.0391 48.543 21.6105 44.7263 23.521C44.4763 23.5789 44.2222 23.6368 43.968 23.6988C46.8555 21.3624 49.6805 19.4395 52.4305 17.9467ZM53.6805 17.3388C57.2513 15.5523 60.693 14.4441 64.0013 13.9396C66.0013 14.2952 67.6138 14.7832 68.8971 15.3745C64.8555 15.9865 60.568 17.07 56.0388 18.6662C55.2388 18.1369 54.4472 17.6572 53.6805 17.3388ZM42.8763 24.224C42.8888 24.224 42.9013 24.2198 42.9138 24.2157C42.8347 24.286 42.7513 24.348 42.668 24.4183C42.7388 24.3563 42.8013 24.2901 42.8763 24.224ZM24.368 34.7317C23.0263 37.5809 22.2097 40.0041 21.968 41.956C20.9722 43.1593 20.0347 44.3627 19.193 45.5743C19.5722 42.9981 20.3847 40.5624 21.6472 38.3045C22.5013 37.0805 23.4138 35.8937 24.368 34.7317ZM42.3388 24.7119C42.3513 24.7202 42.3722 24.7243 42.3847 24.7326C42.3138 24.774 42.2513 24.8236 42.1805 24.8691C42.1763 24.8691 42.1722 24.8691 42.1638 24.8691C42.2263 24.8195 42.2805 24.7657 42.3388 24.7119ZM43.6138 24.0503C43.6513 24.042 43.6888 24.0379 43.7222 24.0255C43.6805 24.0503 43.6388 24.071 43.5972 24.0917C43.6055 24.0792 43.6097 24.0668 43.6138 24.0503ZM43.0513 24.6665C43.0722 24.6582 43.0972 24.6499 43.118 24.6375C43.1138 24.6499 43.1097 24.6582 43.1055 24.6665C43.0888 24.6665 43.068 24.6706 43.0513 24.6665ZM43.4638 24.4597C43.918 24.224 44.368 24.0007 44.8222 23.7732C49.7847 22.6195 54.5388 21.8421 59.0888 21.4203C59.5055 21.809 59.9305 22.2639 60.3472 22.6981C58.1097 23.612 55.8722 24.621 53.6597 25.7168C50.3263 25.1792 46.9013 24.8277 43.3805 24.6871C43.4055 24.6086 43.4347 24.5383 43.4638 24.4597ZM42.0347 25.2743C40.093 28.1153 38.3888 31.0017 36.9055 33.917C36.5638 32.9494 36.2722 32.0314 36.043 31.1795C36.0097 31.0637 35.9972 30.9686 35.968 30.8528C37.5347 29.2194 39.1972 27.5942 40.9597 25.9732C41.318 25.7416 41.668 25.5059 42.0347 25.2743ZM42.493 25.0593C42.6347 25.0262 42.7638 24.989 42.9097 24.9559C42.9347 24.9683 42.9555 24.9766 42.9805 24.989C42.968 25.0428 42.9513 25.08 42.9347 25.1337L42.9263 25.1337L42.9263 25.1461C42.4597 27.342 42.218 29.728 42.143 32.2298C40.5555 33.2471 39.0013 34.2975 37.4805 35.3644C37.3347 34.9922 37.168 34.6076 37.0347 34.2478C38.6013 31.1464 40.4055 28.0739 42.493 25.0593ZM45.8305 23.2646C49.3513 21.5443 52.7388 20.1218 56.0013 18.9639C56.3305 19.1831 56.6513 19.3526 56.9847 19.609C57.5847 20.068 58.1972 20.6139 58.8138 21.1804C54.6555 21.5774 50.3305 22.2597 45.8305 23.2646ZM39.5805 26.8623C38.293 28.078 37.0763 29.3062 35.9013 30.5344C35.8222 30.2077 35.7555 29.8934 35.693 29.5874C36.9388 28.6735 38.2263 27.7638 39.5805 26.8623ZM43.2347 25.0924C43.3805 25.1627 43.493 25.1916 43.643 25.2661C43.6472 25.2702 43.6513 25.2702 43.6555 25.2743C44.9805 26.4198 46.318 27.6438 47.6555 28.9051C47.2638 29.1284 46.868 29.3434 46.4763 29.575C45.2888 30.2656 44.1097 30.9769 42.9513 31.7047C42.7763 31.8163 42.6055 31.9321 42.4305 32.0438C42.5138 29.6329 42.7388 27.3296 43.1888 25.2123C43.2013 25.1668 43.2222 25.1379 43.2347 25.0924ZM43.5847 24.9559C46.8888 25.0924 50.1097 25.4273 53.243 25.9194C51.443 26.8209 49.6597 27.7762 47.8972 28.7686C46.5305 27.4826 45.1722 26.2337 43.8222 25.0676L43.8097 25.0593L43.793 25.0428C43.718 25.0055 43.6597 24.989 43.5847 24.9559ZM63.6138 13.6419C64.2596 13.5716 64.9055 13.5054 65.5513 13.4599C65.0472 13.5095 64.5347 13.5964 64.0263 13.6749C63.9763 13.6667 63.9347 13.6543 63.8847 13.646L63.8763 13.646C63.793 13.6377 63.6971 13.646 63.6138 13.6419ZM35.4513 29.7694C35.5222 30.096 35.5847 30.4186 35.6722 30.7701C30.543 36.1501 26.4597 41.6086 23.318 47.0465C22.8305 46.4675 22.4722 45.7687 22.2888 44.9085C22.1138 44.098 22.1013 43.1387 22.2305 42.0511C25.6763 37.8951 30.0388 33.7806 35.4513 29.7694ZM64.7763 13.8321C68.7013 13.34 72.4263 13.6915 75.918 14.7625C73.8138 14.8039 71.6305 14.9775 69.3722 15.3001C68.1638 14.6963 66.6347 14.2084 64.7763 13.8321ZM56.3138 18.8481C60.9055 17.2395 65.243 16.1685 69.3222 15.5772C70.8555 16.3546 71.868 17.2891 72.4097 18.3519C72.4722 18.476 72.5097 18.6083 72.5597 18.7324C72.4305 18.7613 72.3055 18.782 72.1805 18.8109C69.9472 19.3444 67.6805 20.0143 65.4055 20.7917C63.3805 20.8372 61.3055 20.953 59.1847 21.1432C58.5013 20.5064 57.818 19.9109 57.1472 19.3981C56.8638 19.1831 56.593 19.0384 56.3138 18.8481ZM35.7472 31.0926C35.7597 31.1505 35.768 31.196 35.7805 31.2498C36.0347 32.1761 36.368 33.181 36.7513 34.2354C36.3305 35.0708 35.9263 35.9102 35.5388 36.7538C31.243 39.9049 27.3055 43.2255 23.9055 46.5544C26.9597 41.3894 30.8888 36.208 35.7472 31.0926ZM67.1263 13.3813C67.7805 13.3524 68.4346 13.3358 69.0846 13.3276C75.0138 13.2697 80.8888 14.105 86.5013 15.7922C83.4638 15.1016 80.2138 14.7542 76.7597 14.7584C74.3055 13.9313 71.7555 13.4144 69.0846 13.3276C68.443 13.3069 67.7805 13.3565 67.1263 13.3813ZM20.5347 39.9752C19.718 41.8319 19.1513 43.7796 18.8722 45.8224C18.8597 45.9093 18.8597 46.0003 18.8513 46.0871C15.3138 51.2934 13.143 56.5328 12.1513 61.6894C13.4097 54.0144 16.2513 46.6081 20.5347 39.9752ZM21.918 42.4274C21.8347 43.3702 21.868 44.2221 22.0263 44.9623C22.2305 45.8969 22.6222 46.666 23.168 47.2946C21.918 48.5434 20.7263 49.7964 19.6472 51.037C19.4305 51.2851 19.243 51.525 19.0347 51.7731C18.868 49.8543 18.8888 47.9852 19.1097 46.1781C19.9638 44.9251 20.8972 43.6762 21.918 42.4274ZM69.7763 15.5068C72.1847 15.176 74.493 15.0272 76.7263 15.023C77.1305 15.1595 77.5388 15.2753 77.9388 15.4283C79.3013 15.9659 80.618 16.6234 81.9013 17.3719C78.968 17.5249 75.9305 17.9673 72.8263 18.6745C72.768 18.5256 72.7222 18.3767 72.6472 18.232C72.1138 17.1858 71.1722 16.2719 69.7763 15.5068ZM59.468 21.3913C61.218 21.2383 62.9513 21.1184 64.6388 21.0646C63.3013 21.5361 61.9597 22.0447 60.618 22.5906C60.2347 22.1894 59.8472 21.7552 59.468 21.3913ZM36.8805 34.5663C36.993 34.8764 37.1305 35.2031 37.2555 35.5256C36.8305 35.8234 36.4013 36.117 35.9847 36.4189C36.2722 35.7986 36.5722 35.1824 36.8805 34.5663ZM46.6097 29.8024C47.0222 29.5626 47.443 29.331 47.8597 29.0953C50.8638 31.9362 53.8805 35.0335 56.8805 38.3376C54.9513 39.5865 52.943 40.7857 50.8972 41.8898C48.4222 43.2296 45.9097 44.4164 43.443 45.4503C42.6722 40.827 42.3055 36.423 42.4138 32.3746C42.643 32.2298 42.8638 32.0727 43.0972 31.928C44.2513 31.2002 45.4263 30.493 46.6097 29.8024ZM48.0972 28.963C49.943 27.9209 51.8138 26.9243 53.7013 25.9897C57.7847 26.6596 61.7013 27.6273 65.4763 28.8265C65.9097 29.4179 66.3472 30.0092 66.7847 30.6336C64.1138 33.2099 60.793 35.8027 57.1138 38.197C54.118 34.8929 51.1013 31.8039 48.0972 28.963ZM42.1263 32.5607C42.0347 36.5967 42.4138 40.9759 43.1847 45.5578C42.918 45.6653 42.6555 45.7687 42.393 45.8721C40.4097 42.1131 38.768 38.656 37.5763 35.6249C39.0597 34.5787 40.5763 33.5573 42.1263 32.5607ZM54.118 25.7912C56.2513 24.7492 58.4013 23.7815 60.5513 22.9007C62.0805 24.4969 63.6388 26.366 65.2138 28.4792C61.6472 27.3626 57.9597 26.4363 54.118 25.7912ZM37.3513 35.782C38.543 38.8049 40.168 42.2454 42.1388 45.9796C38.2722 47.5055 34.6013 48.5434 31.4722 48.9115C32.5138 44.9044 33.943 40.8973 35.7513 36.9316C36.2805 36.5471 36.8138 36.1625 37.3513 35.782ZM60.8222 22.7973C62.3722 22.1688 63.918 21.5774 65.4638 21.0481C68.0013 20.9943 70.4638 21.0481 72.8597 21.2094C72.7013 22.5616 72.1055 24.0338 71.1138 25.5762C70.318 26.8168 69.2513 28.107 68.018 29.4055C67.2347 29.1284 66.4388 28.8596 65.6388 28.6032C64.0138 26.4033 62.4055 24.4555 60.8222 22.7973ZM35.2972 37.2707C33.568 41.1331 32.2055 45.0367 31.193 48.9363C29.8513 49.081 28.5847 49.1348 27.4888 48.9983C26.093 48.8288 24.9263 48.4235 24.043 47.7536C23.8597 47.6171 23.6972 47.4559 23.5388 47.2946C26.9472 43.8995 30.9347 40.5045 35.2972 37.2707ZM18.793 46.6495C18.6138 48.4028 18.6222 50.2141 18.7972 52.0667C15.7013 55.776 13.4138 59.3737 12.2638 62.6281C12.3097 62.3676 12.3388 62.1071 12.3847 61.8466C13.3347 56.8305 15.418 51.7235 18.793 46.6495ZM66.2722 20.7834C68.2763 20.1218 70.268 19.5387 72.2347 19.0673C72.3763 19.0342 72.518 19.0177 72.6555 18.9846C72.8638 19.6049 72.943 20.2624 72.8888 20.953C70.743 20.8083 68.5388 20.7545 66.2722 20.7834ZM77.5721 15.0354C82.4638 15.1099 86.9305 15.9204 90.9471 17.376C91.7055 17.6489 92.4472 17.9466 93.1722 18.2651C93.8305 18.5504 94.4638 18.8605 95.0972 19.1789C91.2722 17.6985 86.9596 17.1444 82.368 17.3346C80.968 16.5034 79.5263 15.7715 78.0346 15.1843C77.8846 15.1223 77.7221 15.0892 77.5721 15.0354ZM72.9222 18.9226C76.1388 18.1948 79.2805 17.7357 82.2972 17.6034C85.2305 19.365 87.9513 21.6518 90.4472 24.3563C85.2055 22.5947 79.4347 21.4203 73.1555 20.9737C73.2097 20.2583 73.1388 19.5718 72.9222 18.9226ZM23.3638 47.5014C23.5263 47.6668 23.693 47.828 23.8805 47.9686C24.8097 48.6758 26.0263 49.0893 27.4555 49.263C28.5513 49.3994 29.8013 49.3539 31.1263 49.2216C29.2347 56.632 28.6138 64.0217 28.9722 71.1592C28.7888 71.3535 28.5888 71.5479 28.4097 71.7464C27.9347 72.2674 27.518 72.7926 27.068 73.3136C23.3222 67.2679 20.6555 61.1188 19.5263 55.3004C20.593 52.7159 21.8722 50.1107 23.3638 47.5014ZM22.6888 48.1506C21.4555 50.3754 20.3722 52.5919 19.443 54.7959C19.2805 53.9027 19.1597 53.0219 19.0722 52.1452C19.3347 51.8351 19.5722 51.525 19.8472 51.2107C20.7305 50.1975 21.693 49.1761 22.6888 48.1506ZM73.1222 21.23C79.5597 21.6849 85.4638 22.9048 90.8013 24.745C93.5347 27.7803 95.968 31.3407 98.1097 35.2444C97.6472 35.2982 97.2097 35.3271 96.7388 35.3933C93.1763 35.9019 89.3555 36.7869 85.4055 37.9365C80.2055 34.5828 74.4805 31.7171 68.2847 29.5047C69.493 28.2269 70.5472 26.9491 71.3388 25.7168C72.343 24.1495 72.9597 22.636 73.1222 21.2259L73.1222 21.23ZM18.8305 52.4389C18.9305 53.3776 19.0638 54.3163 19.2472 55.2756C16.6097 61.6853 15.2263 68.004 14.9097 74.058C13.4055 72.7182 12.3388 70.9483 11.8138 68.6615C11.7888 68.5291 11.7972 68.3803 11.7805 68.2438C11.7888 67.0404 11.8555 65.8288 11.9888 64.613C12.7888 61.003 15.2222 56.8098 18.8305 52.4347L18.8305 52.4389ZM82.7638 17.5703C88.3846 17.3884 93.5555 18.3478 97.8972 20.7752C100.072 23.1529 100.889 25.8822 100.626 28.8513C97.6472 27.1807 94.4347 25.7292 90.9847 24.5341C88.4722 21.7552 85.7263 19.3981 82.7638 17.5703ZM65.9013 28.9506C66.5513 29.1615 67.1888 29.3889 67.8305 29.6122C67.5638 29.8893 67.2638 30.1663 66.9763 30.4475C66.618 29.9348 66.2597 29.4427 65.9013 28.9506ZM19.3472 55.7471C20.5305 61.5116 23.1805 67.5739 26.8847 73.5328C25.8305 74.7734 24.8472 76.0181 23.9555 77.2711C21.8472 77.1263 19.9388 76.75 18.293 76.1008C17.1097 75.6335 16.068 75.0215 15.1638 74.273C15.4513 68.3017 16.7888 62.0781 19.3472 55.7471ZM31.4013 49.1968C34.6013 48.837 38.3388 47.7784 42.268 46.2194C42.7888 47.2036 43.3222 48.2043 43.8888 49.2257C44.418 51.7772 45.0555 54.3783 45.7847 57.0083C39.5013 61.3255 33.818 66.0273 29.2305 70.8904C28.8972 63.8315 29.5222 56.5203 31.4013 49.1927L31.4013 49.1968ZM68.0972 29.7156C74.2347 31.8949 79.9013 34.7234 85.0597 38.0316C81.4722 39.0861 77.7805 40.3597 74.043 41.865C71.7722 37.7711 69.4472 34.0039 67.1305 30.6708C67.4555 30.3524 67.793 30.034 68.0972 29.7115L68.0972 29.7156ZM66.9347 30.8611C69.2347 34.1651 71.5388 37.9034 73.793 41.9684C70.5763 43.2668 67.343 44.7266 64.1305 46.3104C61.8763 43.5853 59.5972 40.9304 57.2972 38.3914C60.9555 36.0095 64.268 33.4332 66.9347 30.8611ZM42.518 46.116C42.7513 46.0251 42.9888 45.9299 43.2263 45.8307C43.368 46.666 43.5597 47.5179 43.7263 48.3615C43.3055 47.5965 42.9138 46.8604 42.518 46.116ZM43.4847 45.7232C45.9805 44.6811 48.5222 43.4777 51.0263 42.1255C53.0888 41.009 55.118 39.7974 57.0638 38.5361C59.3597 41.071 61.6347 43.7134 63.8847 46.4303C62.7513 46.9927 61.618 47.5468 60.493 48.1382C58.943 48.9487 57.4097 49.7881 55.8888 50.6565C53.1597 52.2155 50.4888 53.8572 47.9013 55.5651C46.593 53.3734 45.2972 51.1941 44.1472 49.1182C43.9097 47.9769 43.6763 46.8397 43.4847 45.7232ZM11.4805 67.8427C11.4888 67.9626 11.493 68.0825 11.5097 68.2025C11.4638 74.2193 12.9513 80.0334 15.6055 85.463C16.0972 88.246 16.8139 90.9381 17.7472 93.5268C17.7472 94.7715 17.8847 96.0079 18.1472 97.2237C13.0847 87.9152 10.9555 77.7756 11.4805 67.8427ZM44.3138 49.9742C45.3513 51.8268 46.518 53.7704 47.6805 55.714C47.118 56.0861 46.5722 56.4666 46.0222 56.8429C45.3805 54.5271 44.7972 52.2321 44.3138 49.9742ZM11.8055 69.6002C12.4222 71.5934 13.468 73.1896 14.893 74.4053C14.7388 77.8707 14.9347 81.2492 15.4472 84.516C13.2555 79.7853 11.9722 74.7692 11.8055 69.6002ZM91.3346 24.927C94.6471 26.1014 97.7388 27.5198 100.605 29.1367C100.56 29.5667 100.489 30.0009 100.393 30.4434C100.072 31.9734 99.4346 33.5655 98.6138 35.1865C98.543 35.1948 98.468 35.2031 98.3972 35.2113C96.3222 31.411 93.9763 27.9209 91.3346 24.927ZM98.6097 21.23C104.193 24.9021 108.63 29.9926 111.93 35.9598C111.572 35.844 111.214 35.7283 110.839 35.6331C110.576 35.567 110.276 35.538 110.005 35.4801C107.28 33.0776 104.235 30.9024 100.88 28.9961C101.155 26.1758 100.455 23.5458 98.6097 21.23ZM99.7263 21.6601C107.197 26.1882 113.676 32.4945 118.476 40.368C117.026 38.3748 114.918 36.9606 112.293 36.0673C109.151 30.3193 104.968 25.3488 99.7263 21.6601ZM56.0222 50.8964C57.5388 50.028 59.0722 49.1844 60.618 48.3739C61.7555 47.7743 62.9055 47.2077 64.0555 46.6412C67.3972 50.6938 70.6305 54.9241 73.7638 59.1917C70.9888 61.0071 68.1055 62.7439 65.1638 64.3773C62.243 66.0025 59.268 67.516 56.293 68.9013C54.3472 65.9859 52.468 63.0789 50.6805 60.2173C49.743 58.712 48.9138 57.273 48.0347 55.8049C50.6222 54.0971 53.293 52.4512 56.0222 50.8964ZM64.293 46.5213C67.4972 44.9499 70.7138 43.5025 73.918 42.2082C74.5847 43.4116 75.2472 44.6273 75.8972 45.8762C77.3763 48.7047 78.818 51.6573 80.2097 54.6677C78.2138 56.1606 76.1388 57.6244 73.9805 59.0387C70.8555 54.7794 67.6305 50.5656 64.293 46.5213ZM47.8138 55.9538C48.693 57.4218 49.518 58.8568 50.4555 60.3579C52.2347 63.2112 54.1055 66.1141 56.043 69.0171C54.3013 69.8235 52.5638 70.5678 50.8347 71.2791C49.3888 67.5449 48.0597 63.786 46.9305 60.0601C46.6305 59.0759 46.368 58.1 46.093 57.1241C46.6638 56.7312 47.2305 56.3384 47.8138 55.9538ZM15.1513 74.6038C16.0388 75.3151 17.0472 75.9023 18.1847 76.353C19.8222 76.994 21.7013 77.3786 23.768 77.5275C20.9513 81.5304 18.9722 85.5705 18.1639 89.528C17.318 88.1675 16.543 86.778 15.8514 85.3555C15.243 81.8984 14.9972 78.3008 15.1513 74.6038ZM45.8638 57.2854C46.1305 58.2323 46.3847 59.1793 46.6722 60.1346C47.8055 63.8728 49.1347 67.6359 50.5805 71.3742C43.6513 74.1944 36.893 76.2083 31.0055 76.9816C30.5763 77.0395 30.1805 77.0519 29.7638 77.0933C29.5138 75.1745 29.3472 73.2268 29.243 71.2584C33.8263 66.3623 39.5388 61.6315 45.8638 57.2854ZM74.168 42.1048C77.968 40.5789 81.718 39.2846 85.3597 38.2218C87.9305 39.8842 90.3597 41.6665 92.6638 43.5398C89.3347 47.2408 85.1555 50.9543 80.4263 54.5065C79.0388 51.5084 77.6055 48.5682 76.1347 45.748C75.4847 44.5074 74.8263 43.2999 74.168 42.1048ZM100.851 29.2772C104.018 31.0844 106.918 33.1354 109.522 35.3933C106.443 34.802 102.868 34.7441 98.9263 35.1576C99.718 33.5738 100.335 32.0107 100.651 30.5013C100.739 30.0919 100.801 29.6825 100.847 29.2772L100.851 29.2772ZM85.7055 38.1267C89.5638 37.0143 93.2972 36.1542 96.7722 35.658C97.2763 35.5835 97.7513 35.5546 98.243 35.4967C98.2847 35.5711 98.3305 35.6373 98.368 35.7117C97.2847 37.7339 95.868 39.8015 94.1347 41.8898C93.7347 42.3695 93.2763 42.8533 92.8472 43.3371C90.593 41.5011 88.2138 39.756 85.7055 38.1267ZM28.9805 71.5272C29.0847 73.355 29.243 75.1662 29.4763 76.9527C28.6888 75.8237 27.9222 74.6948 27.2097 73.5535C27.6763 73.0118 28.1097 72.4659 28.6013 71.9242C28.7222 71.7919 28.8597 71.6595 28.9805 71.5272ZM27.0263 73.7726C27.7347 74.8974 28.493 76.0222 29.2722 77.1346C27.5222 77.2959 25.8388 77.3703 24.2805 77.2835C25.1263 76.1091 26.0388 74.9388 27.0263 73.7726ZM24.0805 77.5481C25.743 77.6515 27.5555 77.5647 29.4388 77.3869C29.4722 77.4323 29.5013 77.482 29.5388 77.5275C30.9222 87.6671 34.3347 97.0417 39.0805 104.833C36.818 105.081 34.6889 105.139 32.6805 105.048C29.0097 102.273 25.6514 99.1962 22.7764 95.826C21.1514 93.9196 19.6805 91.9223 18.3722 89.8629C19.143 85.8145 21.1639 81.6669 24.0805 77.5481ZM98.793 35.4388C102.964 34.9922 106.726 35.0583 109.905 35.7283C111.26 36.9316 112.53 38.1887 113.726 39.4913C114.397 40.9635 115.01 42.4811 115.555 44.0319C116.768 47.4765 117.635 51.099 118.23 54.8042C117.105 57.2812 115.576 59.8244 113.597 62.4048C112.414 62.351 111.189 62.3552 109.901 62.4462C108.822 60.7217 107.647 59.018 106.38 57.335C105.197 51.7276 103.53 46.2732 101.368 41.2405C100.543 39.3177 99.6305 37.4857 98.6722 35.6993C98.718 35.6125 98.7472 35.5256 98.793 35.4388ZM98.5305 36.0012C99.4472 37.7256 100.326 39.4996 101.122 41.3481C103.205 46.1946 104.835 51.4298 106.01 56.8181C102.389 52.0873 98.0347 47.584 93.0555 43.5025C93.4847 43.0187 93.9472 42.5349 94.3472 42.0511C96.0388 40.0124 97.4513 37.9861 98.5305 36.0012ZM29.793 77.3538C30.2138 77.3083 30.6138 77.3 31.043 77.2421C36.9638 76.4647 43.7388 74.4508 50.6805 71.6223C52.5847 76.5184 54.7222 81.3484 57.0013 85.9841C52.9805 89.0814 49.3555 92.2862 46.3514 95.4952C40.1764 90.1607 34.5722 84.1315 30.0805 77.85C29.9805 77.7135 29.9013 77.5729 29.8055 77.4406C29.8013 77.4117 29.7972 77.3827 29.793 77.3538ZM29.8638 78.0113C34.368 84.3051 39.9764 90.3468 46.1639 95.6936C45.1389 96.7978 44.1638 97.9019 43.293 98.9977C41.7472 100.95 40.4722 102.885 39.4972 104.771C39.4555 104.775 39.4097 104.783 39.368 104.791C34.6889 97.1451 31.2972 87.9607 29.8638 78.0113ZM16.0264 86.3273C16.6555 87.5431 17.343 88.7423 18.0847 89.9167C17.9055 90.8885 17.8097 91.8437 17.7722 92.8031C17.0472 90.7107 16.4639 88.5479 16.0264 86.3273ZM92.8722 43.7052C98.0013 47.9025 102.451 52.5546 106.126 57.4301C106.497 59.1958 106.81 60.9699 107.076 62.7563C106.73 62.8018 106.405 62.8225 106.051 62.8804C100.085 63.7984 93.3347 65.928 86.4555 68.8393C84.6513 64.0961 82.6638 59.3488 80.5472 54.7546C85.3097 51.1817 89.5138 47.4393 92.8722 43.7052ZM110.372 35.8151C110.501 35.844 110.647 35.8564 110.772 35.8895C111.23 36.0053 111.676 36.1418 112.11 36.2865C112.535 37.0681 112.943 37.862 113.326 38.6684C112.393 37.6884 111.401 36.7373 110.372 35.8151ZM112.489 36.423C115.468 37.4981 117.735 39.2556 119.068 41.8071C119.926 43.6514 120.264 45.6281 120.155 47.7081C118.418 44.7679 116.339 41.9684 113.943 39.3549C113.489 38.3583 113.001 37.3782 112.489 36.423ZM50.9305 71.5272C52.6805 70.8118 54.4347 70.055 56.193 69.2404C58.7972 73.1441 61.518 77.0023 64.2638 80.7984C61.8097 82.4236 59.4555 84.1025 57.2138 85.8186C54.943 81.2037 52.8263 76.3985 50.9305 71.5272ZM80.3222 54.9159C82.4305 59.4936 84.4097 64.2202 86.2055 68.9468C84.8722 69.5133 83.5347 70.1129 82.1972 70.7415C79.6597 66.9246 76.9388 63.0789 74.1388 59.2579C76.2763 57.8519 78.3388 56.4004 80.3222 54.9159ZM18.2972 90.2641C19.568 92.2448 21.0014 94.1636 22.568 95.9997C25.3722 99.2872 28.6472 102.302 32.2139 105.031C30.6389 104.936 29.1222 104.771 27.743 104.44C25.543 103.915 23.6264 103.071 22.0222 101.897C20.4305 99.2541 19.0805 96.438 18.0097 93.4771C18.0097 92.4144 18.1097 91.3475 18.2972 90.2641ZM56.443 69.1287C59.4138 67.7434 62.3805 66.2299 65.2972 64.6089C68.243 62.9713 71.1347 61.2304 73.918 59.4109C76.7097 63.2236 79.418 67.0528 81.9472 70.8573C78.4972 72.4783 75.0513 74.2565 71.693 76.1918C69.2305 77.6102 66.8305 79.1154 64.4888 80.6537C61.7513 76.8699 59.043 73.02 56.443 69.1287ZM18.0347 94.3042C18.9889 96.8019 20.1305 99.1962 21.4555 101.466C20.3347 100.544 19.3805 99.4402 18.6347 98.1334C18.6305 98.1252 18.6264 98.1169 18.6222 98.1086C18.6222 98.1045 18.618 98.1045 18.618 98.1045C18.618 98.1004 18.618 98.1004 18.6139 98.0962C18.2722 96.8515 18.093 95.5861 18.0347 94.3042ZM114.239 40.0661C116.501 42.6093 118.476 45.3221 120.122 48.1588C119.993 49.7344 119.622 51.3595 119.01 53.0343C118.851 53.4602 118.622 53.9027 118.435 54.3369C117.839 50.7682 116.976 47.278 115.805 43.9533C115.335 42.6259 114.797 41.3398 114.239 40.0661ZM119.401 41.9229C123.951 49.9535 126.264 58.6376 126.564 67.2927C126.076 62.0947 124.697 56.938 122.443 52.0542C121.822 50.7144 121.139 49.3953 120.389 48.1009C120.56 45.9299 120.255 43.854 119.401 41.9229ZM20.1139 100.577C20.6305 101.127 21.2055 101.624 21.8139 102.074C22.5722 103.327 23.3764 104.547 24.2389 105.722C25.8889 107.971 27.7389 110.055 29.743 111.978C26.1014 108.687 22.8514 104.874 20.1139 100.577ZM22.3889 102.484C23.9139 103.489 25.6847 104.225 27.6764 104.7C29.1805 105.06 30.843 105.234 32.5722 105.316C34.268 106.594 36.018 107.81 37.843 108.939C37.7139 109.439 37.6014 109.935 37.5222 110.423C37.0055 113.694 37.7764 116.713 40.1014 119.265C33.9555 115.903 28.6097 111.222 24.4555 105.565C23.7264 104.572 23.043 103.538 22.3889 102.484ZM120.355 48.5972C121.018 49.7675 121.639 50.9543 122.197 52.1618C124.868 57.947 126.314 64.1168 126.481 70.2783C125.285 66.8006 122.776 64.5593 119.343 63.389C119.247 60.5026 118.947 57.6451 118.497 54.829C118.751 54.2583 119.047 53.6877 119.251 53.1253C119.818 51.5787 120.193 50.0652 120.355 48.5972ZM71.8222 76.4233C75.193 74.4839 78.643 72.7016 82.1013 71.0764C84.9263 75.3399 87.4763 79.4876 89.8472 83.5194C86.4305 85.831 82.8805 88.0517 79.2347 90.111C77.4513 91.1242 75.6472 92.0877 73.8347 93.0264C70.8055 89.222 67.718 85.1115 64.6472 80.8729C66.9805 79.3346 69.368 77.8376 71.8222 76.4233ZM64.418 81.0176C67.4805 85.2521 70.5638 89.346 73.5888 93.1463C70.2888 94.8418 66.968 96.3925 63.6638 97.7902C63.5972 97.6786 63.5263 97.5752 63.4597 97.4635C61.3472 93.8824 59.293 90.0407 57.3347 86.0668C59.5847 84.3382 61.9513 82.651 64.4138 81.0176L64.418 81.0176ZM82.3472 70.9689C83.668 70.3486 84.9888 69.7532 86.3055 69.1949C88.0472 73.7892 89.5847 78.371 90.9013 82.804C90.6263 82.9943 90.3472 83.1845 90.0722 83.3706C87.7055 79.3511 85.1597 75.2158 82.3472 70.9689ZM86.5513 69.0957C93.4138 66.1886 100.151 64.0589 106.089 63.1409C106.439 63.0871 106.764 63.0664 107.11 63.021C107.401 65.0059 107.622 66.9908 107.78 68.9881C103.118 73.6858 97.3972 78.3255 91.1347 82.6469C89.8222 78.2304 88.2847 73.6692 86.5513 69.0957ZM106.497 57.9553C107.601 59.444 108.635 60.9533 109.593 62.4751C108.864 62.5289 108.101 62.6322 107.343 62.7315C107.101 61.127 106.822 59.5391 106.497 57.9553ZM57.1138 86.2363C59.0722 90.1979 61.118 94.023 63.2263 97.5917C63.2888 97.6951 63.3472 97.7943 63.4097 97.8977C60.193 99.25 57.0138 100.437 53.9013 101.446C51.3805 99.6469 48.9222 97.7199 46.5472 95.6771C49.5263 92.4971 53.1222 89.3129 57.1138 86.2363ZM46.3555 95.8673C48.6888 97.8729 51.1055 99.771 53.5805 101.545C49.7055 102.79 45.9388 103.778 42.4013 104.382C41.5222 104.531 40.6805 104.622 39.8264 104.729C40.7805 102.914 42.0055 101.053 43.4972 99.1673C44.3639 98.0714 45.3305 96.9714 46.3555 95.8673ZM118.293 55.3046C118.697 57.9387 118.972 60.606 119.064 63.3021C117.514 62.8059 115.768 62.5413 113.889 62.4337C115.726 60.0229 117.193 57.6369 118.293 55.3046ZM107.38 62.992C108.176 62.8928 108.985 62.777 109.751 62.7191C110.272 63.5544 110.776 64.3939 111.251 65.2333C111.11 65.3987 110.993 65.56 110.847 65.7254C109.968 66.722 109.018 67.7227 108.039 68.7193C107.88 66.8047 107.66 64.8984 107.38 62.992ZM33.0305 105.333C34.9847 105.399 37.043 105.321 39.2222 105.072C39.243 105.11 39.2639 105.147 39.2847 105.18C38.6972 106.371 38.243 107.533 37.918 108.678C36.2305 107.632 34.6055 106.503 33.0305 105.333ZM110.064 62.7108C111.218 62.6364 112.33 62.6157 113.397 62.6529C112.785 63.4386 112.114 64.2284 111.439 65.0141C111.001 64.245 110.543 63.4758 110.064 62.7108ZM113.714 62.6819C115.676 62.7811 117.489 63.0664 119.085 63.5875C119.251 69.1453 118.718 74.7527 117.568 80.1823C116.63 76.1917 115.13 72.0978 113.085 68.0205C112.622 67.1025 112.093 66.1844 111.576 65.2664C112.318 64.4021 113.051 63.542 113.714 62.6819ZM39.6722 105.01C40.5889 104.899 41.5055 104.799 42.4555 104.634C46.0597 104.018 49.9014 103.009 53.8514 101.735C55.993 103.261 58.1639 104.721 60.3722 106.036C63.6347 107.979 66.9472 109.642 70.2597 111.031C68.1264 113.277 66.5222 115.456 65.7097 117.437C65.543 117.846 65.4222 118.247 65.3222 118.64C58.3139 117.685 51.3764 115.526 44.9139 112.45C43.0847 110.328 41.3639 108.013 39.793 105.515C39.7222 105.407 39.668 105.287 39.5972 105.18C39.6264 105.122 39.643 105.068 39.6722 105.01ZM39.468 105.486C39.5014 105.54 39.5305 105.602 39.5638 105.66C41.0389 107.996 42.6514 110.159 44.3472 112.173C42.2305 111.139 40.1597 110.039 38.1639 108.811C38.468 107.731 38.9222 106.615 39.468 105.486ZM111.393 65.4856C111.893 66.3705 112.401 67.2513 112.847 68.1404C114.985 72.4038 116.51 76.6797 117.426 80.8274C117.222 81.7371 117.047 82.6552 116.806 83.5566C116.056 86.3728 115.085 89.1062 113.968 91.7527C112.414 90.7727 110.26 90.4625 107.735 90.6651C107.476 90.6858 107.197 90.7437 106.935 90.7768C107.526 87.8325 107.951 84.8055 108.172 81.7123C108.468 77.5688 108.401 73.326 108.068 69.0832C109.118 68.0246 110.118 66.9577 111.055 65.8991C111.176 65.7585 111.276 65.622 111.393 65.4814L111.393 65.4856ZM107.814 69.3272C108.131 73.4832 108.189 77.6391 107.901 81.6958C107.681 84.8096 107.251 87.8532 106.655 90.814C103.485 91.2234 99.8097 92.3441 95.9597 93.9651C94.9013 91.8892 93.7638 89.7513 92.5097 87.5141C92.2055 86.3562 91.8972 85.1942 91.5555 84.0074C91.4513 83.6476 91.3305 83.2754 91.2263 82.9115C97.4555 78.615 103.147 74.0042 107.814 69.3272ZM38.0889 109.079C40.2347 110.394 42.468 111.59 44.7597 112.681C48.243 116.713 52.1555 119.976 56.318 122.354C52.6597 122.759 49.3805 122.734 46.6639 122.225C44.6472 121.494 42.6972 120.621 40.8139 119.633C38.1264 117.023 37.2514 113.909 37.793 110.461C37.868 110.006 37.968 109.543 38.0889 109.079ZM119.355 63.6785C122.776 64.8736 125.23 67.1066 126.343 70.6588C126.214 76.9526 123.301 83.1721 118.643 89.0152C118.622 86.3769 118.314 83.6476 117.701 80.848C118.943 75.2406 119.522 69.4347 119.355 63.6785ZM54.1805 101.636C57.2513 100.631 60.3847 99.4526 63.5555 98.121C66.1472 102.467 68.8013 106.42 71.4305 109.861C71.0972 110.184 70.7722 110.506 70.4638 110.825C67.1305 109.431 63.7972 107.76 60.5138 105.804C58.368 104.531 56.2597 103.112 54.1805 101.636ZM63.8097 98.0135C67.118 96.6158 70.4472 95.0568 73.7555 93.3572C73.9805 93.6425 74.2138 93.961 74.4388 94.2422C76.7222 97.0831 78.9347 99.7214 81.068 102.136C77.5097 104.547 74.2597 107.119 71.6264 109.663C69.0222 106.251 66.3805 102.327 63.8097 98.0135ZM90.993 83.0728C91.093 83.4078 91.2013 83.751 91.2972 84.086C91.543 84.9378 91.7555 85.7649 91.9847 86.6043C91.4305 85.6284 90.7972 84.607 90.2138 83.6063C90.4722 83.4285 90.7347 83.2506 90.993 83.0728ZM89.9888 83.7551C90.7097 84.9833 91.4972 86.2528 92.168 87.4479C92.1972 87.5017 92.2222 87.5513 92.2513 87.6051C92.9097 90.1069 93.4722 92.526 93.9347 94.8583C91.4305 96.0038 88.893 97.3146 86.4055 98.7661C85.3388 99.3864 84.2805 100.032 83.243 100.693C82.5805 101.115 81.9388 101.549 81.293 101.983C79.1597 99.5642 76.9388 96.9218 74.6513 94.0767C74.4388 93.808 74.2138 93.5061 74.0013 93.2373C75.8013 92.3069 77.5972 91.3475 79.3763 90.3426C83.018 88.2791 86.5722 86.0626 89.9888 83.7551ZM45.3972 112.987C51.7014 115.923 58.4472 117.974 65.2597 118.909C65.1264 119.538 65.0889 120.141 65.1597 120.716C63.4639 121.134 61.8014 121.514 60.2014 121.8C59.0222 122.01 57.8764 122.176 56.7597 122.308C52.6805 120.03 48.843 116.879 45.3972 112.987ZM92.8222 88.6596C93.8472 90.5121 94.8222 92.3275 95.7097 94.0685C95.2013 94.2835 94.6972 94.5068 94.1847 94.7384C93.7888 92.77 93.3513 90.752 92.8222 88.6596ZM126.501 71.9779C126.497 72.3294 126.485 72.6768 126.472 73.0283C126.205 76.9237 125.547 80.7819 124.485 84.5408C124.476 84.5574 124.472 84.578 124.468 84.5946C122.989 89.2095 120.672 93.6343 117.526 97.6827C118.293 95.1105 118.631 92.3358 118.643 89.4411C123.126 83.8957 126.018 77.9906 126.497 71.9779L126.501 71.9779ZM86.543 98.9936C89.0013 97.5586 91.5138 96.2684 93.9847 95.1354C94.9388 99.9943 95.4597 104.427 95.4097 108.137C93.6805 109.154 91.918 110.122 90.143 111.048C87.5972 108.802 84.6513 105.784 81.4722 102.19C82.1097 101.764 82.7347 101.33 83.3847 100.916C84.4222 100.255 85.4805 99.6139 86.543 98.9936ZM117.555 81.4931C118.105 84.1893 118.376 86.8152 118.376 89.3501C117.401 90.5494 116.368 91.7403 115.256 92.9065C114.951 92.526 114.585 92.2117 114.193 91.9305C115.326 89.2509 116.31 86.4803 117.072 83.6269C117.26 82.9239 117.389 82.2044 117.555 81.4931ZM81.2513 102.339C84.4097 105.912 87.3388 108.926 89.893 111.18C89.5222 111.375 89.1513 111.577 88.7763 111.767C86.8305 112.752 84.8638 113.661 82.9013 114.534C79.8055 114.025 76.6388 113.165 73.4513 112.011C72.9013 111.337 72.343 110.61 71.7888 109.886C74.4222 107.339 77.6847 104.758 81.2513 102.339ZM94.2388 95.0113C94.7763 94.7715 95.3097 94.5399 95.843 94.3124C97.8305 98.2203 99.4472 101.801 100.606 104.89C98.993 105.957 97.3555 106.995 95.6763 107.988C95.7138 104.258 95.193 99.8454 94.2388 95.0113ZM96.093 94.2091C99.8847 92.617 103.493 91.5046 106.601 91.087C105.681 95.5448 104.326 99.7793 102.493 103.633C101.951 104.01 101.393 104.369 100.839 104.737C99.6805 101.648 98.0638 98.0921 96.093 94.2091ZM46.6514 122.498C46.668 122.503 46.6847 122.507 46.7014 122.507C51.8097 124.347 57.3014 125.343 63.0097 125.331C63.5639 125.505 64.118 125.662 64.6764 125.798C66.8555 126.336 69.0722 126.605 71.3097 126.605C62.8305 127.035 54.4097 125.612 46.6514 122.498ZM48.1014 122.713C50.6264 123.011 53.5264 122.953 56.7055 122.577C58.4972 123.569 60.3222 124.425 62.193 125.062C57.293 124.988 52.5555 124.173 48.1014 122.713ZM71.593 110.08C72.043 110.663 72.4972 111.255 72.943 111.809C72.2097 111.536 71.4764 111.238 70.743 110.936C71.018 110.651 71.3014 110.366 71.593 110.08ZM70.5347 111.135C71.4513 111.515 72.368 111.904 73.2805 112.235C74.6847 113.947 76.0722 115.46 77.4263 116.812C75.1722 117.681 72.9305 118.471 70.7347 119.157C69.018 119.079 67.2972 118.913 65.5805 118.686C65.6764 118.313 65.7889 117.933 65.9513 117.536C66.7513 115.584 68.3763 113.393 70.5347 111.135ZM106.885 91.0497C107.172 91.0125 107.481 90.9588 107.76 90.9381C110.276 90.7355 112.376 91.058 113.864 92.0174C113.255 93.4358 112.61 94.8335 111.897 96.1857C109.164 98.6834 106.151 101.078 102.943 103.323C104.697 99.5394 105.989 95.3959 106.885 91.0497ZM73.8264 112.441C76.7305 113.467 79.618 114.24 82.4555 114.732C80.868 115.427 79.2889 116.097 77.7097 116.713C76.4389 115.452 75.143 114.029 73.8264 112.441ZM57.1472 122.536C58.1555 122.407 59.193 122.25 60.2514 122.06C61.8472 121.779 63.5055 121.403 65.193 120.985C65.393 122.039 65.9764 122.966 66.993 123.714C67.5055 124.09 68.1305 124.413 68.8639 124.698C66.9097 124.938 64.9764 125.066 63.0639 125.075C61.0514 124.45 59.0722 123.578 57.1472 122.536ZM65.5222 118.95C67.0305 119.149 68.5347 119.285 70.043 119.376C68.4722 119.856 66.9389 120.269 65.4222 120.65C65.3597 120.116 65.3972 119.55 65.5222 118.95ZM114.093 92.1869C114.456 92.4516 114.789 92.7493 115.068 93.1008C114.96 93.2125 114.872 93.3241 114.764 93.4358C114.047 94.1677 113.289 94.8872 112.522 95.6068C113.089 94.4903 113.597 93.3407 114.093 92.1869ZM118.372 89.7719C118.33 92.6914 117.96 95.491 117.135 98.0631C117.11 98.1458 117.076 98.2285 117.047 98.3112C116.856 98.5511 116.643 98.7827 116.443 99.0184C116.776 96.4173 116.389 94.4779 115.41 93.1215C116.464 92.0257 117.443 90.905 118.372 89.7719ZM65.4514 120.923C67.1847 120.489 68.9472 119.997 70.7514 119.43C73.8389 119.575 76.9097 119.48 79.9389 119.12C80.8264 119.868 81.7013 120.542 82.5472 121.084C78.1555 122.887 73.7764 124.041 69.4764 124.62C68.5347 124.31 67.7555 123.937 67.1555 123.499C66.1764 122.784 65.6347 121.915 65.4514 120.923ZM115.222 93.3283C116.176 94.6846 116.547 96.653 116.131 99.3864C112.56 103.538 108.039 107.235 102.535 110.279C102.464 109.969 102.414 109.675 102.326 109.344C106.281 105.66 109.543 101.231 112.126 96.3387C113.105 95.4455 114.051 94.5399 114.956 93.6177C115.047 93.5226 115.126 93.4234 115.222 93.3283ZM122.851 89.4246C121.064 94.0974 118.647 98.5594 115.647 102.674L115.647 102.662C115.743 102.347 115.81 102.058 115.889 101.756C116.443 100.685 116.91 99.5642 117.297 98.3981C119.564 95.5778 121.41 92.5632 122.851 89.4246ZM71.4764 119.198C73.5014 118.549 75.5555 117.83 77.6263 117.027C78.3138 117.701 78.993 118.309 79.6597 118.88C76.9597 119.186 74.2222 119.294 71.4764 119.198ZM111.556 96.8474C109.064 101.425 105.96 105.564 102.247 109.055C102.018 108.207 101.739 107.289 101.406 106.325C101.864 105.507 102.297 104.663 102.71 103.803C105.868 101.611 108.835 99.283 111.556 96.8474ZM77.9138 116.92C79.5847 116.267 81.2638 115.551 82.943 114.807C86.7013 115.411 90.3597 115.506 93.8305 115.001C93.743 115.059 93.6597 115.117 93.5763 115.175C89.268 117.077 84.7055 118.272 80.0264 118.835C79.3347 118.247 78.6305 117.619 77.9138 116.916L77.9138 116.92ZM63.9097 125.306C65.7264 125.269 67.568 125.133 69.4264 124.884C71.1597 125.455 73.5347 125.761 76.4722 125.823C72.518 126.613 68.5722 126.485 64.7389 125.542C64.4597 125.472 64.1847 125.385 63.9097 125.306ZM83.4014 114.608C85.2389 113.785 87.0764 112.925 88.8972 112.003C89.3013 111.8 89.7013 111.577 90.1055 111.366C91.7055 112.764 93.1555 113.868 94.4097 114.588C94.3805 114.612 94.3472 114.633 94.318 114.658C90.8513 115.224 87.1805 115.183 83.4014 114.608ZM102.268 104.096C101.956 104.737 101.626 105.37 101.285 105.99C101.168 105.664 101.06 105.337 100.935 104.994C101.381 104.7 101.826 104.398 102.268 104.096ZM100.701 105.151C100.847 105.548 100.976 105.933 101.106 106.313C99.6263 108.951 97.8972 111.375 95.9138 113.533C95.5888 113.773 95.2555 113.996 94.9264 114.228C94.9305 114.215 94.9347 114.203 94.9388 114.191C94.9388 114.186 94.9347 114.182 94.9347 114.178C95.4097 112.503 95.6472 110.514 95.6888 108.285C97.393 107.281 99.0638 106.234 100.701 105.151ZM90.3513 111.234C92.0597 110.341 93.7513 109.414 95.4138 108.438C95.368 110.597 95.1305 112.508 94.6764 114.116L94.6763 114.124L94.668 114.129C94.6513 114.228 94.6222 114.298 94.6013 114.397C93.3763 113.699 91.9388 112.619 90.3513 111.234ZM101.231 106.648C101.543 107.57 101.81 108.447 102.022 109.257C100.776 110.415 99.4555 111.494 98.0722 112.495C97.5972 112.706 97.1222 112.921 96.6347 113.124C98.368 111.155 99.9013 108.988 101.231 106.648ZM70.0514 124.806C74.2639 124.194 78.543 123.028 82.8347 121.25C83.6597 121.758 84.4639 122.172 85.2389 122.465C82.7347 123.913 80.2055 124.938 77.668 125.567C74.4889 125.579 71.9222 125.331 70.0514 124.806ZM80.2972 119.079C84.4013 118.566 88.4055 117.565 92.2388 116.031C89.1222 118.016 85.9847 119.653 82.8514 120.96C82.8222 120.939 82.793 120.931 82.7639 120.91C81.9639 120.402 81.1388 119.773 80.2972 119.079ZM116.806 98.9936C116.618 99.5022 116.414 100.007 116.193 100.499C116.264 100.156 116.339 99.8041 116.393 99.4774C116.531 99.3161 116.668 99.1548 116.806 98.9936ZM116.035 99.9033C115.935 100.453 115.801 101.036 115.643 101.644C113.164 106.454 108.976 110.283 102.893 112.59C102.868 112.284 102.868 112.003 102.818 111.668C102.764 111.321 102.664 110.92 102.585 110.543C107.997 107.566 112.476 103.956 116.035 99.9033ZM102.11 109.547C102.189 109.853 102.222 110.117 102.285 110.411C101.306 110.944 100.297 111.461 99.2555 111.953C100.247 111.193 101.193 110.39 102.11 109.547ZM96.3805 113.529C96.393 113.525 96.4013 113.517 96.4097 113.512C96.6263 113.421 96.8305 113.326 97.043 113.24C96.6555 113.496 96.2597 113.736 95.8638 113.98C95.9388 113.901 96.0055 113.818 96.0805 113.736C96.1805 113.665 96.2805 113.599 96.3805 113.529ZM83.1555 121.125C86.6763 119.641 90.2013 117.751 93.6972 115.415C93.918 115.315 94.143 115.216 94.3638 115.113C94.2055 115.266 94.0555 115.427 93.893 115.58L93.8847 115.58C91.168 118.409 88.368 120.621 85.5264 122.296C84.768 122.027 83.9763 121.618 83.1555 121.125ZM94.9555 114.534C94.9472 114.542 94.9388 114.555 94.9263 114.563C94.9222 114.567 94.9138 114.567 94.9055 114.567C94.9222 114.555 94.9388 114.546 94.9555 114.534ZM98.2138 112.718C99.6472 112.078 101.022 111.399 102.343 110.684C102.41 111.023 102.506 111.391 102.551 111.705C102.606 112.061 102.606 112.363 102.631 112.685C100.518 113.463 98.1763 114.062 95.6055 114.455C96.5013 113.909 97.3722 113.33 98.2138 112.718ZM94.9472 114.906C96.418 115.783 97.6888 116.395 98.7388 116.697C99.3222 116.866 99.8472 116.945 100.31 116.949C99.943 117.18 99.5805 117.424 99.2097 117.648C96.693 119.161 94.0972 120.522 91.5514 121.68C92.9472 120.427 94.0263 118.272 94.7305 115.121C94.8013 115.047 94.8722 114.976 94.9472 114.906ZM95.268 114.778C97.9805 114.385 100.435 113.769 102.656 112.954C102.689 113.69 102.672 114.36 102.543 114.881C102.46 115.224 102.339 115.506 102.181 115.75C101.726 116.056 101.26 116.345 100.797 116.643C100.264 116.73 99.6138 116.676 98.818 116.444C97.8472 116.167 96.643 115.584 95.268 114.778ZM114.66 103.852C114.543 104.047 114.456 104.237 114.331 104.431C114.101 104.717 113.864 104.998 113.631 105.283C113.997 104.82 114.335 104.34 114.66 103.852ZM94.3138 115.53C93.4347 119.083 92.0847 121.274 90.3555 122.205C90.043 122.337 89.7389 122.469 89.4305 122.598C88.3514 122.908 87.143 122.829 85.8388 122.412C88.6388 120.737 91.3972 118.553 94.0722 115.774C94.0764 115.77 94.0763 115.766 94.0805 115.762C94.1597 115.688 94.2347 115.605 94.3138 115.53ZM76.1514 126.158C76.6639 126.063 77.1764 125.964 77.693 125.836C77.893 125.836 78.068 125.844 78.2763 125.844C77.5638 125.964 76.8597 126.063 76.1514 126.158ZM113.231 105.767C111.064 108.356 108.639 110.771 105.981 112.991C104.91 113.827 103.797 114.641 102.643 115.427C102.706 115.278 102.764 115.121 102.806 114.947C102.947 114.373 102.96 113.649 102.914 112.859C107.293 111.209 110.714 108.782 113.231 105.767ZM78.6013 125.579C80.9305 124.922 83.2514 123.933 85.5472 122.589C86.5514 122.937 87.5097 123.081 88.4055 123.024C86.6722 123.71 84.993 124.277 83.418 124.707C83.2097 124.76 83.0014 124.81 82.793 124.864C81.3972 125.215 80.0805 125.476 78.9055 125.583C78.9014 125.583 78.8972 125.583 78.8972 125.583C78.7889 125.587 78.7097 125.579 78.6013 125.579Z" fill="#D9D9D9" shape-rendering="crispEdges"/>
<path d="M69.0846 13.3276C68.4346 13.3358 67.7805 13.3524 67.1263 13.3813C67.7805 13.3565 68.443 13.3069 69.0846 13.3276ZM69.0846 13.3276C75.0138 13.2697 80.8888 14.105 86.5013 15.7922C83.4638 15.1016 80.2138 14.7542 76.7597 14.7584C74.3055 13.9313 71.7555 13.4144 69.0846 13.3276ZM40.6263 20.6966C38.7972 21.7304 37.0472 22.8552 35.3763 24.0503C30.9222 27.0608 27.193 30.3069 25.0805 33.1975L25.0722 33.2099L25.0638 33.214C24.9847 33.367 24.943 33.4911 24.868 33.64C23.5722 34.955 22.4888 36.3651 21.6138 37.8579C9.33468 55.2756 7.33052 78.6274 18.3597 98.1417C18.3639 98.1624 18.368 98.1831 18.3722 98.2037L18.3889 98.2327C18.4222 98.2947 18.468 98.3443 18.5014 98.4064C18.5264 98.4477 18.543 98.4891 18.568 98.5304C24.0722 108.099 32.0139 115.439 41.1972 120.269C42.2305 121.063 43.4972 121.659 44.9722 122.089C56.8347 127.262 70.393 128.432 83.3638 125.004C88.1555 123.739 92.8638 121.857 97.3763 119.302C98.9138 118.433 100.385 117.499 101.81 116.523C101.856 116.49 101.91 116.461 101.951 116.424C103.535 115.328 105.047 114.17 106.493 112.946C109.831 110.308 112.672 107.467 114.518 104.638C119.276 98.609 122.735 91.7569 124.764 84.5284C124.768 84.5078 124.772 84.4871 124.78 84.4664C125.943 80.7736 126.589 76.965 126.735 73.1316C127.476 62.4296 125.176 51.4381 119.439 41.468C113.285 30.7784 104.097 22.8635 93.5305 18.1327C93.4055 18.079 93.2805 18.0252 93.1555 17.9715C83.3638 13.6708 72.4096 12.0994 61.5763 13.6005C61.568 13.6005 61.5597 13.6046 61.5555 13.6046C57.2472 13.7866 52.1305 15.329 47.0555 17.5703C44.8805 18.476 42.7305 19.5057 40.6263 20.6966ZM39.7847 21.5774C40.6805 21.0522 41.5972 20.5395 42.5222 20.0515C43.868 19.3402 45.2347 18.6827 46.6055 18.0624C46.843 17.9591 47.0847 17.8681 47.3263 17.7688C45.793 18.8688 44.4888 20.891 43.4222 23.8105C43.4097 23.8187 43.3972 23.827 43.3847 23.8394C43.1763 23.889 42.9763 23.9262 42.768 23.98L42.7347 23.9841L42.7097 24.0048C42.5597 24.1371 42.418 24.2653 42.2722 24.3977C41.0138 23.8808 39.8763 23.5003 38.968 23.3928C38.018 23.277 37.2347 23.3804 36.6388 23.6947C36.4388 23.7981 36.2555 23.9262 36.093 24.0792C35.4513 24.6789 35.143 25.6176 35.1097 26.8292C35.1055 26.9078 35.1305 27.0111 35.1305 27.0939C33.5555 27.7265 32.068 28.4089 30.7388 29.1656C29.3347 29.9637 28.1013 30.8404 26.9597 31.7626C29.5805 28.9754 32.5097 26.4157 35.7388 24.133C35.7513 24.1247 35.7638 24.1123 35.7763 24.1041C37.068 23.2398 38.3972 22.3879 39.7847 21.5774ZM36.7638 23.9262C37.3055 23.645 38.018 23.5458 38.9347 23.6533C39.7847 23.7567 40.868 24.1123 42.0597 24.5962C41.9013 24.7368 41.7513 24.8774 41.593 25.018C39.3472 25.5803 37.2763 26.2379 35.393 26.9822C35.393 26.9408 35.3763 26.883 35.3763 26.8375C35.4097 25.6672 35.7097 24.8029 36.2805 24.2695C36.4263 24.1371 36.5847 24.0214 36.7638 23.9262ZM48.0972 17.5869C48.3805 17.4339 48.6638 17.314 48.9555 17.2147C50.2055 16.7929 51.568 16.8715 53.018 17.3719C52.7805 17.4959 52.5472 17.591 52.3097 17.7192C49.5472 19.212 46.7138 21.1432 43.8263 23.4796C45.0013 20.4402 46.4388 18.4884 48.0972 17.5869ZM50.0388 16.7226C53.8597 15.3621 57.7513 14.411 61.6638 13.8734C61.9805 13.861 62.268 13.8858 62.5763 13.89C59.6055 14.4896 56.518 15.6061 53.3472 17.2147C52.1972 16.7846 51.0888 16.6068 50.0388 16.7226ZM28.0805 30.216C27.918 30.3814 27.7513 30.5427 27.5888 30.7081C27.7513 30.5427 27.9138 30.3814 28.0805 30.216ZM30.8763 29.3848C32.1722 28.6487 33.618 27.9912 35.1513 27.3709C35.1722 28.0077 35.2513 28.7107 35.393 29.4799C30.0513 33.4291 25.7222 37.4775 22.2805 41.5714C22.6055 39.5162 23.5263 36.9482 25.0555 33.8839C25.1972 33.7185 25.3347 33.5573 25.4763 33.3919C26.993 31.9321 28.7638 30.5799 30.8763 29.3848ZM35.4055 27.2634C37.168 26.5645 39.0888 25.9442 41.168 25.4025C41.0263 25.5349 40.8847 25.6589 40.743 25.7912C38.9555 26.9491 37.2388 28.1194 35.6305 29.3021C35.493 28.5536 35.418 27.8754 35.4055 27.2634ZM52.4305 17.9467C52.743 17.7771 53.0472 17.6613 53.3555 17.5C54.1222 17.7978 54.918 18.2568 55.7263 18.782C52.2055 20.0391 48.543 21.6105 44.7263 23.521C44.4763 23.5789 44.2222 23.6368 43.968 23.6988C46.8555 21.3624 49.6805 19.4395 52.4305 17.9467ZM53.6805 17.3388C57.2513 15.5523 60.693 14.4441 64.0013 13.9396C66.0013 14.2952 67.6138 14.7832 68.8971 15.3745C64.8555 15.9865 60.568 17.07 56.0388 18.6662C55.2388 18.1369 54.4472 17.6572 53.6805 17.3388ZM42.8763 24.224C42.8888 24.224 42.9013 24.2198 42.9138 24.2157C42.8347 24.286 42.7513 24.348 42.668 24.4183C42.7388 24.3563 42.8013 24.2901 42.8763 24.224ZM24.368 34.7317C23.0263 37.5809 22.2097 40.0041 21.968 41.956C20.9722 43.1593 20.0347 44.3627 19.193 45.5743C19.5722 42.9981 20.3847 40.5624 21.6472 38.3045C22.5013 37.0805 23.4138 35.8937 24.368 34.7317ZM42.3388 24.7119C42.3513 24.7202 42.3722 24.7243 42.3847 24.7326C42.3138 24.774 42.2513 24.8236 42.1805 24.8691C42.1763 24.8691 42.1722 24.8691 42.1638 24.8691C42.2263 24.8195 42.2805 24.7657 42.3388 24.7119ZM43.6138 24.0503C43.6513 24.042 43.6888 24.0379 43.7222 24.0255C43.6805 24.0503 43.6388 24.071 43.5972 24.0917C43.6055 24.0792 43.6097 24.0668 43.6138 24.0503ZM43.0513 24.6665C43.0722 24.6582 43.0972 24.6499 43.118 24.6375C43.1138 24.6499 43.1097 24.6582 43.1055 24.6665C43.0888 24.6665 43.068 24.6706 43.0513 24.6665ZM43.4638 24.4597C43.918 24.224 44.368 24.0007 44.8222 23.7732C49.7847 22.6195 54.5388 21.8421 59.0888 21.4203C59.5055 21.809 59.9305 22.2639 60.3472 22.6981C58.1097 23.612 55.8722 24.621 53.6597 25.7168C50.3263 25.1792 46.9013 24.8277 43.3805 24.6871C43.4055 24.6086 43.4347 24.5383 43.4638 24.4597ZM42.0347 25.2743C40.093 28.1153 38.3888 31.0017 36.9055 33.917C36.5638 32.9494 36.2722 32.0314 36.043 31.1795C36.0097 31.0637 35.9972 30.9686 35.968 30.8528C37.5347 29.2194 39.1972 27.5942 40.9597 25.9732C41.318 25.7416 41.668 25.5059 42.0347 25.2743ZM42.493 25.0593C42.6347 25.0262 42.7638 24.989 42.9097 24.9559C42.9347 24.9683 42.9555 24.9766 42.9805 24.989C42.968 25.0428 42.9513 25.08 42.9347 25.1337L42.9263 25.1337L42.9263 25.1461C42.4597 27.342 42.218 29.728 42.143 32.2298C40.5555 33.2471 39.0013 34.2975 37.4805 35.3644C37.3347 34.9922 37.168 34.6076 37.0347 34.2478C38.6013 31.1464 40.4055 28.0739 42.493 25.0593ZM45.8305 23.2646C49.3513 21.5443 52.7388 20.1218 56.0013 18.9639C56.3305 19.1831 56.6513 19.3526 56.9847 19.609C57.5847 20.068 58.1972 20.6139 58.8138 21.1804C54.6555 21.5774 50.3305 22.2597 45.8305 23.2646ZM39.5805 26.8623C38.293 28.078 37.0763 29.3062 35.9013 30.5344C35.8222 30.2077 35.7555 29.8934 35.693 29.5874C36.9388 28.6735 38.2263 27.7638 39.5805 26.8623ZM43.2347 25.0924C43.3805 25.1627 43.493 25.1916 43.643 25.2661C43.6472 25.2702 43.6513 25.2702 43.6555 25.2743C44.9805 26.4198 46.318 27.6438 47.6555 28.9051C47.2638 29.1284 46.868 29.3434 46.4763 29.575C45.2888 30.2656 44.1097 30.9769 42.9513 31.7047C42.7763 31.8163 42.6055 31.9321 42.4305 32.0438C42.5138 29.6329 42.7388 27.3296 43.1888 25.2123C43.2013 25.1668 43.2222 25.1379 43.2347 25.0924ZM43.5847 24.9559C46.8888 25.0924 50.1097 25.4273 53.243 25.9194C51.443 26.8209 49.6597 27.7762 47.8972 28.7686C46.5305 27.4826 45.1722 26.2337 43.8222 25.0676L43.8097 25.0593L43.793 25.0428C43.718 25.0055 43.6597 24.989 43.5847 24.9559ZM63.6138 13.6419C64.2596 13.5716 64.9055 13.5054 65.5513 13.4599C65.0472 13.5095 64.5347 13.5964 64.0263 13.6749C63.9763 13.6667 63.9347 13.6543 63.8847 13.646L63.8763 13.646C63.793 13.6377 63.6971 13.646 63.6138 13.6419ZM35.4513 29.7694C35.5222 30.096 35.5847 30.4186 35.6722 30.7701C30.543 36.1501 26.4597 41.6086 23.318 47.0465C22.8305 46.4675 22.4722 45.7687 22.2888 44.9085C22.1138 44.098 22.1013 43.1387 22.2305 42.0511C25.6763 37.8951 30.0388 33.7806 35.4513 29.7694ZM64.7763 13.8321C68.7013 13.34 72.4263 13.6915 75.918 14.7625C73.8138 14.8039 71.6305 14.9775 69.3722 15.3001C68.1638 14.6963 66.6347 14.2084 64.7763 13.8321ZM56.3138 18.8481C60.9055 17.2395 65.243 16.1685 69.3222 15.5772C70.8555 16.3546 71.868 17.2891 72.4097 18.3519C72.4722 18.476 72.5097 18.6083 72.5597 18.7324C72.4305 18.7613 72.3055 18.782 72.1805 18.8109C69.9472 19.3444 67.6805 20.0143 65.4055 20.7917C63.3805 20.8372 61.3055 20.953 59.1847 21.1432C58.5013 20.5064 57.818 19.9109 57.1472 19.3981C56.8638 19.1831 56.593 19.0384 56.3138 18.8481ZM35.7472 31.0926C35.7597 31.1505 35.768 31.196 35.7805 31.2498C36.0347 32.1761 36.368 33.181 36.7513 34.2354C36.3305 35.0708 35.9263 35.9102 35.5388 36.7538C31.243 39.9049 27.3055 43.2255 23.9055 46.5544C26.9597 41.3894 30.8888 36.208 35.7472 31.0926ZM20.5347 39.9752C19.718 41.8319 19.1513 43.7796 18.8722 45.8224C18.8597 45.9093 18.8597 46.0003 18.8513 46.0871C15.3138 51.2934 13.143 56.5328 12.1513 61.6894C13.4097 54.0144 16.2513 46.6081 20.5347 39.9752ZM21.918 42.4274C21.8347 43.3702 21.868 44.2221 22.0263 44.9623C22.2305 45.8969 22.6222 46.666 23.168 47.2946C21.918 48.5434 20.7263 49.7964 19.6472 51.037C19.4305 51.2851 19.243 51.525 19.0347 51.7731C18.868 49.8543 18.8888 47.9852 19.1097 46.1781C19.9638 44.9251 20.8972 43.6762 21.918 42.4274ZM69.7763 15.5068C72.1847 15.176 74.493 15.0272 76.7263 15.023C77.1305 15.1595 77.5388 15.2753 77.9388 15.4283C79.3013 15.9659 80.618 16.6234 81.9013 17.3719C78.968 17.5249 75.9305 17.9673 72.8263 18.6745C72.768 18.5256 72.7222 18.3767 72.6472 18.232C72.1138 17.1858 71.1722 16.2719 69.7763 15.5068ZM59.468 21.3913C61.218 21.2383 62.9513 21.1184 64.6388 21.0646C63.3013 21.5361 61.9597 22.0447 60.618 22.5906C60.2347 22.1894 59.8472 21.7552 59.468 21.3913ZM36.8805 34.5663C36.993 34.8764 37.1305 35.2031 37.2555 35.5256C36.8305 35.8234 36.4013 36.117 35.9847 36.4189C36.2722 35.7986 36.5722 35.1824 36.8805 34.5663ZM46.6097 29.8024C47.0222 29.5626 47.443 29.331 47.8597 29.0953C50.8638 31.9362 53.8805 35.0335 56.8805 38.3376C54.9513 39.5865 52.943 40.7857 50.8972 41.8898C48.4222 43.2296 45.9097 44.4164 43.443 45.4503C42.6722 40.827 42.3055 36.423 42.4138 32.3746C42.643 32.2298 42.8638 32.0727 43.0972 31.928C44.2513 31.2002 45.4263 30.493 46.6097 29.8024ZM48.0972 28.963C49.943 27.9209 51.8138 26.9243 53.7013 25.9897C57.7847 26.6596 61.7013 27.6273 65.4763 28.8265C65.9097 29.4179 66.3472 30.0092 66.7847 30.6336C64.1138 33.2099 60.793 35.8027 57.1138 38.197C54.118 34.8929 51.1013 31.8039 48.0972 28.963ZM42.1263 32.5607C42.0347 36.5967 42.4138 40.9759 43.1847 45.5578C42.918 45.6653 42.6555 45.7687 42.393 45.8721C40.4097 42.1131 38.768 38.656 37.5763 35.6249C39.0597 34.5787 40.5763 33.5573 42.1263 32.5607ZM54.118 25.7912C56.2513 24.7492 58.4013 23.7815 60.5513 22.9007C62.0805 24.4969 63.6388 26.366 65.2138 28.4792C61.6472 27.3626 57.9597 26.4363 54.118 25.7912ZM37.3513 35.782C38.543 38.8049 40.168 42.2454 42.1388 45.9796C38.2722 47.5055 34.6013 48.5434 31.4722 48.9115C32.5138 44.9044 33.943 40.8973 35.7513 36.9316C36.2805 36.5471 36.8138 36.1625 37.3513 35.782ZM60.8222 22.7973C62.3722 22.1688 63.918 21.5774 65.4638 21.0481C68.0013 20.9943 70.4638 21.0481 72.8597 21.2094C72.7013 22.5616 72.1055 24.0338 71.1138 25.5762C70.318 26.8168 69.2513 28.107 68.018 29.4055C67.2347 29.1284 66.4388 28.8596 65.6388 28.6032C64.0138 26.4033 62.4055 24.4555 60.8222 22.7973ZM35.2972 37.2707C33.568 41.1331 32.2055 45.0367 31.193 48.9363C29.8513 49.081 28.5847 49.1348 27.4888 48.9983C26.093 48.8288 24.9263 48.4235 24.043 47.7536C23.8597 47.6171 23.6972 47.4559 23.5388 47.2946C26.9472 43.8995 30.9347 40.5045 35.2972 37.2707ZM18.793 46.6495C18.6138 48.4028 18.6222 50.2141 18.7972 52.0667C15.7013 55.776 13.4138 59.3737 12.2638 62.6281C12.3097 62.3676 12.3388 62.1071 12.3847 61.8466C13.3347 56.8305 15.418 51.7235 18.793 46.6495ZM66.2722 20.7834C68.2763 20.1218 70.268 19.5387 72.2347 19.0673C72.3763 19.0342 72.518 19.0177 72.6555 18.9846C72.8638 19.6049 72.943 20.2624 72.8888 20.953C70.743 20.8083 68.5388 20.7545 66.2722 20.7834ZM77.5721 15.0354C82.4638 15.1099 86.9305 15.9204 90.9471 17.376C91.7055 17.6489 92.4472 17.9466 93.1722 18.2651C93.8305 18.5504 94.4638 18.8605 95.0972 19.1789C91.2722 17.6985 86.9596 17.1444 82.368 17.3346C80.968 16.5034 79.5263 15.7715 78.0346 15.1843C77.8846 15.1223 77.7221 15.0892 77.5721 15.0354ZM72.9222 18.9226C76.1388 18.1948 79.2805 17.7357 82.2972 17.6034C85.2305 19.365 87.9513 21.6518 90.4472 24.3563C85.2055 22.5947 79.4347 21.4203 73.1555 20.9737C73.2097 20.2583 73.1388 19.5718 72.9222 18.9226ZM23.3638 47.5014C23.5263 47.6668 23.693 47.828 23.8805 47.9686C24.8097 48.6758 26.0263 49.0893 27.4555 49.263C28.5513 49.3994 29.8013 49.3539 31.1263 49.2216C29.2347 56.632 28.6138 64.0217 28.9722 71.1592C28.7888 71.3535 28.5888 71.5479 28.4097 71.7464C27.9347 72.2674 27.518 72.7926 27.068 73.3136C23.3222 67.2679 20.6555 61.1188 19.5263 55.3004C20.593 52.7159 21.8722 50.1107 23.3638 47.5014ZM22.6888 48.1506C21.4555 50.3754 20.3722 52.5919 19.443 54.7959C19.2805 53.9027 19.1597 53.0219 19.0722 52.1452C19.3347 51.8351 19.5722 51.525 19.8472 51.2107C20.7305 50.1975 21.693 49.1761 22.6888 48.1506ZM73.1222 21.23C79.5597 21.6849 85.4638 22.9048 90.8013 24.745C93.5347 27.7803 95.968 31.3407 98.1097 35.2444C97.6472 35.2982 97.2097 35.3271 96.7388 35.3933C93.1763 35.9019 89.3555 36.7869 85.4055 37.9365C80.2055 34.5828 74.4805 31.7171 68.2847 29.5047C69.493 28.2269 70.5472 26.9491 71.3388 25.7168C72.343 24.1495 72.9597 22.636 73.1222 21.2259L73.1222 21.23ZM18.8305 52.4389C18.9305 53.3776 19.0638 54.3163 19.2472 55.2756C16.6097 61.6853 15.2263 68.004 14.9097 74.058C13.4055 72.7182 12.3388 70.9483 11.8138 68.6615C11.7888 68.5291 11.7972 68.3803 11.7805 68.2438C11.7888 67.0404 11.8555 65.8288 11.9888 64.613C12.7888 61.003 15.2222 56.8098 18.8305 52.4347L18.8305 52.4389ZM82.7638 17.5703C88.3846 17.3884 93.5555 18.3478 97.8972 20.7752C100.072 23.1529 100.889 25.8822 100.626 28.8513C97.6472 27.1807 94.4347 25.7292 90.9847 24.5341C88.4722 21.7552 85.7263 19.3981 82.7638 17.5703ZM65.9013 28.9506C66.5513 29.1615 67.1888 29.3889 67.8305 29.6122C67.5638 29.8893 67.2638 30.1663 66.9763 30.4475C66.618 29.9348 66.2597 29.4427 65.9013 28.9506ZM19.3472 55.7471C20.5305 61.5116 23.1805 67.5739 26.8847 73.5328C25.8305 74.7734 24.8472 76.0181 23.9555 77.2711C21.8472 77.1263 19.9388 76.75 18.293 76.1008C17.1097 75.6335 16.068 75.0215 15.1638 74.273C15.4513 68.3017 16.7888 62.0781 19.3472 55.7471ZM31.4013 49.1968C34.6013 48.837 38.3388 47.7784 42.268 46.2194C42.7888 47.2036 43.3222 48.2043 43.8888 49.2257C44.418 51.7772 45.0555 54.3783 45.7847 57.0083C39.5013 61.3255 33.818 66.0273 29.2305 70.8904C28.8972 63.8315 29.5222 56.5203 31.4013 49.1927L31.4013 49.1968ZM68.0972 29.7156C74.2347 31.8949 79.9013 34.7234 85.0597 38.0316C81.4722 39.0861 77.7805 40.3597 74.043 41.865C71.7722 37.7711 69.4472 34.0039 67.1305 30.6708C67.4555 30.3524 67.793 30.034 68.0972 29.7115L68.0972 29.7156ZM66.9347 30.8611C69.2347 34.1651 71.5388 37.9034 73.793 41.9684C70.5763 43.2668 67.343 44.7266 64.1305 46.3104C61.8763 43.5853 59.5972 40.9304 57.2972 38.3914C60.9555 36.0095 64.268 33.4332 66.9347 30.8611ZM42.518 46.116C42.7513 46.0251 42.9888 45.9299 43.2263 45.8307C43.368 46.666 43.5597 47.5179 43.7263 48.3615C43.3055 47.5965 42.9138 46.8604 42.518 46.116ZM43.4847 45.7232C45.9805 44.6811 48.5222 43.4777 51.0263 42.1255C53.0888 41.009 55.118 39.7974 57.0638 38.5361C59.3597 41.071 61.6347 43.7134 63.8847 46.4303C62.7513 46.9927 61.618 47.5468 60.493 48.1382C58.943 48.9487 57.4097 49.7881 55.8888 50.6565C53.1597 52.2155 50.4888 53.8572 47.9013 55.5651C46.593 53.3734 45.2972 51.1941 44.1472 49.1182C43.9097 47.9769 43.6763 46.8397 43.4847 45.7232ZM11.4805 67.8427C11.4888 67.9626 11.493 68.0825 11.5097 68.2025C11.4638 74.2193 12.9513 80.0334 15.6055 85.463C16.0972 88.246 16.8139 90.9381 17.7472 93.5268C17.7472 94.7715 17.8847 96.0079 18.1472 97.2237C13.0847 87.9152 10.9555 77.7756 11.4805 67.8427ZM44.3138 49.9742C45.3513 51.8268 46.518 53.7704 47.6805 55.714C47.118 56.0861 46.5722 56.4666 46.0222 56.8429C45.3805 54.5271 44.7972 52.2321 44.3138 49.9742ZM11.8055 69.6002C12.4222 71.5934 13.468 73.1896 14.893 74.4053C14.7388 77.8707 14.9347 81.2492 15.4472 84.516C13.2555 79.7853 11.9722 74.7692 11.8055 69.6002ZM91.3346 24.927C94.6471 26.1014 97.7388 27.5198 100.605 29.1367C100.56 29.5667 100.489 30.0009 100.393 30.4434C100.072 31.9734 99.4346 33.5655 98.6138 35.1865C98.543 35.1948 98.468 35.2031 98.3972 35.2113C96.3222 31.411 93.9763 27.9209 91.3346 24.927ZM98.6097 21.23C104.193 24.9021 108.63 29.9926 111.93 35.9598C111.572 35.844 111.214 35.7283 110.839 35.6331C110.576 35.567 110.276 35.538 110.005 35.4801C107.28 33.0776 104.235 30.9024 100.88 28.9961C101.155 26.1758 100.455 23.5458 98.6097 21.23ZM99.7263 21.6601C107.197 26.1882 113.676 32.4945 118.476 40.368C117.026 38.3748 114.918 36.9606 112.293 36.0673C109.151 30.3193 104.968 25.3488 99.7263 21.6601ZM56.0222 50.8964C57.5388 50.028 59.0722 49.1844 60.618 48.3739C61.7555 47.7743 62.9055 47.2077 64.0555 46.6412C67.3972 50.6938 70.6305 54.9241 73.7638 59.1917C70.9888 61.0071 68.1055 62.7439 65.1638 64.3773C62.243 66.0025 59.268 67.516 56.293 68.9013C54.3472 65.9859 52.468 63.0789 50.6805 60.2173C49.743 58.712 48.9138 57.273 48.0347 55.8049C50.6222 54.0971 53.293 52.4512 56.0222 50.8964ZM64.293 46.5213C67.4972 44.9499 70.7138 43.5025 73.918 42.2082C74.5847 43.4116 75.2472 44.6273 75.8972 45.8762C77.3763 48.7047 78.818 51.6573 80.2097 54.6677C78.2138 56.1606 76.1388 57.6244 73.9805 59.0387C70.8555 54.7794 67.6305 50.5656 64.293 46.5213ZM47.8138 55.9538C48.693 57.4218 49.518 58.8568 50.4555 60.3579C52.2347 63.2112 54.1055 66.1141 56.043 69.0171C54.3013 69.8235 52.5638 70.5678 50.8347 71.2791C49.3888 67.5449 48.0597 63.786 46.9305 60.0601C46.6305 59.0759 46.368 58.1 46.093 57.1241C46.6638 56.7312 47.2305 56.3384 47.8138 55.9538ZM15.1513 74.6038C16.0388 75.3151 17.0472 75.9023 18.1847 76.353C19.8222 76.994 21.7013 77.3786 23.768 77.5275C20.9513 81.5304 18.9722 85.5705 18.1639 89.528C17.318 88.1675 16.543 86.778 15.8514 85.3555C15.243 81.8984 14.9972 78.3008 15.1513 74.6038ZM45.8638 57.2854C46.1305 58.2323 46.3847 59.1793 46.6722 60.1346C47.8055 63.8728 49.1347 67.6359 50.5805 71.3742C43.6513 74.1944 36.893 76.2083 31.0055 76.9816C30.5763 77.0395 30.1805 77.0519 29.7638 77.0933C29.5138 75.1745 29.3472 73.2268 29.243 71.2584C33.8263 66.3623 39.5388 61.6315 45.8638 57.2854ZM74.168 42.1048C77.968 40.5789 81.718 39.2846 85.3597 38.2218C87.9305 39.8842 90.3597 41.6665 92.6638 43.5398C89.3347 47.2408 85.1555 50.9543 80.4263 54.5065C79.0388 51.5084 77.6055 48.5682 76.1347 45.748C75.4847 44.5074 74.8263 43.2999 74.168 42.1048ZM100.851 29.2772C104.018 31.0844 106.918 33.1354 109.522 35.3933C106.443 34.802 102.868 34.7441 98.9263 35.1576C99.718 33.5738 100.335 32.0107 100.651 30.5013C100.739 30.0919 100.801 29.6825 100.847 29.2772L100.851 29.2772ZM85.7055 38.1267C89.5638 37.0143 93.2972 36.1542 96.7722 35.658C97.2763 35.5835 97.7513 35.5546 98.243 35.4967C98.2847 35.5711 98.3305 35.6373 98.368 35.7117C97.2847 37.7339 95.868 39.8015 94.1347 41.8898C93.7347 42.3695 93.2763 42.8533 92.8472 43.3371C90.593 41.5011 88.2138 39.756 85.7055 38.1267ZM28.9805 71.5272C29.0847 73.355 29.243 75.1662 29.4763 76.9527C28.6888 75.8237 27.9222 74.6948 27.2097 73.5535C27.6763 73.0118 28.1097 72.4659 28.6013 71.9242C28.7222 71.7919 28.8597 71.6595 28.9805 71.5272ZM27.0263 73.7726C27.7347 74.8974 28.493 76.0222 29.2722 77.1346C27.5222 77.2959 25.8388 77.3703 24.2805 77.2835C25.1263 76.1091 26.0388 74.9388 27.0263 73.7726ZM24.0805 77.5481C25.743 77.6515 27.5555 77.5647 29.4388 77.3869C29.4722 77.4323 29.5013 77.482 29.5388 77.5275C30.9222 87.6671 34.3347 97.0417 39.0805 104.833C36.818 105.081 34.6889 105.139 32.6805 105.048C29.0097 102.273 25.6514 99.1962 22.7764 95.826C21.1514 93.9196 19.6805 91.9223 18.3722 89.8629C19.143 85.8145 21.1639 81.6669 24.0805 77.5481ZM98.793 35.4388C102.964 34.9922 106.726 35.0583 109.905 35.7283C111.26 36.9316 112.53 38.1887 113.726 39.4913C114.397 40.9635 115.01 42.4811 115.555 44.0319C116.768 47.4765 117.635 51.099 118.23 54.8042C117.105 57.2812 115.576 59.8244 113.597 62.4048C112.414 62.351 111.189 62.3552 109.901 62.4462C108.822 60.7217 107.647 59.018 106.38 57.335C105.197 51.7276 103.53 46.2732 101.368 41.2405C100.543 39.3177 99.6305 37.4857 98.6722 35.6993C98.718 35.6125 98.7472 35.5256 98.793 35.4388ZM98.5305 36.0012C99.4472 37.7256 100.326 39.4996 101.122 41.3481C103.205 46.1946 104.835 51.4298 106.01 56.8181C102.389 52.0873 98.0347 47.584 93.0555 43.5025C93.4847 43.0187 93.9472 42.5349 94.3472 42.0511C96.0388 40.0124 97.4513 37.9861 98.5305 36.0012ZM29.793 77.3538C30.2138 77.3083 30.6138 77.3 31.043 77.2421C36.9638 76.4647 43.7388 74.4508 50.6805 71.6223C52.5847 76.5184 54.7222 81.3484 57.0013 85.9841C52.9805 89.0814 49.3555 92.2862 46.3514 95.4952C40.1764 90.1607 34.5722 84.1315 30.0805 77.85C29.9805 77.7135 29.9013 77.5729 29.8055 77.4406C29.8013 77.4117 29.7972 77.3827 29.793 77.3538ZM29.8638 78.0113C34.368 84.3051 39.9764 90.3468 46.1639 95.6936C45.1389 96.7978 44.1638 97.9019 43.293 98.9977C41.7472 100.95 40.4722 102.885 39.4972 104.771C39.4555 104.775 39.4097 104.783 39.368 104.791C34.6889 97.1451 31.2972 87.9607 29.8638 78.0113ZM16.0264 86.3273C16.6555 87.5431 17.343 88.7423 18.0847 89.9167C17.9055 90.8885 17.8097 91.8437 17.7722 92.8031C17.0472 90.7107 16.4639 88.5479 16.0264 86.3273ZM92.8722 43.7052C98.0013 47.9025 102.451 52.5546 106.126 57.4301C106.497 59.1958 106.81 60.9699 107.076 62.7563C106.73 62.8018 106.405 62.8225 106.051 62.8804C100.085 63.7984 93.3347 65.928 86.4555 68.8393C84.6513 64.0961 82.6638 59.3488 80.5472 54.7546C85.3097 51.1817 89.5138 47.4393 92.8722 43.7052ZM110.372 35.8151C110.501 35.844 110.647 35.8564 110.772 35.8895C111.23 36.0053 111.676 36.1418 112.11 36.2865C112.535 37.0681 112.943 37.862 113.326 38.6684C112.393 37.6884 111.401 36.7373 110.372 35.8151ZM112.489 36.423C115.468 37.4981 117.735 39.2556 119.068 41.8071C119.926 43.6514 120.264 45.6281 120.155 47.7081C118.418 44.7679 116.339 41.9684 113.943 39.3549C113.489 38.3583 113.001 37.3782 112.489 36.423ZM50.9305 71.5272C52.6805 70.8118 54.4347 70.055 56.193 69.2404C58.7972 73.1441 61.518 77.0023 64.2638 80.7984C61.8097 82.4236 59.4555 84.1025 57.2138 85.8186C54.943 81.2037 52.8263 76.3985 50.9305 71.5272ZM80.3222 54.9159C82.4305 59.4936 84.4097 64.2202 86.2055 68.9468C84.8722 69.5133 83.5347 70.1129 82.1972 70.7415C79.6597 66.9246 76.9388 63.0789 74.1388 59.2579C76.2763 57.8519 78.3388 56.4004 80.3222 54.9159ZM18.2972 90.2641C19.568 92.2448 21.0014 94.1636 22.568 95.9997C25.3722 99.2872 28.6472 102.302 32.2139 105.031C30.6389 104.936 29.1222 104.771 27.743 104.44C25.543 103.915 23.6264 103.071 22.0222 101.897C20.4305 99.2541 19.0805 96.438 18.0097 93.4771C18.0097 92.4144 18.1097 91.3475 18.2972 90.2641ZM56.443 69.1287C59.4138 67.7434 62.3805 66.2299 65.2972 64.6089C68.243 62.9713 71.1347 61.2304 73.918 59.4109C76.7097 63.2236 79.418 67.0528 81.9472 70.8573C78.4972 72.4783 75.0513 74.2565 71.693 76.1918C69.2305 77.6102 66.8305 79.1154 64.4888 80.6537C61.7513 76.8699 59.043 73.02 56.443 69.1287ZM18.0347 94.3042C18.9889 96.8019 20.1305 99.1962 21.4555 101.466C20.3347 100.544 19.3805 99.4402 18.6347 98.1334C18.6305 98.1252 18.6264 98.1169 18.6222 98.1086C18.6222 98.1045 18.618 98.1045 18.618 98.1045C18.618 98.1004 18.618 98.1004 18.6139 98.0962C18.2722 96.8515 18.093 95.5861 18.0347 94.3042ZM114.239 40.0661C116.501 42.6093 118.476 45.3221 120.122 48.1588C119.993 49.7344 119.622 51.3595 119.01 53.0343C118.851 53.4602 118.622 53.9027 118.435 54.3369C117.839 50.7682 116.976 47.278 115.805 43.9533C115.335 42.6259 114.797 41.3398 114.239 40.0661ZM119.401 41.9229C123.951 49.9535 126.264 58.6376 126.564 67.2927C126.076 62.0947 124.697 56.938 122.443 52.0542C121.822 50.7144 121.139 49.3953 120.389 48.1009C120.56 45.9299 120.255 43.854 119.401 41.9229ZM20.1139 100.577C20.6305 101.127 21.2055 101.624 21.8139 102.074C22.5722 103.327 23.3764 104.547 24.2389 105.722C25.8889 107.971 27.7389 110.055 29.743 111.978C26.1014 108.687 22.8514 104.874 20.1139 100.577ZM22.3889 102.484C23.9139 103.489 25.6847 104.225 27.6764 104.7C29.1805 105.06 30.843 105.234 32.5722 105.316C34.268 106.594 36.018 107.81 37.843 108.939C37.7139 109.439 37.6014 109.935 37.5222 110.423C37.0055 113.694 37.7764 116.713 40.1014 119.265C33.9555 115.903 28.6097 111.222 24.4555 105.565C23.7264 104.572 23.043 103.538 22.3889 102.484ZM120.355 48.5972C121.018 49.7675 121.639 50.9543 122.197 52.1618C124.868 57.947 126.314 64.1168 126.481 70.2783C125.285 66.8006 122.776 64.5593 119.343 63.389C119.247 60.5026 118.947 57.6451 118.497 54.829C118.751 54.2583 119.047 53.6877 119.251 53.1253C119.818 51.5787 120.193 50.0652 120.355 48.5972ZM71.8222 76.4233C75.193 74.4839 78.643 72.7016 82.1013 71.0764C84.9263 75.3399 87.4763 79.4876 89.8472 83.5194C86.4305 85.831 82.8805 88.0517 79.2347 90.111C77.4513 91.1242 75.6472 92.0877 73.8347 93.0264C70.8055 89.222 67.718 85.1115 64.6472 80.8729C66.9805 79.3346 69.368 77.8376 71.8222 76.4233ZM64.418 81.0176C67.4805 85.2521 70.5638 89.346 73.5888 93.1463C70.2888 94.8418 66.968 96.3925 63.6638 97.7902C63.5972 97.6786 63.5263 97.5752 63.4597 97.4635C61.3472 93.8824 59.293 90.0407 57.3347 86.0668C59.5847 84.3382 61.9513 82.651 64.4138 81.0176L64.418 81.0176ZM82.3472 70.9689C83.668 70.3486 84.9888 69.7532 86.3055 69.1949C88.0472 73.7892 89.5847 78.371 90.9013 82.804C90.6263 82.9943 90.3472 83.1845 90.0722 83.3706C87.7055 79.3511 85.1597 75.2158 82.3472 70.9689ZM86.5513 69.0957C93.4138 66.1886 100.151 64.0589 106.089 63.1409C106.439 63.0871 106.764 63.0664 107.11 63.021C107.401 65.0059 107.622 66.9908 107.78 68.9881C103.118 73.6858 97.3972 78.3255 91.1347 82.6469C89.8222 78.2304 88.2847 73.6692 86.5513 69.0957ZM106.497 57.9553C107.601 59.444 108.635 60.9533 109.593 62.4751C108.864 62.5289 108.101 62.6322 107.343 62.7315C107.101 61.127 106.822 59.5391 106.497 57.9553ZM57.1138 86.2363C59.0722 90.1979 61.118 94.023 63.2263 97.5917C63.2888 97.6951 63.3472 97.7943 63.4097 97.8977C60.193 99.25 57.0138 100.437 53.9013 101.446C51.3805 99.6469 48.9222 97.7199 46.5472 95.6771C49.5263 92.4971 53.1222 89.3129 57.1138 86.2363ZM46.3555 95.8673C48.6888 97.8729 51.1055 99.771 53.5805 101.545C49.7055 102.79 45.9388 103.778 42.4013 104.382C41.5222 104.531 40.6805 104.622 39.8264 104.729C40.7805 102.914 42.0055 101.053 43.4972 99.1673C44.3639 98.0714 45.3305 96.9714 46.3555 95.8673ZM118.293 55.3046C118.697 57.9387 118.972 60.606 119.064 63.3021C117.514 62.8059 115.768 62.5413 113.889 62.4337C115.726 60.0229 117.193 57.6369 118.293 55.3046ZM107.38 62.992C108.176 62.8928 108.985 62.777 109.751 62.7191C110.272 63.5544 110.776 64.3939 111.251 65.2333C111.11 65.3987 110.993 65.56 110.847 65.7254C109.968 66.722 109.018 67.7227 108.039 68.7193C107.88 66.8047 107.66 64.8984 107.38 62.992ZM33.0305 105.333C34.9847 105.399 37.043 105.321 39.2222 105.072C39.243 105.11 39.2639 105.147 39.2847 105.18C38.6972 106.371 38.243 107.533 37.918 108.678C36.2305 107.632 34.6055 106.503 33.0305 105.333ZM110.064 62.7108C111.218 62.6364 112.33 62.6157 113.397 62.6529C112.785 63.4386 112.114 64.2284 111.439 65.0141C111.001 64.245 110.543 63.4758 110.064 62.7108ZM113.714 62.6819C115.676 62.7811 117.489 63.0664 119.085 63.5875C119.251 69.1453 118.718 74.7527 117.568 80.1823C116.63 76.1917 115.13 72.0978 113.085 68.0205C112.622 67.1025 112.093 66.1844 111.576 65.2664C112.318 64.4021 113.051 63.542 113.714 62.6819ZM39.6722 105.01C40.5889 104.899 41.5055 104.799 42.4555 104.634C46.0597 104.018 49.9014 103.009 53.8514 101.735C55.993 103.261 58.1639 104.721 60.3722 106.036C63.6347 107.979 66.9472 109.642 70.2597 111.031C68.1264 113.277 66.5222 115.456 65.7097 117.437C65.543 117.846 65.4222 118.247 65.3222 118.64C58.3139 117.685 51.3764 115.526 44.9139 112.45C43.0847 110.328 41.3639 108.013 39.793 105.515C39.7222 105.407 39.668 105.287 39.5972 105.18C39.6264 105.122 39.643 105.068 39.6722 105.01ZM39.468 105.486C39.5014 105.54 39.5305 105.602 39.5638 105.66C41.0389 107.996 42.6514 110.159 44.3472 112.173C42.2305 111.139 40.1597 110.039 38.1639 108.811C38.468 107.731 38.9222 106.615 39.468 105.486ZM111.393 65.4856C111.893 66.3705 112.401 67.2513 112.847 68.1404C114.985 72.4038 116.51 76.6797 117.426 80.8274C117.222 81.7371 117.047 82.6552 116.806 83.5566C116.056 86.3728 115.085 89.1062 113.968 91.7527C112.414 90.7727 110.26 90.4625 107.735 90.6651C107.476 90.6858 107.197 90.7437 106.935 90.7768C107.526 87.8325 107.951 84.8055 108.172 81.7123C108.468 77.5688 108.401 73.326 108.068 69.0832C109.118 68.0246 110.118 66.9577 111.055 65.8991C111.176 65.7585 111.276 65.622 111.393 65.4814L111.393 65.4856ZM107.814 69.3272C108.131 73.4832 108.189 77.6391 107.901 81.6958C107.681 84.8096 107.251 87.8532 106.655 90.814C103.485 91.2234 99.8097 92.3441 95.9597 93.9651C94.9013 91.8892 93.7638 89.7513 92.5097 87.5141C92.2055 86.3562 91.8972 85.1942 91.5555 84.0074C91.4513 83.6476 91.3305 83.2754 91.2263 82.9115C97.4555 78.615 103.147 74.0042 107.814 69.3272ZM38.0889 109.079C40.2347 110.394 42.468 111.59 44.7597 112.681C48.243 116.713 52.1555 119.976 56.318 122.354C52.6597 122.759 49.3805 122.734 46.6639 122.225C44.6472 121.494 42.6972 120.621 40.8139 119.633C38.1264 117.023 37.2514 113.909 37.793 110.461C37.868 110.006 37.968 109.543 38.0889 109.079ZM119.355 63.6785C122.776 64.8736 125.23 67.1066 126.343 70.6588C126.214 76.9526 123.301 83.1721 118.643 89.0152C118.622 86.3769 118.314 83.6476 117.701 80.848C118.943 75.2406 119.522 69.4347 119.355 63.6785ZM54.1805 101.636C57.2513 100.631 60.3847 99.4526 63.5555 98.121C66.1472 102.467 68.8013 106.42 71.4305 109.861C71.0972 110.184 70.7722 110.506 70.4638 110.825C67.1305 109.431 63.7972 107.76 60.5138 105.804C58.368 104.531 56.2597 103.112 54.1805 101.636ZM63.8097 98.0135C67.118 96.6158 70.4472 95.0568 73.7555 93.3572C73.9805 93.6425 74.2138 93.961 74.4388 94.2422C76.7222 97.0831 78.9347 99.7214 81.068 102.136C77.5097 104.547 74.2597 107.119 71.6264 109.663C69.0222 106.251 66.3805 102.327 63.8097 98.0135ZM90.993 83.0728C91.093 83.4078 91.2013 83.751 91.2972 84.086C91.543 84.9378 91.7555 85.7649 91.9847 86.6043C91.4305 85.6284 90.7972 84.607 90.2138 83.6063C90.4722 83.4285 90.7347 83.2506 90.993 83.0728ZM89.9888 83.7551C90.7097 84.9833 91.4972 86.2528 92.168 87.4479C92.1972 87.5017 92.2222 87.5513 92.2513 87.6051C92.9097 90.1069 93.4722 92.526 93.9347 94.8583C91.4305 96.0038 88.893 97.3146 86.4055 98.7661C85.3388 99.3864 84.2805 100.032 83.243 100.693C82.5805 101.115 81.9388 101.549 81.293 101.983C79.1597 99.5642 76.9388 96.9218 74.6513 94.0767C74.4388 93.808 74.2138 93.5061 74.0013 93.2373C75.8013 92.3069 77.5972 91.3475 79.3763 90.3426C83.018 88.2791 86.5722 86.0626 89.9888 83.7551ZM45.3972 112.987C51.7014 115.923 58.4472 117.974 65.2597 118.909C65.1264 119.538 65.0889 120.141 65.1597 120.716C63.4639 121.134 61.8014 121.514 60.2014 121.8C59.0222 122.01 57.8764 122.176 56.7597 122.308C52.6805 120.03 48.843 116.879 45.3972 112.987ZM92.8222 88.6596C93.8472 90.5121 94.8222 92.3275 95.7097 94.0685C95.2013 94.2835 94.6972 94.5068 94.1847 94.7384C93.7888 92.77 93.3513 90.752 92.8222 88.6596ZM126.501 71.9779C126.497 72.3294 126.485 72.6768 126.472 73.0283C126.205 76.9237 125.547 80.7819 124.485 84.5408C124.476 84.5574 124.472 84.578 124.468 84.5946C122.989 89.2095 120.672 93.6343 117.526 97.6827C118.293 95.1105 118.631 92.3358 118.643 89.4411C123.126 83.8957 126.018 77.9906 126.497 71.9779L126.501 71.9779ZM86.543 98.9936C89.0013 97.5586 91.5138 96.2684 93.9847 95.1354C94.9388 99.9943 95.4597 104.427 95.4097 108.137C93.6805 109.154 91.918 110.122 90.143 111.048C87.5972 108.802 84.6513 105.784 81.4722 102.19C82.1097 101.764 82.7347 101.33 83.3847 100.916C84.4222 100.255 85.4805 99.6139 86.543 98.9936ZM117.555 81.4931C118.105 84.1893 118.376 86.8152 118.376 89.3501C117.401 90.5494 116.368 91.7403 115.256 92.9065C114.951 92.526 114.585 92.2117 114.193 91.9305C115.326 89.2509 116.31 86.4803 117.072 83.6269C117.26 82.9239 117.389 82.2044 117.555 81.4931ZM81.2513 102.339C84.4097 105.912 87.3388 108.926 89.893 111.18C89.5222 111.375 89.1513 111.577 88.7763 111.767C86.8305 112.752 84.8638 113.661 82.9013 114.534C79.8055 114.025 76.6388 113.165 73.4513 112.011C72.9013 111.337 72.343 110.61 71.7888 109.886C74.4222 107.339 77.6847 104.758 81.2513 102.339ZM94.2388 95.0113C94.7763 94.7715 95.3097 94.5399 95.843 94.3124C97.8305 98.2203 99.4472 101.801 100.606 104.89C98.993 105.957 97.3555 106.995 95.6763 107.988C95.7138 104.258 95.193 99.8454 94.2388 95.0113ZM96.093 94.2091C99.8847 92.617 103.493 91.5046 106.601 91.087C105.681 95.5448 104.326 99.7793 102.493 103.633C101.951 104.01 101.393 104.369 100.839 104.737C99.6805 101.648 98.0638 98.0921 96.093 94.2091ZM46.6514 122.498C46.668 122.503 46.6847 122.507 46.7014 122.507C51.8097 124.347 57.3014 125.343 63.0097 125.331C63.5639 125.505 64.118 125.662 64.6764 125.798C66.8555 126.336 69.0722 126.605 71.3097 126.605C62.8305 127.035 54.4097 125.612 46.6514 122.498ZM48.1014 122.713C50.6264 123.011 53.5264 122.953 56.7055 122.577C58.4972 123.569 60.3222 124.425 62.193 125.062C57.293 124.988 52.5555 124.173 48.1014 122.713ZM71.593 110.08C72.043 110.663 72.4972 111.255 72.943 111.809C72.2097 111.536 71.4764 111.238 70.743 110.936C71.018 110.651 71.3014 110.366 71.593 110.08ZM70.5347 111.135C71.4513 111.515 72.368 111.904 73.2805 112.235C74.6847 113.947 76.0722 115.46 77.4263 116.812C75.1722 117.681 72.9305 118.471 70.7347 119.157C69.018 119.079 67.2972 118.913 65.5805 118.686C65.6764 118.313 65.7889 117.933 65.9513 117.536C66.7513 115.584 68.3763 113.393 70.5347 111.135ZM106.885 91.0497C107.172 91.0125 107.481 90.9588 107.76 90.9381C110.276 90.7355 112.376 91.058 113.864 92.0174C113.255 93.4358 112.61 94.8335 111.897 96.1857C109.164 98.6834 106.151 101.078 102.943 103.323C104.697 99.5394 105.989 95.3959 106.885 91.0497ZM73.8264 112.441C76.7305 113.467 79.618 114.24 82.4555 114.732C80.868 115.427 79.2889 116.097 77.7097 116.713C76.4389 115.452 75.143 114.029 73.8264 112.441ZM57.1472 122.536C58.1555 122.407 59.193 122.25 60.2514 122.06C61.8472 121.779 63.5055 121.403 65.193 120.985C65.393 122.039 65.9764 122.966 66.993 123.714C67.5055 124.09 68.1305 124.413 68.8639 124.698C66.9097 124.938 64.9764 125.066 63.0639 125.075C61.0514 124.45 59.0722 123.578 57.1472 122.536ZM65.5222 118.95C67.0305 119.149 68.5347 119.285 70.043 119.376C68.4722 119.856 66.9389 120.269 65.4222 120.65C65.3597 120.116 65.3972 119.55 65.5222 118.95ZM114.093 92.1869C114.456 92.4516 114.789 92.7493 115.068 93.1008C114.96 93.2125 114.872 93.3241 114.764 93.4358C114.047 94.1677 113.289 94.8872 112.522 95.6068C113.089 94.4903 113.597 93.3407 114.093 92.1869ZM118.372 89.7719C118.33 92.6914 117.96 95.491 117.135 98.0631C117.11 98.1458 117.076 98.2285 117.047 98.3112C116.856 98.5511 116.643 98.7827 116.443 99.0184C116.776 96.4173 116.389 94.4779 115.41 93.1215C116.464 92.0257 117.443 90.905 118.372 89.7719ZM65.4514 120.923C67.1847 120.489 68.9472 119.997 70.7514 119.43C73.8389 119.575 76.9097 119.48 79.9389 119.12C80.8264 119.868 81.7013 120.542 82.5472 121.084C78.1555 122.887 73.7764 124.041 69.4764 124.62C68.5347 124.31 67.7555 123.937 67.1555 123.499C66.1764 122.784 65.6347 121.915 65.4514 120.923ZM115.222 93.3283C116.176 94.6846 116.547 96.653 116.131 99.3864C112.56 103.538 108.039 107.235 102.535 110.279C102.464 109.969 102.414 109.675 102.326 109.344C106.281 105.66 109.543 101.231 112.126 96.3387C113.105 95.4455 114.051 94.5399 114.956 93.6177C115.047 93.5226 115.126 93.4234 115.222 93.3283ZM122.851 89.4246C121.064 94.0974 118.647 98.5594 115.647 102.674L115.647 102.662C115.743 102.347 115.81 102.058 115.889 101.756C116.443 100.685 116.91 99.5642 117.297 98.3981C119.564 95.5778 121.41 92.5632 122.851 89.4246ZM71.4764 119.198C73.5014 118.549 75.5555 117.83 77.6263 117.027C78.3138 117.701 78.993 118.309 79.6597 118.88C76.9597 119.186 74.2222 119.294 71.4764 119.198ZM111.556 96.8474C109.064 101.425 105.96 105.564 102.247 109.055C102.018 108.207 101.739 107.289 101.406 106.325C101.864 105.507 102.297 104.663 102.71 103.803C105.868 101.611 108.835 99.283 111.556 96.8474ZM77.9138 116.92C79.5847 116.267 81.2638 115.551 82.943 114.807C86.7013 115.411 90.3597 115.506 93.8305 115.001C93.743 115.059 93.6597 115.117 93.5763 115.175C89.268 117.077 84.7055 118.272 80.0264 118.835C79.3347 118.247 78.6305 117.619 77.9138 116.916L77.9138 116.92ZM63.9097 125.306C65.7264 125.269 67.568 125.133 69.4264 124.884C71.1597 125.455 73.5347 125.761 76.4722 125.823C72.518 126.613 68.5722 126.485 64.7389 125.542C64.4597 125.472 64.1847 125.385 63.9097 125.306ZM83.4014 114.608C85.2389 113.785 87.0764 112.925 88.8972 112.003C89.3013 111.8 89.7013 111.577 90.1055 111.366C91.7055 112.764 93.1555 113.868 94.4097 114.588C94.3805 114.612 94.3472 114.633 94.318 114.658C90.8513 115.224 87.1805 115.183 83.4014 114.608ZM102.268 104.096C101.956 104.737 101.626 105.37 101.285 105.99C101.168 105.664 101.06 105.337 100.935 104.994C101.381 104.7 101.826 104.398 102.268 104.096ZM100.701 105.151C100.847 105.548 100.976 105.933 101.106 106.313C99.6263 108.951 97.8972 111.375 95.9138 113.533C95.5888 113.773 95.2555 113.996 94.9264 114.228C94.9305 114.215 94.9347 114.203 94.9388 114.191C94.9388 114.186 94.9347 114.182 94.9347 114.178C95.4097 112.503 95.6472 110.514 95.6888 108.285C97.393 107.281 99.0638 106.234 100.701 105.151ZM90.3513 111.234C92.0597 110.341 93.7513 109.414 95.4138 108.438C95.368 110.597 95.1305 112.508 94.6764 114.116L94.6763 114.124L94.668 114.129C94.6513 114.228 94.6222 114.298 94.6013 114.397C93.3763 113.699 91.9388 112.619 90.3513 111.234ZM101.231 106.648C101.543 107.57 101.81 108.447 102.022 109.257C100.776 110.415 99.4555 111.494 98.0722 112.495C97.5972 112.706 97.1222 112.921 96.6347 113.124C98.368 111.155 99.9013 108.988 101.231 106.648ZM70.0514 124.806C74.2639 124.194 78.543 123.028 82.8347 121.25C83.6597 121.758 84.4639 122.172 85.2389 122.465C82.7347 123.913 80.2055 124.938 77.668 125.567C74.4889 125.579 71.9222 125.331 70.0514 124.806ZM80.2972 119.079C84.4013 118.566 88.4055 117.565 92.2388 116.031C89.1222 118.016 85.9847 119.653 82.8514 120.96C82.8222 120.939 82.793 120.931 82.7639 120.91C81.9639 120.402 81.1388 119.773 80.2972 119.079ZM116.806 98.9936C116.618 99.5022 116.414 100.007 116.193 100.499C116.264 100.156 116.339 99.8041 116.393 99.4774C116.531 99.3161 116.668 99.1548 116.806 98.9936ZM116.035 99.9033C115.935 100.453 115.801 101.036 115.643 101.644C113.164 106.454 108.976 110.283 102.893 112.59C102.868 112.284 102.868 112.003 102.818 111.668C102.764 111.321 102.664 110.92 102.585 110.543C107.997 107.566 112.476 103.956 116.035 99.9033ZM102.11 109.547C102.189 109.853 102.222 110.117 102.285 110.411C101.306 110.944 100.297 111.461 99.2555 111.953C100.247 111.193 101.193 110.39 102.11 109.547ZM96.3805 113.529C96.393 113.525 96.4013 113.517 96.4097 113.512C96.6263 113.421 96.8305 113.326 97.043 113.24C96.6555 113.496 96.2597 113.736 95.8638 113.98C95.9388 113.901 96.0055 113.818 96.0805 113.736C96.1805 113.665 96.2805 113.599 96.3805 113.529ZM83.1555 121.125C86.6763 119.641 90.2013 117.751 93.6972 115.415C93.918 115.315 94.143 115.216 94.3638 115.113C94.2055 115.266 94.0555 115.427 93.893 115.58L93.8847 115.58C91.168 118.409 88.368 120.621 85.5264 122.296C84.768 122.027 83.9763 121.618 83.1555 121.125ZM94.9555 114.534C94.9472 114.542 94.9388 114.555 94.9263 114.563C94.9222 114.567 94.9138 114.567 94.9055 114.567C94.9222 114.555 94.9388 114.546 94.9555 114.534ZM98.2138 112.718C99.6472 112.078 101.022 111.399 102.343 110.684C102.41 111.023 102.506 111.391 102.551 111.705C102.606 112.061 102.606 112.363 102.631 112.685C100.518 113.463 98.1763 114.062 95.6055 114.455C96.5013 113.909 97.3722 113.33 98.2138 112.718ZM94.9472 114.906C96.418 115.783 97.6888 116.395 98.7388 116.697C99.3222 116.866 99.8472 116.945 100.31 116.949C99.943 117.18 99.5805 117.424 99.2097 117.648C96.693 119.161 94.0972 120.522 91.5514 121.68C92.9472 120.427 94.0263 118.272 94.7305 115.121C94.8013 115.047 94.8722 114.976 94.9472 114.906ZM95.268 114.778C97.9805 114.385 100.435 113.769 102.656 112.954C102.689 113.69 102.672 114.36 102.543 114.881C102.46 115.224 102.339 115.506 102.181 115.75C101.726 116.056 101.26 116.345 100.797 116.643C100.264 116.73 99.6138 116.676 98.818 116.444C97.8472 116.167 96.643 115.584 95.268 114.778ZM114.66 103.852C114.543 104.047 114.456 104.237 114.331 104.431C114.101 104.717 113.864 104.998 113.631 105.283C113.997 104.82 114.335 104.34 114.66 103.852ZM94.3138 115.53C93.4347 119.083 92.0847 121.274 90.3555 122.205C90.043 122.337 89.7389 122.469 89.4305 122.598C88.3514 122.908 87.143 122.829 85.8388 122.412C88.6388 120.737 91.3972 118.553 94.0722 115.774C94.0764 115.77 94.0763 115.766 94.0805 115.762C94.1597 115.688 94.2347 115.605 94.3138 115.53ZM76.1514 126.158C76.6639 126.063 77.1764 125.964 77.693 125.836C77.893 125.836 78.068 125.844 78.2763 125.844C77.5638 125.964 76.8597 126.063 76.1514 126.158ZM113.231 105.767C111.064 108.356 108.639 110.771 105.981 112.991C104.91 113.827 103.797 114.641 102.643 115.427C102.706 115.278 102.764 115.121 102.806 114.947C102.947 114.373 102.96 113.649 102.914 112.859C107.293 111.209 110.714 108.782 113.231 105.767ZM78.6013 125.579C80.9305 124.922 83.2514 123.933 85.5472 122.589C86.5514 122.937 87.5097 123.081 88.4055 123.024C86.6722 123.71 84.993 124.277 83.418 124.707C83.2097 124.76 83.0014 124.81 82.793 124.864C81.3972 125.215 80.0805 125.476 78.9055 125.583C78.9014 125.583 78.8972 125.583 78.8972 125.583C78.7889 125.587 78.7097 125.579 78.6013 125.579Z" stroke="white" stroke-opacity="0.12" stroke-width="1.5" shape-rendering="crispEdges"/>
</g>
<g clip-path="url(#clip0_110_697)">
<path d="M52.7356 85.5786L52.9508 92.2074L52.1373 92.285L51.9221 85.6599L51.8962 84.8613L51.1008 84.9373L49.6498 85.076L49.6224 84.2333L54.9286 83.7227L54.9559 84.5644L53.5059 84.7031L52.7097 84.7792L52.7356 85.5786Z" fill="#071A21" stroke="#041116" stroke-width="1.59894"/>
<path d="M58.0478 90.8408L58.0487 90.8421C58.5535 91.5564 59.3296 91.9249 60.537 91.8629C61.7436 91.7961 62.503 91.3456 62.9808 90.5773L62.9826 90.5744C63.4429 89.8408 63.7051 88.7868 63.6784 87.3415L58.0478 90.8408ZM58.0478 90.8408C57.5593 90.1527 57.2611 89.1308 57.2371 87.6862L57.2371 87.6847M58.0478 90.8408L57.2371 87.6847M57.2371 87.6847C57.2104 86.2444 57.4696 85.1944 57.931 84.4552L57.2371 87.6847ZM60.3798 83.173L60.377 83.1731C59.1721 83.2353 58.412 83.6851 57.9311 84.4549L60.3798 83.173ZM60.3798 83.173C61.5847 83.1066 62.3589 83.4737 62.8672 84.1895M60.3798 83.173L62.8672 84.1895M62.8672 84.1895C63.3537 84.8785 63.6517 85.9015 63.6784 87.3414L62.8672 84.1895ZM60.3641 82.3738L60.3641 82.3737L60.3641 82.3738ZM60.515 90.8115L60.515 90.8115L60.5217 90.8111C60.9471 90.7861 61.3556 90.6566 61.7124 90.3936C62.0646 90.134 62.3168 89.7811 62.4924 89.3845C62.7647 88.7775 62.8772 88.1024 62.8642 87.3825C62.8513 86.6628 62.7145 86.0039 62.4232 85.4326C62.2332 85.0543 61.9686 84.7275 61.6074 84.505C61.2409 84.2793 60.8273 84.1932 60.4005 84.2147C59.9705 84.2363 59.5589 84.367 59.2004 84.632C58.8471 84.8932 58.5939 85.2487 58.4173 85.6467C58.1489 86.2468 58.0325 86.9211 58.0456 87.6437L58.0456 87.6474C58.0619 88.3618 58.199 89.0224 58.4877 89.6L58.4877 89.6L58.4904 89.6053C58.682 89.9811 58.9487 90.3047 59.3103 90.5246C59.6757 90.7469 60.0883 90.833 60.515 90.8115Z" fill="#071A21" stroke="#041116" stroke-width="1.59895"/>
<path d="M71.9438 88.2431L71.9437 88.2431C71.8412 88.9298 71.5485 89.5366 71.0038 89.9596C70.473 90.3719 69.801 90.5327 69.0828 90.5384C69.0827 90.5384 69.0827 90.5384 69.0827 90.5384L67.8774 90.5482L67.0766 90.5547L67.0748 89.7539L67.0635 84.761L67.0617 83.9628L67.8598 83.9563L69.0636 83.9466C69.0639 83.9466 69.0642 83.9466 69.0645 83.9466L69.0653 83.9465L69.0683 84.746L71.9438 88.2431ZM71.9438 88.2431L71.9454 88.2307M71.9438 88.2431L71.9454 88.2307M71.9454 88.2307C71.9889 87.9045 72.015 87.5694 72.012 87.2231M71.9454 88.2307L72.012 87.2231M72.012 87.2231C72.012 87.2244 72.012 87.2256 72.012 87.2269L71.2126 87.2303L72.012 87.2194L72.012 87.2231ZM72.012 87.2231C72.0118 86.8822 71.9862 86.5464 71.9352 86.2111M72.012 87.2231L71.9352 86.2111M71.9352 86.2111C71.8784 85.8227 71.752 85.4538 71.5499 85.1188L71.9352 86.2111ZM72.8375 85.9664L72.8375 85.9664L72.8379 85.9708C72.8729 86.4021 72.8892 86.8206 72.892 87.2218C72.8919 87.6192 72.8758 88.0342 72.8456 88.4777C72.819 88.869 72.7443 89.2454 72.6219 89.6087L72.6219 89.6087L72.6204 89.6132C72.5159 89.9297 72.3456 90.2193 72.1028 90.489C71.8943 90.7206 71.5824 90.9355 71.1271 91.111C70.7007 91.2744 70.1074 91.3754 69.3086 91.3847L66.267 91.404L66.2503 83.1196L69.2911 83.1003C69.2912 83.1003 69.2912 83.1003 69.2913 83.1003C70.757 83.0912 71.6188 83.4405 72.0907 83.9544C72.4972 84.4011 72.7679 85.0461 72.8375 85.9664Z" fill="#071A21" stroke="#041116" stroke-width="1.59894"/>
<path d="M81.4074 90.5968L81.2332 90.0435L80.6587 90.0179L77.0396 89.8569L76.4638 89.8312L76.2732 90.37L75.8993 91.4275L75.1849 91.396L78.3846 83.2596L78.7783 83.2759L78.165 85.0111L77.1213 87.9639L76.7548 89.0006L77.863 89.0494L79.8597 89.1373L80.968 89.186L80.6334 88.1183L79.6804 85.0777L79.1201 83.2901L79.5098 83.3062L82.4663 91.7146L81.7493 91.6831L81.4074 90.5968Z" fill="#071A21" stroke="#041116" stroke-width="1.59894"/>
<path d="M91.1957 84.1812L88.6765 87.9404L88.5558 88.1204L88.5489 88.3431L88.429 92.2188L87.616 92.1429L87.736 88.2653L87.7429 88.0425L87.6339 87.8413L85.3609 83.6419L86.1503 83.7156L87.5085 86.3941L88.1639 87.6864L88.8942 86.5211L90.406 84.109L91.1957 84.1812Z" fill="#071A21" stroke="#041116" stroke-width="1.59895"/>
<path d="M53.5589 93.1391L51.1804 93.3807L50.9448 85.7282L48.7233 85.9498L48.6448 83.4325L55.4662 82.7478L55.5448 85.2651L53.3233 85.4866L53.5589 93.1391Z" fill="#C0E0EF"/>
<path d="M60.3817 92.4863C59.0084 92.5601 57.9907 92.1447 57.3287 91.2308C56.7433 90.4092 56.4369 89.269 56.4095 87.815C56.3795 86.3657 56.6421 85.2071 57.1974 84.3439C57.8321 83.3608 58.8333 82.8299 60.2066 82.7561C61.5689 82.6822 62.5839 83.1023 63.2486 84.0116C63.8313 84.824 64.1377 85.9595 64.1678 87.4089C64.1951 88.8628 63.9325 90.026 63.3799 90.8984C62.7453 91.8862 61.744 92.4124 60.3817 92.4863ZM60.3379 89.9753C60.8905 89.9522 61.2954 89.6614 61.5525 89.1075C61.755 88.6644 61.8507 88.1428 61.837 87.5381C61.8288 86.9473 61.7167 86.4441 61.4978 86.0241C61.2188 85.4841 60.803 85.2256 60.2504 85.2486C59.6868 85.2763 59.2792 85.5764 59.0248 86.1533C58.8196 86.5965 58.7212 87.1134 58.7294 87.7043C58.743 88.3089 58.8607 88.8213 59.0795 89.2367C59.3558 89.7537 59.7744 90.003 60.3379 89.9753Z" fill="#C0E0EF"/>
<path d="M69.0778 92.4754L65.056 92.4946L65.0322 82.7672L69.0541 82.748C70.6913 82.7384 71.8688 83.094 72.5895 83.8245C73.1827 84.4301 73.5178 85.2471 73.5979 86.2852C73.6365 86.737 73.6572 87.1647 73.6572 87.5733C73.6572 87.9866 73.6365 88.4143 73.5979 88.8613C73.5653 89.313 73.4733 89.7456 73.325 90.1685C73.1827 90.5914 72.9454 90.9759 72.6132 91.322C72.287 91.668 71.8421 91.9468 71.2726 92.1486C70.7031 92.3553 69.9705 92.4658 69.0778 92.4754ZM68.8405 90.0724C70.1218 90.0628 70.8396 89.5293 70.9997 88.4768C71.0383 88.1836 71.059 87.8905 71.059 87.5925C71.059 87.2993 71.0353 87.0061 70.9879 86.7082C70.9463 86.415 70.8514 86.1507 70.7031 85.92C70.5519 85.6797 70.3265 85.4874 70.0269 85.3433C69.7333 85.2039 69.3329 85.1414 68.8287 85.151H67.5711L67.5829 90.0724H68.8405Z" fill="#C0E0EF"/>
<path d="M84.0072 92.4946L81.3738 92.4007L80.8104 90.8232L76.9031 90.673L76.2907 92.2129L73.6572 92.1003L77.785 82.7478L80.1979 82.8417L84.0072 92.4946ZM79.9652 88.4382L78.9486 85.5272L77.8095 88.363L79.9652 88.4382Z" fill="#C0E0EF"/>
<path d="M89.2185 93.3807L86.822 93.1604L86.969 88.3546L84.0073 82.7478L86.6638 83.0081L88.2237 86.192L89.9759 83.3285L92.6323 83.5688L89.3654 88.5749L89.2185 93.3807Z" fill="#C0E0EF"/>
<path d="M38.999 77.2332L43.2396 76.8953C43.9416 76.8394 44.3345 76.3727 44.277 75.6339L43.3234 63.3182C43.2731 62.6814 43.7619 62.1321 44.3872 62.0811L46.771 61.8915C47.473 61.8356 47.8659 61.3689 47.8108 60.6568L47.5449 57.22C47.4898 56.5078 47.0298 56.1092 46.3278 56.1651L32.7554 57.2224C32.0271 57.2807 31.6605 57.745 31.7156 58.4571L31.984 61.9182C32.0391 62.6304 32.4991 63.029 33.201 62.9731L35.5585 62.7859C36.2102 62.7325 36.7756 63.1991 36.8259 63.8359L37.7795 76.154C37.837 76.8904 38.297 77.2891 38.999 77.2332Z" fill="#DBEDF5"/>
<path d="M52.0122 76.2621L68.8142 75.8003C69.4683 75.7833 69.957 75.2583 69.9403 74.5947L69.8588 71.559C69.8396 70.8954 69.3245 70.3996 68.6705 70.4166L58.3588 70.6986C57.7287 70.718 57.2112 70.2197 57.1944 69.5829C57.1777 68.9437 57.6664 68.3944 58.2965 68.3774L67.6019 68.1222C68.256 68.1052 68.7447 67.5802 68.728 66.9166L68.6561 64.2381C68.6393 63.5746 68.1218 63.0788 67.4678 63.0958L58.1623 63.351C57.5322 63.368 57.0171 62.8722 57.0004 62.2329C56.9812 61.5694 57.4699 61.0468 58.1 61.0298L68.4117 60.7454C69.0658 60.7284 69.5545 60.2034 69.5378 59.5399L69.4587 56.5284C69.4395 55.8649 68.9244 55.369 68.2704 55.3885L51.4684 55.8479C50.8143 55.8673 50.3232 56.3899 50.3423 57.0534L50.8239 75.1197C50.8407 75.7833 51.3582 76.2791 52.0122 76.2621Z" fill="#DBEDF5"/>
<path d="M77.3908 75.9342L89.6911 76.2891C90.3451 76.3085 90.8626 75.7884 90.8818 75.1248L90.9776 71.7294C90.9944 71.0658 90.508 70.5408 89.854 70.5238L79.5663 70.2248C78.9362 70.2078 78.4498 69.6828 78.4666 69.0436L78.6511 62.4617C78.6702 61.7981 79.1877 61.3023 79.8154 61.3193L90.1031 61.6183C90.7572 61.6377 91.2747 61.1419 91.2939 60.4783L91.3897 57.0853C91.4065 56.4217 90.9177 55.8967 90.2637 55.8773L77.9658 55.52C74.6955 55.4276 72.2638 57.7561 72.1703 61.0738L71.9188 70.0304C71.8253 73.3457 74.1229 75.8394 77.3908 75.9342Z" fill="#DBEDF5"/>
<path d="M93.8289 76.5634L98.0192 76.9013C98.6709 76.9547 99.2123 76.4856 99.2626 75.8245L99.6603 70.7349C99.713 70.0738 100.254 69.6047 100.882 69.6558C101.534 69.7068 101.994 70.2829 101.941 70.944L101.546 76.0068C101.493 76.6679 101.956 77.2172 102.607 77.2707L106.798 77.6086C107.449 77.6596 107.991 77.1905 108.043 76.5294L109.45 58.5141C109.502 57.853 109.04 57.3037 108.388 57.2502L104.2 56.9124C103.546 56.8613 103.005 57.3304 102.955 57.9915L102.559 63.0544C102.507 63.7155 101.965 64.1846 101.313 64.1336C100.686 64.0825 100.223 63.5332 100.276 62.8721L100.671 57.8068C100.724 57.1457 100.262 56.5964 99.61 56.5454L95.4197 56.2075C94.768 56.154 94.2266 56.6231 94.1763 57.2843L92.7675 75.302C92.7148 75.9631 93.1772 76.5124 93.8289 76.5634Z" fill="#DBEDF5"/>
</g>
<defs>
<filter id="filter0_d_110_697" x="6.38281" y="12.2979" width="125.239" height="123.403" filterUnits="userSpaceOnUse" color-interpolation-filters="sRGB">
<feFlood flood-opacity="0" result="BackgroundImageFix"/>
<feColorMatrix in="SourceAlpha" type="matrix" values="0 0 0 0 0 0 0 0 0 0 0 0 0 0 0 0 0 0 127 0" result="hardAlpha"/>
<feOffset dy="4"/>
<feGaussianBlur stdDeviation="2"/>
<feComposite in2="hardAlpha" operator="out"/>
<feColorMatrix type="matrix" values="0 0 0 0 0 0 0 0 0 0 0 0 0 0 0 0 0 0 0.25 0"/>
<feBlend mode="normal" in2="BackgroundImageFix" result="effect1_dropShadow_110_697"/>
<feBlend mode="normal" in="SourceGraphic" in2="effect1_dropShadow_110_697" result="shape"/>
</filter>
<clipPath id="clip0_110_697">
<rect width="93.38" height="48.0667" fill="white" transform="translate(24.1499 45.1899)"/>
</clipPath>
</defs>
</svg>
