<svg width="69" height="69" viewBox="0 0 69 69" fill="none" xmlns="http://www.w3.org/2000/svg">
<g filter="url(#filter0_d_146_1040)">
<path d="M18.8945 5.38304C17.8885 5.95163 16.926 6.57027 16.007 7.22757C13.5573 8.88333 11.5062 10.6687 10.3443 12.2585L10.3398 12.2653L10.3352 12.2676C10.2916 12.3518 10.2687 12.42 10.2275 12.5019C9.51475 13.2251 8.91892 14.0007 8.43767 14.8218C1.68413 24.4015 0.581846 37.245 6.64789 47.9778C6.65018 47.9892 6.65247 48.0006 6.65476 48.012L6.66393 48.0279C6.68226 48.062 6.70747 48.0893 6.72581 48.1234C6.73956 48.1462 6.74872 48.1689 6.76247 48.1916C9.78976 53.4546 14.1577 57.4916 19.2085 60.1481C19.7768 60.5848 20.4735 60.9123 21.2848 61.1488C27.8091 63.9941 35.2662 64.6378 42.4002 62.7523C45.0356 62.0563 47.6252 61.0215 50.1071 59.6159C50.9527 59.1383 51.7616 58.6243 52.5454 58.0875C52.5706 58.0693 52.6004 58.0534 52.6233 58.0329C53.4941 57.4302 54.326 56.7934 55.1212 56.1202C56.9568 54.6691 58.5198 53.1066 59.535 51.5509C62.1521 48.2348 64.0541 44.4662 65.1702 40.4905C65.1725 40.4792 65.1748 40.4678 65.1793 40.4564C65.8187 38.4254 66.1739 36.3307 66.2541 34.2223C66.662 28.3362 65.397 22.2909 62.2414 16.8073C58.8566 10.928 53.8035 6.57481 47.9918 3.9729C47.9231 3.94334 47.8543 3.91377 47.7856 3.8842C42.4002 1.51884 36.3754 0.654571 30.417 1.48018C30.4125 1.48018 30.4079 1.48245 30.4056 1.48245C28.036 1.58252 25.2218 2.43087 22.4306 3.66359C21.2343 4.16168 20.0518 4.72801 18.8945 5.38304ZM18.4316 5.86748C18.9243 5.57863 19.4285 5.29661 19.9373 5.02823C20.6775 4.63703 21.4291 4.2754 22.1831 3.93425C22.3137 3.87739 22.4466 3.82735 22.5795 3.77276C21.7362 4.37775 21.0189 5.48993 20.4322 7.09565C20.4254 7.1002 20.4185 7.10475 20.4116 7.11157C20.297 7.13887 20.187 7.15933 20.0725 7.1889L20.0541 7.19118L20.0404 7.20255C19.9579 7.27533 19.88 7.34583 19.7998 7.41861C19.1077 7.13432 18.482 6.92507 17.9825 6.86594C17.46 6.80226 17.0291 6.85912 16.7014 7.03197C16.5914 7.08883 16.4906 7.15934 16.4012 7.24349C16.0483 7.57328 15.8787 8.08956 15.8604 8.75596C15.8581 8.79917 15.8718 8.85603 15.8718 8.90152C15.0056 9.2495 14.1875 9.62478 13.4564 10.041C12.6841 10.4799 12.0058 10.9621 11.3779 11.4693C12.8193 9.93637 14.4304 8.52852 16.2064 7.27306C16.2133 7.26851 16.2202 7.26168 16.227 7.25714C16.9375 6.78179 17.6685 6.31326 18.4316 5.86748ZM16.7702 7.15934C17.0681 7.00468 17.46 6.95009 17.9641 7.00922C18.4316 7.06608 19.0275 7.26168 19.6829 7.52779C19.5958 7.60512 19.5133 7.68245 19.4262 7.75977C18.191 8.06909 17.052 8.43072 16.0162 8.84011C16.0162 8.81737 16.007 8.78553 16.007 8.76051C16.0254 8.11686 16.1904 7.64151 16.5043 7.34811C16.5845 7.27533 16.6716 7.21165 16.7702 7.15934ZM23.0035 3.67269C23.1593 3.58854 23.3152 3.52258 23.4756 3.468C24.1631 3.23601 24.9125 3.27922 25.71 3.55442C25.5793 3.62265 25.451 3.67496 25.3204 3.74547C23.801 4.56653 22.2427 5.62867 20.6545 6.9137C21.3008 5.24202 22.0914 4.16851 23.0035 3.67269ZM24.0714 3.19734C26.1729 2.44907 28.3133 1.92596 30.4652 1.63029C30.6393 1.62346 30.7975 1.63711 30.967 1.63938C29.3331 1.96917 27.635 2.58326 25.891 3.46799C25.2585 3.23146 24.6489 3.13366 24.0714 3.19734ZM11.9943 10.6187C11.905 10.7097 11.8133 10.7984 11.7239 10.8893C11.8133 10.7984 11.9027 10.7097 11.9943 10.6187ZM13.532 10.1615C14.2448 9.75669 15.04 9.39506 15.8833 9.05391C15.8948 9.40416 15.9383 9.79081 16.0162 10.2138C13.0783 12.3859 10.6973 14.6125 8.80434 16.8642C8.98309 15.7338 9.48954 14.3214 10.3306 12.6361C10.4085 12.5451 10.4841 12.4564 10.562 12.3654C11.3962 11.5626 12.3702 10.8188 13.532 10.1615ZM16.0231 8.99477C16.9925 8.6104 18.0489 8.26924 19.1925 7.97129C19.1145 8.04407 19.0366 8.11231 18.9587 8.18509C17.9756 8.82192 17.0314 9.46557 16.1468 10.116C16.0712 9.70438 16.03 9.33138 16.0231 8.99477ZM25.3868 3.87056C25.5587 3.77731 25.726 3.71363 25.8956 3.62493C26.3173 3.78868 26.755 4.04114 27.1995 4.32999C25.2631 5.0214 23.2487 5.88567 21.1495 6.93644C21.012 6.96829 20.8723 7.00013 20.7325 7.03424C22.3206 5.74921 23.8743 4.69162 25.3868 3.87056ZM26.0743 3.53623C28.0383 2.55369 29.9312 1.94415 31.7508 1.66668C32.8508 1.86227 33.7377 2.13065 34.4435 2.45589C32.2206 2.7925 29.8625 3.38839 27.3714 4.26631C26.9314 3.97519 26.496 3.71135 26.0743 3.53623ZM20.132 7.32309C20.1389 7.32309 20.1458 7.32082 20.1527 7.31854C20.1091 7.35721 20.0633 7.39132 20.0175 7.42999C20.0564 7.39587 20.0908 7.35948 20.132 7.32309ZM9.95246 13.1023C9.21455 14.6694 8.76538 16.0022 8.63246 17.0757C8.08476 17.7375 7.56913 18.3994 7.10622 19.0658C7.31476 17.6488 7.76163 16.3092 8.456 15.0674C8.9258 14.3942 9.42767 13.7414 9.95246 13.1023ZM19.8364 7.59147C19.8433 7.59602 19.8548 7.59829 19.8616 7.60284C19.8227 7.62558 19.7883 7.65288 19.7493 7.6779C19.747 7.6779 19.7448 7.6779 19.7402 7.6779C19.7745 7.6506 19.8043 7.62104 19.8364 7.59147ZM20.5377 7.22756C20.5583 7.22302 20.5789 7.22074 20.5973 7.21392C20.5743 7.22757 20.5514 7.23894 20.5285 7.25031C20.5331 7.24349 20.5354 7.23666 20.5377 7.22756ZM20.2283 7.56645C20.2398 7.5619 20.2535 7.55735 20.265 7.55053C20.2627 7.55735 20.2604 7.5619 20.2581 7.56645C20.2489 7.56645 20.2375 7.56873 20.2283 7.56645ZM20.4552 7.45273C20.705 7.32309 20.9525 7.20027 21.2023 7.07518C23.9316 6.44063 26.5464 6.01304 29.0489 5.78105C29.2781 5.99484 29.5118 6.24503 29.741 6.48384C28.5104 6.98648 27.2798 7.54143 26.0629 8.14414C24.2295 7.84848 22.3458 7.65515 20.4093 7.57782C20.4231 7.53461 20.4391 7.49595 20.4552 7.45273ZM19.6691 7.90079C18.6012 9.46329 17.6639 11.0508 16.8481 12.6543C16.6602 12.1221 16.4998 11.6171 16.3737 11.1486C16.3554 11.0849 16.3485 11.0326 16.3325 10.9689C17.1941 10.0706 18.1085 9.17672 19.0779 8.28516C19.275 8.15779 19.4675 8.02815 19.6691 7.90079ZM19.9212 7.78252C19.9991 7.76432 20.0702 7.74385 20.1504 7.72566C20.1641 7.73248 20.1756 7.73703 20.1893 7.74385C20.1825 7.77342 20.1733 7.79389 20.1641 7.82346L20.1595 7.82346L20.1595 7.83028C19.9029 9.03798 19.77 10.3503 19.7287 11.7263C18.8556 12.2858 18.0008 12.8635 17.1643 13.4503C17.0841 13.2456 16.9925 13.0341 16.9191 12.8362C17.7808 11.1304 18.7731 9.44055 19.9212 7.78252ZM21.7568 6.79543C23.6933 5.84929 25.5564 5.06689 27.3508 4.43006C27.5318 4.5506 27.7083 4.64386 27.8916 4.78487C28.2216 5.03733 28.5585 5.33755 28.8977 5.64914C26.6106 5.86748 24.2318 6.24275 21.7568 6.79543ZM18.3193 8.77415C17.6112 9.44282 16.942 10.1183 16.2958 10.7938C16.2523 10.6141 16.2156 10.4413 16.1812 10.273C16.8664 9.77034 17.5745 9.26997 18.3193 8.77415ZM20.3291 7.80071C20.4093 7.83938 20.4712 7.8553 20.5537 7.89624C20.556 7.89851 20.5583 7.89851 20.5606 7.90079C21.2893 8.53079 22.025 9.20401 22.7606 9.8977C22.5452 10.0205 22.3275 10.1388 22.112 10.2662C21.4589 10.646 20.8104 11.0372 20.1733 11.4375C20.077 11.4989 19.9831 11.5626 19.8868 11.624C19.9327 10.298 20.0564 9.03116 20.3039 7.86667C20.3108 7.84165 20.3223 7.82573 20.3291 7.80071ZM20.5216 7.72566C22.3389 7.80071 24.1104 7.98494 25.8337 8.25559C24.8437 8.75141 23.8629 9.27679 22.8935 9.82265C22.1418 9.11531 21.3947 8.42845 20.6523 7.78707L20.6454 7.78252L20.6362 7.77342C20.595 7.75295 20.5629 7.74385 20.5216 7.72566ZM31.5377 1.50292C31.8929 1.46426 32.2481 1.42786 32.6033 1.40285C32.326 1.43014 32.0441 1.4779 31.7645 1.52111C31.737 1.51657 31.7141 1.50974 31.6866 1.50519L31.682 1.50519C31.6362 1.50064 31.5835 1.5052 31.5377 1.50292ZM16.0483 10.3731C16.0873 10.5527 16.1216 10.7301 16.1698 10.9235C13.3487 13.8824 11.1029 16.8846 9.37497 19.8755C9.10684 19.557 8.90976 19.1727 8.80892 18.6996C8.71267 18.2538 8.7058 17.7262 8.77684 17.128C10.672 14.8422 13.0714 12.5792 16.0483 10.3731ZM32.177 1.60754C34.3358 1.33689 36.3845 1.53021 38.305 2.11928C37.1477 2.14202 35.9468 2.23754 34.7048 2.41495C34.0402 2.08289 33.1991 1.81451 32.177 1.60754ZM27.5227 4.36638C30.0481 3.48164 32.4337 2.89257 34.6772 2.56733C35.5206 2.99492 36.0775 3.50893 36.3754 4.09345C36.4097 4.16168 36.4304 4.23446 36.4579 4.30269C36.3868 4.31861 36.3181 4.32999 36.2493 4.34591C35.021 4.6393 33.7743 5.00776 32.5231 5.43534C31.4093 5.46036 30.2681 5.52405 29.1016 5.62867C28.7258 5.27841 28.35 4.9509 27.981 4.66887C27.8252 4.55061 27.6762 4.471 27.5227 4.36638ZM16.211 11.1009C16.2179 11.1327 16.2225 11.1577 16.2293 11.1873C16.3691 11.6967 16.5525 12.2494 16.7633 12.8294C16.5318 13.2888 16.3095 13.7505 16.0964 14.2145C13.7337 15.9476 11.5681 17.7739 9.69809 19.6048C11.3779 16.7641 13.5389 13.9143 16.211 11.1009ZM33.4695 1.35963C33.8293 1.34371 34.1891 1.33461 34.5466 1.33007C37.8077 1.29822 41.0389 1.75765 44.1258 2.6856C42.4552 2.30578 40.6677 2.11473 38.7679 2.117C37.4181 1.66212 36.0156 1.37783 34.5466 1.33007C34.1937 1.31869 33.8293 1.34598 33.4695 1.35963ZM7.84413 15.9863C7.39496 17.0075 7.0833 18.0787 6.92976 19.2022C6.92288 19.25 6.92288 19.3 6.9183 19.3478C4.97267 22.2113 3.77872 25.0929 3.2333 27.9291C3.92538 23.7078 5.4883 19.6344 7.84413 15.9863ZM8.60496 17.335C8.55913 17.8535 8.57746 18.3221 8.66455 18.7292C8.77684 19.2432 8.99226 19.6662 9.29246 20.0119C8.60496 20.6988 7.94955 21.3879 7.35601 22.0703C7.23684 22.2067 7.13372 22.3386 7.01913 22.4751C6.92747 21.4198 6.93892 20.3918 7.06038 19.3978C7.53017 18.7087 8.0435 18.0218 8.60496 17.335ZM34.927 2.52867C36.2516 2.34672 37.5212 2.26484 38.7495 2.26256C38.9718 2.33762 39.1964 2.4013 39.4164 2.48545C40.1658 2.78113 40.89 3.14275 41.5958 3.55442C39.9825 3.63857 38.3118 3.88193 36.6045 4.27085C36.5725 4.18897 36.5472 4.1071 36.506 4.02749C36.2127 3.45207 35.6947 2.94943 34.927 2.52867ZM29.2575 5.76513C30.22 5.68097 31.1733 5.61502 32.1014 5.58545C31.3658 5.84473 30.6279 6.12448 29.89 6.4247C29.6791 6.20409 29.466 5.96527 29.2575 5.76513ZM16.8343 13.0113C16.8962 13.1819 16.9718 13.3616 17.0406 13.539C16.8068 13.7028 16.5708 13.8642 16.3416 14.0303C16.4998 13.6891 16.6648 13.3502 16.8343 13.0113ZM22.1854 10.3912C22.4123 10.2593 22.6437 10.132 22.8729 10.0023C24.5252 11.5648 26.1843 13.2683 27.8343 15.0856C26.7733 15.7725 25.6687 16.432 24.5435 17.0393C23.1823 17.7762 21.8004 18.4289 20.4437 18.9975C20.0198 16.4548 19.8181 14.0325 19.8777 11.8059C20.0037 11.7263 20.1252 11.6399 20.2535 11.5603C20.8883 11.16 21.5345 10.7711 22.1854 10.3912ZM23.0035 9.92954C24.0187 9.35639 25.0477 8.80827 26.0858 8.29426C28.3316 8.66271 30.4858 9.19491 32.562 9.85448C32.8004 10.1797 33.041 10.505 33.2816 10.8484C31.8127 12.2653 29.9862 13.6914 27.9627 15.0083C26.315 13.191 24.6558 11.492 23.0035 9.92954ZM19.7195 11.9083C19.6691 14.1281 19.8777 16.5367 20.3016 19.0567C20.155 19.1158 20.0106 19.1727 19.8662 19.2295C18.7754 17.1621 17.8725 15.2607 17.217 13.5936C18.0329 13.0182 18.867 12.4564 19.7195 11.9083ZM26.315 8.18508C27.4883 7.61194 28.6708 7.07973 29.8533 6.59528C30.6943 7.4732 31.5514 8.50122 32.4177 9.66344C30.456 9.04935 28.4279 8.53989 26.315 8.18508ZM17.0933 13.68C17.7487 15.3426 18.6425 17.2349 19.7264 19.2887C17.5998 20.1279 15.5808 20.6988 13.8598 20.9012C14.4327 18.6973 15.2187 16.4934 16.2133 14.3123C16.5043 14.1008 16.7977 13.8893 17.0933 13.68ZM30.0022 6.53842C30.8548 6.19271 31.705 5.86748 32.5552 5.57636C33.9508 5.54679 35.3052 5.57635 36.6229 5.66505C36.5358 6.40878 36.2081 7.21847 35.6627 8.06681C35.225 8.74913 34.6383 9.45874 33.96 10.1729C33.5291 10.0205 33.0914 9.87268 32.6514 9.73167C31.7577 8.52169 30.8731 7.45045 30.0022 6.53842ZM15.9635 14.4988C15.0125 16.6231 14.2631 18.7701 13.7062 20.9149C12.9683 20.9945 12.2716 21.024 11.6689 20.949C10.9012 20.8557 10.2595 20.6328 9.77371 20.2644C9.67288 20.1893 9.58351 20.1006 9.49642 20.0119C11.371 18.1446 13.5641 16.2774 15.9635 14.4988ZM6.88621 19.6571C6.78767 20.6215 6.79226 21.6176 6.88851 22.6366C5.1858 24.6767 3.92767 26.6554 3.29518 28.4454C3.32038 28.3021 3.33642 28.1588 3.36163 28.0155C3.88413 25.2567 5.02997 22.4478 6.88621 19.6571ZM32.9997 5.4308C34.102 5.06689 35.1975 4.7462 36.2791 4.48692C36.357 4.46873 36.435 4.45963 36.5106 4.44143C36.6252 4.78259 36.6687 5.14422 36.6389 5.52404C35.4587 5.44444 34.2464 5.41487 32.9997 5.4308ZM39.2147 2.26939C41.9052 2.31033 44.3618 2.75611 46.571 3.55669C46.9881 3.7068 47.396 3.87056 47.7947 4.04569C48.1568 4.20262 48.5052 4.3732 48.8535 4.54832C46.7497 3.73409 44.3779 3.42933 41.8525 3.53395C41.0825 3.0768 40.2895 2.67423 39.4691 2.35127C39.3866 2.31715 39.2972 2.29896 39.2147 2.26939ZM36.6572 4.40732C38.4264 4.00702 40.1543 3.75456 41.8135 3.68178C43.4268 4.65067 44.9233 5.90841 46.296 7.39586C43.4131 6.42697 40.2391 5.78105 36.7856 5.53542C36.8154 5.14194 36.7764 4.7644 36.6572 4.40732ZM9.40017 20.1256C9.48955 20.2166 9.58121 20.3053 9.68434 20.3827C10.1954 20.7716 10.8645 20.999 11.6506 21.0945C12.2533 21.1696 12.9408 21.1446 13.6695 21.0718C12.6291 25.1475 12.2877 29.2118 12.4848 33.1374C12.3839 33.2443 12.2739 33.3512 12.1754 33.4604C11.9141 33.747 11.685 34.0358 11.4375 34.3224C9.37726 30.9972 7.91059 27.6152 7.28955 24.4151C7.87621 22.9937 8.57976 21.5608 9.40017 20.1256ZM9.02892 20.4827C8.35059 21.7063 7.75476 22.9254 7.24372 24.1377C7.15434 23.6464 7.08788 23.162 7.03976 22.6798C7.18413 22.5092 7.31476 22.3386 7.46601 22.1658C7.95184 21.6085 8.48122 21.0468 9.02892 20.4827ZM36.7673 5.67643C40.3079 5.92661 43.5552 6.59755 46.4908 7.60966C47.9941 9.27906 49.3325 11.2373 50.5104 13.3843C50.256 13.4139 50.0154 13.4298 49.7564 13.4662C47.797 13.746 45.6956 14.2327 43.5231 14.865C40.6631 13.0204 37.5143 11.4443 34.1066 10.2275C34.7712 9.5247 35.351 8.82191 35.7864 8.14414C36.3387 7.28215 36.6779 6.44972 36.7672 5.67415L36.7673 5.67643ZM6.90684 22.8413C6.96184 23.3576 7.03517 23.8738 7.13601 24.4015C5.68538 27.9268 4.92455 31.4021 4.75038 34.7318C3.92309 33.9949 3.33643 33.0214 3.04768 31.7637C3.03393 31.6909 3.03851 31.6091 3.02934 31.534C3.03393 30.8721 3.07059 30.2058 3.14393 29.5371C3.58392 27.5515 4.92226 25.2453 6.90684 22.839L6.90684 22.8413ZM42.0702 3.66359C45.1616 3.56352 48.0056 4.09117 50.3935 5.42624C51.5897 6.73402 52.0389 8.23511 51.8945 9.86813C50.256 8.94927 48.4891 8.15096 46.5916 7.49366C45.2097 5.96527 43.6995 4.66887 42.0702 3.66359ZM32.7958 9.92272C33.1533 10.0387 33.5039 10.1638 33.8568 10.2866C33.7102 10.439 33.5452 10.5914 33.387 10.746C33.19 10.464 32.9929 10.1934 32.7958 9.92272ZM7.19101 24.6608C7.84184 27.8313 9.29934 31.1655 11.3366 34.4429C10.7568 35.1253 10.216 35.8099 9.72559 36.499C8.56601 36.4194 7.51643 36.2124 6.61122 35.8553C5.96039 35.5983 5.38747 35.2617 4.89018 34.8501C5.0483 31.5658 5.78393 28.1429 7.19101 24.6608ZM13.8208 21.0581C15.5808 20.8603 17.6364 20.278 19.7975 19.4206C20.0839 19.9619 20.3773 20.5123 20.6889 21.0741C20.98 22.4774 21.3306 23.908 21.7316 25.3545C18.2758 27.7289 15.15 30.3149 12.6268 32.9896C12.4435 29.1072 12.7873 25.0861 13.8208 21.0559L13.8208 21.0581ZM34.0035 10.3435C37.3791 11.5421 40.4958 13.0978 43.3329 14.9173C41.3597 15.4973 39.3293 16.1978 37.2737 17.0256C36.0248 14.774 34.746 12.702 33.4718 10.8689C33.6506 10.6937 33.8362 10.5186 34.0035 10.3412L34.0035 10.3435ZM33.3641 10.9735C34.6291 12.7907 35.8964 14.8468 37.1362 17.0825C35.367 17.7967 33.5887 18.5995 31.8218 19.4706C30.582 17.9718 29.3285 16.5116 28.0635 15.1152C30.0756 13.8051 31.8975 12.3882 33.3641 10.9735ZM19.935 19.3637C20.0633 19.3137 20.1939 19.2614 20.3245 19.2068C20.4025 19.6662 20.5079 20.1347 20.5995 20.5987C20.3681 20.178 20.1527 19.7731 19.935 19.3637ZM20.4666 19.1477C21.8393 18.5745 23.2373 17.9127 24.6145 17.1689C25.7489 16.5548 26.865 15.8884 27.9352 15.1948C29.1979 16.589 30.4491 18.0423 31.6866 19.5366C31.0633 19.8459 30.44 20.1507 29.8212 20.4759C28.9687 20.9217 28.1254 21.3834 27.2889 21.861C25.7879 22.7184 24.3189 23.6214 22.8958 24.5607C22.1762 23.3553 21.4635 22.1567 20.831 21.0149C20.7004 20.3872 20.572 19.7617 20.4666 19.1477ZM2.86434 31.3134C2.86893 31.3793 2.87122 31.4453 2.88038 31.5113C2.85518 34.8205 3.6733 38.0183 5.1331 41.0046C5.40351 42.5352 5.79768 44.0159 6.31101 45.4396C6.31101 46.1242 6.38664 46.8043 6.53101 47.4729C3.74664 42.3533 2.57559 36.7765 2.86434 31.3134ZM20.9227 21.4857C21.4933 22.5047 22.135 23.5736 22.7743 24.6426C22.465 24.8473 22.1648 25.0565 21.8623 25.2635C21.5093 23.9898 21.1885 22.7275 20.9227 21.4857ZM3.04309 32.28C3.38226 33.3763 3.95747 34.2542 4.74122 34.9228C4.65643 36.8288 4.76414 38.687 5.04601 40.4837C3.84059 37.8818 3.13476 35.123 3.04309 32.28ZM46.7841 7.70973C48.606 8.35566 50.3064 9.13577 51.8831 10.0251C51.8579 10.2616 51.8189 10.5004 51.7662 10.7438C51.5898 11.5853 51.2391 12.4609 50.7877 13.3525C50.7487 13.357 50.7075 13.3616 50.6685 13.3661C49.5272 11.276 48.237 9.35639 46.7841 7.70973ZM50.7854 5.67642C53.8562 7.69608 56.2968 10.4959 58.1118 13.7778C57.9148 13.7141 57.7177 13.6504 57.5114 13.5981C57.367 13.5617 57.202 13.5458 57.0531 13.514C55.5543 12.1926 53.8791 10.9962 52.0343 9.94773C52.1856 8.3966 51.8006 6.95008 50.7854 5.67642ZM51.3995 5.91296C55.5085 8.40342 59.072 11.8719 61.712 16.2023C60.9145 15.1061 59.755 14.3282 58.3112 13.8369C56.5833 10.6755 54.2825 7.94172 51.3995 5.91296ZM27.3623 21.9929C28.1964 21.5153 29.0398 21.0513 29.89 20.6055C30.5156 20.2757 31.1481 19.9642 31.7806 19.6526C33.6185 21.8815 35.3968 24.2082 37.1202 26.5553C35.5939 27.5538 34.0081 28.509 32.3902 29.4074C30.7837 30.3013 29.1475 31.1337 27.5112 31.8956C26.441 30.2922 25.4075 28.6933 24.4243 27.1194C23.9087 26.2915 23.4527 25.5 22.9691 24.6926C24.3923 23.7533 25.8612 22.8481 27.3623 21.9929ZM31.9112 19.5866C33.6735 18.7223 35.4427 17.9263 37.205 17.2144C37.5716 17.8763 37.936 18.5449 38.2935 19.2318C39.107 20.7875 39.9 22.4114 40.6654 24.0672C39.5677 24.8882 38.4264 25.6933 37.2393 26.4712C35.5206 24.1286 33.7468 21.811 31.9112 19.5866ZM22.8477 24.7745C23.3312 25.5819 23.785 26.3711 24.3006 27.1967C25.2791 28.7661 26.3081 30.3627 27.3737 31.9593C26.4158 32.4028 25.4602 32.8122 24.5091 33.2034C23.7139 31.1496 22.9829 29.0822 22.3618 27.033C22.1968 26.4917 22.0525 25.9549 21.9012 25.4182C22.2152 25.2021 22.5268 24.986 22.8477 24.7745ZM4.8833 35.032C5.37143 35.4232 5.92601 35.7462 6.55164 35.9941C7.45226 36.3466 8.4858 36.5581 9.62247 36.64C8.0733 38.8416 6.98476 41.0637 6.54018 43.2403C6.07497 42.492 5.64872 41.7278 5.26831 40.9454C4.93372 39.044 4.79851 37.0653 4.8833 35.032ZM21.7752 25.5069C21.9218 26.0277 22.0616 26.5485 22.2198 27.0739C22.8431 29.13 23.5741 31.1997 24.3693 33.2557C20.5583 34.8068 16.8412 35.9145 13.6031 36.3398C13.3671 36.3716 13.1493 36.3784 12.9202 36.4012C12.7827 35.3459 12.691 34.2746 12.6337 33.192C15.1546 30.4991 18.2964 27.8972 21.7752 25.5069ZM37.3425 17.1576C39.4325 16.3183 41.495 15.6064 43.4979 15.0219C44.9118 15.9362 46.2479 16.9165 47.5152 17.9468C45.6841 19.9823 43.3856 22.0247 40.7845 23.9785C40.0214 22.3295 39.2331 20.7124 38.4241 19.1613C38.0666 18.479 37.7045 17.8149 37.3425 17.1576ZM52.0183 10.1024C53.76 11.0963 55.355 12.2244 56.7872 13.4662C55.0937 13.141 53.1275 13.1091 50.9595 13.3366C51.395 12.4655 51.7341 11.6058 51.9083 10.7756C51.9564 10.5504 51.9908 10.3253 52.016 10.1024L52.0183 10.1024ZM43.6881 14.9696C45.8102 14.3578 47.8635 13.8847 49.7748 13.6118C50.052 13.5708 50.3133 13.5549 50.5837 13.5231C50.6066 13.564 50.6318 13.6004 50.6525 13.6413C50.0566 14.7535 49.2775 15.8907 48.3241 17.0393C48.1041 17.3031 47.852 17.5692 47.616 17.8353C46.3762 16.8255 45.0677 15.8657 43.6881 14.9696ZM12.4893 33.3399C12.5466 34.3451 12.6337 35.3413 12.7621 36.3239C12.3289 35.703 11.9073 35.082 11.5154 34.4543C11.7721 34.1564 12.0104 33.8561 12.2808 33.5582C12.3473 33.4854 12.4229 33.4126 12.4893 33.3399ZM11.4146 34.5749C11.8041 35.1935 12.2212 35.8121 12.6498 36.4239C11.6873 36.5126 10.7614 36.5536 9.90434 36.5058C10.3696 35.8599 10.8714 35.2162 11.4146 34.5749ZM9.79434 36.6514C10.7087 36.7082 11.7056 36.6605 12.7414 36.5627C12.7598 36.5877 12.7758 36.615 12.7964 36.64C13.5573 42.2168 15.4341 47.3729 18.0443 51.6578C16.8 51.7943 15.6289 51.8261 14.5243 51.7761C12.5054 50.25 10.6583 48.5578 9.07705 46.7042C8.18331 45.6557 7.37435 44.5572 6.65476 43.4245C7.07872 41.1979 8.19018 38.9167 9.79434 36.6514ZM50.8862 13.4912C53.1802 13.2456 55.2495 13.282 56.9981 13.6504C57.7429 14.3123 58.4418 15.0037 59.0995 15.7201C59.4685 16.5298 59.8054 17.3645 60.1056 18.2174C60.7725 20.112 61.2491 22.1044 61.5768 24.1422C60.9581 25.5046 60.117 26.9033 59.0285 28.3225C58.3777 28.293 57.7039 28.2952 56.9958 28.3453C56.4022 27.3969 55.756 26.4598 55.0593 25.5341C54.4085 22.4501 53.4918 19.4501 52.3025 16.6822C51.8487 15.6246 51.3468 14.6171 50.8198 13.6345C50.845 13.5868 50.861 13.539 50.8862 13.4912ZM50.7418 13.8005C51.246 14.749 51.7295 15.7247 52.1672 16.7413C53.3131 19.4069 54.2091 22.2863 54.8554 25.2498C52.8639 22.6479 50.4691 20.1711 47.7306 17.9263C47.9666 17.6602 48.221 17.3941 48.441 17.128C49.3714 16.0067 50.1483 14.8923 50.7418 13.8005ZM12.9362 36.5445C13.1677 36.5195 13.3877 36.5149 13.6237 36.4831C16.8802 36.0555 20.6064 34.9479 24.4243 33.3922C25.4716 36.085 26.6473 38.7415 27.9008 41.2911C25.6893 42.9947 23.6956 44.7573 22.0433 46.5222C18.6471 43.5883 15.5648 40.2722 13.0943 36.8174C13.0393 36.7423 12.9958 36.665 12.9431 36.5922C12.9408 36.5763 12.9385 36.5604 12.9362 36.5445ZM12.9752 36.9061C15.4525 40.3677 18.5371 43.6906 21.9402 46.6314C21.3764 47.2387 20.8402 47.8459 20.3612 48.4486C19.511 49.5222 18.8098 50.5866 18.2735 51.6237C18.2506 51.626 18.2254 51.6305 18.2025 51.6351C15.6289 47.4297 13.7635 42.3783 12.9752 36.9061ZM5.36455 41.4799C5.7106 42.1486 6.08872 42.8082 6.49664 43.4541C6.3981 43.9886 6.34539 44.5139 6.32476 45.0416C5.92601 43.8908 5.60518 42.7013 5.36455 41.4799ZM47.6298 18.0377C50.4508 20.3462 52.8983 22.9049 54.9195 25.5864C55.1235 26.5576 55.2954 27.5333 55.442 28.5159C55.2518 28.5409 55.0731 28.5523 54.8783 28.5841C51.5966 29.089 47.8841 30.2603 44.1006 31.8615C43.1083 29.2528 42.0152 26.6418 40.851 24.1149C43.4704 22.1498 45.7827 20.0915 47.6298 18.0377ZM57.2547 13.6982C57.3258 13.7141 57.406 13.7209 57.4747 13.7391C57.7268 13.8028 57.972 13.8779 58.2104 13.9575C58.4441 14.3873 58.6687 14.824 58.8795 15.2675C58.3662 14.7285 57.8208 14.2054 57.2547 13.6982ZM58.4189 14.0325C60.0575 14.6239 61.3041 15.5905 62.0375 16.9938C62.5095 18.0082 62.6952 19.0953 62.6356 20.2394C61.68 18.6223 60.5364 17.0825 59.2187 15.6451C58.9689 15.097 58.7008 14.5579 58.4189 14.0325ZM24.5618 33.3399C25.5243 32.9464 26.4891 32.5302 27.4562 32.0821C28.8885 34.2291 30.385 36.3511 31.8952 38.439C30.5454 39.3329 29.2506 40.2563 28.0177 41.2002C26.7687 38.6619 25.6046 36.0191 24.5618 33.3399ZM40.7273 24.2036C41.8868 26.7214 42.9754 29.321 43.9631 31.9206C43.2298 32.2322 42.4941 32.562 41.7585 32.9077C40.3629 30.8085 38.8664 28.6933 37.3264 26.5917C38.502 25.8184 39.6364 25.0201 40.7273 24.2036ZM6.61351 43.6451C7.31247 44.7346 8.1008 45.7899 8.96247 46.7997C10.5048 48.6079 12.306 50.2659 14.2677 51.767C13.4014 51.7147 12.5673 51.6237 11.8087 51.4417C10.5987 51.1529 9.54456 50.6889 8.66226 50.043C7.78685 48.5897 7.04435 47.0408 6.45539 45.4123C6.45539 44.8278 6.51039 44.241 6.61351 43.6451ZM27.5937 32.0207C29.2277 31.2588 30.8593 30.4264 32.4635 29.5348C34.0837 28.6341 35.6741 27.6766 37.205 26.6759C38.7404 28.7729 40.23 30.879 41.621 32.9714C39.7235 33.863 37.8283 34.841 35.9812 35.9054C34.6268 36.6855 33.3068 37.5134 32.0189 38.3594C30.5133 36.2784 29.0237 34.1609 27.5937 32.0207ZM6.46914 45.8672C6.99393 47.2409 7.62185 48.5578 8.3506 49.8065C7.73414 49.2993 7.20935 48.692 6.79914 47.9733C6.79685 47.9688 6.79455 47.9642 6.79226 47.9597C6.79226 47.9574 6.78997 47.9574 6.78997 47.9574C6.78997 47.9551 6.78997 47.9551 6.78768 47.9528C6.59976 47.2682 6.50122 46.5723 6.46914 45.8672ZM59.3814 16.0363C60.6258 17.435 61.712 18.927 62.6172 20.4873C62.5462 21.3538 62.3422 22.2476 62.0054 23.1688C61.9183 23.403 61.7922 23.6464 61.6891 23.8852C61.3614 21.9224 60.887 20.0028 60.2431 18.1742C59.9841 17.4441 59.6885 16.7368 59.3814 16.0363ZM62.2208 17.0575C64.7233 21.4743 65.9952 26.2506 66.1602 31.0109C65.892 28.152 65.1335 25.3158 63.8937 22.6297C63.5522 21.8928 63.1764 21.1673 62.7639 20.4554C62.8579 19.2614 62.6906 18.1196 62.2208 17.0575ZM7.61268 49.3175C7.89685 49.62 8.2131 49.8929 8.54768 50.1408C8.96477 50.8299 9.40706 51.5009 9.88143 52.1468C10.7889 53.3841 11.8064 54.5304 12.9087 55.588C10.9058 53.7775 9.11831 51.6806 7.61268 49.3175ZM8.86393 50.366C9.70268 50.9186 10.6766 51.3235 11.7721 51.585C12.5993 51.7829 13.5137 51.8784 14.4648 51.9239C15.3975 52.6267 16.36 53.2954 17.3637 53.9163C17.2927 54.1915 17.2308 54.4644 17.1873 54.7328C16.9031 56.5318 17.3271 58.1921 18.6058 59.5954C15.2256 57.7464 12.2854 55.1717 10.0006 52.0604C9.59956 51.5145 9.22372 50.9459 8.86393 50.366ZM62.7456 20.7283C63.11 21.372 63.4514 22.0247 63.7585 22.6889C65.2275 25.8707 66.0227 29.2641 66.1143 32.653C65.4566 30.7402 64.077 29.5075 62.1887 28.8638C62.136 27.2763 61.971 25.7047 61.7235 24.1559C61.8633 23.842 62.026 23.5281 62.1383 23.2188C62.45 22.3682 62.6562 21.5358 62.7456 20.7283ZM36.0523 36.0327C37.9062 34.966 39.8037 33.9858 41.7058 33.0919C43.2595 35.4368 44.662 37.7181 45.966 39.9356C44.0868 41.207 42.1343 42.4283 40.1291 43.561C39.1483 44.1182 38.156 44.6481 37.1591 45.1644C35.4931 43.072 33.795 40.8112 32.106 38.48C33.3893 37.6339 34.7025 36.8106 36.0523 36.0327ZM31.98 38.5596C33.6643 40.8886 35.3602 43.1402 37.0239 45.2304C35.2089 46.1629 33.3825 47.0158 31.5652 47.7845C31.5285 47.7231 31.4896 47.6662 31.4529 47.6048C30.291 45.6352 29.1612 43.5223 28.0841 41.3366C29.3216 40.3859 30.6233 39.458 31.9777 38.5596L31.98 38.5596ZM41.841 33.0328C42.5675 32.6916 43.2939 32.3641 44.0181 32.0571C44.976 34.5839 45.8216 37.104 46.5458 39.5421C46.3946 39.6467 46.241 39.7514 46.0898 39.8537C44.7881 37.643 43.3879 35.3686 41.841 33.0328ZM44.1533 32.0025C47.9277 30.4036 51.6333 29.2323 54.8989 28.7274C55.0914 28.6978 55.2702 28.6864 55.4604 28.6614C55.6208 29.7531 55.7423 30.8448 55.8293 31.9434C53.265 34.5271 50.1185 37.0789 46.6741 39.4557C45.9523 37.0266 45.1066 34.518 44.1533 32.0025ZM55.1235 25.8753C55.7308 26.6941 56.2991 27.5242 56.8262 28.3612C56.4252 28.3908 56.0058 28.4476 55.5887 28.5022C55.4558 27.6198 55.3022 26.7464 55.1235 25.8753ZM27.9627 41.4299C29.0398 43.6087 30.165 45.7125 31.3246 47.6753C31.3589 47.7322 31.391 47.7868 31.4254 47.8437C29.6562 48.5874 27.9077 49.2401 26.1958 49.7951C24.8093 48.8057 23.4573 47.7459 22.151 46.6223C23.7896 44.8733 25.7673 43.122 27.9627 41.4299ZM22.0456 46.7269C23.3289 47.83 24.6581 48.874 26.0193 49.8497C23.8881 50.5343 21.8164 51.0778 19.8708 51.4099C19.3873 51.4918 18.9243 51.5418 18.4546 51.601C18.9793 50.6025 19.6531 49.579 20.4735 48.5419C20.9502 47.9392 21.4818 47.3342 22.0456 46.7269ZM61.6112 24.4174C61.8335 25.8662 61.9848 27.3332 62.0352 28.8161C61.1827 28.5432 60.2225 28.3976 59.1889 28.3385C60.1995 27.0125 61.0062 25.7002 61.6112 24.4174ZM55.6093 28.6455C56.047 28.5909 56.4916 28.5272 56.9133 28.4954C57.1998 28.9548 57.477 29.4165 57.7383 29.8782C57.6604 29.9692 57.5962 30.0579 57.516 30.1489C57.0325 30.697 56.51 31.2474 55.9714 31.7955C55.8843 30.7425 55.7629 29.694 55.6093 28.6455ZM14.7168 51.933C15.7916 51.9694 16.9237 51.9262 18.1223 51.7897C18.1337 51.8102 18.1452 51.8307 18.1566 51.8489C17.8335 52.5039 17.5837 53.143 17.405 53.773C16.4768 53.1976 15.5831 52.5767 14.7168 51.933ZM57.0852 28.4908C57.72 28.4499 58.3318 28.4385 58.9185 28.459C58.5816 28.8911 58.2127 29.3255 57.8414 29.7577C57.6008 29.3346 57.3487 28.9116 57.0852 28.4908ZM59.0927 28.4749C60.172 28.5295 61.1689 28.6864 62.0466 28.973C62.1383 32.0298 61.845 35.1139 61.2125 38.1002C60.6968 35.9054 59.8718 33.6537 58.7466 31.4112C58.4923 30.9063 58.2012 30.4013 57.917 29.8964C58.325 29.4211 58.7283 28.948 59.0927 28.4749ZM18.3698 51.7556C18.8739 51.6942 19.3781 51.6396 19.9006 51.5486C21.8829 51.2098 23.9958 50.6548 26.1683 49.9543C27.3462 50.7935 28.5402 51.5964 29.7548 52.3197C31.5491 53.3886 33.371 54.3029 35.1929 55.0671C34.0196 56.3021 33.1373 57.5007 32.6904 58.5902C32.5987 58.8153 32.5323 59.0359 32.4773 59.252C28.6227 58.7266 24.8071 57.5394 21.2527 55.8472C20.2466 54.6805 19.3002 53.4068 18.4362 52.0331C18.3973 51.974 18.3675 51.908 18.3285 51.8489C18.3446 51.817 18.3537 51.7874 18.3698 51.7556ZM18.2575 52.0172C18.2758 52.0467 18.2918 52.0808 18.3102 52.1127C19.1214 53.3977 20.0083 54.5872 20.941 55.6949C19.7768 55.1263 18.6379 54.5213 17.5402 53.8458C17.7075 53.2522 17.9573 52.6381 18.2575 52.0172ZM57.8162 30.017C58.0912 30.5037 58.3708 30.9881 58.616 31.4771C59.7916 33.822 60.6304 36.1737 61.1345 38.455C61.0223 38.9553 60.926 39.4602 60.7931 39.9561C60.3806 41.5049 59.8466 43.0083 59.2325 44.4639C58.3777 43.9249 57.1929 43.7543 55.8041 43.8657C55.662 43.8771 55.5085 43.9089 55.3641 43.9271C55.6896 42.3078 55.9233 40.6429 56.0448 38.9417C56.2075 36.6627 56.1708 34.3292 55.9875 31.9957C56.565 31.4134 57.115 30.8266 57.6306 30.2444C57.697 30.1671 57.752 30.092 57.8162 30.0147L57.8162 30.017ZM55.8477 32.1299C56.0218 34.4156 56.0539 36.7014 55.8958 38.9326C55.7743 40.6452 55.5383 42.3191 55.2106 43.9476C53.4666 44.1728 51.4454 44.7891 49.3279 45.6807C48.7458 44.539 48.1202 43.3631 47.4304 42.1326C47.2631 41.4958 47.0935 40.8567 46.9056 40.204C46.8483 40.0061 46.7818 39.8014 46.7246 39.6013C50.1506 37.2382 53.281 34.7022 55.8477 32.1299ZM17.4989 53.9936C18.6791 54.7169 19.9075 55.3742 21.1679 55.9746C23.0837 58.1921 25.2356 59.9866 27.525 61.2944C25.5129 61.5173 23.7093 61.5037 22.2152 61.2239C21.106 60.8213 20.0335 60.3414 18.9977 59.7979C17.5196 58.3627 17.0383 56.6501 17.3362 54.7533C17.3775 54.5031 17.4325 54.2483 17.4989 53.9936ZM62.1956 29.0231C64.077 29.6804 65.4268 30.9085 66.0387 32.8622C65.9677 36.3238 64.3658 39.7445 61.8037 42.9583C61.7923 41.5072 61.6227 40.0061 61.2858 38.4663C61.9687 35.3823 62.2872 32.189 62.1956 29.0231ZM26.3493 49.8997C28.0383 49.347 29.7616 48.6988 31.5056 47.9665C32.931 50.3569 34.3908 52.5312 35.8368 54.4235C35.6535 54.6009 35.4748 54.7783 35.3052 54.9534C33.4718 54.1869 31.6385 53.2681 29.8327 52.1923C28.6525 51.4918 27.4929 50.7117 26.3493 49.8997ZM31.6454 47.9073C33.465 47.1386 35.296 46.2811 37.1156 45.3464C37.2393 45.5033 37.3677 45.6784 37.4914 45.8331C38.7473 47.3956 39.9641 48.8467 41.1375 50.1749C39.1804 51.5009 37.3929 52.9155 35.9446 54.3143C34.5123 52.4379 33.0593 50.2795 31.6454 47.9073ZM46.5962 39.69C46.6512 39.8742 46.7108 40.063 46.7635 40.2472C46.8987 40.7157 47.0156 41.1706 47.1416 41.6323C46.8368 41.0955 46.4885 40.5338 46.1677 39.9833C46.3098 39.8856 46.4541 39.7878 46.5962 39.69ZM46.0439 40.0652C46.4404 40.7407 46.8735 41.439 47.2425 42.0963C47.2585 42.1258 47.2723 42.1531 47.2883 42.1827C47.6504 43.5587 47.9598 44.8892 48.2141 46.172C46.8368 46.802 45.4412 47.523 44.0731 48.3213C43.4864 48.6624 42.9043 49.0172 42.3337 49.3811C41.9693 49.6131 41.6164 49.8519 41.2612 50.0907C40.0879 48.7602 38.8664 47.3069 37.6083 45.7421C37.4914 45.5943 37.3677 45.4282 37.2508 45.2804C38.2408 44.7687 39.2285 44.241 40.2071 43.6883C42.21 42.5534 44.1648 41.3343 46.0439 40.0652ZM21.5185 56.1429C24.9858 57.7577 28.696 58.8858 32.4429 59.3998C32.3696 59.7455 32.3489 60.0776 32.3879 60.3937C31.4552 60.6235 30.5408 60.8327 29.6608 60.9896C29.0123 61.1056 28.3821 61.1966 27.7679 61.2694C25.5243 60.0162 23.4137 58.2831 21.5185 56.1429ZM47.6023 42.7627C48.166 43.7816 48.7023 44.78 49.1904 45.7376C48.9108 45.8558 48.6335 45.9786 48.3516 46.106C48.1339 45.0234 47.8933 43.9135 47.6023 42.7627ZM66.1258 33.5878C66.1235 33.7811 66.1166 33.9721 66.1097 34.1654C65.9631 36.3079 65.601 38.4299 65.0166 40.4974C65.012 40.5065 65.0098 40.5178 65.0075 40.5269C64.1939 43.0651 62.9198 45.4987 61.1895 47.7254C61.6112 46.3107 61.7968 44.7846 61.8037 43.1925C64.2695 40.1426 65.86 36.8947 66.1235 33.5878L66.1258 33.5878ZM44.1487 48.4464C45.5008 47.6571 46.8827 46.9475 48.2416 46.3244C48.7664 48.9968 49.0529 51.4349 49.0254 53.475C48.0743 54.0345 47.105 54.5667 46.1287 55.0762C44.7285 53.8412 43.1083 52.1809 41.3598 50.2045C41.7104 49.9702 42.0541 49.7314 42.4116 49.504C42.9823 49.1401 43.5643 48.7875 44.1487 48.4464ZM61.2056 38.8211C61.5081 40.304 61.657 41.7483 61.657 43.1425C61.1208 43.802 60.5525 44.4571 59.9406 45.0985C59.7733 44.8892 59.5716 44.7164 59.3562 44.5617C59.9795 43.0879 60.5204 41.564 60.9398 39.9947C61.0429 39.6081 61.1139 39.2123 61.2056 38.8211ZM41.2383 50.2863C42.9754 52.2514 44.5864 53.9094 45.9912 55.149C45.7873 55.2559 45.5833 55.3673 45.3771 55.472C44.3068 56.0133 43.2252 56.5136 42.1458 56.9935C40.4431 56.7138 38.7014 56.2407 36.9483 55.6061C36.6458 55.2354 36.3387 54.8351 36.0339 54.4371C37.4823 53.0361 39.2766 51.6169 41.2383 50.2863ZM48.3814 46.2561C48.677 46.1242 48.9704 45.9968 49.2637 45.8717C50.3568 48.021 51.246 49.9907 51.8831 51.6896C50.9962 52.2764 50.0956 52.8473 49.172 53.3932C49.1927 51.3417 48.9062 48.9149 48.3814 46.2561ZM49.4012 45.8149C51.4866 44.9392 53.4712 44.3274 55.1808 44.0977C54.6743 46.5495 53.9296 48.8785 52.9212 50.9982C52.6233 51.2052 52.3162 51.4031 52.0114 51.6055C51.3743 49.9065 50.4852 47.9505 49.4012 45.8149ZM22.2083 61.374C22.2175 61.3763 22.2266 61.3786 22.2358 61.3786C25.0454 62.3907 28.0658 62.9388 31.2054 62.932C31.5102 63.0275 31.815 63.1139 32.1221 63.189C33.3206 63.4846 34.5398 63.6325 35.7704 63.6325C31.1068 63.869 26.4754 63.0866 22.2083 61.374ZM23.0058 61.4923C24.3946 61.656 25.9896 61.6242 27.7381 61.4172C28.7235 61.9631 29.7273 62.4339 30.7562 62.7841C28.0612 62.7432 25.4556 62.2951 23.0058 61.4923ZM35.9262 54.544C36.1737 54.8647 36.4235 55.1899 36.6687 55.4947C36.2654 55.3446 35.8621 55.1808 35.4587 55.0148C35.61 54.8579 35.7658 54.7009 35.9262 54.544ZM35.3441 55.124C35.8483 55.3332 36.3525 55.547 36.8543 55.729C37.6266 56.6706 38.3898 57.503 39.1346 58.2467C37.8948 58.7243 36.6618 59.1588 35.4541 59.5363C34.51 59.4931 33.5635 59.4021 32.6193 59.277C32.6721 59.0723 32.7339 58.8631 32.8233 58.6447C33.2633 57.5712 34.1571 56.3658 35.3441 55.124ZM55.3366 44.0773C55.4948 44.0568 55.6643 44.0272 55.8179 44.0158C57.202 43.9044 58.357 44.0818 59.1752 44.6095C58.8406 45.3896 58.4854 46.1583 58.0935 46.902C56.5902 48.2758 54.9333 49.5927 53.1687 50.8276C54.1335 48.7466 54.8439 46.4676 55.3366 44.0773ZM37.1546 55.8427C38.7518 56.4067 40.34 56.832 41.9006 57.1027C41.0275 57.4848 40.1589 57.8532 39.2904 58.1921C38.5914 57.4984 37.8787 56.7161 37.1546 55.8427ZM27.981 61.3945C28.5356 61.324 29.1062 61.2375 29.6883 61.1329C30.566 60.9783 31.4781 60.7713 32.4062 60.5416C32.5162 61.1215 32.8371 61.631 33.3962 62.0427C33.6781 62.2496 34.0219 62.4271 34.4252 62.584C33.3504 62.7159 32.2871 62.7864 31.2352 62.791C30.1283 62.4475 29.0398 61.9676 27.981 61.3945ZM32.5873 59.4226C33.4168 59.5317 34.2441 59.6068 35.0737 59.6568C34.2098 59.9207 33.3664 60.1481 32.5323 60.3574C32.4979 60.064 32.5185 59.7524 32.5873 59.4226ZM59.3012 44.7027C59.5006 44.8483 59.6839 45.012 59.8375 45.2053C59.7779 45.2668 59.7298 45.3282 59.6702 45.3896C59.276 45.7921 58.8589 46.1879 58.4373 46.5836C58.7489 45.9695 59.0285 45.3373 59.3012 44.7027ZM61.6548 43.3745C61.6318 44.9802 61.4279 46.5199 60.9741 47.9346C60.9604 47.9801 60.9421 48.0256 60.926 48.0711C60.8206 48.203 60.7037 48.3304 60.5937 48.46C60.777 47.0294 60.5639 45.9627 60.0254 45.2167C60.6052 44.614 61.1437 43.9976 61.6548 43.3745ZM32.5483 60.5075C33.5016 60.2687 34.471 59.998 35.4633 59.6864C37.1614 59.766 38.8504 59.7137 40.5164 59.5158C41.0046 59.9275 41.4858 60.2982 41.951 60.5962C39.5356 61.5878 37.1271 62.2224 34.7621 62.5408C34.2441 62.3702 33.8156 62.1655 33.4856 61.9244C32.9471 61.5309 32.6491 61.0533 32.5483 60.5075ZM59.9223 45.3304C60.447 46.0764 60.651 47.1591 60.4218 48.6624C58.4579 50.9459 55.9714 52.9792 52.9441 54.6532C52.9052 54.4826 52.8777 54.3211 52.8296 54.1392C55.0043 52.1127 56.7987 49.6768 58.2195 46.9862C58.7581 46.4949 59.2783 45.9968 59.7756 45.4897C59.826 45.4373 59.8695 45.3828 59.9223 45.3304ZM64.1183 43.1834C63.1352 45.7535 61.806 48.2075 60.156 50.4706L60.156 50.4637C60.2087 50.2909 60.2454 50.1317 60.2889 49.9657C60.5937 49.3766 60.8504 48.7602 61.0635 48.1188C62.3102 46.5677 63.3254 44.9097 64.1183 43.1834ZM35.8621 59.559C36.9758 59.202 38.1056 58.8062 39.2446 58.365C39.6227 58.7357 39.9962 59.07 40.3629 59.3839C38.8779 59.5522 37.3723 59.6114 35.8621 59.559ZM57.9056 47.266C56.5352 49.7837 54.8279 52.0604 52.786 53.98C52.66 53.5137 52.5064 53.0088 52.3231 52.4789C52.5752 52.0285 52.8135 51.5645 53.0404 51.0915C54.7775 49.886 56.4091 48.6056 57.9056 47.266ZM39.4027 58.3059C40.3216 57.9465 41.2452 57.553 42.1687 57.1436C44.2358 57.4757 46.2479 57.528 48.1568 57.2505C48.1087 57.2824 48.0629 57.3142 48.0171 57.3461C45.6475 58.3923 43.1381 59.0496 40.5646 59.3589C40.1841 59.0359 39.7968 58.6902 39.4027 58.3036L39.4027 58.3059ZM31.7004 62.9183C32.6996 62.8979 33.7125 62.8228 34.7346 62.6863C35.6879 63.0002 36.9941 63.1685 38.6098 63.2026C36.435 63.637 34.2648 63.5665 32.1564 63.048C32.0029 63.0093 31.8516 62.9615 31.7004 62.9183ZM42.4208 57.0345C43.4314 56.5819 44.4421 56.1088 45.4435 55.6016C45.6658 55.4902 45.8858 55.3673 46.1081 55.2513C46.9881 56.0201 47.7856 56.6273 48.4754 57.0231C48.4593 57.0367 48.441 57.0481 48.425 57.0618C46.5183 57.3734 44.4993 57.3506 42.4208 57.0345ZM52.7975 51.253C52.6256 51.6055 52.4446 51.9535 52.2566 52.2946C52.1925 52.115 52.1329 51.9353 52.0641 51.7465C52.3093 51.585 52.5545 51.419 52.7975 51.253ZM51.9358 51.8329C52.016 52.0513 52.0871 52.2628 52.1581 52.472C51.3445 53.9231 50.3935 55.2559 49.3027 56.4431C49.1239 56.575 48.9406 56.6979 48.7596 56.8252C48.7618 56.8184 48.7641 56.8116 48.7664 56.8047C48.7664 56.8025 48.7641 56.8002 48.7641 56.7979C49.0254 55.8768 49.156 54.7828 49.1789 53.5569C50.1162 53.0042 51.0352 52.4288 51.9358 51.8329ZM46.2433 55.1786C47.1829 54.6873 48.1133 54.1778 49.0277 53.6411C49.0025 54.8283 48.8718 55.8791 48.6221 56.7638L48.6221 56.7684L48.6175 56.7706C48.6083 56.8252 48.5923 56.8639 48.5808 56.9185C47.9071 56.5341 47.1164 55.9405 46.2433 55.1786ZM52.2268 52.6563C52.3987 53.1635 52.5454 53.6456 52.6623 54.0914C51.9771 54.7282 51.2506 55.3218 50.4898 55.8722C50.2285 55.9882 49.9673 56.1065 49.6991 56.218C50.6525 55.1353 51.4958 53.9436 52.2268 52.6563ZM35.0783 62.6431C37.3952 62.3065 39.7487 61.6651 42.1091 60.6871C42.5629 60.9669 43.0052 61.1943 43.4314 61.3558C42.0541 62.1519 40.6631 62.7159 39.2675 63.0616C37.5189 63.0684 36.1073 62.932 35.0783 62.6431ZM40.7135 59.4931C42.9708 59.2111 45.1731 58.6607 47.2814 57.8169C45.5673 58.9086 43.8416 59.8092 42.1183 60.5279C42.1023 60.5166 42.0862 60.512 42.0702 60.5006C41.6302 60.2209 41.1764 59.8752 40.7135 59.4931ZM60.7931 48.4464C60.69 48.7261 60.5777 49.0036 60.4562 49.2742C60.4952 49.0855 60.5364 48.8921 60.5662 48.7125C60.6418 48.6238 60.7175 48.5351 60.7931 48.4464ZM60.3691 48.9467C60.3141 49.2492 60.2408 49.5699 60.1537 49.9042C58.7902 52.5494 56.4871 54.6555 53.1412 55.9246C53.1275 55.7563 53.1275 55.6016 53.1 55.4174C53.0702 55.2263 53.0152 55.0057 52.9716 54.7987C55.9485 53.1612 58.4121 51.1756 60.3691 48.9467ZM52.7104 54.2506C52.7539 54.4189 52.7723 54.5645 52.8066 54.726C52.2681 55.0193 51.7135 55.3036 51.1406 55.5743C51.686 55.1558 52.2062 54.7146 52.7104 54.2506ZM49.5593 56.4408C49.5662 56.4386 49.5708 56.434 49.5754 56.4317C49.6946 56.3817 49.8068 56.3294 49.9237 56.2816C49.7106 56.4227 49.4929 56.5546 49.2752 56.6888C49.3164 56.6455 49.3531 56.6001 49.3943 56.5546C49.4493 56.5159 49.5043 56.4795 49.5593 56.4408ZM42.2856 60.6189C44.2221 59.8024 46.1608 58.763 48.0835 57.478C48.205 57.4234 48.3287 57.3688 48.4502 57.3119C48.3631 57.3961 48.2806 57.4848 48.1912 57.569L48.1866 57.5689C46.6925 59.1246 45.1525 60.3414 43.5896 61.2626C43.1725 61.1147 42.7371 60.8896 42.2856 60.6189ZM48.7756 56.9935C48.771 56.9981 48.7664 57.0049 48.7596 57.0094C48.7573 57.0117 48.7527 57.0117 48.7481 57.0117C48.7573 57.0049 48.7664 57.0003 48.7756 56.9935ZM50.5677 55.9951C51.356 55.6425 52.1123 55.2695 52.8387 54.8761C52.8754 55.0626 52.9281 55.265 52.9533 55.4378C52.9831 55.6334 52.9831 55.7995 52.9968 55.9769C51.835 56.4045 50.5471 56.7342 49.1331 56.9503C49.6258 56.6501 50.1048 56.3317 50.5677 55.9951ZM48.771 57.1982C49.58 57.6804 50.2789 58.017 50.8564 58.183C51.1773 58.2763 51.466 58.3195 51.7204 58.3218C51.5187 58.4491 51.3193 58.5833 51.1154 58.7061C49.7312 59.5386 48.3035 60.2868 46.9033 60.9237C47.671 60.2345 48.2646 59.0496 48.6518 57.3165C48.6908 57.2756 48.7298 57.2369 48.771 57.1982ZM48.9475 57.1277C50.4393 56.9116 51.7891 56.5728 53.0106 56.1247C53.0289 56.5295 53.0198 56.898 52.9487 57.1846C52.9029 57.3733 52.8364 57.528 52.7493 57.6622C52.4996 57.8305 52.2429 57.9897 51.9885 58.1535C51.6952 58.2012 51.3377 58.1717 50.9 58.0443C50.366 57.8919 49.7037 57.5712 48.9475 57.1277ZM59.6129 51.1188C59.5487 51.2257 59.5006 51.3303 59.4318 51.4372C59.3058 51.5941 59.1752 51.7488 59.0468 51.9057C59.2485 51.651 59.4341 51.3871 59.6129 51.1188ZM48.4227 57.5417C47.9391 59.4954 47.1966 60.7008 46.2456 61.2125C46.0737 61.2853 45.9064 61.3581 45.7368 61.4286C45.1433 61.5992 44.4787 61.556 43.7614 61.3262C45.3014 60.4051 46.8185 59.2042 48.2898 57.6758C48.2921 57.6736 48.2921 57.6713 48.2943 57.669C48.3379 57.6281 48.3791 57.5826 48.4227 57.5417ZM38.4333 63.3868C38.7152 63.3345 38.9971 63.2799 39.2812 63.2094C39.3912 63.2094 39.4875 63.214 39.6021 63.214C39.2102 63.2799 38.8229 63.3345 38.4333 63.3868ZM58.8268 52.1718C57.6352 53.5956 56.3014 54.9238 54.8393 56.1452C54.2504 56.6046 53.6385 57.0527 53.0037 57.4848C53.0381 57.4029 53.0702 57.3165 53.0931 57.221C53.171 56.9048 53.1779 56.5068 53.1527 56.0724C55.5612 55.1649 57.4427 53.8298 58.8268 52.1718ZM39.7808 63.0684C41.0618 62.7068 42.3383 62.1632 43.601 61.424C44.1533 61.6151 44.6804 61.6947 45.1731 61.6629C44.2198 62.0404 43.2962 62.352 42.43 62.5885C42.3154 62.6181 42.2008 62.6454 42.0862 62.675C41.3185 62.8683 40.5944 63.0116 39.9481 63.0707C39.9458 63.0707 39.9435 63.0707 39.9435 63.0707C39.8839 63.073 39.8404 63.0684 39.7808 63.0684Z" fill="#D9D9D9"/>
<path d="M34.5466 1.33007C34.1891 1.33461 33.8293 1.34371 33.4695 1.35963C33.8293 1.34598 34.1937 1.31869 34.5466 1.33007ZM34.5466 1.33007C37.8077 1.29822 41.0389 1.75765 44.1258 2.6856C42.4552 2.30578 40.6677 2.11473 38.7679 2.117C37.4181 1.66212 36.0156 1.37783 34.5466 1.33007ZM18.8945 5.38304C17.8885 5.95163 16.926 6.57027 16.007 7.22757C13.5573 8.88333 11.5062 10.6687 10.3443 12.2585L10.3398 12.2653L10.3352 12.2676C10.2916 12.3518 10.2687 12.42 10.2275 12.5019C9.51475 13.2251 8.91892 14.0007 8.43767 14.8218C1.68413 24.4015 0.581846 37.245 6.64789 47.9778C6.65018 47.9892 6.65247 48.0006 6.65476 48.012L6.66393 48.0279C6.68226 48.062 6.70747 48.0893 6.72581 48.1234C6.73956 48.1462 6.74872 48.1689 6.76247 48.1916C9.78976 53.4546 14.1577 57.4916 19.2085 60.1481C19.7768 60.5848 20.4735 60.9123 21.2848 61.1488C27.8091 63.9941 35.2662 64.6378 42.4002 62.7523C45.0356 62.0563 47.6252 61.0215 50.1071 59.6159C50.9527 59.1383 51.7616 58.6243 52.5454 58.0875C52.5706 58.0693 52.6004 58.0534 52.6233 58.0329C53.4941 57.4302 54.326 56.7934 55.1212 56.1202C56.9568 54.6691 58.5198 53.1066 59.535 51.5509C62.1521 48.2348 64.0541 44.4662 65.1702 40.4905C65.1725 40.4792 65.1748 40.4678 65.1793 40.4564C65.8187 38.4254 66.1739 36.3307 66.2541 34.2223C66.662 28.3362 65.397 22.2909 62.2414 16.8073C58.8566 10.928 53.8035 6.57481 47.9918 3.9729C47.9231 3.94334 47.8543 3.91377 47.7856 3.8842C42.4002 1.51884 36.3754 0.654571 30.417 1.48018C30.4125 1.48018 30.4079 1.48245 30.4056 1.48245C28.036 1.58252 25.2218 2.43087 22.4306 3.66359C21.2343 4.16169 20.0518 4.72801 18.8945 5.38304ZM18.4316 5.86748C18.9243 5.57863 19.4285 5.29661 19.9373 5.02823C20.6775 4.63703 21.4291 4.27541 22.1831 3.93425C22.3137 3.87739 22.4466 3.82735 22.5795 3.77276C21.7362 4.37775 21.0189 5.48993 20.4323 7.09565C20.4254 7.1002 20.4185 7.10475 20.4116 7.11157C20.297 7.13887 20.187 7.15933 20.0725 7.1889L20.0541 7.19118L20.0404 7.20255C19.9579 7.27533 19.88 7.34583 19.7998 7.41861C19.1077 7.13432 18.482 6.92507 17.9825 6.86594C17.46 6.80226 17.0291 6.85912 16.7014 7.03197C16.5914 7.08883 16.4906 7.15934 16.4012 7.24349C16.0483 7.57328 15.8787 8.08956 15.8604 8.75596C15.8581 8.79917 15.8718 8.85603 15.8718 8.90152C15.0056 9.2495 14.1875 9.62478 13.4564 10.041C12.6841 10.4799 12.0058 10.9621 11.3779 11.4693C12.8193 9.93637 14.4304 8.52852 16.2064 7.27306C16.2133 7.26851 16.2202 7.26168 16.227 7.25714C16.9375 6.78179 17.6685 6.31326 18.4316 5.86748ZM16.7702 7.15934C17.0681 7.00468 17.46 6.95009 17.9641 7.00922C18.4316 7.06608 19.0275 7.26168 19.6829 7.52779C19.5958 7.60512 19.5133 7.68245 19.4262 7.75977C18.191 8.06909 17.052 8.43072 16.0162 8.84011C16.0162 8.81737 16.007 8.78553 16.007 8.76051C16.0254 8.11685 16.1904 7.64151 16.5043 7.34811C16.5845 7.27533 16.6716 7.21165 16.7702 7.15934ZM23.0035 3.67269C23.1593 3.58854 23.3152 3.52258 23.4756 3.468C24.1631 3.23601 24.9125 3.27922 25.71 3.55442C25.5793 3.62265 25.451 3.67496 25.3204 3.74547C23.801 4.56653 22.2427 5.62867 20.6545 6.9137C21.3008 5.24202 22.0914 4.16851 23.0035 3.67269ZM24.0714 3.19734C26.1729 2.44907 28.3133 1.92596 30.4652 1.63029C30.6393 1.62346 30.7975 1.63711 30.967 1.63938C29.3331 1.96917 27.635 2.58325 25.891 3.46799C25.2585 3.23146 24.6489 3.13366 24.0714 3.19734ZM11.9943 10.6187C11.905 10.7097 11.8133 10.7984 11.7239 10.8893C11.8133 10.7984 11.9027 10.7097 11.9943 10.6187ZM13.532 10.1615C14.2448 9.75669 15.04 9.39506 15.8833 9.0539C15.8948 9.40416 15.9383 9.79081 16.0162 10.2138C13.0783 12.3859 10.6973 14.6125 8.80434 16.8642C8.98309 15.7338 9.48955 14.3214 10.3306 12.6361C10.4085 12.5451 10.4841 12.4564 10.562 12.3654C11.3962 11.5626 12.3702 10.8188 13.532 10.1615ZM16.0231 8.99477C16.9925 8.6104 18.0489 8.26924 19.1925 7.97129C19.1145 8.04407 19.0366 8.11231 18.9587 8.18509C17.9756 8.82192 17.0314 9.46557 16.1468 10.116C16.0712 9.70438 16.03 9.33138 16.0231 8.99477ZM25.3868 3.87056C25.5587 3.77731 25.726 3.71363 25.8956 3.62493C26.3173 3.78868 26.755 4.04114 27.1995 4.32999C25.2631 5.0214 23.2487 5.88567 21.1495 6.93644C21.012 6.96828 20.8723 7.00013 20.7325 7.03424C22.3206 5.74921 23.8743 4.69162 25.3868 3.87056ZM26.0743 3.53623C28.0383 2.55369 29.9312 1.94415 31.7508 1.66668C32.8508 1.86227 33.7377 2.13065 34.4435 2.45589C32.2206 2.7925 29.8625 3.38839 27.3714 4.26631C26.9314 3.97518 26.496 3.71135 26.0743 3.53623ZM20.132 7.32309C20.1389 7.32309 20.1458 7.32082 20.1527 7.31854C20.1091 7.35721 20.0633 7.39132 20.0175 7.42999C20.0564 7.39587 20.0908 7.35948 20.132 7.32309ZM9.95246 13.1023C9.21455 14.6694 8.76538 16.0022 8.63246 17.0757C8.08476 17.7375 7.56913 18.3994 7.10622 19.0658C7.31476 17.6488 7.76163 16.3092 8.456 15.0674C8.9258 14.3942 9.42767 13.7414 9.95246 13.1023ZM19.8364 7.59147C19.8433 7.59602 19.8548 7.59829 19.8616 7.60284C19.8227 7.62558 19.7883 7.65288 19.7493 7.6779C19.747 7.6779 19.7448 7.6779 19.7402 7.6779C19.7745 7.6506 19.8043 7.62104 19.8364 7.59147ZM20.5377 7.22756C20.5583 7.22302 20.5789 7.22074 20.5973 7.21392C20.5743 7.22757 20.5514 7.23894 20.5285 7.25031C20.5331 7.24349 20.5354 7.23666 20.5377 7.22756ZM20.2283 7.56645C20.2398 7.5619 20.2535 7.55735 20.265 7.55053C20.2627 7.55735 20.2604 7.5619 20.2581 7.56645C20.2489 7.56645 20.2375 7.56873 20.2283 7.56645ZM20.4552 7.45273C20.705 7.32309 20.9525 7.20027 21.2023 7.07518C23.9316 6.44063 26.5464 6.01304 29.0489 5.78105C29.2781 5.99484 29.5118 6.24503 29.741 6.48384C28.5104 6.98648 27.2798 7.54143 26.0629 8.14414C24.2295 7.84847 22.3458 7.65515 20.4093 7.57782C20.4231 7.53461 20.4391 7.49594 20.4552 7.45273ZM19.6691 7.90079C18.6012 9.46329 17.6639 11.0508 16.8481 12.6543C16.6602 12.1221 16.4998 11.6171 16.3737 11.1486C16.3554 11.0849 16.3485 11.0326 16.3325 10.9689C17.1941 10.0706 18.1085 9.17672 19.0779 8.28516C19.275 8.15779 19.4675 8.02815 19.6691 7.90079ZM19.9212 7.78252C19.9991 7.76432 20.0702 7.74385 20.1504 7.72566C20.1641 7.73248 20.1756 7.73703 20.1893 7.74385C20.1825 7.77342 20.1733 7.79389 20.1641 7.82346L20.1595 7.82346L20.1595 7.83028C19.9029 9.03798 19.77 10.3503 19.7287 11.7263C18.8556 12.2858 18.0008 12.8635 17.1643 13.4503C17.0841 13.2456 16.9925 13.0341 16.9191 12.8362C17.7808 11.1304 18.7731 9.44055 19.9212 7.78252ZM21.7568 6.79543C23.6933 5.84928 25.5564 5.06689 27.3508 4.43006C27.5318 4.5506 27.7083 4.64386 27.8916 4.78487C28.2216 5.03733 28.5585 5.33754 28.8977 5.64914C26.6106 5.86748 24.2318 6.24275 21.7568 6.79543ZM18.3193 8.77415C17.6112 9.44282 16.942 10.1183 16.2958 10.7938C16.2523 10.6141 16.2156 10.4413 16.1812 10.273C16.8664 9.77034 17.5745 9.26997 18.3193 8.77415ZM20.3291 7.80071C20.4093 7.83938 20.4712 7.8553 20.5537 7.89624C20.556 7.89851 20.5583 7.89851 20.5606 7.90079C21.2893 8.53079 22.025 9.20401 22.7606 9.8977C22.5452 10.0205 22.3275 10.1388 22.112 10.2662C21.4589 10.646 20.8104 11.0372 20.1733 11.4375C20.077 11.4989 19.9831 11.5626 19.8868 11.624C19.9327 10.298 20.0564 9.03116 20.3039 7.86667C20.3108 7.84165 20.3223 7.82573 20.3291 7.80071ZM20.5216 7.72566C22.3389 7.80071 24.1104 7.98494 25.8337 8.25559C24.8437 8.75141 23.8629 9.27679 22.8935 9.82265C22.1418 9.11531 21.3948 8.42844 20.6523 7.78707L20.6454 7.78252L20.6362 7.77342C20.595 7.75295 20.5629 7.74385 20.5216 7.72566ZM31.5377 1.50292C31.8929 1.46426 32.2481 1.42786 32.6033 1.40285C32.326 1.43014 32.0441 1.4779 31.7645 1.52111C31.737 1.51657 31.7141 1.50974 31.6866 1.50519L31.682 1.50519C31.6362 1.50064 31.5835 1.5052 31.5377 1.50292ZM16.0483 10.3731C16.0873 10.5527 16.1216 10.7301 16.1698 10.9235C13.3487 13.8824 11.1029 16.8846 9.37496 19.8755C9.10684 19.557 8.90976 19.1727 8.80892 18.6996C8.71267 18.2538 8.7058 17.7262 8.77684 17.128C10.672 14.8422 13.0714 12.5792 16.0483 10.3731ZM32.177 1.60754C34.3358 1.33689 36.3845 1.53021 38.305 2.11928C37.1477 2.14202 35.9468 2.23754 34.7048 2.41495C34.0402 2.08289 33.1991 1.81451 32.177 1.60754ZM27.5227 4.36638C30.0481 3.48164 32.4337 2.89257 34.6772 2.56733C35.5206 2.99492 36.0775 3.50893 36.3754 4.09345C36.4097 4.16168 36.4304 4.23446 36.4579 4.30269C36.3868 4.31862 36.3181 4.32999 36.2493 4.34591C35.021 4.6393 33.7743 5.00776 32.5231 5.43534C31.4093 5.46036 30.2681 5.52405 29.1016 5.62867C28.7258 5.27841 28.35 4.9509 27.981 4.66887C27.8252 4.55061 27.6762 4.471 27.5227 4.36638ZM16.211 11.1009C16.2179 11.1327 16.2225 11.1577 16.2293 11.1873C16.3691 11.6967 16.5525 12.2494 16.7633 12.8294C16.5318 13.2888 16.3095 13.7505 16.0964 14.2145C13.7337 15.9476 11.5681 17.7739 9.69809 19.6048C11.3779 16.7641 13.5389 13.9143 16.211 11.1009ZM7.84413 15.9863C7.39496 17.0075 7.0833 18.0787 6.92976 19.2022C6.92288 19.25 6.92288 19.3 6.9183 19.3478C4.97267 22.2113 3.77872 25.0929 3.2333 27.9291C3.92538 23.7078 5.4883 19.6344 7.84413 15.9863ZM8.60496 17.335C8.55913 17.8535 8.57746 18.3221 8.66455 18.7292C8.77684 19.2432 8.99226 19.6662 9.29246 20.0119C8.60496 20.6988 7.94955 21.3879 7.35601 22.0703C7.23684 22.2067 7.13372 22.3386 7.01913 22.4751C6.92747 21.4198 6.93892 20.3918 7.06038 19.3978C7.53017 18.7087 8.0435 18.0218 8.60496 17.335ZM34.927 2.52867C36.2516 2.34672 37.5212 2.26484 38.7495 2.26256C38.9718 2.33762 39.1964 2.4013 39.4164 2.48545C40.1658 2.78112 40.89 3.14275 41.5958 3.55442C39.9825 3.63857 38.3118 3.88193 36.6045 4.27085C36.5725 4.18897 36.5472 4.1071 36.506 4.02749C36.2127 3.45207 35.6947 2.94943 34.927 2.52867ZM29.2575 5.76513C30.22 5.68098 31.1733 5.61502 32.1014 5.58545C31.3658 5.84473 30.6279 6.12448 29.89 6.4247C29.6791 6.20409 29.466 5.96527 29.2575 5.76513ZM16.8343 13.0113C16.8962 13.1819 16.9718 13.3616 17.0406 13.539C16.8068 13.7028 16.5708 13.8642 16.3416 14.0303C16.4998 13.6891 16.6648 13.3502 16.8343 13.0113ZM22.1854 10.3912C22.4123 10.2593 22.6437 10.132 22.8729 10.0023C24.5252 11.5648 26.1843 13.2683 27.8343 15.0856C26.7733 15.7725 25.6687 16.432 24.5435 17.0393C23.1823 17.7762 21.8004 18.4289 20.4437 18.9975C20.0198 16.4548 19.8181 14.0325 19.8777 11.8059C20.0037 11.7263 20.1252 11.6399 20.2535 11.5603C20.8883 11.16 21.5345 10.7711 22.1854 10.3912ZM23.0035 9.92954C24.0187 9.3564 25.0477 8.80827 26.0858 8.29426C28.3316 8.66271 30.4858 9.19491 32.562 9.85449C32.8004 10.1797 33.041 10.505 33.2816 10.8484C31.8127 12.2653 29.9862 13.6914 27.9627 15.0083C26.315 13.191 24.6558 11.492 23.0035 9.92954ZM19.7195 11.9083C19.6691 14.1281 19.8777 16.5367 20.3016 19.0567C20.155 19.1158 20.0106 19.1727 19.8662 19.2295C18.7754 17.1621 17.8725 15.2607 17.217 13.5936C18.0329 13.0182 18.867 12.4564 19.7195 11.9083ZM26.315 8.18508C27.4883 7.61194 28.6708 7.07973 29.8533 6.59528C30.6943 7.4732 31.5514 8.50122 32.4177 9.66344C30.456 9.04935 28.4279 8.53989 26.315 8.18508ZM17.0933 13.68C17.7487 15.3426 18.6425 17.2349 19.7264 19.2887C17.5998 20.1279 15.5808 20.6988 13.8598 20.9012C14.4327 18.6973 15.2187 16.4934 16.2133 14.3123C16.5043 14.1008 16.7977 13.8893 17.0933 13.68ZM30.0023 6.53842C30.8548 6.19271 31.705 5.86748 32.5552 5.57636C33.9508 5.54679 35.3052 5.57635 36.6229 5.66506C36.5358 6.40878 36.2081 7.21846 35.6627 8.06681C35.225 8.74913 34.6383 9.45874 33.96 10.1729C33.5291 10.0205 33.0914 9.87268 32.6514 9.73167C31.7577 8.52169 30.8731 7.45045 30.0023 6.53842ZM15.9635 14.4988C15.0125 16.6231 14.2631 18.7701 13.7062 20.9149C12.9683 20.9945 12.2716 21.024 11.6689 20.949C10.9012 20.8557 10.2595 20.6328 9.77371 20.2644C9.67288 20.1893 9.58351 20.1006 9.49642 20.0119C11.371 18.1446 13.5641 16.2774 15.9635 14.4988ZM6.88621 19.6571C6.78767 20.6215 6.79226 21.6176 6.88851 22.6366C5.1858 24.6767 3.92767 26.6554 3.29517 28.4454C3.32038 28.3021 3.33643 28.1588 3.36163 28.0155C3.88413 25.2567 5.02997 22.4478 6.88621 19.6571ZM32.9997 5.4308C34.102 5.06689 35.1975 4.7462 36.2791 4.48692C36.357 4.46873 36.435 4.45963 36.5106 4.44143C36.6252 4.78259 36.6687 5.14422 36.6389 5.52404C35.4587 5.44444 34.2464 5.41487 32.9997 5.4308ZM39.2147 2.26939C41.9052 2.31033 44.3618 2.75611 46.571 3.55669C46.9881 3.7068 47.396 3.87056 47.7947 4.04569C48.1568 4.20262 48.5052 4.37319 48.8535 4.54832C46.7498 3.73409 44.3779 3.42933 41.8525 3.53395C41.0825 3.0768 40.2895 2.67423 39.4691 2.35127C39.3866 2.31715 39.2972 2.29896 39.2147 2.26939ZM36.6572 4.40732C38.4264 4.00702 40.1543 3.75456 41.8135 3.68178C43.4268 4.65067 44.9233 5.90841 46.296 7.39586C43.4131 6.42697 40.2391 5.78105 36.7856 5.53541C36.8154 5.14195 36.7764 4.7644 36.6572 4.40732ZM9.40017 20.1256C9.48955 20.2166 9.58121 20.3053 9.68434 20.3827C10.1954 20.7716 10.8645 20.999 11.6506 21.0945C12.2533 21.1696 12.9408 21.1446 13.6695 21.0718C12.6291 25.1475 12.2877 29.2118 12.4848 33.1374C12.3839 33.2443 12.2739 33.3512 12.1754 33.4604C11.9141 33.747 11.685 34.0358 11.4375 34.3224C9.37726 30.9972 7.91059 27.6152 7.28955 24.4151C7.87621 22.9937 8.57976 21.5608 9.40017 20.1256ZM9.02892 20.4827C8.35059 21.7063 7.75476 22.9254 7.24372 24.1377C7.15434 23.6464 7.08788 23.162 7.03976 22.6798C7.18413 22.5092 7.31476 22.3386 7.46601 22.1658C7.95184 21.6085 8.48122 21.0468 9.02892 20.4827ZM36.7672 5.67643C40.3079 5.92661 43.5552 6.59755 46.4908 7.60966C47.9941 9.27906 49.3325 11.2373 50.5104 13.3843C50.256 13.4139 50.0154 13.4298 49.7564 13.4662C47.797 13.746 45.6956 14.2327 43.5231 14.865C40.6631 13.0204 37.5143 11.4443 34.1066 10.2275C34.7712 9.5247 35.351 8.82191 35.7864 8.14414C36.3387 7.28215 36.6779 6.44972 36.7672 5.67415L36.7672 5.67643ZM6.90684 22.8413C6.96184 23.3576 7.03517 23.8738 7.13601 24.4015C5.68538 27.9268 4.92455 31.4021 4.75038 34.7318C3.92309 33.9949 3.33643 33.0214 3.04768 31.7637C3.03393 31.6909 3.03851 31.6091 3.02934 31.534C3.03393 30.8721 3.07059 30.2058 3.14393 29.5371C3.58392 27.5515 4.92226 25.2453 6.90684 22.839L6.90684 22.8413ZM42.0702 3.66359C45.1616 3.56351 48.0056 4.09117 50.3935 5.42624C51.5897 6.73401 52.0389 8.23511 51.8945 9.86813C50.256 8.94927 48.4891 8.15096 46.5916 7.49366C45.2097 5.96527 43.6995 4.66887 42.0702 3.66359ZM32.7958 9.92272C33.1533 10.0387 33.5039 10.1638 33.8568 10.2866C33.7102 10.439 33.5452 10.5914 33.387 10.746C33.19 10.464 32.9929 10.1934 32.7958 9.92272ZM7.19101 24.6608C7.84184 27.8313 9.29934 31.1655 11.3366 34.4429C10.7568 35.1253 10.216 35.8099 9.72559 36.499C8.56601 36.4194 7.51643 36.2124 6.61122 35.8553C5.96039 35.5983 5.38747 35.2617 4.89018 34.8501C5.0483 31.5658 5.78393 28.1429 7.19101 24.6608ZM13.8208 21.0581C15.5808 20.8603 17.6364 20.278 19.7975 19.4206C20.0839 19.9619 20.3773 20.5123 20.6889 21.0741C20.98 22.4774 21.3306 23.908 21.7316 25.3545C18.2758 27.7289 15.15 30.3149 12.6268 32.9896C12.4435 29.1072 12.7873 25.0861 13.8208 21.0559L13.8208 21.0581ZM34.0035 10.3435C37.3791 11.5421 40.4958 13.0978 43.3329 14.9173C41.3597 15.4973 39.3293 16.1978 37.2737 17.0256C36.0248 14.774 34.746 12.702 33.4718 10.8689C33.6506 10.6937 33.8362 10.5186 34.0035 10.3412L34.0035 10.3435ZM33.3641 10.9735C34.6291 12.7907 35.8964 14.8468 37.1362 17.0825C35.367 17.7967 33.5887 18.5995 31.8218 19.4706C30.582 17.9718 29.3285 16.5116 28.0635 15.1152C30.0756 13.8051 31.8975 12.3882 33.3641 10.9735ZM19.935 19.3637C20.0633 19.3137 20.1939 19.2614 20.3245 19.2068C20.4025 19.6662 20.5079 20.1347 20.5995 20.5987C20.3681 20.178 20.1527 19.7731 19.935 19.3637ZM20.4666 19.1477C21.8393 18.5745 23.2373 17.9127 24.6145 17.1689C25.7489 16.5548 26.865 15.8884 27.9352 15.1948C29.1979 16.589 30.4491 18.0423 31.6866 19.5366C31.0633 19.8459 30.44 20.1507 29.8212 20.4759C28.9687 20.9217 28.1254 21.3834 27.2889 21.861C25.7879 22.7184 24.3189 23.6214 22.8958 24.5607C22.1762 23.3553 21.4635 22.1567 20.831 21.0149C20.7004 20.3872 20.572 19.7617 20.4666 19.1477ZM2.86434 31.3134C2.86893 31.3793 2.87122 31.4453 2.88038 31.5113C2.85518 34.8205 3.6733 38.0183 5.1331 41.0046C5.40351 42.5352 5.79768 44.0159 6.31101 45.4396C6.31101 46.1242 6.38664 46.8043 6.53102 47.4729C3.74664 42.3533 2.57559 36.7765 2.86434 31.3134ZM20.9227 21.4857C21.4933 22.5047 22.135 23.5736 22.7743 24.6426C22.465 24.8473 22.1648 25.0565 21.8623 25.2635C21.5093 23.9898 21.1885 22.7275 20.9227 21.4857ZM3.04309 32.28C3.38226 33.3763 3.95747 34.2542 4.74122 34.9228C4.65643 36.8288 4.76414 38.687 5.04601 40.4837C3.84059 37.8818 3.13476 35.123 3.04309 32.28ZM46.7841 7.70973C48.606 8.35566 50.3064 9.13577 51.8831 10.0251C51.8579 10.2616 51.8189 10.5004 51.7662 10.7438C51.5898 11.5853 51.2391 12.4609 50.7877 13.3525C50.7487 13.357 50.7075 13.3616 50.6685 13.3661C49.5272 11.276 48.237 9.35639 46.7841 7.70973ZM50.7854 5.67642C53.8562 7.69608 56.2968 10.4959 58.1118 13.7778C57.9147 13.7141 57.7177 13.6504 57.5114 13.5981C57.367 13.5617 57.202 13.5458 57.0531 13.514C55.5543 12.1926 53.8791 10.9962 52.0343 9.94773C52.1856 8.3966 51.8006 6.95008 50.7854 5.67642ZM51.3995 5.91296C55.5085 8.40342 59.072 11.8719 61.712 16.2023C60.9145 15.1061 59.755 14.3282 58.3112 13.8369C56.5833 10.6755 54.2825 7.94172 51.3995 5.91296ZM27.3623 21.9929C28.1964 21.5153 29.0398 21.0513 29.89 20.6055C30.5156 20.2757 31.1481 19.9642 31.7806 19.6526C33.6185 21.8815 35.3968 24.2082 37.1202 26.5553C35.5939 27.5538 34.0081 28.509 32.3902 29.4074C30.7837 30.3013 29.1475 31.1337 27.5112 31.8956C26.441 30.2922 25.4075 28.6933 24.4243 27.1194C23.9087 26.2915 23.4527 25.5 22.9691 24.6926C24.3923 23.7533 25.8612 22.8481 27.3623 21.9929ZM31.9112 19.5866C33.6735 18.7223 35.4427 17.9263 37.205 17.2144C37.5716 17.8763 37.936 18.5449 38.2935 19.2318C39.107 20.7875 39.9 22.4114 40.6654 24.0672C39.5677 24.8882 38.4264 25.6933 37.2393 26.4712C35.5206 24.1286 33.7468 21.811 31.9112 19.5866ZM22.8477 24.7745C23.3312 25.5819 23.785 26.3711 24.3006 27.1967C25.2791 28.7661 26.3081 30.3627 27.3737 31.9593C26.4158 32.4028 25.4602 32.8122 24.5091 33.2034C23.7139 31.1496 22.9829 29.0822 22.3618 27.033C22.1968 26.4917 22.0525 25.9549 21.9012 25.4182C22.2152 25.2021 22.5268 24.986 22.8477 24.7745ZM4.8833 35.032C5.37143 35.4232 5.92601 35.7462 6.55164 35.9941C7.45226 36.3466 8.4858 36.5581 9.62247 36.64C8.0733 38.8416 6.98476 41.0637 6.54018 43.2403C6.07497 42.492 5.64872 41.7278 5.2683 40.9454C4.93372 39.044 4.79851 37.0653 4.8833 35.032ZM21.7752 25.5069C21.9218 26.0277 22.0616 26.5485 22.2198 27.0739C22.8431 29.13 23.5741 31.1997 24.3693 33.2557C20.5583 34.8068 16.8412 35.9145 13.6031 36.3398C13.3671 36.3716 13.1493 36.3784 12.9202 36.4012C12.7827 35.3459 12.691 34.2746 12.6337 33.192C15.1545 30.4991 18.2964 27.8972 21.7752 25.5069ZM37.3425 17.1576C39.4325 16.3183 41.495 15.6064 43.4979 15.0219C44.9118 15.9362 46.2479 16.9165 47.5152 17.9468C45.6841 19.9823 43.3856 22.0248 40.7845 23.9785C40.0214 22.3295 39.2331 20.7124 38.4241 19.1613C38.0666 18.479 37.7045 17.8149 37.3425 17.1576ZM52.0183 10.1024C53.76 11.0963 55.355 12.2244 56.7872 13.4662C55.0937 13.141 53.1275 13.1091 50.9595 13.3366C51.395 12.4655 51.7341 11.6058 51.9083 10.7756C51.9564 10.5504 51.9908 10.3253 52.016 10.1024L52.0183 10.1024ZM43.6881 14.9696C45.8102 14.3578 47.8635 13.8847 49.7748 13.6118C50.052 13.5708 50.3133 13.5549 50.5837 13.5231C50.6066 13.564 50.6318 13.6004 50.6525 13.6413C50.0566 14.7535 49.2775 15.8907 48.3241 17.0393C48.1041 17.3031 47.852 17.5692 47.616 17.8353C46.3762 16.8255 45.0677 15.8657 43.6881 14.9696ZM12.4893 33.3399C12.5466 34.3451 12.6337 35.3413 12.7621 36.3239C12.3289 35.703 11.9073 35.082 11.5154 34.4543C11.7721 34.1564 12.0104 33.8561 12.2808 33.5582C12.3473 33.4854 12.4229 33.4126 12.4893 33.3399ZM11.4146 34.5749C11.8041 35.1935 12.2212 35.8121 12.6498 36.4239C11.6873 36.5126 10.7614 36.5536 9.90434 36.5058C10.3696 35.8599 10.8714 35.2162 11.4146 34.5749ZM9.79434 36.6514C10.7087 36.7082 11.7056 36.6605 12.7414 36.5627C12.7598 36.5877 12.7758 36.615 12.7964 36.64C13.5573 42.2168 15.4341 47.3729 18.0443 51.6578C16.8 51.7943 15.6289 51.8261 14.5243 51.7761C12.5054 50.25 10.6583 48.5578 9.07705 46.7042C8.1833 45.6557 7.37435 44.5572 6.65476 43.4245C7.07872 41.1979 8.19018 38.9167 9.79434 36.6514ZM50.8862 13.4912C53.1802 13.2456 55.2495 13.282 56.9981 13.6504C57.7429 14.3123 58.4418 15.0037 59.0995 15.7201C59.4685 16.5298 59.8054 17.3645 60.1056 18.2174C60.7725 20.112 61.2491 22.1043 61.5768 24.1422C60.9581 25.5046 60.117 26.9033 59.0285 28.3225C58.3777 28.293 57.7039 28.2952 56.9958 28.3453C56.4023 27.3969 55.756 26.4598 55.0593 25.5341C54.4085 22.4501 53.4918 19.4501 52.3025 16.6822C51.8487 15.6246 51.3468 14.6171 50.8198 13.6345C50.845 13.5868 50.861 13.539 50.8862 13.4912ZM50.7418 13.8006C51.246 14.749 51.7295 15.7247 52.1672 16.7413C53.3131 19.4069 54.2091 22.2863 54.8554 25.2498C52.8639 22.6479 50.4691 20.1711 47.7306 17.9263C47.9666 17.6602 48.221 17.3941 48.441 17.128C49.3714 16.0067 50.1483 14.8923 50.7418 13.8006ZM12.9362 36.5445C13.1677 36.5195 13.3877 36.5149 13.6237 36.4831C16.8802 36.0555 20.6064 34.9479 24.4243 33.3922C25.4716 36.085 26.6473 38.7415 27.9008 41.2911C25.6893 42.9946 23.6956 44.7573 22.0433 46.5222C18.6471 43.5883 15.5648 40.2722 13.0943 36.8174C13.0393 36.7424 12.9958 36.665 12.9431 36.5922C12.9408 36.5763 12.9385 36.5604 12.9362 36.5445ZM12.9752 36.9061C15.4525 40.3677 18.5371 43.6906 21.9402 46.6314C21.3764 47.2387 20.8402 47.8459 20.3612 48.4486C19.511 49.5222 18.8098 50.5866 18.2735 51.6237C18.2506 51.626 18.2254 51.6305 18.2025 51.6351C15.6289 47.4297 13.7635 42.3783 12.9752 36.9061ZM5.36455 41.4799C5.7106 42.1486 6.08872 42.8082 6.49664 43.4541C6.3981 43.9886 6.34539 44.5139 6.32476 45.0416C5.92601 43.8908 5.60518 42.7013 5.36455 41.4799ZM47.6298 18.0377C50.4508 20.3462 52.8983 22.9049 54.9195 25.5864C55.1235 26.5576 55.2954 27.5333 55.442 28.5159C55.2518 28.5409 55.0731 28.5523 54.8783 28.5841C51.5966 29.089 47.8841 30.2603 44.1006 31.8615C43.1083 29.2528 42.0152 26.6418 40.851 24.1149C43.4704 22.1498 45.7827 20.0915 47.6298 18.0377ZM57.2547 13.6982C57.3258 13.7141 57.406 13.7209 57.4747 13.7391C57.7268 13.8028 57.972 13.8779 58.2104 13.9575C58.4441 14.3873 58.6687 14.824 58.8795 15.2675C58.3662 14.7285 57.8208 14.2054 57.2547 13.6982ZM58.4189 14.0325C60.0575 14.6239 61.3041 15.5905 62.0375 16.9938C62.5095 18.0082 62.6952 19.0953 62.6356 20.2394C61.68 18.6223 60.5364 17.0825 59.2187 15.6451C58.9689 15.097 58.7008 14.5579 58.4189 14.0325ZM24.5618 33.3399C25.5243 32.9464 26.4891 32.5302 27.4562 32.0821C28.8885 34.2291 30.385 36.3511 31.8952 38.439C30.5454 39.3329 29.2506 40.2563 28.0177 41.2002C26.7687 38.6619 25.6046 36.0191 24.5618 33.3399ZM40.7273 24.2036C41.8868 26.7214 42.9754 29.321 43.9631 31.9206C43.2298 32.2322 42.4941 32.562 41.7585 32.9077C40.3629 30.8085 38.8664 28.6933 37.3264 26.5917C38.502 25.8184 39.6364 25.0201 40.7273 24.2036ZM6.61351 43.6451C7.31247 44.7346 8.1008 45.7899 8.96247 46.7997C10.5048 48.6079 12.306 50.2659 14.2677 51.767C13.4014 51.7147 12.5673 51.6237 11.8087 51.4417C10.5987 51.1529 9.54456 50.6889 8.66226 50.043C7.78685 48.5897 7.04435 47.0408 6.45539 45.4123C6.45539 44.8278 6.51039 44.241 6.61351 43.6451ZM27.5937 32.0207C29.2277 31.2588 30.8593 30.4264 32.4635 29.5348C34.0837 28.6341 35.6741 27.6766 37.205 26.6759C38.7404 28.7729 40.23 30.879 41.621 32.9714C39.7235 33.863 37.8283 34.841 35.9812 35.9054C34.6268 36.6855 33.3068 37.5134 32.0189 38.3594C30.5133 36.2784 29.0237 34.1609 27.5937 32.0207ZM6.46914 45.8672C6.99393 47.2409 7.62185 48.5578 8.3506 49.8065C7.73414 49.2993 7.20935 48.692 6.79914 47.9733C6.79685 47.9688 6.79456 47.9642 6.79226 47.9597C6.79226 47.9574 6.78997 47.9574 6.78997 47.9574C6.78997 47.9551 6.78997 47.9551 6.78768 47.9528C6.59976 47.2682 6.50122 46.5723 6.46914 45.8672ZM59.3814 16.0363C60.6258 17.435 61.712 18.927 62.6172 20.4873C62.5462 21.3538 62.3422 22.2476 62.0054 23.1688C61.9183 23.403 61.7922 23.6464 61.6891 23.8852C61.3614 21.9224 60.887 20.0028 60.2431 18.1742C59.9841 17.4441 59.6885 16.7368 59.3814 16.0363ZM62.2208 17.0575C64.7233 21.4743 65.9952 26.2506 66.1602 31.0109C65.892 28.152 65.1335 25.3158 63.8937 22.6297C63.5522 21.8928 63.1764 21.1673 62.7639 20.4554C62.8579 19.2614 62.6906 18.1196 62.2208 17.0575ZM7.61268 49.3175C7.89685 49.62 8.2131 49.8929 8.54768 50.1408C8.96476 50.8299 9.40706 51.5009 9.88143 52.1468C10.7889 53.3841 11.8064 54.5304 12.9087 55.588C10.9058 53.7775 9.11831 51.6806 7.61268 49.3175ZM8.86393 50.366C9.70268 50.9186 10.6766 51.3235 11.7721 51.585C12.5993 51.7829 13.5137 51.8784 14.4648 51.9239C15.3975 52.6267 16.36 53.2954 17.3637 53.9163C17.2927 54.1915 17.2308 54.4644 17.1873 54.7328C16.9031 56.5318 17.3271 58.1921 18.6058 59.5954C15.2256 57.7464 12.2854 55.1717 10.0006 52.0604C9.59956 51.5145 9.22372 50.9459 8.86393 50.366ZM62.7456 20.7283C63.11 21.372 63.4514 22.0247 63.7585 22.6889C65.2275 25.8707 66.0227 29.2641 66.1143 32.653C65.4566 30.7402 64.077 29.5075 62.1887 28.8638C62.136 27.2763 61.971 25.7047 61.7235 24.1559C61.8633 23.842 62.026 23.5281 62.1383 23.2188C62.45 22.3682 62.6562 21.5358 62.7456 20.7283ZM36.0523 36.0327C37.9062 34.966 39.8037 33.9858 41.7058 33.0919C43.2595 35.4368 44.662 37.7181 45.966 39.9356C44.0868 41.207 42.1343 42.4283 40.1291 43.561C39.1483 44.1182 38.156 44.6481 37.1591 45.1644C35.4931 43.072 33.795 40.8112 32.106 38.48C33.3893 37.6339 34.7025 36.8106 36.0523 36.0327ZM31.98 38.5596C33.6643 40.8886 35.3602 43.1402 37.0239 45.2304C35.2089 46.1629 33.3825 47.0158 31.5652 47.7845C31.5285 47.7231 31.4896 47.6662 31.4529 47.6048C30.291 45.6352 29.1612 43.5223 28.0841 41.3366C29.3216 40.3859 30.6233 39.458 31.9777 38.5596L31.98 38.5596ZM41.841 33.0328C42.5675 32.6916 43.2939 32.3641 44.0181 32.0571C44.976 34.5839 45.8216 37.104 46.5458 39.5421C46.3946 39.6467 46.241 39.7514 46.0898 39.8537C44.7881 37.643 43.3879 35.3686 41.841 33.0328ZM44.1533 32.0025C47.9277 30.4036 51.6333 29.2323 54.8989 28.7274C55.0914 28.6978 55.2702 28.6864 55.4604 28.6614C55.6208 29.7531 55.7423 30.8448 55.8293 31.9434C53.265 34.5271 50.1185 37.0789 46.6741 39.4557C45.9523 37.0266 45.1066 34.518 44.1533 32.0025ZM55.1235 25.8753C55.7308 26.6941 56.2991 27.5242 56.8262 28.3612C56.4252 28.3908 56.0058 28.4476 55.5887 28.5022C55.4558 27.6198 55.3022 26.7464 55.1235 25.8753ZM27.9627 41.4299C29.0398 43.6087 30.165 45.7125 31.3246 47.6753C31.3589 47.7322 31.391 47.7868 31.4254 47.8437C29.6562 48.5874 27.9077 49.2401 26.1958 49.7951C24.8093 48.8057 23.4573 47.7459 22.151 46.6223C23.7896 44.8733 25.7673 43.122 27.9627 41.4299ZM22.0456 46.7269C23.3289 47.83 24.6581 48.874 26.0193 49.8497C23.8881 50.5343 21.8164 51.0778 19.8708 51.4099C19.3873 51.4918 18.9243 51.5418 18.4546 51.601C18.9793 50.6025 19.6531 49.579 20.4735 48.5419C20.9502 47.9392 21.4818 47.3342 22.0456 46.7269ZM61.6112 24.4174C61.8335 25.8662 61.9848 27.3332 62.0352 28.8161C61.1827 28.5432 60.2225 28.3976 59.1889 28.3385C60.1995 27.0125 61.0062 25.7002 61.6112 24.4174ZM55.6093 28.6455C56.047 28.5909 56.4916 28.5272 56.9133 28.4954C57.1998 28.9548 57.477 29.4165 57.7383 29.8782C57.6604 29.9692 57.5962 30.0579 57.516 30.1489C57.0325 30.697 56.51 31.2474 55.9714 31.7955C55.8843 30.7425 55.7629 29.694 55.6093 28.6455ZM14.7168 51.933C15.7916 51.9694 16.9237 51.9262 18.1223 51.7897C18.1337 51.8102 18.1452 51.8307 18.1566 51.8489C17.8335 52.5039 17.5837 53.143 17.405 53.773C16.4768 53.1976 15.5831 52.5767 14.7168 51.933ZM57.0852 28.4908C57.72 28.4499 58.3318 28.4385 58.9185 28.459C58.5816 28.8911 58.2127 29.3255 57.8414 29.7577C57.6008 29.3346 57.3487 28.9116 57.0852 28.4908ZM59.0927 28.4749C60.172 28.5295 61.1689 28.6864 62.0466 28.973C62.1383 32.0298 61.845 35.1139 61.2125 38.1001C60.6968 35.9054 59.8718 33.6537 58.7466 31.4112C58.4923 30.9063 58.2012 30.4013 57.917 29.8964C58.325 29.4211 58.7283 28.948 59.0927 28.4749ZM18.3698 51.7556C18.8739 51.6942 19.3781 51.6396 19.9006 51.5486C21.8829 51.2098 23.9958 50.6548 26.1683 49.9543C27.3462 50.7935 28.5402 51.5964 29.7548 52.3197C31.5491 53.3886 33.371 54.3029 35.1929 55.0671C34.0196 56.3021 33.1373 57.5007 32.6904 58.5902C32.5987 58.8153 32.5323 59.0359 32.4773 59.252C28.6227 58.7266 24.8071 57.5394 21.2527 55.8472C20.2466 54.6805 19.3002 53.4068 18.4362 52.0331C18.3973 51.974 18.3675 51.908 18.3285 51.8489C18.3446 51.817 18.3537 51.7874 18.3698 51.7556ZM18.2575 52.0172C18.2758 52.0467 18.2918 52.0808 18.3102 52.1127C19.1214 53.3977 20.0083 54.5872 20.941 55.6949C19.7768 55.1263 18.6379 54.5213 17.5402 53.8458C17.7075 53.2522 17.9573 52.6381 18.2575 52.0172ZM57.8162 30.017C58.0912 30.5037 58.3708 30.9881 58.616 31.4771C59.7916 33.822 60.6304 36.1737 61.1345 38.455C61.0223 38.9553 60.926 39.4602 60.7931 39.9561C60.3806 41.5049 59.8466 43.0083 59.2325 44.4639C58.3777 43.9249 57.1929 43.7543 55.8041 43.8657C55.662 43.8771 55.5085 43.9089 55.3641 43.9271C55.6896 42.3078 55.9233 40.6429 56.0448 38.9417C56.2075 36.6627 56.1708 34.3292 55.9875 31.9957C56.565 31.4134 57.115 30.8266 57.6306 30.2444C57.697 30.1671 57.752 30.092 57.8162 30.0147L57.8162 30.017ZM55.8477 32.1299C56.0218 34.4156 56.0539 36.7014 55.8958 38.9326C55.7743 40.6452 55.5383 42.3191 55.2106 43.9476C53.4666 44.1728 51.4454 44.7891 49.3279 45.6807C48.7458 44.539 48.1202 43.3631 47.4304 42.1326C47.2631 41.4958 47.0935 40.8567 46.9056 40.204C46.8483 40.0061 46.7818 39.8014 46.7245 39.6013C50.1506 37.2382 53.281 34.7022 55.8477 32.1299ZM17.4989 53.9936C18.6791 54.7169 19.9075 55.3742 21.1679 55.9746C23.0837 58.1921 25.2356 59.9866 27.525 61.2944C25.5129 61.5173 23.7093 61.5037 22.2152 61.2239C21.106 60.8213 20.0335 60.3414 18.9977 59.7979C17.5196 58.3627 17.0383 56.6501 17.3362 54.7533C17.3775 54.5031 17.4325 54.2483 17.4989 53.9936ZM62.1956 29.0231C64.077 29.6804 65.4268 30.9085 66.0387 32.8622C65.9677 36.3238 64.3658 39.7445 61.8037 42.9583C61.7923 41.5072 61.6227 40.0061 61.2858 38.4663C61.9687 35.3823 62.2873 32.189 62.1956 29.0231ZM26.3493 49.8997C28.0383 49.347 29.7616 48.6988 31.5056 47.9665C32.931 50.3569 34.3908 52.5312 35.8368 54.4235C35.6535 54.6009 35.4748 54.7783 35.3052 54.9534C33.4718 54.1869 31.6385 53.2681 29.8327 52.1923C28.6525 51.4918 27.4929 50.7117 26.3493 49.8997ZM31.6454 47.9073C33.465 47.1386 35.296 46.2811 37.1156 45.3464C37.2393 45.5033 37.3677 45.6784 37.4914 45.8331C38.7473 47.3956 39.9641 48.8467 41.1375 50.1749C39.1804 51.5009 37.3929 52.9155 35.9446 54.3143C34.5123 52.4379 33.0593 50.2795 31.6454 47.9073ZM46.5962 39.69C46.6512 39.8742 46.7108 40.063 46.7635 40.2472C46.8987 40.7157 47.0156 41.1706 47.1416 41.6323C46.8368 41.0955 46.4885 40.5338 46.1677 39.9834C46.3098 39.8856 46.4541 39.7878 46.5962 39.69ZM46.0439 40.0652C46.4404 40.7407 46.8735 41.439 47.2425 42.0963C47.2585 42.1258 47.2723 42.1531 47.2883 42.1827C47.6504 43.5587 47.9598 44.8892 48.2141 46.172C46.8368 46.802 45.4412 47.523 44.0731 48.3213C43.4864 48.6624 42.9043 49.0172 42.3337 49.3811C41.9693 49.6131 41.6164 49.8519 41.2612 50.0907C40.0879 48.7602 38.8664 47.3069 37.6083 45.7421C37.4914 45.5943 37.3677 45.4282 37.2508 45.2804C38.2408 44.7687 39.2285 44.241 40.2071 43.6883C42.21 42.5534 44.1648 41.3343 46.0439 40.0652ZM21.5185 56.1429C24.9858 57.7577 28.696 58.8858 32.4429 59.3998C32.3696 59.7455 32.3489 60.0776 32.3879 60.3937C31.4552 60.6235 30.5408 60.8327 29.6608 60.9896C29.0123 61.1056 28.3821 61.1966 27.7679 61.2694C25.5244 60.0162 23.4137 58.2831 21.5185 56.1429ZM47.6023 42.7627C48.166 43.7816 48.7023 44.78 49.1904 45.7376C48.9108 45.8558 48.6335 45.9786 48.3516 46.106C48.1339 45.0234 47.8933 43.9135 47.6023 42.7627ZM66.1258 33.5878C66.1235 33.7811 66.1166 33.9721 66.1098 34.1654C65.9631 36.3079 65.601 38.4299 65.0166 40.4974C65.012 40.5065 65.0098 40.5178 65.0075 40.5269C64.1939 43.0651 62.9198 45.4987 61.1895 47.7254C61.6112 46.3107 61.7968 44.7846 61.8037 43.1925C64.2695 40.1426 65.86 36.8947 66.1235 33.5878L66.1258 33.5878ZM44.1487 48.4464C45.5008 47.6571 46.8827 46.9475 48.2416 46.3244C48.7664 48.9968 49.0529 51.4349 49.0254 53.475C48.0743 54.0345 47.105 54.5667 46.1287 55.0762C44.7285 53.8412 43.1083 52.1809 41.3598 50.2045C41.7104 49.9702 42.0541 49.7314 42.4116 49.504C42.9823 49.1401 43.5643 48.7875 44.1487 48.4464ZM61.2056 38.8211C61.5081 40.304 61.657 41.7483 61.657 43.1425C61.1208 43.802 60.5525 44.4571 59.9406 45.0985C59.7733 44.8892 59.5716 44.7164 59.3562 44.5617C59.9795 43.0879 60.5204 41.564 60.9398 39.9947C61.0429 39.6081 61.1139 39.2123 61.2056 38.8211ZM41.2383 50.2863C42.9754 52.2514 44.5864 53.9094 45.9912 55.149C45.7873 55.2559 45.5833 55.3673 45.3771 55.472C44.3068 56.0133 43.2252 56.5136 42.1458 56.9935C40.4431 56.7138 38.7014 56.2407 36.9483 55.6061C36.6458 55.2354 36.3387 54.8351 36.0339 54.4371C37.4823 53.0361 39.2766 51.6169 41.2383 50.2863ZM48.3814 46.2561C48.677 46.1242 48.9704 45.9968 49.2637 45.8717C50.3568 48.021 51.246 49.9907 51.8831 51.6896C50.9962 52.2764 50.0956 52.8473 49.1721 53.3932C49.1927 51.3417 48.9062 48.9149 48.3814 46.2561ZM49.4012 45.8149C51.4866 44.9392 53.4712 44.3274 55.1808 44.0977C54.6743 46.5495 53.9296 48.8785 52.9212 50.9982C52.6233 51.2052 52.3162 51.4031 52.0114 51.6055C51.3743 49.9065 50.4852 47.9505 49.4012 45.8149ZM22.2083 61.374C22.2175 61.3763 22.2266 61.3786 22.2358 61.3786C25.0454 62.3907 28.0658 62.9388 31.2054 62.932C31.5102 63.0275 31.815 63.1139 32.1221 63.189C33.3206 63.4846 34.5398 63.6325 35.7704 63.6325C31.1068 63.869 26.4754 63.0866 22.2083 61.374ZM23.0058 61.4923C24.3946 61.656 25.9896 61.6242 27.7381 61.4172C28.7235 61.9631 29.7273 62.4339 30.7562 62.7841C28.0612 62.7432 25.4556 62.2951 23.0058 61.4923ZM35.9262 54.544C36.1737 54.8647 36.4235 55.1899 36.6687 55.4947C36.2654 55.3446 35.8621 55.1808 35.4587 55.0148C35.61 54.8579 35.7658 54.7009 35.9262 54.544ZM35.3441 55.124C35.8483 55.3332 36.3525 55.547 36.8543 55.729C37.6266 56.6706 38.3898 57.503 39.1346 58.2467C37.8948 58.7243 36.6618 59.1587 35.4541 59.5363C34.51 59.4931 33.5635 59.4021 32.6193 59.277C32.6721 59.0723 32.7339 58.8631 32.8233 58.6447C33.2633 57.5712 34.1571 56.3658 35.3441 55.124ZM55.3366 44.0773C55.4948 44.0568 55.6643 44.0272 55.8179 44.0158C57.2021 43.9044 58.357 44.0818 59.1752 44.6095C58.8406 45.3896 58.4854 46.1583 58.0935 46.902C56.5902 48.2758 54.9333 49.5927 53.1687 50.8276C54.1335 48.7466 54.8439 46.4676 55.3366 44.0773ZM37.1546 55.8427C38.7518 56.4067 40.34 56.832 41.9006 57.1027C41.0275 57.4848 40.1589 57.8532 39.2904 58.1921C38.5914 57.4984 37.8787 56.7161 37.1546 55.8427ZM27.981 61.3945C28.5356 61.324 29.1062 61.2375 29.6883 61.1329C30.566 60.9783 31.4781 60.7713 32.4062 60.5416C32.5162 61.1215 32.8371 61.631 33.3962 62.0427C33.6781 62.2496 34.0218 62.4271 34.4252 62.584C33.3504 62.7159 32.2871 62.7864 31.2352 62.791C30.1283 62.4475 29.0398 61.9676 27.981 61.3945ZM32.5873 59.4226C33.4168 59.5317 34.2441 59.6068 35.0737 59.6568C34.2098 59.9207 33.3664 60.1481 32.5323 60.3574C32.4979 60.064 32.5185 59.7524 32.5873 59.4226ZM59.3012 44.7027C59.5006 44.8483 59.6839 45.012 59.8375 45.2053C59.7779 45.2668 59.7298 45.3282 59.6702 45.3896C59.276 45.7921 58.8589 46.1879 58.4373 46.5836C58.7489 45.9695 59.0285 45.3373 59.3012 44.7027ZM61.6548 43.3745C61.6318 44.9802 61.4279 46.5199 60.9741 47.9346C60.9604 47.9801 60.9421 48.0256 60.926 48.0711C60.8206 48.203 60.7037 48.3304 60.5937 48.46C60.777 47.0294 60.5639 45.9627 60.0254 45.2167C60.6052 44.614 61.1437 43.9976 61.6548 43.3745ZM32.5483 60.5075C33.5016 60.2687 34.471 59.998 35.4633 59.6864C37.1614 59.766 38.8504 59.7137 40.5164 59.5158C41.0046 59.9275 41.4858 60.2982 41.951 60.5962C39.5356 61.5878 37.1271 62.2224 34.7621 62.5408C34.2441 62.3702 33.8156 62.1655 33.4856 61.9244C32.9471 61.5309 32.6491 61.0533 32.5483 60.5075ZM59.9223 45.3304C60.447 46.0764 60.651 47.1591 60.4218 48.6624C58.4579 50.9459 55.9714 52.9792 52.9441 54.6532C52.9052 54.4826 52.8777 54.3211 52.8296 54.1392C55.0043 52.1127 56.7987 49.6768 58.2195 46.9862C58.7581 46.4949 59.2783 45.9968 59.7756 45.4897C59.826 45.4373 59.8695 45.3828 59.9223 45.3304ZM64.1183 43.1834C63.1352 45.7535 61.806 48.2075 60.156 50.4706L60.156 50.4637C60.2087 50.2909 60.2454 50.1317 60.2889 49.9657C60.5937 49.3766 60.8504 48.7602 61.0635 48.1188C62.3102 46.5677 63.3254 44.9097 64.1183 43.1834ZM35.8621 59.559C36.9758 59.202 38.1056 58.8062 39.2446 58.365C39.6227 58.7357 39.9962 59.07 40.3629 59.3839C38.8779 59.5522 37.3723 59.6114 35.8621 59.559ZM57.9056 47.2659C56.5352 49.7837 54.8279 52.0604 52.786 53.98C52.66 53.5137 52.5064 53.0088 52.3231 52.4789C52.5752 52.0285 52.8135 51.5645 53.0404 51.0915C54.7775 49.886 56.4091 48.6056 57.9056 47.2659ZM39.4027 58.3058C40.3216 57.9465 41.2452 57.553 42.1687 57.1436C44.2358 57.4757 46.2479 57.528 48.1568 57.2505C48.1087 57.2824 48.0629 57.3142 48.0171 57.3461C45.6475 58.3923 43.1381 59.0496 40.5646 59.3589C40.1841 59.0359 39.7968 58.6902 39.4027 58.3036L39.4027 58.3058ZM31.7004 62.9183C32.6996 62.8979 33.7125 62.8228 34.7346 62.6863C35.6879 63.0002 36.9941 63.1685 38.6098 63.2026C36.435 63.637 34.2648 63.5665 32.1564 63.048C32.0029 63.0093 31.8516 62.9615 31.7004 62.9183ZM42.4208 57.0345C43.4314 56.5819 44.4421 56.1088 45.4435 55.6016C45.6658 55.4902 45.8858 55.3673 46.1081 55.2513C46.9881 56.0201 47.7856 56.6273 48.4754 57.0231C48.4593 57.0367 48.441 57.0481 48.425 57.0618C46.5183 57.3734 44.4993 57.3506 42.4208 57.0345ZM52.7975 51.253C52.6256 51.6055 52.4446 51.9535 52.2566 52.2946C52.1925 52.115 52.1329 51.9353 52.0641 51.7465C52.3093 51.585 52.5545 51.419 52.7975 51.253ZM51.9358 51.8329C52.016 52.0513 52.087 52.2628 52.1581 52.472C51.3445 53.9231 50.3935 55.2559 49.3027 56.4431C49.1239 56.575 48.9406 56.6979 48.7596 56.8252C48.7618 56.8184 48.7641 56.8116 48.7664 56.8047C48.7664 56.8025 48.7641 56.8002 48.7641 56.7979C49.0254 55.8768 49.156 54.7828 49.1789 53.5569C50.1162 53.0042 51.0352 52.4288 51.9358 51.8329ZM46.2433 55.1786C47.1829 54.6873 48.1133 54.1778 49.0277 53.6411C49.0025 54.8283 48.8718 55.8791 48.6221 56.7638L48.6221 56.7684L48.6175 56.7706C48.6083 56.8252 48.5923 56.8639 48.5808 56.9185C47.9071 56.5341 47.1164 55.9405 46.2433 55.1786ZM52.2268 52.6563C52.3987 53.1635 52.5454 53.6456 52.6623 54.0914C51.9771 54.7282 51.2506 55.3218 50.4898 55.8722C50.2285 55.9882 49.9673 56.1065 49.6991 56.218C50.6525 55.1353 51.4958 53.9436 52.2268 52.6563ZM35.0783 62.6431C37.3952 62.3065 39.7487 61.6651 42.1091 60.6871C42.5629 60.9669 43.0052 61.1943 43.4314 61.3558C42.0541 62.1518 40.6631 62.7159 39.2675 63.0616C37.5189 63.0684 36.1073 62.932 35.0783 62.6431ZM40.7135 59.4931C42.9708 59.2111 45.1731 58.6607 47.2814 57.8169C45.5673 58.9086 43.8416 59.8092 42.1183 60.5279C42.1023 60.5166 42.0862 60.512 42.0702 60.5006C41.6302 60.2209 41.1764 59.8752 40.7135 59.4931ZM60.7931 48.4464C60.69 48.7261 60.5777 49.0036 60.4562 49.2742C60.4952 49.0855 60.5364 48.8921 60.5662 48.7125C60.6418 48.6238 60.7175 48.5351 60.7931 48.4464ZM60.3691 48.9467C60.3141 49.2492 60.2408 49.5699 60.1537 49.9042C58.7902 52.5494 56.4871 54.6554 53.1412 55.9246C53.1275 55.7563 53.1275 55.6016 53.1 55.4174C53.0702 55.2263 53.0152 55.0057 52.9716 54.7987C55.9485 53.1612 58.4121 51.1756 60.3691 48.9467ZM52.7104 54.2506C52.7539 54.4189 52.7723 54.5645 52.8066 54.726C52.2681 55.0194 51.7135 55.3036 51.1406 55.5743C51.686 55.1558 52.2062 54.7146 52.7104 54.2506ZM49.5593 56.4408C49.5662 56.4386 49.5708 56.434 49.5754 56.4318C49.6946 56.3817 49.8068 56.3294 49.9237 56.2816C49.7106 56.4227 49.4929 56.5546 49.2752 56.6888C49.3164 56.6455 49.3531 56.6001 49.3943 56.5546C49.4493 56.5159 49.5043 56.4795 49.5593 56.4408ZM42.2856 60.6189C44.2221 59.8024 46.1608 58.763 48.0835 57.478C48.205 57.4234 48.3287 57.3688 48.4502 57.3119C48.3631 57.3961 48.2806 57.4848 48.1912 57.569L48.1866 57.5689C46.6925 59.1246 45.1525 60.3414 43.5896 61.2626C43.1725 61.1147 42.7371 60.8896 42.2856 60.6189ZM48.7756 56.9935C48.771 56.9981 48.7664 57.0049 48.7596 57.0094C48.7573 57.0117 48.7527 57.0117 48.7481 57.0117C48.7573 57.0049 48.7664 57.0003 48.7756 56.9935ZM50.5677 55.9951C51.356 55.6425 52.1123 55.2695 52.8387 54.8761C52.8754 55.0626 52.9281 55.265 52.9533 55.4378C52.9831 55.6334 52.9831 55.7995 52.9968 55.9769C51.835 56.4045 50.5471 56.7342 49.1331 56.9503C49.6258 56.6501 50.1048 56.3317 50.5677 55.9951ZM48.771 57.1982C49.58 57.6804 50.2789 58.017 50.8564 58.183C51.1773 58.2763 51.466 58.3195 51.7204 58.3218C51.5187 58.4491 51.3193 58.5833 51.1154 58.7061C49.7312 59.5386 48.3035 60.2868 46.9033 60.9237C47.671 60.2345 48.2646 59.0496 48.6518 57.3165C48.6908 57.2756 48.7298 57.2369 48.771 57.1982ZM48.9475 57.1277C50.4393 56.9116 51.7891 56.5728 53.0106 56.1247C53.0289 56.5295 53.0198 56.898 52.9487 57.1846C52.9029 57.3733 52.8364 57.528 52.7493 57.6622C52.4996 57.8305 52.2429 57.9897 51.9885 58.1535C51.6952 58.2012 51.3377 58.1717 50.9 58.0443C50.366 57.8919 49.7037 57.5712 48.9475 57.1277ZM59.6129 51.1188C59.5487 51.2257 59.5006 51.3303 59.4318 51.4372C59.3058 51.5941 59.1752 51.7488 59.0468 51.9057C59.2485 51.651 59.4341 51.3871 59.6129 51.1188ZM48.4227 57.5417C47.9391 59.4954 47.1966 60.7008 46.2456 61.2125C46.0737 61.2853 45.9064 61.3581 45.7368 61.4286C45.1433 61.5992 44.4787 61.556 43.7614 61.3262C45.3014 60.4051 46.8185 59.2042 48.2898 57.6758C48.2921 57.6736 48.2921 57.6713 48.2943 57.669C48.3379 57.6281 48.3791 57.5826 48.4227 57.5417ZM38.4333 63.3868C38.7152 63.3345 38.9971 63.2799 39.2812 63.2094C39.3912 63.2094 39.4875 63.214 39.6021 63.214C39.2102 63.2799 38.8229 63.3345 38.4333 63.3868ZM58.8268 52.1718C57.6352 53.5956 56.3014 54.9238 54.8393 56.1452C54.2504 56.6046 53.6385 57.0527 53.0037 57.4848C53.0381 57.4029 53.0702 57.3165 53.0931 57.221C53.171 56.9048 53.1779 56.5068 53.1527 56.0724C55.5612 55.1649 57.4427 53.8298 58.8268 52.1718ZM39.7808 63.0684C41.0618 62.7068 42.3383 62.1632 43.601 61.424C44.1533 61.6151 44.6804 61.6947 45.1731 61.6629C44.2198 62.0404 43.2962 62.352 42.43 62.5885C42.3154 62.6181 42.2008 62.6454 42.0862 62.675C41.3185 62.8683 40.5943 63.0116 39.9481 63.0707C39.9458 63.0707 39.9435 63.0707 39.9435 63.0707C39.8839 63.073 39.8404 63.0684 39.7808 63.0684Z" stroke="#30637C" stroke-width="0.825"/>
</g>
<g clip-path="url(#clip0_146_1040)">
<path d="M24.4475 45.6053L23.0309 45.7365L22.8889 41.4894L21.5658 41.6122L21.5191 40.216L25.5818 39.8363L25.6286 41.2325L24.3055 41.3553L24.4475 45.6053Z" stroke="#041116" stroke-width="0.879419"/>
<path d="M28.4401 45.4518C27.6048 45.4937 26.9834 45.2395 26.5791 44.6839C26.2199 44.1924 26.0328 43.5083 26.0178 42.6287C26.0011 41.7519 26.1615 41.051 26.5006 40.5233C26.8848 39.9257 27.4946 39.6074 28.3298 39.5655C29.1651 39.5208 29.7849 39.7749 30.1908 40.3306C30.5483 40.822 30.7354 41.5062 30.7521 42.383C30.7688 43.2626 30.6068 43.9662 30.2677 44.4912C29.8851 45.0888 29.2754 45.4071 28.4401 45.4518ZM28.4117 43.9355C28.7541 43.916 29.0014 43.7401 29.1551 43.4022C29.2804 43.1313 29.3388 42.8158 29.3322 42.4556C29.3255 42.0954 29.2553 41.7882 29.1217 41.5341C28.9546 41.2102 28.7007 41.0594 28.3582 41.0761C28.0158 41.0929 27.7669 41.2716 27.6115 41.6123C27.4879 41.8803 27.4277 42.1959 27.4344 42.5561C27.4428 42.9135 27.5129 43.2235 27.6466 43.4832C27.8136 43.8015 28.0692 43.9523 28.4117 43.9355Z" stroke="#041116" stroke-width="0.87942"/>
<path d="M33.6003 45.1781L31.3367 45.1921L31.325 39.5376L33.5869 39.5236C34.5124 39.518 35.1789 39.7303 35.5848 40.1603C35.9123 40.5093 36.0994 40.984 36.1461 41.5844C36.1679 41.8441 36.1779 42.0954 36.1796 42.3355C36.1796 42.5757 36.1695 42.8242 36.1512 43.0867C36.1328 43.3491 36.081 43.6033 35.9958 43.849C35.9123 44.0947 35.777 44.3153 35.5932 44.5136C35.4094 44.7118 35.1572 44.871 34.8364 44.9911C34.514 45.1111 34.1031 45.1726 33.6003 45.1781ZM33.4633 43.7792C34.1833 43.7736 34.5909 43.4664 34.6844 42.8577C34.7078 42.6874 34.7212 42.517 34.7195 42.3439C34.7195 42.1708 34.7061 42.0004 34.6794 41.8301C34.6544 41.6626 34.5992 41.509 34.514 41.3722C34.4305 41.2353 34.3035 41.1236 34.1348 41.0427C33.9661 40.9617 33.7406 40.9198 33.4566 40.9226L32.7466 40.9282L32.7533 43.7848L33.4633 43.7792Z" stroke="#041116" stroke-width="0.879419"/>
<path d="M42.0181 45.3959L40.5798 45.3344L40.2758 44.3962L38.1442 44.3041L37.8117 45.2172L36.3751 45.1557L38.6236 39.6017L39.94 39.6548L42.0181 45.3959ZM39.8197 42.9777L39.2584 41.2381L38.6436 42.9274L39.8197 42.9777Z" stroke="#041116" stroke-width="0.879419"/>
<path d="M45.3141 45.6976L43.8975 45.5692L43.9827 42.8941L42.2354 39.7583L43.8057 39.9007L44.7328 41.6766L45.7652 40.0766L47.3355 40.2162L45.3993 43.0226L45.3141 45.6976Z" stroke="#041116" stroke-width="0.87942"/>
<path d="M24.3216 45.7246L22.9207 45.8629L22.7819 41.4847L21.4735 41.6115L21.4272 40.1713L25.445 39.7795L25.4913 41.2197L24.1829 41.3465L24.3216 45.7246Z" fill="white"/>
<path d="M28.3403 45.3511C27.5315 45.3934 26.9321 45.1557 26.5421 44.6328C26.1973 44.1628 26.0169 43.5105 26.0008 42.6786C25.983 41.8494 26.1377 41.1866 26.4648 40.6927C26.8386 40.1302 27.4283 39.8265 28.2372 39.7843C29.0396 39.742 29.6374 39.9823 30.0289 40.5026C30.3721 40.9674 30.5526 41.617 30.5703 42.4462C30.5864 43.2781 30.4317 43.9436 30.1063 44.4427C29.7324 45.0078 29.1427 45.3089 28.3403 45.3511ZM28.3145 43.9145C28.64 43.9013 28.8785 43.735 29.0299 43.4181C29.1492 43.1645 29.2056 42.8661 29.1975 42.5202C29.1927 42.1821 29.1266 41.8943 28.9977 41.654C28.8334 41.345 28.5884 41.1971 28.263 41.2103C27.931 41.2262 27.691 41.3978 27.5411 41.7279C27.4203 41.9814 27.3623 42.2772 27.3671 42.6152C27.3752 42.9612 27.4444 43.2543 27.5733 43.492C27.7361 43.7878 27.9826 43.9304 28.3145 43.9145Z" fill="white"/>
<path d="M33.4621 45.3449L31.0933 45.3559L31.0793 39.7906L33.4482 39.7796C34.4125 39.7741 35.106 39.9776 35.5305 40.3956C35.8799 40.742 36.0773 41.2095 36.1245 41.8034C36.1472 42.0619 36.1594 42.3066 36.1594 42.5403C36.1594 42.7768 36.1472 43.0215 36.1245 43.2772C36.1052 43.5357 36.0511 43.7831 35.9637 44.0251C35.8799 44.2671 35.7401 44.487 35.5445 44.685C35.3523 44.883 35.0903 45.0425 34.7549 45.1579C34.4195 45.2762 33.988 45.3394 33.4621 45.3449ZM33.3224 43.9701C34.0771 43.9646 34.4998 43.6594 34.5942 43.0572C34.6169 42.8895 34.6291 42.7218 34.6291 42.5513C34.6291 42.3836 34.6151 42.2158 34.5872 42.0454C34.5627 41.8776 34.5068 41.7264 34.4195 41.5944C34.3304 41.4569 34.1976 41.3469 34.0212 41.2645C33.8482 41.1847 33.6124 41.149 33.3154 41.1545H32.5747L32.5817 43.9701H33.3224Z" fill="white"/>
<path d="M42.2555 45.3559L40.7044 45.3022L40.3726 44.3997L38.0712 44.3137L37.7105 45.1948L36.1594 45.1303L38.5906 39.7795L40.0118 39.8333L42.2555 45.3559ZM39.8748 43.0351L39.276 41.3697L38.6051 42.9921L39.8748 43.0351Z" fill="white"/>
<path d="M45.3248 45.8629L43.9133 45.7368L43.9999 42.9873L42.2555 39.7795L43.8201 39.9285L44.7389 41.75L45.7709 40.1118L47.3355 40.2493L45.4114 43.1133L45.3248 45.8629Z" fill="white"/>
<path d="M15.7459 36.6243L18.2436 36.4311C18.657 36.3991 18.8885 36.1321 18.8546 35.7093L18.293 28.6633C18.2633 28.299 18.5512 27.9847 18.9195 27.9555L20.3236 27.847C20.737 27.8151 20.9685 27.5481 20.936 27.1406L20.7794 25.1743C20.7469 24.7669 20.476 24.5389 20.0625 24.5708L12.0685 25.1757C11.6395 25.2091 11.4236 25.4747 11.4561 25.8822L11.6141 27.8623C11.6466 28.2698 11.9175 28.4978 12.331 28.4658L13.7195 28.3588C14.1033 28.3282 14.4364 28.5952 14.466 28.9595L15.0276 36.0069C15.0615 36.4283 15.3324 36.6563 15.7459 36.6243Z" fill="white"/>
<path d="M23.4106 36.0688L33.3069 35.8046C33.6921 35.7948 33.98 35.4945 33.9701 35.1149L33.9221 33.378C33.9108 32.9984 33.6074 32.7147 33.2222 32.7245L27.1487 32.8858C26.7776 32.8969 26.4728 32.6118 26.4629 32.2475C26.453 31.8818 26.7409 31.5675 27.112 31.5578L32.5928 31.4118C32.9781 31.402 33.2659 31.1017 33.2561 30.722L33.2137 29.1896C33.2038 28.81 32.899 28.5263 32.5138 28.536L27.033 28.6821C26.6619 28.6918 26.3585 28.4081 26.3486 28.0424C26.3373 27.6628 26.6252 27.3638 26.9963 27.3541L33.0698 27.1914C33.455 27.1816 33.7429 26.8813 33.733 26.5016L33.6864 24.7787C33.6752 24.3991 33.3718 24.1154 32.9865 24.1265L23.0903 24.3894C22.7051 24.4005 22.4158 24.6995 22.4271 25.0791L22.7107 35.4152C22.7206 35.7948 23.0254 36.0785 23.4106 36.0688Z" fill="white"/>
<path d="M38.3584 35.8814L45.6031 36.0844C45.9884 36.0955 46.2932 35.798 46.3045 35.4183L46.3609 33.4757C46.3708 33.0961 46.0843 32.7957 45.6991 32.786L39.6397 32.6149C39.2686 32.6052 38.9821 32.3048 38.992 31.9391L39.1007 28.1734C39.112 27.7938 39.4168 27.5101 39.7865 27.5199L45.8458 27.6909C46.2311 27.702 46.5359 27.4184 46.5472 27.0387L46.6036 25.0975C46.6135 24.7179 46.3256 24.4175 45.9404 24.4064L38.6971 24.202C36.7709 24.1491 35.3386 25.4813 35.2836 27.3794L35.1354 32.5037C35.0804 34.4004 36.4336 35.8272 38.3584 35.8814Z" fill="white"/>
<path d="M48.0403 36.2412L50.5083 36.4345C50.8921 36.4651 51.2111 36.1967 51.2407 35.8185L51.4749 32.9066C51.506 32.5284 51.8249 32.26 52.1946 32.2892C52.5784 32.3184 52.8494 32.648 52.8183 33.0262L52.5855 35.9228C52.5544 36.301 52.8268 36.6153 53.2106 36.6459L55.6787 36.8392C56.0625 36.8684 56.3814 36.6 56.4125 36.2217L57.2408 25.9148C57.2718 25.5366 56.9995 25.2223 56.6157 25.1917L54.149 24.9984C53.7638 24.9692 53.4449 25.2376 53.4152 25.6158L53.1824 28.5124C53.1514 28.8906 52.8324 29.159 52.4486 29.1298C52.0789 29.1006 51.8065 28.7863 51.8376 28.4081L52.0704 25.5101C52.1015 25.1319 51.8291 24.8176 51.4453 24.7884L48.9772 24.5951C48.5934 24.5646 48.2745 24.8329 48.2449 25.2112L47.4151 35.5195C47.3841 35.8977 47.6564 36.212 48.0403 36.2412Z" fill="white"/>
</g>
<defs>
<filter id="filter0_d_146_1040" x="0.0606201" y="0.763672" width="68.8816" height="67.8717" filterUnits="userSpaceOnUse" color-interpolation-filters="sRGB">
<feFlood flood-opacity="0" result="BackgroundImageFix"/>
<feColorMatrix in="SourceAlpha" type="matrix" values="0 0 0 0 0 0 0 0 0 0 0 0 0 0 0 0 0 0 127 0" result="hardAlpha"/>
<feOffset dy="2.2"/>
<feGaussianBlur stdDeviation="1.1"/>
<feComposite in2="hardAlpha" operator="out"/>
<feColorMatrix type="matrix" values="0 0 0 0 0 0 0 0 0 0 0 0 0 0 0 0 0 0 0.25 0"/>
<feBlend mode="normal" in2="BackgroundImageFix" result="effect1_dropShadow_146_1040"/>
<feBlend mode="normal" in="SourceGraphic" in2="effect1_dropShadow_146_1040" result="shape"/>
</filter>
<clipPath id="clip0_146_1040">
<rect width="55" height="27.5" fill="white" transform="translate(7 18.2917)"/>
</clipPath>
</defs>
</svg>
