<svg width="63" height="62" viewBox="0 0 63 62" fill="none" xmlns="http://www.w3.org/2000/svg">
<g filter="url(#filter0_d_116_1285)">
<path d="M19.8259 10.8582C19.1069 11.2517 18.4201 11.6815 17.7654 12.1397C16.0186 13.292 14.5619 14.5427 13.7452 15.6656L13.742 15.6704L13.7387 15.672C13.7084 15.7316 13.6928 15.7802 13.6642 15.8383C13.1595 16.3466 12.7401 16.8939 12.4042 17.4755C7.66145 24.2449 7.05115 33.4306 11.5918 41.2032C11.5937 41.2114 11.5955 41.2196 11.5973 41.2277L11.6042 41.2393C11.6179 41.264 11.6365 41.2839 11.6503 41.3086C11.6605 41.3251 11.6675 41.3415 11.6778 41.358C13.9425 45.1701 17.1584 48.1225 20.848 50.0954C21.2652 50.416 21.7735 50.6603 22.3634 50.841C27.1208 52.9694 32.5205 53.5335 37.6499 52.2814C39.5448 51.8192 41.4017 51.1137 43.1753 50.141C43.7796 49.8106 44.3569 49.4535 44.9157 49.0798C44.9336 49.0671 44.9549 49.0561 44.9712 49.0418C45.5919 48.6221 46.184 48.1773 46.749 47.706C48.0548 46.6919 49.1619 45.5941 49.8732 44.4937C51.7168 42.1543 53.037 39.4808 53.786 36.6481C53.7875 36.64 53.789 36.6319 53.7921 36.6238C54.2248 35.1776 54.4511 33.6819 54.4785 32.1726C54.6879 27.9615 53.6857 23.6133 51.325 19.6414C48.793 15.3828 45.0771 12.1944 40.8384 10.2501C40.7882 10.228 40.7381 10.2058 40.688 10.1837C36.7608 8.41479 32.3932 7.71239 28.0982 8.22151C28.0949 8.22145 28.09 8.22298 28.09 8.22298C26.3786 8.26193 24.3567 8.83078 22.3569 9.67531C21.4994 10.0156 20.6529 10.405 19.8259 10.8582ZM19.4983 11.1989C19.8502 10.9988 20.2106 10.8037 20.5744 10.6185C21.1038 10.3484 21.6419 10.0998 22.1819 9.86579C22.2755 9.82686 22.3709 9.79285 22.4662 9.75558C21.8654 10.1773 21.363 10.9642 20.9623 12.1064C20.9574 12.1095 20.9524 12.1127 20.9476 12.1175C20.8651 12.1355 20.7859 12.1486 20.7035 12.1682L20.6903 12.1696L20.6805 12.1775C20.622 12.2285 20.5667 12.278 20.5097 12.329C20.0053 12.1158 19.5501 11.9572 19.1881 11.908C18.8095 11.8551 18.4989 11.8899 18.2645 12.0092C18.1858 12.0484 18.1139 12.0975 18.0506 12.1566C17.8002 12.388 17.6852 12.7555 17.6816 13.2326C17.6806 13.2635 17.6913 13.3045 17.692 13.337C17.0709 13.5744 16.4849 13.8319 15.9625 14.12C15.4107 14.4238 14.9273 14.7598 14.4808 15.1145C15.5005 14.0362 16.6446 13.0499 17.9102 12.1751C17.9151 12.1719 17.92 12.1671 17.9249 12.1639C18.4315 11.8332 18.9531 11.5077 19.4983 11.1989ZM18.316 12.1014C18.5291 11.9947 18.8116 11.961 19.1769 12.0104C19.5157 12.0575 19.9492 12.2059 20.4268 12.4056C20.365 12.4598 20.3065 12.514 20.2447 12.5682C19.3563 12.7728 18.5383 13.0161 17.7954 13.2951C17.7951 13.2788 17.788 13.2558 17.7877 13.2379C17.7916 12.777 17.9039 12.4388 18.1266 12.233C18.1835 12.1819 18.2456 12.1375 18.316 12.1014ZM22.7712 9.68975C22.8826 9.63162 22.9943 9.58652 23.1095 9.54963C23.603 9.39294 24.1454 9.43425 24.7258 9.64242C24.6324 9.6895 24.5404 9.7252 24.447 9.7739C23.3606 10.3411 22.2496 11.0805 21.1203 11.9791C21.5632 10.7905 22.1191 10.0323 22.7712 9.68975ZM23.5362 9.36397C25.0444 8.85696 26.584 8.51179 28.1352 8.32971C28.261 8.32723 28.3755 8.33919 28.4981 8.34316C27.3218 8.55684 26.1032 8.97329 24.8554 9.58301C24.3948 9.40482 23.9527 9.32633 23.5362 9.36397ZM14.9141 14.5136C14.8508 14.5776 14.7858 14.6398 14.7225 14.7038C14.7858 14.6398 14.8491 14.5775 14.9141 14.5136ZM16.019 14.2074C16.5283 13.9272 17.0978 13.6791 17.7025 13.4464C17.7158 13.6974 17.7529 13.975 17.8154 14.2792C15.7233 15.7946 14.0345 17.3568 12.6989 18.9437C12.8116 18.1364 13.1572 17.1316 13.7407 15.9358C13.7957 15.8718 13.8491 15.8093 13.9041 15.7452C14.4954 15.1815 15.1886 14.6622 16.019 14.2074ZM17.8027 13.4059C18.4978 13.144 19.2565 12.9142 20.0788 12.7165C20.0235 12.7676 19.9682 12.8154 19.9129 12.8665C19.2115 13.3091 18.5384 13.7571 17.9084 14.2109C17.8478 13.915 17.8125 13.6472 17.8027 13.4059ZM24.4969 9.86443C24.6197 9.80001 24.7397 9.7567 24.861 9.6955C25.1682 9.81863 25.4883 10.0055 25.8138 10.2186C24.4241 10.6872 22.9806 11.2785 21.4784 12.0022C21.3795 12.0231 21.2789 12.044 21.1784 12.0665C22.3077 11.1679 23.4155 10.4317 24.4969 9.86443ZM24.989 9.63442C26.3943 8.95769 27.7538 8.54718 29.065 8.37355C29.863 8.52887 30.508 8.73339 31.0229 8.97613C29.421 9.18656 27.7251 9.58086 25.9372 10.1754C25.6149 9.96073 25.2963 9.76571 24.989 9.63442ZM20.7486 12.2652C20.7535 12.2653 20.7585 12.2637 20.7634 12.2622C20.7325 12.2893 20.6998 12.3131 20.6673 12.3402C20.6949 12.3163 20.7193 12.2907 20.7486 12.2652ZM13.4742 16.2646C12.9635 17.3771 12.6582 18.3256 12.5777 19.0928C12.1914 19.5594 11.8283 20.0264 11.5033 20.4974C11.6335 19.4852 11.9371 18.5317 12.421 17.6517C12.7508 17.1759 13.1041 16.7152 13.4742 16.2646ZM20.5388 12.4533C20.5438 12.4567 20.5521 12.4585 20.5571 12.4618C20.5293 12.4776 20.5049 12.4967 20.4771 12.514C20.4771 12.514 20.4738 12.514 20.4704 12.5139C20.4949 12.4948 20.516 12.4741 20.5388 12.4533ZM21.0404 12.2023C21.0552 12.1994 21.0701 12.198 21.0832 12.1934C21.0669 12.2028 21.0505 12.2107 21.0341 12.2185C21.0373 12.2137 21.0389 12.2088 21.0404 12.2023ZM20.8217 12.4408C20.8299 12.4377 20.8398 12.4347 20.8479 12.4299C20.8464 12.4348 20.8448 12.438 20.8432 12.4412C20.8366 12.4411 20.8283 12.4426 20.8217 12.4408ZM20.984 12.3625C21.1627 12.2731 21.3398 12.1885 21.5186 12.1023C23.4823 11.6855 25.3662 11.4153 27.1717 11.2837C27.3405 11.44 27.5131 11.6225 27.6822 11.7967C26.7999 12.1398 25.9184 12.5203 25.0476 12.9353C23.7181 12.6982 22.3536 12.5336 20.9527 12.4515C20.962 12.4207 20.973 12.3932 20.984 12.3625ZM20.4223 12.6726C19.6731 13.7772 19.0186 14.9015 18.4522 16.0389C18.3086 15.6551 18.1853 15.2912 18.0874 14.9538C18.0732 14.9079 18.0675 14.8703 18.055 14.8245C18.6648 14.1928 19.3127 13.5651 20.0005 12.9398C20.1411 12.8513 20.2784 12.7611 20.4223 12.6726ZM20.6028 12.5914C20.6589 12.5794 20.7099 12.5657 20.7677 12.5538C20.7777 12.5589 20.786 12.5623 20.7961 12.5674C20.7915 12.5885 20.7852 12.603 20.779 12.6241L20.7757 12.624L20.7758 12.6289C20.6078 13.4905 20.5308 14.4288 20.5209 15.414C19.8979 15.8027 19.2884 16.2048 18.6923 16.6136C18.6314 16.4658 18.562 16.313 18.5061 16.1703C19.1042 14.9602 19.797 13.7633 20.6028 12.5914ZM21.9154 11.9096C23.3014 11.2586 24.6368 10.7238 25.9246 10.2924C26.0572 10.3812 26.1861 10.4505 26.3207 10.554C26.5629 10.7395 26.8108 10.9592 27.0605 11.1871C25.4104 11.3119 23.6964 11.5479 21.9154 11.9096ZM19.4593 13.2796C18.9571 13.7489 18.4832 14.2235 18.0259 14.6985C17.9918 14.5692 17.9628 14.4449 17.9355 14.3238C18.4235 13.9732 18.9281 13.6245 19.4593 13.2796ZM20.8979 12.61C20.9565 12.6388 21.0014 12.6511 21.0617 12.6816C21.0634 12.6832 21.065 12.6833 21.0667 12.6849C21.6026 13.1463 22.1442 13.6388 22.686 14.1459C22.532 14.2309 22.3764 14.3126 22.2225 14.4009C21.7559 14.664 21.2928 14.9352 20.8381 15.2132C20.7694 15.2559 20.7024 15.3002 20.6338 15.3428C20.6476 14.3936 20.7187 13.4877 20.8807 12.6569C20.8853 12.6391 20.8933 12.6279 20.8979 12.61ZM21.036 12.5589C22.3507 12.6378 23.6339 12.7943 24.8835 13.012C24.1751 13.3535 23.4738 13.7163 22.781 14.094C22.2274 13.5768 21.6774 13.0745 21.1313 12.6047L21.1263 12.6014L21.1195 12.5947C21.0894 12.5795 21.0661 12.5725 21.036 12.5589ZM28.9086 8.25329C29.1648 8.2305 29.421 8.20934 29.6774 8.19632C29.4774 8.21204 29.2743 8.24236 29.0729 8.26946C29.0529 8.26582 29.0363 8.26061 29.0163 8.25698L29.013 8.25691C28.9798 8.25302 28.9418 8.25555 28.9086 8.25329ZM17.8409 14.3937C17.8717 14.5229 17.8991 14.6505 17.9367 14.7896C15.9405 16.8704 14.3607 18.9901 13.1551 21.1088C12.9566 20.877 12.8086 20.5989 12.7288 20.2586C12.6528 19.938 12.6401 19.5599 12.6828 19.1323C14.0196 17.521 15.7211 15.933 17.8409 14.3937ZM29.3723 8.33707C30.9288 8.17301 32.4126 8.33981 33.8093 8.78835C32.9731 8.78865 32.1064 8.84049 31.2112 8.95041C30.726 8.70335 30.1141 8.49947 29.3723 8.33707ZM26.0479 10.2491C27.8606 9.65023 29.5765 9.26119 31.1935 9.0592C31.8093 9.37717 32.2193 9.75309 32.4432 10.1759C32.469 10.2253 32.485 10.2777 32.5058 10.327C32.4547 10.3374 32.4052 10.3446 32.3557 10.3551C31.4721 10.5483 30.5763 10.795 29.678 11.084C28.8733 11.0866 28.0493 11.1164 27.2076 11.1752C26.9309 10.9191 26.6544 10.6793 26.3836 10.4722C26.2693 10.3853 26.1604 10.3262 26.0479 10.2491ZM17.9691 14.9173C17.9745 14.9402 17.9782 14.9582 17.9836 14.9795C18.092 15.3464 18.2326 15.7448 18.3934 16.1632C18.2328 16.4892 18.0788 16.8168 17.9315 17.1463C16.2487 18.3552 14.7098 19.6336 13.3847 20.9194C14.5577 18.9076 16.0784 16.8959 17.9691 14.9173ZM30.303 8.17733C30.5628 8.1709 30.8228 8.16936 31.0811 8.17104C33.4379 8.19329 35.7803 8.56706 38.0251 9.27449C36.812 8.9793 35.5171 8.81774 34.1439 8.79312C33.1616 8.4486 32.1436 8.22555 31.0811 8.17104C30.8258 8.15801 30.5629 8.17253 30.303 8.17733ZM11.992 18.3015C11.6822 19.0269 11.4724 19.79 11.3778 20.5927C11.3735 20.6269 11.3742 20.6627 11.3716 20.6969C10.0068 22.7213 9.18556 24.7692 8.83249 26.7934C9.27147 23.779 10.3421 20.8824 11.992 18.3015ZM12.5616 19.2782C12.536 19.6491 12.556 19.985 12.6249 20.2778C12.7135 20.6476 12.8754 20.9536 13.0974 21.2054C12.6104 21.688 12.1467 22.1726 11.7275 22.6532C11.6434 22.7493 11.5707 22.8424 11.4899 22.9386C11.4083 22.1813 11.4017 21.445 11.475 20.7347C11.8046 20.2475 12.1657 19.7625 12.5616 19.2782ZM31.3735 9.03495C32.3283 8.92291 33.2449 8.88179 34.1327 8.89714C34.2945 8.95398 34.4578 9.0027 34.618 9.06603C35.164 9.2882 35.6927 9.55727 36.2089 9.86193C35.0439 9.89993 33.8399 10.0512 32.6114 10.3062C32.587 10.2471 32.5676 10.1881 32.5366 10.1305C32.3162 9.71423 31.9346 9.34699 31.3735 9.03495ZM27.3222 11.2752C28.0168 11.2282 28.7049 11.1941 29.3754 11.1857C28.8474 11.3613 28.3181 11.5515 27.789 11.7564C27.6334 11.5954 27.4759 11.4214 27.3222 11.2752ZM18.4474 16.2946C18.4946 16.4176 18.5519 16.5474 18.6041 16.6754C18.4376 16.7895 18.2693 16.9019 18.106 17.0177C18.2154 16.7755 18.3297 16.535 18.4474 16.2946ZM22.2774 14.4915C22.4394 14.4001 22.6049 14.3121 22.7687 14.2224C23.9857 15.3646 25.2098 16.6079 26.4289 17.9325C25.6719 18.4099 24.883 18.8672 24.0785 19.2866C23.1052 19.7957 22.1158 20.2443 21.1434 20.6328C20.8 18.8054 20.619 17.0674 20.6298 15.4731C20.7197 15.4178 20.8063 15.3575 20.8979 15.3023C21.3509 15.0243 21.8124 14.7546 22.2774 14.4915ZM22.862 14.1721C23.5876 13.7755 24.3234 13.397 25.0663 13.0432C26.6951 13.3381 28.2599 13.7492 29.7703 14.2504C29.9473 14.4867 30.126 14.723 30.3049 14.9723C29.2637 15.9671 27.9641 16.9635 26.5205 17.8789C25.3031 16.5543 24.0791 15.3142 22.862 14.1721ZM20.517 15.5442C20.5127 17.1337 20.6985 18.8621 21.0415 20.6732C20.9364 20.7136 20.8328 20.7523 20.7293 20.7911C19.9107 19.2949 19.2305 17.9203 18.7325 16.717C19.3139 16.316 19.9087 15.9251 20.517 15.5442ZM25.2304 12.9681C26.0702 12.5737 26.9173 12.2088 27.765 11.8781C28.3857 12.5186 29.0202 13.2669 29.6632 14.1115C28.2363 13.6445 26.7629 13.2515 25.2304 12.9681ZM18.6443 16.7772C19.1422 17.9773 19.8157 19.3452 20.6291 20.8315C19.104 21.4033 17.6529 21.7844 16.4118 21.9056C16.7939 20.3347 17.3301 18.7667 18.0174 17.218C18.2247 17.0704 18.4336 16.923 18.6443 16.7772ZM27.8718 11.8394C28.4831 11.6035 29.0929 11.3823 29.7033 11.1855C30.7117 11.1836 31.6911 11.2235 32.6449 11.3052C32.5927 11.8368 32.3676 12.4123 31.9857 13.0126C31.6792 13.4953 31.2654 13.9956 30.7854 14.4978C30.4718 14.3827 30.1533 14.2707 29.8332 14.1636C29.1695 13.2845 28.5146 12.5048 27.8718 11.8394ZM17.8395 17.3481C17.1829 18.8568 16.6724 20.3845 16.301 21.9133C15.7687 21.9601 15.2656 21.9717 14.8288 21.9096C14.2725 21.8322 13.8055 21.6636 13.4489 21.3929C13.375 21.3378 13.3091 21.273 13.2448 21.2083C14.5728 19.8965 16.1309 18.5891 17.8395 17.3481ZM11.3529 20.918C11.2957 21.6075 11.3134 22.3212 11.3978 23.0525C10.1966 24.4905 9.31592 25.8906 8.88471 27.1641C8.90085 27.0618 8.91037 26.9594 8.92651 26.8571C9.26414 24.888 10.0516 22.8916 11.3529 20.918ZM30.0225 11.0874C30.814 10.8419 31.6012 10.6273 32.3793 10.4565C32.4354 10.4445 32.4915 10.4391 32.5459 10.4271C32.6337 10.6731 32.6705 10.9328 32.6544 11.2044C31.8002 11.1311 30.9234 11.0932 30.0225 11.0874ZM34.4691 8.90846C36.4145 8.97496 38.1968 9.32826 39.8053 9.93231C40.1089 10.0456 40.4062 10.1686 40.697 10.2995C40.961 10.417 41.2152 10.544 41.4696 10.6742C39.9371 10.0619 38.2181 9.81077 36.3941 9.85082C35.8309 9.51268 35.2519 9.21333 34.6542 8.97063C34.594 8.94505 34.5292 8.93078 34.4691 8.90846ZM32.6515 10.4047C33.9245 10.1424 35.1699 9.98539 36.3681 9.95618C37.5484 10.6726 38.6484 11.5943 39.6622 12.6788C37.5643 11.9449 35.2606 11.4383 32.7606 11.2146C32.7764 10.9332 32.7428 10.6621 32.6515 10.4047ZM13.1769 21.2884C13.2428 21.3548 13.3104 21.4196 13.386 21.4764C13.7611 21.7621 14.2481 21.9343 14.8177 22.0136C15.2544 22.0757 15.751 22.0673 16.2768 22.0252C15.5839 24.9306 15.3961 27.8375 15.5955 30.6524C15.5242 30.7276 15.4462 30.8027 15.3766 30.8795C15.1919 31.0812 15.0305 31.285 14.8557 31.4869C13.3182 29.0763 12.2089 26.6332 11.7135 24.3322C12.117 23.3219 12.6047 22.3052 13.1769 21.2884ZM12.9137 21.5391C12.4412 22.4063 12.0282 23.2714 11.6764 24.1327C11.6046 23.7796 11.5496 23.4316 11.5078 23.0855C11.6097 22.9653 11.7016 22.8449 11.8084 22.7232C12.1515 22.3307 12.526 21.9356 12.9137 21.5391ZM32.7494 11.3154C35.3124 11.5435 37.6694 12.0691 39.8061 12.8347C40.9171 14.0514 41.9129 15.4727 42.7956 17.0271C42.6121 17.0448 42.4384 17.0529 42.2517 17.0753C40.8395 17.2487 39.3275 17.5683 37.7663 17.9913C35.6722 16.6303 33.3732 15.4577 30.8923 14.5389C31.3624 14.0446 31.7713 13.5492 32.0762 13.0697C32.463 12.4598 32.696 11.8681 32.7494 11.3138L32.7494 11.3154ZM11.414 23.1994C11.4613 23.57 11.5218 23.9409 11.6023 24.3203C10.6049 26.8257 10.1054 29.3048 10.0279 31.6877C9.41918 31.1484 8.98097 30.4429 8.75399 29.5379C8.74299 29.4856 8.74512 29.427 8.7374 29.3731C8.7311 28.899 8.74793 28.4222 8.79123 27.9441C9.08045 26.5278 10.0144 24.8942 11.414 23.1977L11.414 23.1994ZM36.5534 9.94669C38.7866 9.91772 40.85 10.335 42.5955 11.3244C43.4792 12.2778 43.8257 13.3594 43.745 14.5273C42.5473 13.8464 41.2585 13.2501 39.8774 12.753C38.8563 11.639 37.7458 10.6894 36.5534 9.94669ZM29.9403 14.3025C30.2004 14.3905 30.4557 14.485 30.7126 14.5778C30.6088 14.685 30.4917 14.7919 30.3796 14.9005C30.2331 14.6957 30.0867 14.4991 29.9403 14.3025ZM11.6459 24.5068C12.1624 26.7871 13.2643 29.1958 14.7846 31.5718C14.3754 32.0526 13.9944 32.5356 13.6499 33.0225C12.8105 32.9494 12.0488 32.7867 11.3893 32.5183C10.9151 32.3252 10.4961 32.0762 10.1307 31.7744C10.1973 29.4238 10.6793 26.9818 11.6459 24.5068ZM16.3859 22.0175C17.6552 21.9001 19.1327 21.5114 20.6824 20.927C20.8973 21.3187 21.1173 21.7171 21.3508 22.1238C21.5815 23.1331 21.8557 24.1628 22.1666 25.2046C19.7031 26.8579 17.4811 28.6673 15.6961 30.5485C15.5072 27.7647 15.6973 24.8888 16.3859 22.0159L16.3859 22.0175ZM30.8194 14.6206C33.2769 15.5259 35.5523 16.6834 37.6296 18.0261C36.2117 18.4143 34.7542 18.8881 33.2803 19.4528C32.3448 17.8225 31.3904 16.3205 30.4427 14.9896C30.5694 14.8666 30.701 14.7437 30.8194 14.619L30.8194 14.6206ZM30.3664 15.0631C31.3072 16.3824 32.2531 17.8728 33.1817 19.4916C31.9133 19.9788 30.6394 20.5293 29.3749 21.129C28.457 20.0381 27.5296 18.9748 26.595 17.9569C28.0304 17.0462 29.3267 16.0563 30.3664 15.0631ZM20.7809 20.8881C20.873 20.8541 20.9666 20.8184 21.0603 20.7811C21.1232 21.1113 21.2063 21.4484 21.2792 21.7821C21.1058 21.4774 20.9442 21.1844 20.7809 20.8881ZM21.1621 20.7407C22.146 20.3491 23.1469 19.8943 24.1317 19.3805C24.9428 18.9562 25.7398 18.4943 26.5033 18.0121C27.4363 19.0283 28.3619 20.0868 29.2781 21.1744C28.832 21.3873 28.3859 21.597 27.9434 21.8215C27.3336 22.1291 26.7307 22.4482 26.133 22.7788C25.0604 23.3723 24.0117 23.9988 22.9966 24.6521C22.459 23.7786 21.9264 22.9101 21.4526 22.0834C21.3491 21.6319 21.2472 21.1821 21.1621 20.7407ZM8.61493 29.2128C8.6192 29.2601 8.62181 29.3074 8.6294 29.3548C8.65922 31.7251 9.29704 34.0272 10.3956 36.1867C10.6133 37.287 10.9197 38.3532 11.3115 39.3802C11.3214 39.8707 11.3859 40.3589 11.5 40.8399C9.41299 37.1338 8.48553 33.1225 8.61493 29.2128ZM21.5257 22.422C21.953 23.1598 22.4323 23.9344 22.91 24.7091C22.6894 24.8514 22.4754 24.9972 22.2597 25.1413C21.9861 24.224 21.7359 23.3152 21.5257 22.422ZM8.75817 29.9077C9.01926 30.6978 9.44779 31.3346 10.024 31.8245C9.99042 33.1887 10.0953 34.5213 10.3251 35.8124C9.41598 33.9318 8.86571 31.9457 8.75817 29.9077ZM40.0196 12.9104C41.346 13.3983 42.5864 13.9807 43.739 14.6395C43.7243 14.8086 43.6996 14.9792 43.665 15.1528C43.5497 15.7532 43.3089 16.3757 42.9955 17.0081C42.9674 17.0108 42.9377 17.0135 42.9096 17.0163C42.0543 15.5031 41.0938 14.1101 40.0196 12.9104ZM42.8824 11.5091C45.1315 12.9984 46.9364 15.0378 48.296 17.414C48.1526 17.3657 48.0092 17.3173 47.8594 17.277C47.7545 17.2489 47.635 17.2353 47.5268 17.2104C46.4243 16.243 45.196 15.3629 43.8472 14.5862C43.9341 13.4771 43.6348 12.4355 42.8824 11.5091ZM43.3298 11.687C46.3361 13.5279 48.9624 16.0619 50.9336 19.2006C50.3412 18.4043 49.4917 17.831 48.441 17.4591C47.146 15.1705 45.4432 13.1802 43.3298 11.687ZM26.1879 22.8743C26.784 22.5436 27.3868 22.2229 27.9949 21.9153C28.4424 21.6877 28.8951 21.4732 29.3477 21.2587C30.7086 22.8809 32.0279 24.5723 33.3077 26.2776C32.2189 26.9718 31.0865 27.6342 29.93 28.2554C28.7818 28.8735 27.6111 29.4473 26.4394 29.9705C25.6425 28.807 24.8722 27.6473 24.1387 26.5062C23.7539 25.906 23.4128 25.3327 23.0516 24.7476C24.0666 24.0943 25.1153 23.4662 26.1879 22.8743ZM29.4412 21.2133C30.7025 20.6185 31.9698 20.0727 33.2333 19.5871C33.508 20.0663 33.7811 20.5503 34.0495 21.0473C34.6601 22.173 35.2569 23.3473 35.8342 24.5441C35.0527 25.1171 34.2394 25.6781 33.3926 26.2189C32.1162 24.517 30.8004 22.8322 29.4412 21.2133ZM22.9649 24.8046C23.3262 25.3897 23.6656 25.9613 24.0504 26.5599C24.7805 27.6977 25.5474 28.8557 26.3409 30.0142C25.6549 30.3187 24.9701 30.5988 24.2883 30.8659C23.6837 29.3836 23.1252 27.8924 22.6466 26.4158C22.5194 26.0257 22.4073 25.6392 22.2901 25.2526C22.5139 25.1022 22.7361 24.9517 22.9649 24.8046ZM10.1283 31.9047C10.4868 32.1916 10.8924 32.4307 11.3483 32.6169C12.0044 32.8819 12.7546 33.0477 13.5774 33.1221C12.4895 34.6779 11.7349 36.2547 11.4452 37.8078C11.098 37.2653 10.7788 36.712 10.4925 36.1462C10.223 34.7795 10.0966 33.3601 10.1283 31.9047ZM22.2003 25.3144C22.3139 25.6895 22.4225 26.0646 22.5444 26.4432C23.0249 27.9247 23.5834 29.4175 24.188 30.9014C21.4557 31.9599 18.7849 32.7021 16.4504 32.962C16.2803 32.9816 16.123 32.9834 15.9577 32.9966C15.843 32.2387 15.7611 31.47 15.704 30.6936C17.4871 28.7993 19.7204 26.9788 22.2003 25.3144ZM33.3319 19.5482C34.8305 18.9759 36.311 18.4944 37.7503 18.1033C38.7857 18.7779 39.7657 19.4986 40.6967 20.2542C39.4027 21.6871 37.7709 23.1185 35.9191 24.4822C35.3435 23.2903 34.7502 22.121 34.1429 20.9986C33.8746 20.5049 33.6032 20.0241 33.3319 19.5482ZM43.8379 14.6968C45.1113 15.4329 46.2806 16.2631 47.334 17.1725C46.1051 16.9161 44.6833 16.8661 43.1195 16.9991C43.4216 16.3811 43.6543 15.7699 43.7682 15.1776C43.7997 15.0169 43.8213 14.8561 43.8362 14.6968L43.8379 14.6968ZM37.8871 18.0685C39.4121 17.6595 40.8895 17.349 42.2671 17.1799C42.467 17.1544 42.6556 17.1466 42.8506 17.1275C42.8677 17.1572 42.8865 17.1836 42.902 17.2132C42.4874 18.0017 41.9407 18.8056 41.2683 19.6152C41.1131 19.8012 40.9347 19.9883 40.768 20.1757C39.8571 19.4352 38.8973 18.7295 37.8871 18.0685ZM15.6018 30.7975C15.6578 31.5185 15.7352 32.2333 15.8422 32.939C15.5201 32.4882 15.2063 32.0376 14.9139 31.5824C15.0951 31.3725 15.2631 31.1608 15.4542 30.9511C15.5012 30.8998 15.5548 30.8487 15.6018 30.7975ZM14.8428 31.6674C15.1334 32.116 15.4439 32.5649 15.7625 33.0091C15.0681 33.0594 14.3994 33.0759 13.7792 33.0298C14.1061 32.5735 14.4595 32.1194 14.8428 31.6674ZM13.7018 33.1326C14.3636 33.186 15.0835 33.1655 15.8308 33.1098C15.8444 33.128 15.8564 33.1477 15.8717 33.1659C16.5026 37.1716 17.9342 40.8912 19.8832 43.997C18.9857 44.0775 18.1397 44.0842 17.3405 44.033C15.8589 42.9119 14.4992 41.6741 13.3293 40.3244C12.668 39.5609 12.0673 38.7627 11.5307 37.9414C11.8048 36.3521 12.5751 34.7333 13.7018 33.1326ZM43.0688 17.1089C44.7234 16.9646 46.2198 17.0193 47.4891 17.3074C48.037 17.7918 48.5523 18.2968 49.0382 18.8191C49.3166 19.4043 49.5722 20.0069 49.8016 20.622C50.3112 21.9885 50.6847 23.4224 50.9512 24.8868C50.5237 25.8542 49.936 26.8446 49.1698 27.8463C48.6989 27.8161 48.2119 27.8084 47.7008 27.8345C47.258 27.1469 46.7772 26.4666 46.2602 25.7939C45.745 23.5755 45.0388 21.4137 44.1389 19.4144C43.7955 18.6505 43.4181 17.9218 43.0228 17.2106C43.0403 17.1767 43.0512 17.1427 43.0688 17.1089ZM42.9689 17.3285C43.3471 18.0149 43.7108 18.7205 44.042 19.4549C44.9089 21.3803 45.5985 23.4554 46.1086 25.5874C44.6313 23.6959 42.8643 21.8885 40.8521 20.2425C41.0189 20.0551 41.1989 19.868 41.3541 19.6804C42.0103 18.89 42.5557 18.1024 42.9689 17.3285ZM15.9713 33.0994C16.1383 33.0847 16.2973 33.0845 16.4674 33.0649C18.8151 32.8036 21.4926 32.0616 24.2298 30.9999C25.0259 32.9435 25.9143 34.8628 26.8574 36.7066C25.2836 37.8965 23.868 39.1316 22.6993 40.3732C20.2017 38.2244 17.9255 35.8062 16.0896 33.2971C16.0488 33.2426 16.0162 33.1866 15.977 33.1337C15.9751 33.1223 15.9732 33.1109 15.9713 33.0994ZM16.0048 33.359C17.8457 35.8731 20.1237 38.2962 22.6263 40.45C22.2276 40.8772 21.8488 41.3048 21.5114 41.73C20.9124 42.4873 20.4209 43.2401 20.0484 43.9757C20.0318 43.977 20.0137 43.9799 19.9972 43.9828C18.0758 40.9346 16.6541 37.2901 16.0048 33.359ZM10.5698 36.5305C10.8297 37.0143 11.1126 37.492 11.4168 37.9604C11.3533 38.3419 11.3229 38.7176 11.3156 39.0953C11.0107 38.2653 10.7615 37.4087 10.5698 36.5305ZM40.7809 20.3209C42.8536 22.0137 44.6599 23.8805 46.1599 25.8294C46.3214 26.528 46.4598 27.2293 46.5801 27.9352C46.443 27.9505 46.314 27.9562 46.1736 27.9763C43.8088 28.2927 41.1422 29.0805 38.4305 30.1753C37.6754 28.2927 36.8473 26.4071 35.9691 24.5808C37.834 23.2093 39.4755 21.7667 40.7809 20.3209ZM47.6753 17.3451C47.7269 17.3575 47.7849 17.3635 47.8349 17.3775C48.0181 17.4266 48.1964 17.4838 48.3698 17.5441C48.545 17.8553 48.7137 18.1712 48.8726 18.4918C48.4937 18.0986 48.0918 17.7163 47.6753 17.3451ZM48.5217 17.6007C49.7147 18.047 50.6299 18.7567 51.1803 19.7721C51.5363 20.5053 51.6863 21.2867 51.6598 22.1055C50.9455 20.9338 50.0966 19.8149 49.1232 18.767C48.9347 18.3709 48.733 17.981 48.5217 17.6007ZM24.3284 30.9643C25.0184 30.6958 25.7098 30.4109 26.4023 30.1033C27.4688 31.6612 28.5814 33.202 29.7033 34.7186C28.7406 35.3403 27.8181 35.9839 26.9406 36.6431C26.0009 34.8075 25.121 32.8981 24.3284 30.9643ZM35.8809 24.6427C36.7557 26.4624 37.5803 28.3397 38.332 30.2157C37.8064 30.4288 37.2795 30.6549 36.7527 30.8924C35.7134 29.3692 34.601 27.8333 33.4573 26.3065C34.2959 25.7688 35.1043 25.2125 35.8809 24.6427ZM11.5041 38.0989C12.0251 38.889 12.6103 39.6559 13.2478 40.3912C14.3889 41.7078 15.715 42.9205 17.1548 44.023C16.5279 43.9735 15.9236 43.8968 15.3726 43.756C14.4938 43.5324 13.7251 43.1854 13.0779 42.7105C12.424 41.6572 11.8648 40.5374 11.4154 39.3627C11.4069 38.9439 11.4382 38.5243 11.5041 38.0989ZM26.5008 30.0612C27.6709 29.538 28.8382 28.9642 29.9849 28.3476C31.143 27.7248 32.2787 27.0608 33.3707 26.3651C34.511 27.8886 35.6184 29.4179 36.6543 30.9361C35.2956 31.5486 33.9399 32.223 32.6202 32.96C31.6525 33.5002 30.7103 34.075 29.7916 34.6633C28.6731 33.1517 27.5656 31.6142 26.5008 30.0612ZM11.432 39.6887C11.8313 40.6801 12.3043 41.6322 12.8492 42.5367C12.3962 42.1649 12.0081 41.7226 11.7011 41.202C11.6994 41.1988 11.6977 41.1955 11.6959 41.1922L11.6942 41.1905C11.6942 41.1905 11.6942 41.1889 11.6925 41.1872C11.5467 40.6942 11.4654 40.1943 11.432 39.6887ZM49.2465 19.0495C50.1663 20.0687 50.9732 21.1526 51.6501 22.2828C51.6114 22.9026 51.4769 23.5401 51.2468 24.1953C51.1872 24.362 51.0997 24.5346 51.0286 24.7042C50.7632 23.2936 50.3924 21.9119 49.9004 20.593C49.7026 20.0664 49.4786 19.5556 49.2465 19.0495ZM51.3138 19.8203C53.1868 23.019 54.1756 26.4582 54.3639 29.8707C54.1286 27.8189 53.5391 25.7767 52.604 23.8353C52.3464 23.3027 52.0642 22.7777 51.7557 22.262C51.8063 21.4079 51.6688 20.5877 51.3138 19.8203ZM12.3087 42.1762C12.5185 42.3969 12.7511 42.5967 12.9965 42.779C13.308 43.2784 13.6375 43.7652 13.9897 44.2345C14.6637 45.1334 15.4158 45.9686 16.228 46.7415C14.7539 45.4169 13.4313 43.8899 12.3087 42.1762ZM13.2284 42.9446C13.8427 43.3522 14.5526 43.6556 15.3482 43.8581C15.9491 44.0113 16.6114 44.0924 17.2996 44.1381C17.984 44.6545 18.6894 45.1468 19.424 45.6055C19.3766 45.8017 19.3359 45.9963 19.3083 46.188C19.129 47.4729 19.4596 48.6681 20.4043 49.6911C17.9341 48.3197 15.7714 46.4347 14.0746 44.1742C13.7768 43.7776 13.4969 43.3651 13.2284 42.9446ZM51.7464 22.4573C52.0191 22.9234 52.2754 23.3958 52.5071 23.8758C53.6151 26.1755 54.2392 28.6175 54.3547 31.0465C53.8515 29.6671 52.8363 28.7649 51.462 28.2777C51.4009 27.1397 51.2588 26.0116 51.0574 24.8986C51.1539 24.6757 51.2669 24.4531 51.3436 24.233C51.5565 23.628 51.6935 23.0345 51.7464 22.4573ZM32.6734 33.0523C33.998 32.3137 35.3554 31.6377 36.7173 31.0236C37.8745 32.725 38.9214 34.3786 39.8962 35.9852C38.5563 36.87 37.1627 37.718 35.7296 38.5017C35.0287 38.8873 34.3191 39.2532 33.6061 39.6093C32.3714 38.0873 31.1111 36.4443 29.8563 34.7509C30.7717 34.1625 31.7089 33.5908 32.6734 33.0523ZM29.7664 34.8062C31.0178 36.4979 32.2763 38.1344 33.5093 39.6547C32.2108 40.2977 30.903 40.8834 29.6005 41.409C29.5731 41.3645 29.5441 41.3233 29.5167 41.2788C28.6483 39.8517 27.8009 38.3224 26.9906 36.7418C27.8713 36.0778 28.7988 35.431 29.7647 34.8061L29.7664 34.8062ZM36.8142 30.9831C37.3344 30.7488 37.8547 30.5242 38.3737 30.3142C39.1029 32.1377 39.7507 33.9547 40.3096 35.7113C40.2018 35.7842 40.0923 35.857 39.9844 35.9282C39.0114 34.3265 37.9663 32.6778 36.8142 30.9831ZM38.4707 30.277C41.1758 29.1837 43.8374 28.3958 46.1906 28.0792C46.3293 28.0607 46.4584 28.055 46.5955 28.0398C46.7273 28.8241 46.8309 29.6078 46.9098 30.396C45.0937 32.2115 42.8563 33.9961 40.4011 35.6512C39.844 33.9011 39.1963 32.0922 38.4707 30.277ZM46.3115 26.0392C46.7624 26.6341 47.1853 27.2367 47.5784 27.8436C47.289 27.8592 46.9866 27.8941 46.6859 27.9275C46.5771 27.2935 46.4534 26.6657 46.3115 26.0392ZM26.9042 36.8069C27.7144 38.3827 28.5583 39.9054 29.425 41.3275C29.4507 41.3687 29.4746 41.4083 29.5003 41.4495C28.2323 41.9578 26.9778 42.4013 25.7484 42.7752C24.7319 42.0472 23.7391 41.2693 22.7786 40.4464C23.9376 39.216 25.3418 37.9888 26.9042 36.8069ZM22.7039 40.5198C23.6476 41.3278 24.6235 42.094 25.6217 42.8118C24.091 43.2728 22.6014 43.6336 21.1999 43.8446C20.8515 43.8966 20.5176 43.926 20.1789 43.9619C20.5437 43.2539 21.0159 42.53 21.5939 41.7983C21.9297 41.3731 22.3052 40.9471 22.7039 40.5198ZM50.98 25.0844C51.1617 26.1254 51.2924 27.1784 51.3503 28.2414C50.7301 28.0341 50.0339 27.9166 49.286 27.8599C49.9973 26.924 50.5613 25.995 50.98 25.0844ZM46.7029 28.0304C47.0185 27.9974 47.339 27.9579 47.6433 27.9409C47.8571 28.274 48.0642 28.6086 48.2598 28.9429C48.2048 29.007 48.1597 29.0697 48.103 29.1337C47.7614 29.5197 47.3917 29.9068 47.0104 30.292C46.9322 29.5365 46.8291 28.7837 46.7029 28.0304ZM17.4819 44.1481C18.2594 44.189 19.0771 44.1737 19.9414 44.0925C19.95 44.1074 19.9586 44.1222 19.9671 44.1354C19.7431 44.6002 19.5718 45.0545 19.4517 45.5034C18.7725 45.0784 18.1174 44.6212 17.4819 44.1481ZM47.7675 27.94C48.2258 27.9195 48.6679 27.9198 49.0923 27.9425C48.855 28.2474 48.5946 28.5536 48.3325 28.858C48.1525 28.5516 47.9641 28.2451 47.7675 27.94ZM49.2184 27.9563C49.9994 28.0104 50.7223 28.1366 51.3609 28.354C51.4715 30.5451 51.3043 32.7504 50.8904 34.881C50.4858 33.3015 49.8568 31.6771 49.0109 30.055C48.8197 29.6898 48.602 29.3241 48.3892 28.9584C48.6772 28.6235 48.9619 28.2902 49.2184 27.9563ZM20.1198 44.0715C20.4834 44.0345 20.847 44.0024 21.2234 43.9444C22.6514 43.729 24.1707 43.3607 25.7309 42.8888C26.5945 43.5063 27.4692 44.098 28.3577 44.6329C29.6703 45.4235 31.0005 46.1037 32.3285 46.6763C31.4983 47.5448 30.878 48.3913 30.5708 49.1656C30.5078 49.3256 30.4629 49.4827 30.4263 49.6367C27.6324 49.2071 24.857 48.3039 22.2632 47.0425C21.519 46.1928 20.8164 45.2673 20.1719 44.2712C20.1429 44.2283 20.1204 44.1806 20.0914 44.1377C20.1025 44.1152 20.1087 44.0941 20.1198 44.0715ZM20.0425 44.2573C20.0562 44.2788 20.0682 44.3034 20.082 44.3265C20.687 45.2583 21.3454 46.1227 22.0357 46.9291C21.1859 46.5056 20.3538 46.0565 19.5505 45.5574C19.6628 45.1345 19.8345 44.698 20.0425 44.2573ZM48.3181 29.0434C48.5239 29.3959 48.7331 29.7468 48.9174 30.1005C49.8013 31.7966 50.4417 33.4929 50.8393 35.1341C50.7654 35.491 50.7031 35.8514 50.6142 36.2047C50.3386 37.3086 49.9744 38.3782 49.5516 39.4125C48.9259 39.0145 48.067 38.876 47.0647 38.9366C46.9622 38.9428 46.8517 38.9635 46.7476 38.9745C46.9593 37.8189 47.1041 36.6295 47.1672 35.4124C47.2517 33.7821 47.1913 32.1099 47.0249 30.4356C47.4339 30.0265 47.8229 29.6137 48.1872 29.2038C48.2341 29.1493 48.2728 29.0963 48.3181 29.0418L48.3181 29.0434ZM46.9258 30.5298C47.0849 32.1697 47.1413 33.8077 47.0594 35.4039C46.9964 36.6291 46.8501 37.825 46.6369 38.9871C45.3795 39.1243 43.9274 39.5379 42.4097 40.1473C41.9724 39.3214 41.5031 38.4704 40.9866 37.5794C40.8564 37.1208 40.7246 36.6606 40.5793 36.1904C40.535 36.0479 40.484 35.9003 40.4396 35.7562C42.8818 34.1106 45.1078 32.3372 46.9258 30.5298ZM19.5229 45.6627C20.3865 46.1972 21.2839 46.685 22.2037 47.1326C23.6208 48.7477 25.2023 50.063 26.8762 51.0315C25.425 51.1633 24.1211 51.1286 23.037 50.9076C22.2294 50.6039 21.4472 50.2452 20.6905 49.8415C19.6012 48.793 19.2285 47.5594 19.4163 46.2047C19.4425 46.026 19.4785 45.8443 19.5229 45.6627ZM51.4693 28.3919C52.8388 28.8888 53.8324 29.7873 54.303 31.1953C54.3019 33.6742 53.1937 36.1026 51.3884 38.3694C51.359 37.3297 51.2146 36.252 50.9488 35.1443C51.3976 32.9444 51.5815 30.6612 51.4693 28.3919ZM25.8609 42.8522C27.0738 42.4796 28.3101 42.0391 29.5601 41.5386C30.6251 43.2707 31.7119 44.8485 32.7847 46.2241C32.6547 46.3486 32.5281 46.4733 32.4081 46.5964C31.0717 46.022 29.7331 45.3384 28.4122 44.5427C27.5489 44.0246 26.6993 43.4497 25.8609 42.8522ZM29.6603 41.4981C30.9644 40.9725 32.2755 40.3836 33.5772 39.7391C33.669 39.8532 33.7643 39.9804 33.856 40.0929C34.7864 41.2297 35.6871 42.286 36.5545 43.2537C35.1591 44.1766 33.8876 45.1653 32.8609 46.1474C31.7984 44.7834 30.7168 43.2171 29.6603 41.4981ZM40.3482 35.8179C40.3906 35.9507 40.4364 36.0867 40.4772 36.2194C40.5817 36.5569 40.6728 36.8844 40.7706 37.2169C40.5425 36.8282 40.2826 36.4209 40.0426 36.0222C40.1439 35.9541 40.2469 35.886 40.3482 35.8179ZM39.9544 36.0791C40.2508 36.5685 40.574 37.0747 40.8502 37.5507C40.8623 37.5721 40.8726 37.5918 40.8846 37.6132C41.1663 38.604 41.4093 39.5614 41.6118 40.4839C40.6254 40.9162 39.627 41.4134 38.6496 41.9664C38.2305 42.2027 37.8149 42.4488 37.4077 42.7016C37.1477 42.8628 36.8961 43.029 36.6428 43.1952C35.7753 42.2258 34.8713 41.1678 33.9391 40.0294C33.8525 39.9219 33.7606 39.8012 33.674 39.6937C34.3822 39.3408 35.0885 38.9764 35.7878 38.594C37.2191 37.8086 38.6145 36.9623 39.9544 36.0791ZM22.4596 47.258C24.9894 48.4628 27.6877 49.3222 30.4036 49.7422C30.3556 49.9888 30.3455 50.2264 30.3783 50.4534C29.7074 50.6051 29.0495 50.7424 28.4157 50.8426C27.9485 50.9168 27.4943 50.9732 27.0514 51.0169C25.4115 50.0881 23.8607 48.8174 22.4596 47.258ZM41.12 38.0331C41.5423 38.7708 41.9444 39.4935 42.3112 40.1862C42.1108 40.267 41.9121 40.3512 41.7102 40.4385C41.5371 39.66 41.3471 38.8615 41.12 38.0331ZM54.3765 31.7163C54.3777 31.8547 54.3755 31.9915 54.3733 32.1299C54.2984 33.6627 54.0675 35.1779 53.6751 36.6509C53.6719 36.6573 53.6704 36.6654 53.6689 36.6719C53.1177 38.479 52.232 40.2048 51.0136 41.776C51.2979 40.7684 51.4099 39.6777 51.3918 38.5372C53.1299 36.3864 54.2324 34.0817 54.3749 31.7162L54.3765 31.7163ZM38.7061 42.057C39.672 41.5103 40.6606 41.0211 41.6339 40.5934C42.052 42.5152 42.2945 44.2658 42.3042 45.7269C41.6249 46.1146 40.9319 46.4824 40.2336 46.8339C39.2036 45.9298 38.0083 44.718 36.7157 43.278C36.9657 43.115 37.2107 42.9487 37.4658 42.7907C37.873 42.5379 38.2887 42.2934 38.7061 42.057ZM50.8959 35.3974C51.1361 36.4639 51.2648 37.5006 51.285 38.4994C50.907 38.9645 50.5057 39.4259 50.0727 39.8769C49.9487 39.7247 49.8004 39.598 49.6425 39.4843C50.0716 38.4371 50.4405 37.3529 50.7208 36.2345C50.7898 35.9589 50.8354 35.6764 50.8959 35.3974ZM36.6291 43.335C37.9132 44.7667 39.1019 45.9768 40.1353 46.8842C39.9894 46.9579 39.8436 47.0349 39.696 47.107C38.9303 47.48 38.1557 47.8235 37.3824 48.1524C36.1476 47.9285 34.8817 47.5655 33.6053 47.0867C33.3812 46.8169 33.1534 46.5259 32.9273 46.2366C33.9539 45.2529 35.2304 44.261 36.6291 43.335ZM41.7339 40.5465C41.9457 40.4561 42.1559 40.3689 42.3661 40.2833C43.1875 41.8381 43.8588 43.2614 44.344 44.4873C43.7115 44.8955 43.0687 45.292 42.4091 45.6703C42.3942 44.2009 42.1519 42.4584 41.7339 40.5465ZM42.4647 40.2445C43.9594 39.646 45.3851 39.2351 46.6175 39.0942C46.287 40.8436 45.7825 42.5018 45.0844 44.0064C44.872 44.1505 44.6529 44.288 44.4356 44.4288C43.9504 43.2029 43.2792 41.7894 42.4647 40.2445ZM23.0342 51.015C23.0409 51.0168 23.0475 51.0185 23.0541 51.0187C25.0998 51.7825 27.291 52.2169 29.5604 52.2554C29.7821 52.3281 30.0036 52.3942 30.2267 52.4522C31.0974 52.6806 31.9808 52.8033 32.8704 52.8204C29.5027 52.9254 26.1435 52.3009 23.0342 51.015ZM23.6124 51.1108C24.6186 51.2473 25.7711 51.2465 27.032 51.1224C27.7523 51.527 28.4847 51.8782 29.2335 52.1433C27.2849 52.0768 25.3949 51.7198 23.6124 51.1108ZM32.851 46.3117C33.0346 46.5448 33.2199 46.7813 33.4016 47.003C33.1078 46.8899 32.8139 46.767 32.5199 46.6425C32.627 46.5322 32.7374 46.4219 32.851 46.3117ZM32.4387 46.7191C32.8062 46.876 33.1737 47.0361 33.5391 47.1734C34.1111 47.8586 34.6748 48.4655 35.2239 49.0086C34.3347 49.3336 33.4498 49.6278 32.5823 49.8815C31.8992 49.8375 31.2137 49.7593 30.5294 49.6566C30.5645 49.5107 30.6062 49.3617 30.6676 49.2065C30.9701 48.4435 31.5986 47.5923 32.4387 46.7191ZM46.7299 39.0817C46.8439 39.0692 46.966 39.0504 47.0769 39.0443C48.0758 38.9836 48.9133 39.1267 49.5123 39.516C49.2818 40.0702 49.0362 40.616 48.7637 41.1434C47.697 42.1068 46.5184 43.0273 45.2608 43.8876C45.928 42.4101 46.4084 40.7873 46.7299 39.0817ZM33.7578 47.259C34.9206 47.6851 36.0747 48.0118 37.2068 48.2272C36.5812 48.4889 35.9587 48.7408 35.3358 48.9716C34.8205 48.465 34.2939 47.8947 33.7578 47.259ZM27.2073 51.1095C27.6072 51.0666 28.0184 51.0126 28.4376 50.9457C29.0698 50.847 29.7261 50.7113 30.3937 50.5596C30.4816 50.9766 30.7209 51.346 31.1311 51.6486C31.3379 51.8008 31.5889 51.9326 31.8827 52.0506C31.1077 52.1303 30.3401 52.1661 29.5799 52.1548C28.7748 51.8935 27.9809 51.5347 27.2073 51.1095ZM30.5083 49.7605C31.1096 49.8501 31.7086 49.9153 32.309 49.9626C31.6884 50.1397 31.0821 50.291 30.4821 50.4294C30.453 50.2187 30.4634 49.9958 30.5083 49.7605ZM49.6048 39.5845C49.751 39.6916 49.8859 39.8114 49.9997 39.952C49.9575 39.9952 49.9236 40.0385 49.8814 40.0817C49.6024 40.3646 49.3066 40.6424 49.0076 40.9201C49.2239 40.4844 49.4169 40.0354 49.6048 39.5845ZM51.2867 38.6655C51.2935 39.8155 51.1684 40.9158 50.861 41.9229C50.8517 41.9553 50.8391 41.9877 50.8282 42.02C50.7539 42.1131 50.6712 42.2027 50.5936 42.2941C50.7054 41.2717 50.5358 40.5046 50.1357 39.9628C50.546 39.539 50.9264 39.1049 51.2867 38.6655ZM30.4959 50.5371C31.1815 50.3792 31.8783 50.1987 32.5911 49.9892C33.8197 50.0697 35.0398 50.0556 36.2413 49.9368C36.6001 50.2385 36.9533 50.5107 37.2939 50.7306C35.5623 51.4076 33.8305 51.8289 32.1256 52.0243C31.7488 51.895 31.436 51.7424 31.194 51.5651C30.799 51.2758 30.5767 50.9296 30.4959 50.5371ZM50.0628 40.0428C50.453 40.5845 50.6161 41.3629 50.4723 42.4367C49.0858 44.0454 47.318 45.4677 45.154 46.625C45.1234 46.5023 45.1012 46.3862 45.0637 46.2552C46.6064 44.8335 47.8681 43.1133 48.856 41.2054C49.2382 40.8609 49.607 40.5113 49.9591 40.1548C49.9948 40.1181 50.0255 40.0796 50.0628 40.0428ZM53.0647 38.5627C52.3914 40.3903 51.4662 42.13 50.3064 43.7283L50.3063 43.7235C50.3419 43.6004 50.3661 43.4868 50.3951 43.3685C50.6069 42.9507 50.7835 42.5127 50.9282 42.0562C51.8069 40.9622 52.5166 39.7884 53.0647 38.5627ZM32.8775 49.9035C33.6774 49.6631 34.4883 49.3952 35.3052 49.0948C35.5839 49.3656 35.8588 49.6103 36.1284 49.8402C35.0574 49.9403 33.9699 49.9618 32.8775 49.9035ZM48.6331 41.4015C47.6791 43.1862 46.478 44.7936 45.0299 46.1406C44.9321 45.8048 44.8137 45.441 44.6735 45.0588C44.8492 44.7397 45.0148 44.4106 45.1719 44.0748C46.41 43.2353 47.5709 42.3405 48.6331 41.4015ZM35.4186 49.0546C36.0777 48.8099 36.7395 48.5408 37.4012 48.2603C38.9002 48.5267 40.3554 48.592 41.7312 48.4196C41.6969 48.4417 41.6642 48.4639 41.6316 48.4861C39.9339 49.2028 38.1296 49.639 36.2738 49.8251C35.9941 49.5885 35.7091 49.3354 35.4186 49.053L35.4186 49.0546ZM29.918 52.2525C30.6399 52.2516 31.371 52.2119 32.1079 52.1282C32.8015 52.3663 33.7482 52.5049 34.9166 52.5516C33.3508 52.8328 31.7811 52.7523 30.2495 52.3517C30.138 52.3219 30.0279 52.2855 29.918 52.2525ZM37.5818 48.1855C38.3058 47.8753 39.0294 47.5503 39.746 47.2008C39.905 47.1241 40.0623 47.0391 40.2213 46.9591C40.8685 47.522 41.4538 47.968 41.9582 48.2611C41.9468 48.2706 41.9337 48.2785 41.9223 48.2881C40.5486 48.4849 39.0889 48.4407 37.5818 48.1855ZM44.9986 44.1872C44.8795 44.4373 44.7537 44.6841 44.6228 44.9259C44.5738 44.7963 44.5281 44.6668 44.4757 44.5306C44.6506 44.4183 44.8255 44.3027 44.9986 44.1872ZM44.3842 44.5907C44.4454 44.7483 44.4998 44.9008 44.5542 45.0516C43.9872 46.0799 43.3191 47.0216 42.5478 47.857C42.4205 47.949 42.2898 48.0345 42.1607 48.1232C42.1623 48.1184 42.1638 48.1135 42.1654 48.1087L42.1637 48.1037C42.3391 47.4475 42.4177 46.6656 42.4164 45.7877C43.0859 45.4047 43.7418 45.0052 44.3842 44.5907ZM40.318 46.9088C40.99 46.5699 41.6552 46.2178 42.3083 45.8459C42.3073 46.696 42.2282 47.447 42.0605 48.0773L42.0605 48.0806L42.0572 48.0822C42.0514 48.1211 42.0404 48.1486 42.0329 48.1876C41.5403 47.9029 40.9602 47.4667 40.318 46.9088ZM44.6065 45.1846C44.7381 45.5503 44.8512 45.8977 44.9421 46.2187C44.4561 46.6654 43.9396 47.0807 43.3976 47.4644C43.2104 47.5439 43.0233 47.6251 42.8311 47.7012C43.5045 46.9388 44.0968 46.0967 44.6065 45.1846ZM32.3557 52.102C34.0256 51.8929 35.7175 51.4659 37.4096 50.7979C37.7416 51.0046 38.0646 51.1737 38.3751 51.2952C37.3911 51.8465 36.3937 52.2313 35.3899 52.4597C34.1261 52.4404 33.1037 52.3232 32.3557 52.102ZM36.3834 49.9233C38.011 49.7524 39.5949 49.3885 41.1067 48.8132C39.8834 49.5716 38.6491 50.193 37.4139 50.684C37.4021 50.6757 37.3904 50.6722 37.3787 50.6638C37.0566 50.4573 36.7236 50.2034 36.3834 49.9233ZM50.7375 42.287C50.667 42.486 50.5899 42.6832 50.506 42.8755C50.5315 42.7408 50.5585 42.6028 50.5774 42.4745C50.6308 42.412 50.6841 42.3495 50.7375 42.287ZM50.4383 42.6396C50.403 42.8556 50.3546 43.0843 50.2965 43.3226C49.3493 45.1987 47.7151 46.6756 45.3149 47.5386C45.3026 47.4178 45.3003 47.307 45.2778 47.1746C45.2535 47.0374 45.2105 46.8786 45.176 46.7297C47.3041 45.5977 49.056 44.2093 50.4383 42.6396ZM44.9792 46.3334C45.0131 46.4546 45.0285 46.5591 45.0557 46.6753C44.6707 46.878 44.2739 47.074 43.8637 47.26C44.2519 46.9677 44.6215 46.6588 44.9792 46.3334ZM42.7333 47.8589C42.7382 47.8574 42.7415 47.8542 42.7447 47.8526C42.8302 47.8184 42.9106 47.7825 42.9944 47.7499C42.8424 47.848 42.6869 47.9395 42.5315 48.0326C42.5607 48.0022 42.5865 47.9701 42.6157 47.9381C42.6549 47.9112 42.6941 47.8859 42.7333 47.8589ZM37.5361 50.7515C38.924 50.1933 40.3104 49.4755 41.6815 48.5815C41.7685 48.5441 41.8572 48.5067 41.9442 48.4676C41.8824 48.5267 41.8241 48.5891 41.7607 48.6482L41.7574 48.6481C40.6999 49.7419 39.6044 50.5923 38.488 51.2306C38.1844 51.119 37.8664 50.9516 37.5361 50.7515ZM42.1748 48.244C42.1715 48.2472 42.1683 48.252 42.1634 48.2552C42.1618 48.2568 42.1585 48.2567 42.1552 48.2567C42.1617 48.2519 42.1682 48.2488 42.1748 48.244ZM43.4557 47.5535C44.0204 47.3118 44.5617 47.0551 45.0811 46.7833C45.1103 46.9174 45.1513 47.0631 45.172 47.1873C45.1964 47.3278 45.1988 47.4468 45.2113 47.574C44.3777 47.8643 43.4515 48.0828 42.4326 48.218C42.7844 48.0097 43.1259 47.7882 43.4557 47.5535ZM42.1744 48.3906C42.7662 48.7472 43.2763 48.998 43.6962 49.1249C43.9294 49.1962 44.1388 49.2311 44.3227 49.2362C44.1788 49.3247 44.0366 49.4181 43.891 49.5032C42.9025 50.0805 41.8813 50.5968 40.8785 51.0336C41.4234 50.5506 41.8352 49.7099 42.09 48.4737C42.1176 48.4449 42.1452 48.4177 42.1744 48.3906ZM42.301 48.3425C43.3762 48.2084 44.347 47.9842 45.2234 47.6801C45.2426 47.9704 45.2413 48.2342 45.1941 48.4386C45.1637 48.5732 45.1179 48.683 45.0569 48.778C44.8788 48.8951 44.6956 49.0056 44.5141 49.1194C44.3027 49.1495 44.0439 49.1234 43.7256 49.0261C43.3375 48.9096 42.8541 48.6707 42.301 48.3425ZM49.9232 44.1852C49.8784 44.2609 49.8451 44.3352 49.797 44.4108C49.7081 44.5215 49.616 44.6305 49.5255 44.7411C49.6675 44.5614 49.7979 44.375 49.9232 44.1852ZM41.9276 48.6318C41.6065 50.0247 41.0873 50.878 40.4072 51.2315C40.284 51.2812 40.1642 51.3311 40.0426 51.3792C39.616 51.4932 39.135 51.4531 38.6132 51.2786C39.713 50.64 40.7922 49.8007 41.8335 48.7261C41.8351 48.7245 41.8351 48.7229 41.8367 48.7213C41.8676 48.6926 41.8967 48.6605 41.9276 48.6318ZM34.7917 52.6812C34.9947 52.6476 35.1976 52.6124 35.402 52.5658C35.4815 52.5673 35.5512 52.5719 35.634 52.5735C35.3517 52.6153 35.0725 52.6491 34.7917 52.6812ZM49.3703 44.9287C48.5296 45.9322 47.5848 46.8653 46.5456 47.7201C46.1266 48.0411 45.6908 48.3536 45.2382 48.6544C45.2619 48.5962 45.2838 48.5347 45.299 48.4666C45.3507 48.2412 45.3499 47.9562 45.3254 47.6446C47.0532 47.0278 48.3938 46.0974 49.3703 44.9287ZM35.7611 52.4717C36.6818 52.2303 37.5966 51.8586 38.4987 51.3465C38.9007 51.491 39.2828 51.5553 39.6385 51.5393C38.9549 51.7966 38.2918 52.007 37.6691 52.1645C37.5867 52.1841 37.5043 52.2021 37.4219 52.2217C36.8697 52.3496 36.3483 52.4422 35.8821 52.4756L35.8787 52.4756C35.8357 52.4764 35.8042 52.4725 35.7611 52.4717Z" fill="#C0E0EF" fill-opacity="0.5" shape-rendering="crispEdges"/>
<path d="M31.0811 8.17104C30.8228 8.16936 30.5628 8.1709 30.303 8.17733C30.5629 8.17253 30.8258 8.15801 31.0811 8.17104ZM31.0811 8.17104C33.4379 8.19329 35.7803 8.56706 38.0251 9.27449C36.812 8.9793 35.5171 8.81774 34.1439 8.79312C33.1616 8.4486 32.1436 8.22555 31.0811 8.17104ZM19.8259 10.8582C19.1069 11.2517 18.4201 11.6815 17.7654 12.1397C16.0186 13.292 14.5619 14.5427 13.7452 15.6656L13.742 15.6704L13.7387 15.672C13.7084 15.7316 13.6928 15.7802 13.6642 15.8383C13.1595 16.3466 12.7401 16.8939 12.4042 17.4755C7.66145 24.2449 7.05115 33.4306 11.5918 41.2032C11.5937 41.2114 11.5955 41.2196 11.5973 41.2277L11.6042 41.2393C11.6179 41.264 11.6365 41.2839 11.6503 41.3086C11.6605 41.3251 11.6675 41.3415 11.6778 41.358C13.9425 45.1701 17.1584 48.1225 20.848 50.0954C21.2652 50.416 21.7735 50.6603 22.3634 50.841C27.1208 52.9694 32.5205 53.5335 37.6499 52.2814C39.5448 51.8192 41.4017 51.1137 43.1753 50.141C43.7796 49.8106 44.3569 49.4535 44.9157 49.0798C44.9336 49.0671 44.9549 49.0561 44.9712 49.0418C45.5919 48.6221 46.184 48.1773 46.749 47.706C48.0548 46.6919 49.1619 45.5941 49.8732 44.4937C51.7168 42.1543 53.037 39.4808 53.786 36.6481C53.7875 36.64 53.789 36.6319 53.7921 36.6238C54.2248 35.1776 54.4511 33.6819 54.4785 32.1726C54.6879 27.9615 53.6857 23.6133 51.325 19.6414C48.793 15.3828 45.0771 12.1944 40.8384 10.2501C40.7882 10.228 40.7381 10.2058 40.688 10.1837C36.7608 8.41479 32.3932 7.71239 28.0982 8.22151C28.0949 8.22145 28.09 8.22298 28.09 8.22298C26.3786 8.26193 24.3567 8.83078 22.3569 9.67531C21.4994 10.0156 20.6529 10.405 19.8259 10.8582ZM19.4983 11.1989C19.8502 10.9988 20.2106 10.8037 20.5744 10.6185C21.1038 10.3484 21.6419 10.0998 22.1819 9.86579C22.2755 9.82686 22.3709 9.79285 22.4662 9.75558C21.8654 10.1773 21.363 10.9642 20.9623 12.1064C20.9574 12.1095 20.9524 12.1127 20.9476 12.1175C20.8651 12.1355 20.7859 12.1486 20.7035 12.1682L20.6903 12.1696L20.6805 12.1775C20.622 12.2285 20.5667 12.278 20.5097 12.329C20.0053 12.1158 19.5501 11.9572 19.1881 11.908C18.8095 11.8551 18.4989 11.8899 18.2645 12.0092C18.1858 12.0484 18.1139 12.0975 18.0506 12.1566C17.8002 12.388 17.6852 12.7555 17.6816 13.2326C17.6806 13.2635 17.6913 13.3045 17.692 13.337C17.0709 13.5744 16.4849 13.8319 15.9625 14.12C15.4107 14.4238 14.9273 14.7598 14.4808 15.1145C15.5005 14.0362 16.6446 13.0499 17.9102 12.1751C17.9151 12.1719 17.92 12.1671 17.9249 12.1639C18.4315 11.8332 18.9531 11.5077 19.4983 11.1989ZM18.316 12.1014C18.5291 11.9947 18.8116 11.961 19.1769 12.0104C19.5157 12.0575 19.9492 12.2059 20.4268 12.4056C20.365 12.4598 20.3065 12.514 20.2447 12.5682C19.3563 12.7728 18.5383 13.0161 17.7954 13.2951C17.7951 13.2788 17.788 13.2558 17.7877 13.2379C17.7916 12.777 17.9039 12.4388 18.1266 12.233C18.1835 12.1819 18.2456 12.1375 18.316 12.1014ZM22.7712 9.68975C22.8826 9.63162 22.9943 9.58652 23.1095 9.54963C23.603 9.39294 24.1454 9.43425 24.7258 9.64242C24.6324 9.6895 24.5404 9.7252 24.447 9.7739C23.3606 10.3411 22.2496 11.0805 21.1203 11.9791C21.5632 10.7905 22.1191 10.0323 22.7712 9.68975ZM23.5362 9.36397C25.0444 8.85696 26.584 8.51179 28.1352 8.32971C28.261 8.32723 28.3755 8.33919 28.4981 8.34316C27.3218 8.55684 26.1032 8.97329 24.8554 9.58301C24.3948 9.40482 23.9527 9.32633 23.5362 9.36397ZM14.9141 14.5136C14.8508 14.5776 14.7858 14.6398 14.7225 14.7038C14.7858 14.6398 14.8491 14.5775 14.9141 14.5136ZM16.019 14.2074C16.5283 13.9272 17.0978 13.6791 17.7025 13.4464C17.7158 13.6974 17.7529 13.975 17.8154 14.2792C15.7233 15.7946 14.0345 17.3568 12.6989 18.9437C12.8116 18.1364 13.1572 17.1316 13.7407 15.9358C13.7957 15.8718 13.8491 15.8093 13.9041 15.7452C14.4954 15.1815 15.1886 14.6622 16.019 14.2074ZM17.8027 13.4059C18.4978 13.144 19.2565 12.9142 20.0788 12.7165C20.0235 12.7676 19.9682 12.8154 19.9129 12.8665C19.2115 13.3091 18.5384 13.7571 17.9084 14.2109C17.8478 13.915 17.8125 13.6472 17.8027 13.4059ZM24.4969 9.86443C24.6197 9.80001 24.7397 9.7567 24.861 9.6955C25.1682 9.81863 25.4883 10.0055 25.8138 10.2186C24.4241 10.6872 22.9806 11.2785 21.4784 12.0022C21.3795 12.0231 21.2789 12.044 21.1784 12.0665C22.3077 11.1679 23.4155 10.4317 24.4969 9.86443ZM24.989 9.63442C26.3943 8.95769 27.7538 8.54718 29.065 8.37355C29.863 8.52887 30.508 8.73339 31.0229 8.97613C29.421 9.18656 27.7251 9.58086 25.9372 10.1754C25.6149 9.96073 25.2963 9.76571 24.989 9.63442ZM20.7486 12.2652C20.7535 12.2653 20.7585 12.2637 20.7634 12.2622C20.7325 12.2893 20.6998 12.3131 20.6673 12.3402C20.6949 12.3163 20.7193 12.2907 20.7486 12.2652ZM13.4742 16.2646C12.9635 17.3771 12.6582 18.3256 12.5777 19.0928C12.1914 19.5594 11.8283 20.0264 11.5033 20.4974C11.6335 19.4852 11.9371 18.5317 12.421 17.6517C12.7508 17.1759 13.1041 16.7152 13.4742 16.2646ZM20.5388 12.4533C20.5438 12.4567 20.5521 12.4585 20.5571 12.4618C20.5293 12.4776 20.5049 12.4967 20.4771 12.514C20.4771 12.514 20.4738 12.514 20.4704 12.5139C20.4949 12.4948 20.516 12.4741 20.5388 12.4533ZM21.0404 12.2023C21.0552 12.1994 21.0701 12.198 21.0832 12.1934C21.0669 12.2028 21.0505 12.2107 21.0341 12.2185C21.0373 12.2137 21.0389 12.2088 21.0404 12.2023ZM20.8217 12.4408C20.8299 12.4377 20.8398 12.4347 20.8479 12.4299C20.8464 12.4348 20.8448 12.438 20.8432 12.4412C20.8366 12.4411 20.8283 12.4426 20.8217 12.4408ZM20.984 12.3625C21.1627 12.2731 21.3398 12.1885 21.5186 12.1023C23.4823 11.6855 25.3662 11.4153 27.1717 11.2837C27.3405 11.44 27.5131 11.6225 27.6822 11.7967C26.7999 12.1398 25.9184 12.5203 25.0476 12.9353C23.7181 12.6982 22.3536 12.5336 20.9527 12.4515C20.962 12.4207 20.973 12.3932 20.984 12.3625ZM20.4223 12.6726C19.6731 13.7772 19.0186 14.9015 18.4522 16.0389C18.3086 15.6551 18.1853 15.2912 18.0874 14.9538C18.0732 14.9079 18.0675 14.8703 18.055 14.8245C18.6648 14.1928 19.3127 13.5651 20.0005 12.9398C20.1411 12.8513 20.2784 12.7611 20.4223 12.6726ZM20.6028 12.5914C20.6589 12.5794 20.7099 12.5657 20.7677 12.5538C20.7777 12.5589 20.786 12.5623 20.7961 12.5674C20.7915 12.5885 20.7852 12.603 20.779 12.6241L20.7757 12.624L20.7758 12.6289C20.6078 13.4905 20.5308 14.4288 20.5209 15.414C19.8979 15.8027 19.2884 16.2048 18.6923 16.6136C18.6314 16.4658 18.562 16.313 18.5061 16.1703C19.1042 14.9602 19.797 13.7633 20.6028 12.5914ZM21.9154 11.9096C23.3014 11.2586 24.6368 10.7238 25.9246 10.2924C26.0572 10.3812 26.1861 10.4505 26.3207 10.554C26.5629 10.7395 26.8108 10.9592 27.0605 11.1871C25.4104 11.3119 23.6964 11.5479 21.9154 11.9096ZM19.4593 13.2796C18.9571 13.7489 18.4832 14.2235 18.0259 14.6985C17.9918 14.5692 17.9628 14.4449 17.9355 14.3238C18.4235 13.9732 18.9281 13.6245 19.4593 13.2796ZM20.8979 12.61C20.9565 12.6388 21.0014 12.6511 21.0617 12.6816C21.0634 12.6832 21.065 12.6833 21.0667 12.6849C21.6026 13.1463 22.1442 13.6388 22.686 14.1459C22.532 14.2309 22.3764 14.3126 22.2225 14.4009C21.7559 14.664 21.2928 14.9352 20.8381 15.2132C20.7694 15.2559 20.7024 15.3002 20.6338 15.3428C20.6476 14.3936 20.7187 13.4877 20.8807 12.6569C20.8853 12.6391 20.8933 12.6279 20.8979 12.61ZM21.036 12.5589C22.3507 12.6378 23.6339 12.7943 24.8835 13.012C24.1751 13.3535 23.4738 13.7163 22.781 14.094C22.2274 13.5768 21.6774 13.0745 21.1313 12.6047L21.1263 12.6014L21.1195 12.5947C21.0894 12.5795 21.0661 12.5725 21.036 12.5589ZM28.9086 8.25329C29.1648 8.2305 29.421 8.20934 29.6774 8.19632C29.4774 8.21204 29.2743 8.24236 29.0729 8.26946C29.0529 8.26582 29.0363 8.26061 29.0163 8.25698L29.013 8.25691C28.9798 8.25302 28.9418 8.25555 28.9086 8.25329ZM17.8409 14.3937C17.8717 14.5229 17.8991 14.6505 17.9367 14.7896C15.9405 16.8704 14.3607 18.9901 13.1551 21.1088C12.9566 20.877 12.8086 20.5989 12.7288 20.2586C12.6528 19.938 12.6401 19.5599 12.6828 19.1323C14.0196 17.521 15.7211 15.933 17.8409 14.3937ZM29.3723 8.33707C30.9288 8.17301 32.4126 8.33981 33.8093 8.78835C32.9731 8.78865 32.1064 8.84049 31.2112 8.95041C30.726 8.70335 30.1141 8.49947 29.3723 8.33707ZM26.0479 10.2491C27.8606 9.65023 29.5765 9.26119 31.1935 9.0592C31.8093 9.37717 32.2193 9.75309 32.4432 10.1759C32.469 10.2253 32.485 10.2777 32.5058 10.327C32.4547 10.3374 32.4052 10.3446 32.3557 10.3551C31.4721 10.5483 30.5763 10.795 29.678 11.084C28.8733 11.0866 28.0493 11.1164 27.2076 11.1752C26.9309 10.9191 26.6544 10.6793 26.3836 10.4722C26.2693 10.3853 26.1604 10.3262 26.0479 10.2491ZM17.9691 14.9173C17.9745 14.9402 17.9782 14.9582 17.9836 14.9795C18.092 15.3464 18.2326 15.7448 18.3934 16.1632C18.2328 16.4892 18.0788 16.8168 17.9315 17.1463C16.2487 18.3552 14.7098 19.6336 13.3847 20.9194C14.5577 18.9076 16.0784 16.8959 17.9691 14.9173ZM11.992 18.3015C11.6822 19.0269 11.4724 19.79 11.3778 20.5927C11.3735 20.6269 11.3742 20.6627 11.3716 20.6969C10.0068 22.7213 9.18556 24.7692 8.83249 26.7934C9.27147 23.779 10.3421 20.8824 11.992 18.3015ZM12.5616 19.2782C12.536 19.6491 12.556 19.985 12.6249 20.2778C12.7135 20.6476 12.8754 20.9536 13.0974 21.2054C12.6104 21.688 12.1467 22.1726 11.7275 22.6532C11.6434 22.7493 11.5707 22.8424 11.4899 22.9386C11.4083 22.1813 11.4017 21.445 11.475 20.7347C11.8046 20.2475 12.1657 19.7625 12.5616 19.2782ZM31.3735 9.03495C32.3283 8.92291 33.2449 8.88179 34.1327 8.89714C34.2945 8.95398 34.4578 9.0027 34.618 9.06603C35.164 9.2882 35.6927 9.55727 36.2089 9.86193C35.0439 9.89993 33.8399 10.0512 32.6114 10.3062C32.587 10.2471 32.5676 10.1881 32.5366 10.1305C32.3162 9.71423 31.9346 9.34699 31.3735 9.03495ZM27.3222 11.2752C28.0168 11.2282 28.7049 11.1941 29.3754 11.1857C28.8474 11.3613 28.3181 11.5515 27.789 11.7564C27.6334 11.5954 27.4759 11.4214 27.3222 11.2752ZM18.4474 16.2946C18.4946 16.4176 18.5519 16.5474 18.6041 16.6754C18.4376 16.7895 18.2693 16.9019 18.106 17.0177C18.2154 16.7755 18.3297 16.535 18.4474 16.2946ZM22.2774 14.4915C22.4394 14.4001 22.6049 14.3121 22.7687 14.2224C23.9857 15.3646 25.2098 16.6079 26.4289 17.9325C25.6719 18.4099 24.883 18.8672 24.0785 19.2866C23.1052 19.7957 22.1158 20.2443 21.1434 20.6328C20.8 18.8054 20.619 17.0674 20.6298 15.4731C20.7197 15.4178 20.8063 15.3575 20.8979 15.3023C21.3509 15.0243 21.8124 14.7546 22.2774 14.4915ZM22.862 14.1721C23.5876 13.7755 24.3234 13.397 25.0663 13.0432C26.6951 13.3381 28.2599 13.7492 29.7703 14.2504C29.9473 14.4867 30.126 14.723 30.3049 14.9723C29.2637 15.9671 27.9641 16.9635 26.5205 17.8789C25.3031 16.5543 24.0791 15.3142 22.862 14.1721ZM20.517 15.5442C20.5127 17.1337 20.6985 18.8621 21.0415 20.6732C20.9364 20.7136 20.8328 20.7523 20.7293 20.7911C19.9107 19.2949 19.2305 17.9203 18.7325 16.717C19.3139 16.316 19.9087 15.9251 20.517 15.5442ZM25.2304 12.9681C26.0702 12.5737 26.9173 12.2088 27.765 11.8781C28.3857 12.5186 29.0202 13.2669 29.6632 14.1115C28.2363 13.6445 26.7629 13.2515 25.2304 12.9681ZM18.6443 16.7772C19.1422 17.9773 19.8157 19.3452 20.6291 20.8315C19.104 21.4033 17.6529 21.7844 16.4118 21.9056C16.7939 20.3347 17.3301 18.7667 18.0174 17.218C18.2247 17.0704 18.4336 16.923 18.6443 16.7772ZM27.8718 11.8394C28.4831 11.6035 29.0929 11.3823 29.7033 11.1855C30.7117 11.1836 31.6911 11.2235 32.6449 11.3052C32.5927 11.8368 32.3676 12.4123 31.9857 13.0126C31.6792 13.4953 31.2654 13.9956 30.7854 14.4978C30.4718 14.3827 30.1533 14.2707 29.8332 14.1636C29.1695 13.2845 28.5146 12.5048 27.8718 11.8394ZM17.8395 17.3481C17.1829 18.8568 16.6724 20.3845 16.301 21.9133C15.7687 21.9601 15.2656 21.9717 14.8288 21.9096C14.2725 21.8322 13.8055 21.6636 13.4489 21.3929C13.375 21.3378 13.3091 21.273 13.2448 21.2083C14.5728 19.8965 16.1309 18.5891 17.8395 17.3481ZM11.3529 20.918C11.2957 21.6075 11.3134 22.3212 11.3978 23.0525C10.1966 24.4905 9.31592 25.8906 8.88471 27.1641C8.90085 27.0618 8.91037 26.9594 8.92651 26.8571C9.26414 24.888 10.0516 22.8916 11.3529 20.918ZM30.0225 11.0874C30.814 10.8419 31.6012 10.6273 32.3793 10.4565C32.4354 10.4445 32.4915 10.4391 32.5459 10.4271C32.6337 10.6731 32.6705 10.9328 32.6544 11.2044C31.8002 11.1311 30.9234 11.0932 30.0225 11.0874ZM34.4691 8.90846C36.4145 8.97496 38.1968 9.32826 39.8053 9.93231C40.1089 10.0456 40.4062 10.1686 40.697 10.2995C40.961 10.417 41.2152 10.544 41.4696 10.6742C39.9371 10.0619 38.2181 9.81077 36.3941 9.85082C35.8309 9.51268 35.2519 9.21333 34.6542 8.97063C34.594 8.94505 34.5292 8.93078 34.4691 8.90846ZM32.6515 10.4047C33.9245 10.1424 35.1699 9.98539 36.3681 9.95618C37.5484 10.6726 38.6484 11.5943 39.6622 12.6788C37.5643 11.9449 35.2606 11.4383 32.7606 11.2146C32.7764 10.9332 32.7428 10.6621 32.6515 10.4047ZM13.1769 21.2884C13.2428 21.3548 13.3104 21.4196 13.386 21.4764C13.7611 21.7621 14.2481 21.9343 14.8177 22.0136C15.2544 22.0757 15.751 22.0673 16.2768 22.0252C15.5839 24.9306 15.3961 27.8375 15.5955 30.6524C15.5242 30.7276 15.4462 30.8027 15.3766 30.8795C15.1919 31.0812 15.0305 31.285 14.8557 31.4869C13.3182 29.0763 12.2089 26.6332 11.7135 24.3322C12.117 23.3219 12.6047 22.3052 13.1769 21.2884ZM12.9137 21.5391C12.4412 22.4063 12.0282 23.2714 11.6764 24.1327C11.6046 23.7796 11.5496 23.4316 11.5078 23.0855C11.6097 22.9653 11.7016 22.8449 11.8084 22.7232C12.1515 22.3307 12.526 21.9356 12.9137 21.5391ZM32.7494 11.3154C35.3124 11.5435 37.6694 12.0691 39.8061 12.8347C40.9171 14.0514 41.9129 15.4727 42.7956 17.0271C42.6121 17.0448 42.4384 17.0529 42.2517 17.0753C40.8395 17.2487 39.3275 17.5683 37.7663 17.9913C35.6722 16.6303 33.3732 15.4577 30.8923 14.5389C31.3624 14.0446 31.7713 13.5492 32.0762 13.0697C32.463 12.4598 32.696 11.8681 32.7494 11.3138L32.7494 11.3154ZM11.414 23.1994C11.4613 23.57 11.5218 23.9409 11.6023 24.3203C10.6049 26.8257 10.1054 29.3048 10.0279 31.6877C9.41918 31.1484 8.98097 30.4429 8.75399 29.5379C8.74299 29.4856 8.74512 29.427 8.7374 29.3731C8.7311 28.899 8.74793 28.4222 8.79123 27.9441C9.08045 26.5278 10.0144 24.8942 11.414 23.1977L11.414 23.1994ZM36.5534 9.94669C38.7866 9.91772 40.85 10.335 42.5955 11.3244C43.4792 12.2778 43.8257 13.3594 43.745 14.5273C42.5473 13.8464 41.2585 13.2501 39.8774 12.753C38.8563 11.639 37.7458 10.6894 36.5534 9.94669ZM29.9403 14.3025C30.2004 14.3905 30.4557 14.485 30.7126 14.5778C30.6088 14.685 30.4917 14.7919 30.3796 14.9005C30.2331 14.6957 30.0867 14.4991 29.9403 14.3025ZM11.6459 24.5068C12.1624 26.7871 13.2643 29.1958 14.7846 31.5718C14.3754 32.0526 13.9944 32.5356 13.6499 33.0225C12.8105 32.9494 12.0488 32.7867 11.3893 32.5183C10.9151 32.3252 10.4961 32.0762 10.1307 31.7744C10.1973 29.4238 10.6793 26.9818 11.6459 24.5068ZM16.3859 22.0175C17.6552 21.9001 19.1327 21.5114 20.6824 20.927C20.8973 21.3187 21.1173 21.7171 21.3508 22.1238C21.5815 23.1331 21.8557 24.1628 22.1666 25.2046C19.7031 26.8579 17.4811 28.6673 15.6961 30.5485C15.5072 27.7647 15.6973 24.8888 16.3859 22.0159L16.3859 22.0175ZM30.8194 14.6206C33.2769 15.5259 35.5523 16.6834 37.6296 18.0261C36.2117 18.4143 34.7542 18.8881 33.2803 19.4528C32.3448 17.8225 31.3904 16.3205 30.4427 14.9896C30.5694 14.8666 30.701 14.7437 30.8194 14.619L30.8194 14.6206ZM30.3664 15.0631C31.3072 16.3824 32.2531 17.8728 33.1817 19.4916C31.9133 19.9788 30.6394 20.5293 29.3749 21.129C28.457 20.0381 27.5296 18.9748 26.595 17.9569C28.0304 17.0462 29.3267 16.0563 30.3664 15.0631ZM20.7809 20.8881C20.873 20.8541 20.9666 20.8184 21.0603 20.7811C21.1232 21.1113 21.2063 21.4484 21.2792 21.7821C21.1058 21.4774 20.9442 21.1844 20.7809 20.8881ZM21.1621 20.7407C22.146 20.3491 23.1469 19.8943 24.1317 19.3805C24.9428 18.9562 25.7398 18.4943 26.5033 18.0121C27.4363 19.0283 28.3619 20.0868 29.2781 21.1744C28.832 21.3873 28.3859 21.597 27.9434 21.8215C27.3336 22.1291 26.7307 22.4482 26.133 22.7788C25.0604 23.3723 24.0117 23.9988 22.9966 24.6521C22.459 23.7786 21.9264 22.9101 21.4526 22.0834C21.3491 21.6319 21.2472 21.1821 21.1621 20.7407ZM8.61493 29.2128C8.6192 29.2601 8.62181 29.3074 8.6294 29.3548C8.65922 31.7251 9.29704 34.0272 10.3956 36.1867C10.6133 37.287 10.9197 38.3532 11.3115 39.3802C11.3214 39.8707 11.3859 40.3589 11.5 40.8399C9.41299 37.1338 8.48553 33.1225 8.61493 29.2128ZM21.5257 22.422C21.953 23.1598 22.4323 23.9344 22.91 24.7091C22.6894 24.8514 22.4754 24.9972 22.2597 25.1413C21.9861 24.224 21.7359 23.3152 21.5257 22.422ZM8.75817 29.9077C9.01926 30.6978 9.44779 31.3346 10.024 31.8245C9.99042 33.1887 10.0953 34.5213 10.3251 35.8124C9.41598 33.9318 8.86571 31.9457 8.75817 29.9077ZM40.0196 12.9104C41.346 13.3983 42.5864 13.9807 43.739 14.6395C43.7243 14.8086 43.6996 14.9792 43.665 15.1528C43.5497 15.7532 43.3089 16.3757 42.9955 17.0081C42.9674 17.0108 42.9377 17.0135 42.9096 17.0163C42.0543 15.5031 41.0938 14.1101 40.0196 12.9104ZM42.8824 11.5091C45.1315 12.9984 46.9364 15.0378 48.296 17.414C48.1526 17.3657 48.0092 17.3173 47.8594 17.277C47.7545 17.2489 47.635 17.2353 47.5268 17.2104C46.4243 16.243 45.196 15.3629 43.8472 14.5862C43.9341 13.4771 43.6348 12.4355 42.8824 11.5091ZM43.3298 11.687C46.3361 13.5279 48.9624 16.0619 50.9336 19.2006C50.3412 18.4043 49.4917 17.831 48.441 17.4591C47.146 15.1705 45.4432 13.1802 43.3298 11.687ZM26.1879 22.8743C26.784 22.5436 27.3868 22.2229 27.9949 21.9153C28.4424 21.6877 28.8951 21.4732 29.3477 21.2587C30.7086 22.8809 32.0279 24.5723 33.3077 26.2776C32.2189 26.9718 31.0865 27.6342 29.93 28.2554C28.7818 28.8735 27.6111 29.4473 26.4394 29.9705C25.6425 28.807 24.8722 27.6473 24.1387 26.5062C23.7539 25.906 23.4128 25.3327 23.0516 24.7476C24.0666 24.0943 25.1153 23.4662 26.1879 22.8743ZM29.4412 21.2133C30.7025 20.6185 31.9698 20.0727 33.2333 19.5871C33.508 20.0663 33.7811 20.5503 34.0495 21.0473C34.6601 22.173 35.2569 23.3473 35.8342 24.5441C35.0527 25.1171 34.2394 25.6781 33.3926 26.2189C32.1162 24.517 30.8004 22.8322 29.4412 21.2133ZM22.9649 24.8046C23.3262 25.3897 23.6656 25.9613 24.0504 26.5599C24.7805 27.6977 25.5474 28.8557 26.3409 30.0142C25.6549 30.3187 24.9701 30.5988 24.2883 30.8659C23.6837 29.3836 23.1252 27.8924 22.6466 26.4158C22.5194 26.0257 22.4073 25.6392 22.2901 25.2526C22.5139 25.1022 22.7361 24.9517 22.9649 24.8046ZM10.1283 31.9047C10.4868 32.1916 10.8924 32.4307 11.3483 32.6169C12.0044 32.8819 12.7546 33.0477 13.5774 33.1221C12.4895 34.6779 11.7349 36.2547 11.4452 37.8078C11.098 37.2653 10.7788 36.712 10.4925 36.1462C10.223 34.7795 10.0966 33.3601 10.1283 31.9047ZM22.2003 25.3144C22.3139 25.6895 22.4225 26.0646 22.5444 26.4432C23.0249 27.9247 23.5834 29.4175 24.188 30.9014C21.4557 31.9599 18.7849 32.7021 16.4504 32.962C16.2803 32.9816 16.123 32.9834 15.9577 32.9966C15.843 32.2387 15.7611 31.47 15.704 30.6936C17.4871 28.7993 19.7204 26.9788 22.2003 25.3144ZM33.3319 19.5482C34.8305 18.9759 36.311 18.4944 37.7503 18.1033C38.7857 18.7779 39.7657 19.4986 40.6967 20.2542C39.4027 21.6871 37.7709 23.1185 35.9191 24.4822C35.3435 23.2903 34.7502 22.121 34.1429 20.9986C33.8746 20.5049 33.6032 20.0241 33.3319 19.5482ZM43.8379 14.6968C45.1113 15.4329 46.2806 16.2631 47.334 17.1725C46.1051 16.9161 44.6833 16.8661 43.1195 16.9991C43.4216 16.3811 43.6543 15.7699 43.7682 15.1776C43.7997 15.0169 43.8213 14.8561 43.8362 14.6968L43.8379 14.6968ZM37.8871 18.0685C39.4121 17.6595 40.8895 17.349 42.2671 17.1799C42.467 17.1544 42.6556 17.1466 42.8506 17.1275C42.8677 17.1572 42.8865 17.1836 42.902 17.2132C42.4874 18.0017 41.9407 18.8056 41.2683 19.6152C41.1131 19.8012 40.9347 19.9883 40.768 20.1757C39.8571 19.4352 38.8973 18.7295 37.8871 18.0685ZM15.6018 30.7975C15.6578 31.5185 15.7352 32.2333 15.8422 32.939C15.5201 32.4882 15.2063 32.0376 14.9139 31.5824C15.0951 31.3725 15.2631 31.1608 15.4542 30.9511C15.5012 30.8998 15.5548 30.8487 15.6018 30.7975ZM14.8428 31.6674C15.1334 32.116 15.4439 32.5649 15.7625 33.0091C15.0681 33.0594 14.3994 33.0759 13.7792 33.0298C14.1061 32.5735 14.4595 32.1194 14.8428 31.6674ZM13.7018 33.1326C14.3636 33.186 15.0835 33.1655 15.8308 33.1098C15.8444 33.128 15.8564 33.1477 15.8717 33.1659C16.5026 37.1716 17.9342 40.8912 19.8832 43.997C18.9857 44.0775 18.1397 44.0842 17.3405 44.033C15.8589 42.9119 14.4992 41.6741 13.3293 40.3244C12.668 39.5609 12.0673 38.7627 11.5307 37.9414C11.8048 36.3521 12.5751 34.7333 13.7018 33.1326ZM43.0688 17.1089C44.7234 16.9646 46.2198 17.0193 47.4891 17.3074C48.037 17.7918 48.5523 18.2968 49.0382 18.8191C49.3166 19.4043 49.5722 20.0069 49.8016 20.622C50.3112 21.9885 50.6847 23.4224 50.9512 24.8868C50.5237 25.8542 49.936 26.8446 49.1698 27.8463C48.6989 27.8161 48.2119 27.8084 47.7008 27.8345C47.258 27.1469 46.7772 26.4666 46.2602 25.7939C45.745 23.5755 45.0388 21.4137 44.1389 19.4144C43.7955 18.6505 43.4181 17.9218 43.0228 17.2106C43.0403 17.1767 43.0512 17.1427 43.0688 17.1089ZM42.9689 17.3285C43.3471 18.0149 43.7108 18.7205 44.042 19.4549C44.9089 21.3803 45.5985 23.4554 46.1086 25.5874C44.6313 23.6959 42.8643 21.8885 40.8521 20.2425C41.0189 20.0551 41.1989 19.868 41.3541 19.6804C42.0103 18.89 42.5557 18.1024 42.9689 17.3285ZM15.9713 33.0994C16.1383 33.0847 16.2973 33.0845 16.4674 33.0649C18.8151 32.8036 21.4926 32.0616 24.2298 30.9999C25.0259 32.9435 25.9143 34.8628 26.8574 36.7066C25.2836 37.8965 23.868 39.1316 22.6993 40.3732C20.2017 38.2244 17.9255 35.8062 16.0896 33.2971C16.0488 33.2426 16.0162 33.1866 15.977 33.1337C15.9751 33.1223 15.9732 33.1109 15.9713 33.0994ZM16.0048 33.359C17.8457 35.8731 20.1237 38.2962 22.6263 40.45C22.2276 40.8772 21.8488 41.3048 21.5114 41.73C20.9124 42.4873 20.4209 43.2401 20.0484 43.9757C20.0318 43.977 20.0137 43.9799 19.9972 43.9828C18.0758 40.9346 16.6541 37.2901 16.0048 33.359ZM10.5698 36.5305C10.8297 37.0143 11.1126 37.492 11.4168 37.9604C11.3533 38.3419 11.3229 38.7176 11.3156 39.0953C11.0107 38.2653 10.7615 37.4087 10.5698 36.5305ZM40.7809 20.3209C42.8536 22.0137 44.6599 23.8805 46.1599 25.8294C46.3214 26.528 46.4598 27.2293 46.5801 27.9352C46.443 27.9505 46.314 27.9562 46.1736 27.9763C43.8088 28.2927 41.1422 29.0805 38.4305 30.1753C37.6754 28.2927 36.8473 26.4071 35.9691 24.5808C37.834 23.2093 39.4755 21.7667 40.7809 20.3209ZM47.6753 17.3451C47.7269 17.3575 47.7849 17.3635 47.8349 17.3775C48.0181 17.4266 48.1964 17.4838 48.3698 17.5441C48.545 17.8553 48.7137 18.1712 48.8726 18.4918C48.4937 18.0986 48.0918 17.7163 47.6753 17.3451ZM48.5217 17.6007C49.7147 18.047 50.6299 18.7567 51.1803 19.7721C51.5363 20.5053 51.6863 21.2867 51.6598 22.1055C50.9455 20.9338 50.0966 19.8149 49.1232 18.767C48.9347 18.3709 48.733 17.981 48.5217 17.6007ZM24.3284 30.9643C25.0184 30.6958 25.7098 30.4109 26.4023 30.1033C27.4688 31.6612 28.5814 33.202 29.7033 34.7186C28.7406 35.3403 27.8181 35.9839 26.9406 36.6431C26.0009 34.8075 25.121 32.8981 24.3284 30.9643ZM35.8809 24.6427C36.7557 26.4624 37.5803 28.3397 38.332 30.2157C37.8064 30.4288 37.2795 30.6549 36.7527 30.8924C35.7134 29.3692 34.601 27.8333 33.4573 26.3065C34.2959 25.7688 35.1043 25.2125 35.8809 24.6427ZM11.5041 38.0989C12.0251 38.889 12.6103 39.6559 13.2478 40.3912C14.3889 41.7078 15.715 42.9205 17.1548 44.023C16.5279 43.9735 15.9236 43.8968 15.3726 43.756C14.4938 43.5324 13.7251 43.1854 13.0779 42.7105C12.424 41.6572 11.8648 40.5374 11.4154 39.3627C11.4069 38.9439 11.4382 38.5243 11.5041 38.0989ZM26.5008 30.0612C27.6709 29.538 28.8382 28.9642 29.9849 28.3476C31.143 27.7248 32.2787 27.0608 33.3707 26.3651C34.511 27.8886 35.6184 29.4179 36.6543 30.9361C35.2956 31.5486 33.9399 32.223 32.6202 32.96C31.6525 33.5002 30.7103 34.075 29.7916 34.6633C28.6731 33.1517 27.5656 31.6142 26.5008 30.0612ZM11.432 39.6887C11.8313 40.6801 12.3043 41.6322 12.8492 42.5367C12.3962 42.1649 12.0081 41.7226 11.7011 41.202C11.6994 41.1988 11.6977 41.1955 11.6959 41.1922L11.6942 41.1905C11.6942 41.1905 11.6942 41.1889 11.6925 41.1872C11.5467 40.6942 11.4654 40.1943 11.432 39.6887ZM49.2465 19.0495C50.1663 20.0687 50.9732 21.1526 51.6501 22.2828C51.6114 22.9026 51.4769 23.5401 51.2468 24.1953C51.1872 24.362 51.0997 24.5346 51.0286 24.7042C50.7632 23.2936 50.3924 21.9119 49.9004 20.593C49.7026 20.0664 49.4786 19.5556 49.2465 19.0495ZM51.3138 19.8203C53.1868 23.019 54.1756 26.4582 54.3639 29.8707C54.1286 27.8189 53.5391 25.7767 52.604 23.8353C52.3464 23.3027 52.0642 22.7777 51.7557 22.262C51.8063 21.4079 51.6688 20.5877 51.3138 19.8203ZM12.3087 42.1762C12.5185 42.3969 12.7511 42.5967 12.9965 42.779C13.308 43.2784 13.6375 43.7652 13.9897 44.2345C14.6637 45.1334 15.4158 45.9686 16.228 46.7415C14.7539 45.4169 13.4313 43.8899 12.3087 42.1762ZM13.2284 42.9446C13.8427 43.3522 14.5526 43.6556 15.3482 43.8581C15.9491 44.0113 16.6114 44.0924 17.2996 44.1381C17.984 44.6545 18.6894 45.1468 19.424 45.6055C19.3766 45.8017 19.3359 45.9963 19.3083 46.188C19.129 47.4729 19.4596 48.6681 20.4043 49.6911C17.9341 48.3197 15.7714 46.4347 14.0746 44.1742C13.7768 43.7776 13.4969 43.3651 13.2284 42.9446ZM51.7464 22.4573C52.0191 22.9234 52.2754 23.3958 52.5071 23.8758C53.6151 26.1755 54.2392 28.6175 54.3547 31.0465C53.8515 29.6671 52.8363 28.7649 51.462 28.2777C51.4009 27.1397 51.2588 26.0116 51.0574 24.8986C51.1539 24.6757 51.2669 24.4531 51.3436 24.233C51.5565 23.628 51.6935 23.0345 51.7464 22.4573ZM32.6734 33.0523C33.998 32.3137 35.3554 31.6377 36.7173 31.0236C37.8745 32.725 38.9214 34.3786 39.8962 35.9852C38.5563 36.87 37.1627 37.718 35.7296 38.5017C35.0287 38.8873 34.3191 39.2532 33.6061 39.6093C32.3714 38.0873 31.1111 36.4443 29.8563 34.7509C30.7717 34.1625 31.7089 33.5908 32.6734 33.0523ZM29.7664 34.8062C31.0178 36.4979 32.2763 38.1344 33.5093 39.6547C32.2108 40.2977 30.903 40.8834 29.6005 41.409C29.5731 41.3645 29.5441 41.3233 29.5167 41.2788C28.6483 39.8517 27.8009 38.3224 26.9906 36.7418C27.8713 36.0778 28.7988 35.431 29.7647 34.8061L29.7664 34.8062ZM36.8142 30.9831C37.3344 30.7488 37.8547 30.5242 38.3737 30.3142C39.1029 32.1377 39.7507 33.9547 40.3096 35.7113C40.2018 35.7842 40.0923 35.857 39.9844 35.9282C39.0114 34.3265 37.9663 32.6778 36.8142 30.9831ZM38.4707 30.277C41.1758 29.1837 43.8374 28.3958 46.1906 28.0792C46.3293 28.0607 46.4584 28.055 46.5955 28.0398C46.7273 28.8241 46.8309 29.6078 46.9098 30.396C45.0937 32.2115 42.8563 33.9961 40.4011 35.6512C39.844 33.9011 39.1963 32.0922 38.4707 30.277ZM46.3115 26.0392C46.7624 26.6341 47.1853 27.2367 47.5784 27.8436C47.289 27.8592 46.9866 27.8941 46.6859 27.9275C46.5771 27.2935 46.4534 26.6657 46.3115 26.0392ZM26.9042 36.8069C27.7144 38.3827 28.5583 39.9054 29.425 41.3275C29.4507 41.3687 29.4746 41.4083 29.5003 41.4495C28.2323 41.9578 26.9778 42.4013 25.7484 42.7752C24.7319 42.0472 23.7391 41.2693 22.7786 40.4464C23.9376 39.216 25.3418 37.9888 26.9042 36.8069ZM22.7039 40.5198C23.6476 41.3278 24.6235 42.094 25.6217 42.8118C24.091 43.2728 22.6014 43.6336 21.1999 43.8446C20.8515 43.8966 20.5176 43.926 20.1789 43.9619C20.5437 43.2539 21.0159 42.53 21.5939 41.7983C21.9297 41.3731 22.3052 40.9471 22.7039 40.5198ZM50.98 25.0844C51.1617 26.1254 51.2924 27.1784 51.3503 28.2414C50.7301 28.0341 50.0339 27.9166 49.286 27.8599C49.9973 26.924 50.5613 25.995 50.98 25.0844ZM46.7029 28.0304C47.0185 27.9974 47.339 27.9579 47.6433 27.9409C47.8571 28.274 48.0642 28.6086 48.2598 28.9429C48.2048 29.007 48.1597 29.0697 48.103 29.1337C47.7614 29.5197 47.3917 29.9068 47.0104 30.292C46.9322 29.5365 46.8291 28.7837 46.7029 28.0304ZM17.4819 44.1481C18.2594 44.189 19.0771 44.1737 19.9414 44.0925C19.95 44.1074 19.9586 44.1222 19.9671 44.1354C19.7431 44.6002 19.5718 45.0545 19.4517 45.5034C18.7725 45.0784 18.1174 44.6212 17.4819 44.1481ZM47.7675 27.94C48.2258 27.9195 48.6679 27.9198 49.0923 27.9425C48.855 28.2474 48.5946 28.5536 48.3325 28.858C48.1525 28.5516 47.9641 28.2451 47.7675 27.94ZM49.2184 27.9563C49.9994 28.0104 50.7223 28.1366 51.3609 28.354C51.4715 30.5451 51.3043 32.7504 50.8904 34.881C50.4858 33.3015 49.8568 31.6771 49.0109 30.055C48.8197 29.6898 48.602 29.3241 48.3892 28.9584C48.6772 28.6235 48.9619 28.2902 49.2184 27.9563ZM20.1198 44.0715C20.4834 44.0345 20.847 44.0024 21.2234 43.9444C22.6514 43.729 24.1707 43.3607 25.7309 42.8888C26.5945 43.5063 27.4692 44.098 28.3577 44.6329C29.6703 45.4235 31.0005 46.1037 32.3285 46.6763C31.4983 47.5448 30.878 48.3913 30.5708 49.1656C30.5078 49.3256 30.4629 49.4827 30.4263 49.6367C27.6324 49.2071 24.857 48.3039 22.2632 47.0425C21.519 46.1928 20.8164 45.2673 20.1719 44.2712C20.1429 44.2283 20.1204 44.1806 20.0914 44.1377C20.1025 44.1152 20.1087 44.0941 20.1198 44.0715ZM20.0425 44.2573C20.0562 44.2788 20.0682 44.3034 20.082 44.3265C20.687 45.2583 21.3454 46.1227 22.0357 46.9291C21.1859 46.5056 20.3538 46.0565 19.5505 45.5574C19.6628 45.1345 19.8345 44.698 20.0425 44.2573ZM48.3181 29.0434C48.5239 29.3959 48.7331 29.7468 48.9174 30.1005C49.8013 31.7966 50.4417 33.4929 50.8393 35.1341C50.7654 35.491 50.7031 35.8514 50.6142 36.2047C50.3386 37.3086 49.9744 38.3782 49.5516 39.4125C48.9259 39.0145 48.067 38.876 47.0647 38.9366C46.9622 38.9428 46.8517 38.9635 46.7476 38.9745C46.9593 37.8189 47.1041 36.6295 47.1672 35.4124C47.2517 33.7821 47.1913 32.1099 47.0249 30.4356C47.4339 30.0265 47.8229 29.6137 48.1872 29.2038C48.2341 29.1493 48.2728 29.0963 48.3181 29.0418L48.3181 29.0434ZM46.9258 30.5298C47.0849 32.1697 47.1413 33.8077 47.0594 35.4039C46.9964 36.6291 46.8501 37.825 46.6369 38.9871C45.3795 39.1243 43.9274 39.5379 42.4097 40.1473C41.9724 39.3214 41.5031 38.4704 40.9866 37.5794C40.8564 37.1208 40.7246 36.6606 40.5793 36.1904C40.535 36.0479 40.484 35.9003 40.4396 35.7562C42.8818 34.1106 45.1078 32.3372 46.9258 30.5298ZM19.5229 45.6627C20.3865 46.1972 21.2839 46.685 22.2037 47.1326C23.6208 48.7477 25.2023 50.063 26.8762 51.0315C25.425 51.1633 24.1211 51.1286 23.037 50.9076C22.2294 50.6039 21.4472 50.2452 20.6905 49.8415C19.6012 48.793 19.2285 47.5594 19.4163 46.2047C19.4425 46.026 19.4785 45.8443 19.5229 45.6627ZM51.4693 28.3919C52.8388 28.8888 53.8324 29.7873 54.303 31.1953C54.3019 33.6742 53.1937 36.1026 51.3884 38.3694C51.359 37.3297 51.2146 36.252 50.9488 35.1443C51.3976 32.9444 51.5815 30.6612 51.4693 28.3919ZM25.8609 42.8522C27.0738 42.4796 28.3101 42.0391 29.5601 41.5386C30.6251 43.2707 31.7119 44.8485 32.7847 46.2241C32.6547 46.3486 32.5281 46.4733 32.4081 46.5964C31.0717 46.022 29.7331 45.3384 28.4122 44.5427C27.5489 44.0246 26.6993 43.4497 25.8609 42.8522ZM29.6603 41.4981C30.9644 40.9725 32.2755 40.3836 33.5772 39.7391C33.669 39.8532 33.7643 39.9804 33.856 40.0929C34.7864 41.2297 35.6871 42.286 36.5545 43.2537C35.1591 44.1766 33.8876 45.1653 32.8609 46.1474C31.7984 44.7834 30.7168 43.2171 29.6603 41.4981ZM40.3482 35.8179C40.3906 35.9507 40.4364 36.0867 40.4772 36.2194C40.5817 36.5569 40.6728 36.8844 40.7706 37.2169C40.5425 36.8282 40.2826 36.4209 40.0426 36.0222C40.1439 35.9541 40.2469 35.886 40.3482 35.8179ZM39.9544 36.0791C40.2508 36.5685 40.574 37.0747 40.8502 37.5507C40.8623 37.5721 40.8726 37.5918 40.8846 37.6132C41.1663 38.604 41.4093 39.5614 41.6118 40.4839C40.6254 40.9162 39.627 41.4134 38.6496 41.9664C38.2305 42.2027 37.8149 42.4488 37.4077 42.7016C37.1477 42.8628 36.8961 43.029 36.6428 43.1952C35.7753 42.2258 34.8713 41.1678 33.9391 40.0294C33.8525 39.9219 33.7606 39.8012 33.674 39.6937C34.3822 39.3408 35.0885 38.9764 35.7878 38.594C37.2191 37.8086 38.6145 36.9623 39.9544 36.0791ZM22.4596 47.258C24.9894 48.4628 27.6877 49.3222 30.4036 49.7422C30.3556 49.9888 30.3455 50.2264 30.3783 50.4534C29.7074 50.6051 29.0495 50.7424 28.4157 50.8426C27.9485 50.9168 27.4943 50.9732 27.0514 51.0169C25.4115 50.0881 23.8607 48.8174 22.4596 47.258ZM41.12 38.0331C41.5423 38.7708 41.9444 39.4935 42.3112 40.1862C42.1108 40.267 41.9121 40.3512 41.7102 40.4385C41.5371 39.66 41.3471 38.8615 41.12 38.0331ZM54.3765 31.7163C54.3777 31.8547 54.3755 31.9915 54.3733 32.1299C54.2984 33.6627 54.0675 35.1779 53.6751 36.6509C53.6719 36.6573 53.6704 36.6654 53.6689 36.6719C53.1177 38.479 52.232 40.2048 51.0136 41.776C51.2979 40.7684 51.4099 39.6777 51.3918 38.5372C53.1299 36.3864 54.2324 34.0817 54.3749 31.7162L54.3765 31.7163ZM38.7061 42.057C39.672 41.5103 40.6606 41.0211 41.6339 40.5934C42.052 42.5152 42.2945 44.2658 42.3042 45.7269C41.6249 46.1146 40.9319 46.4824 40.2336 46.8339C39.2036 45.9298 38.0083 44.718 36.7157 43.278C36.9657 43.115 37.2107 42.9487 37.4658 42.7907C37.873 42.5379 38.2887 42.2934 38.7061 42.057ZM50.8959 35.3974C51.1361 36.4639 51.2648 37.5006 51.285 38.4994C50.907 38.9645 50.5057 39.4259 50.0727 39.8769C49.9487 39.7247 49.8004 39.598 49.6425 39.4843C50.0716 38.4371 50.4405 37.3529 50.7208 36.2345C50.7898 35.9589 50.8354 35.6764 50.8959 35.3974ZM36.6291 43.335C37.9132 44.7667 39.1019 45.9768 40.1353 46.8842C39.9894 46.9579 39.8436 47.0349 39.696 47.107C38.9303 47.48 38.1557 47.8235 37.3824 48.1524C36.1476 47.9285 34.8817 47.5655 33.6053 47.0867C33.3812 46.8169 33.1534 46.5259 32.9273 46.2366C33.9539 45.2529 35.2304 44.261 36.6291 43.335ZM41.7339 40.5465C41.9457 40.4561 42.1559 40.3689 42.3661 40.2833C43.1875 41.8381 43.8588 43.2614 44.344 44.4873C43.7115 44.8955 43.0687 45.292 42.4091 45.6703C42.3942 44.2009 42.1519 42.4584 41.7339 40.5465ZM42.4647 40.2445C43.9594 39.646 45.3851 39.2351 46.6175 39.0942C46.287 40.8436 45.7825 42.5018 45.0844 44.0064C44.872 44.1505 44.6529 44.288 44.4356 44.4288C43.9504 43.2029 43.2792 41.7894 42.4647 40.2445ZM23.0342 51.015C23.0409 51.0168 23.0475 51.0185 23.0541 51.0187C25.0998 51.7825 27.291 52.2169 29.5604 52.2554C29.7821 52.3281 30.0036 52.3942 30.2267 52.4522C31.0974 52.6806 31.9808 52.8033 32.8704 52.8204C29.5027 52.9254 26.1435 52.3009 23.0342 51.015ZM23.6124 51.1108C24.6186 51.2473 25.7711 51.2465 27.032 51.1224C27.7523 51.527 28.4847 51.8782 29.2335 52.1433C27.2849 52.0768 25.3949 51.7198 23.6124 51.1108ZM32.851 46.3117C33.0346 46.5448 33.2199 46.7813 33.4016 47.003C33.1078 46.8899 32.8139 46.767 32.5199 46.6425C32.627 46.5322 32.7374 46.4219 32.851 46.3117ZM32.4387 46.7191C32.8062 46.876 33.1737 47.0361 33.5391 47.1734C34.1111 47.8586 34.6748 48.4655 35.2239 49.0086C34.3347 49.3336 33.4498 49.6278 32.5823 49.8815C31.8992 49.8375 31.2137 49.7593 30.5294 49.6566C30.5645 49.5107 30.6062 49.3617 30.6676 49.2065C30.9701 48.4435 31.5986 47.5923 32.4387 46.7191ZM46.7299 39.0817C46.8439 39.0692 46.966 39.0504 47.0769 39.0443C48.0758 38.9836 48.9133 39.1267 49.5123 39.516C49.2818 40.0702 49.0362 40.616 48.7637 41.1434C47.697 42.1068 46.5184 43.0273 45.2608 43.8876C45.928 42.4101 46.4084 40.7873 46.7299 39.0817ZM33.7578 47.259C34.9206 47.6851 36.0747 48.0118 37.2068 48.2272C36.5812 48.4889 35.9587 48.7408 35.3358 48.9716C34.8205 48.465 34.2939 47.8947 33.7578 47.259ZM27.2073 51.1095C27.6072 51.0666 28.0184 51.0126 28.4376 50.9457C29.0698 50.847 29.7261 50.7113 30.3937 50.5596C30.4816 50.9766 30.7209 51.346 31.1311 51.6486C31.3379 51.8008 31.5889 51.9326 31.8827 52.0506C31.1077 52.1303 30.3401 52.1661 29.5799 52.1548C28.7748 51.8935 27.9809 51.5347 27.2073 51.1095ZM30.5083 49.7605C31.1096 49.8501 31.7086 49.9153 32.309 49.9626C31.6884 50.1397 31.0821 50.291 30.4821 50.4294C30.453 50.2187 30.4634 49.9958 30.5083 49.7605ZM49.6048 39.5845C49.751 39.6916 49.8859 39.8114 49.9997 39.952C49.9575 39.9952 49.9236 40.0385 49.8814 40.0817C49.6024 40.3646 49.3066 40.6424 49.0076 40.9201C49.2239 40.4844 49.4169 40.0354 49.6048 39.5845ZM51.2867 38.6655C51.2935 39.8155 51.1684 40.9158 50.861 41.9229C50.8517 41.9553 50.8391 41.9877 50.8282 42.02C50.7539 42.1131 50.6712 42.2027 50.5936 42.2941C50.7054 41.2717 50.5358 40.5046 50.1357 39.9628C50.546 39.539 50.9264 39.1049 51.2867 38.6655ZM30.4959 50.5371C31.1815 50.3792 31.8783 50.1987 32.5911 49.9892C33.8197 50.0697 35.0398 50.0556 36.2413 49.9368C36.6001 50.2385 36.9533 50.5107 37.2939 50.7306C35.5623 51.4076 33.8305 51.8289 32.1256 52.0243C31.7488 51.895 31.436 51.7424 31.194 51.5651C30.799 51.2758 30.5767 50.9296 30.4959 50.5371ZM50.0628 40.0428C50.453 40.5845 50.6161 41.3629 50.4723 42.4367C49.0858 44.0454 47.318 45.4677 45.154 46.625C45.1234 46.5023 45.1012 46.3862 45.0637 46.2552C46.6064 44.8335 47.8681 43.1133 48.856 41.2054C49.2382 40.8609 49.607 40.5113 49.9591 40.1548C49.9948 40.1181 50.0255 40.0796 50.0628 40.0428ZM53.0647 38.5627C52.3914 40.3903 51.4662 42.13 50.3064 43.7283L50.3063 43.7235C50.3419 43.6004 50.3661 43.4868 50.3951 43.3685C50.6069 42.9507 50.7835 42.5127 50.9282 42.0562C51.8069 40.9622 52.5166 39.7884 53.0647 38.5627ZM32.8775 49.9035C33.6774 49.6631 34.4883 49.3952 35.3052 49.0948C35.5839 49.3656 35.8588 49.6103 36.1284 49.8402C35.0574 49.9403 33.9699 49.9618 32.8775 49.9035ZM48.6331 41.4015C47.6791 43.1862 46.478 44.7936 45.0299 46.1406C44.9321 45.8048 44.8137 45.441 44.6735 45.0588C44.8492 44.7397 45.0148 44.4106 45.1719 44.0748C46.41 43.2353 47.5709 42.3405 48.6331 41.4015ZM35.4186 49.0546C36.0777 48.8099 36.7395 48.5408 37.4012 48.2603C38.9002 48.5267 40.3554 48.592 41.7312 48.4196C41.6969 48.4417 41.6642 48.4639 41.6316 48.4861C39.9339 49.2028 38.1296 49.639 36.2738 49.8251C35.9941 49.5885 35.7091 49.3354 35.4186 49.053L35.4186 49.0546ZM29.918 52.2525C30.6399 52.2516 31.371 52.2119 32.1079 52.1282C32.8015 52.3663 33.7482 52.5049 34.9166 52.5516C33.3508 52.8328 31.7811 52.7523 30.2495 52.3517C30.138 52.3219 30.0279 52.2855 29.918 52.2525ZM37.5818 48.1855C38.3058 47.8753 39.0294 47.5503 39.746 47.2008C39.905 47.1241 40.0623 47.0391 40.2213 46.9591C40.8685 47.522 41.4538 47.968 41.9582 48.2611C41.9468 48.2706 41.9337 48.2785 41.9223 48.2881C40.5486 48.4849 39.0889 48.4407 37.5818 48.1855ZM44.9986 44.1872C44.8795 44.4373 44.7537 44.6841 44.6228 44.9259C44.5738 44.7963 44.5281 44.6668 44.4757 44.5306C44.6506 44.4183 44.8255 44.3027 44.9986 44.1872ZM44.3842 44.5907C44.4454 44.7483 44.4998 44.9008 44.5542 45.0516C43.9872 46.0799 43.3191 47.0216 42.5478 47.857C42.4205 47.949 42.2898 48.0345 42.1607 48.1232C42.1623 48.1184 42.1638 48.1135 42.1654 48.1087L42.1637 48.1037C42.3391 47.4475 42.4177 46.6656 42.4164 45.7877C43.0859 45.4047 43.7418 45.0052 44.3842 44.5907ZM40.318 46.9088C40.99 46.5699 41.6552 46.2178 42.3083 45.8459C42.3073 46.696 42.2282 47.447 42.0605 48.0773L42.0605 48.0806L42.0572 48.0822C42.0514 48.1211 42.0404 48.1486 42.0329 48.1876C41.5403 47.9029 40.9602 47.4667 40.318 46.9088ZM44.6065 45.1846C44.7381 45.5503 44.8512 45.8977 44.9421 46.2187C44.4561 46.6654 43.9396 47.0807 43.3976 47.4644C43.2104 47.5439 43.0233 47.6251 42.8311 47.7012C43.5045 46.9388 44.0968 46.0967 44.6065 45.1846ZM32.3557 52.102C34.0256 51.8929 35.7175 51.4659 37.4096 50.7979C37.7416 51.0046 38.0646 51.1737 38.3751 51.2952C37.3911 51.8465 36.3937 52.2313 35.3899 52.4597C34.1261 52.4404 33.1037 52.3232 32.3557 52.102ZM36.3834 49.9233C38.011 49.7524 39.5949 49.3885 41.1067 48.8132C39.8834 49.5716 38.6491 50.193 37.4139 50.684C37.4021 50.6757 37.3904 50.6722 37.3787 50.6638C37.0566 50.4573 36.7236 50.2034 36.3834 49.9233ZM50.7375 42.287C50.667 42.486 50.5899 42.6832 50.506 42.8755C50.5315 42.7408 50.5585 42.6028 50.5774 42.4745C50.6308 42.412 50.6841 42.3495 50.7375 42.287ZM50.4383 42.6396C50.403 42.8556 50.3546 43.0843 50.2965 43.3226C49.3493 45.1987 47.7151 46.6756 45.3149 47.5386C45.3026 47.4178 45.3003 47.307 45.2778 47.1746C45.2535 47.0374 45.2105 46.8786 45.176 46.7297C47.3041 45.5977 49.056 44.2093 50.4383 42.6396ZM44.9792 46.3334C45.0131 46.4546 45.0285 46.5591 45.0557 46.6753C44.6707 46.878 44.2739 47.074 43.8637 47.26C44.2519 46.9677 44.6215 46.6588 44.9792 46.3334ZM42.7333 47.8589C42.7382 47.8574 42.7415 47.8542 42.7447 47.8526C42.8302 47.8184 42.9106 47.7825 42.9944 47.7499C42.8424 47.848 42.6869 47.9395 42.5315 48.0326C42.5607 48.0022 42.5865 47.9701 42.6157 47.9381C42.6549 47.9112 42.6941 47.8859 42.7333 47.8589ZM37.5361 50.7515C38.924 50.1933 40.3104 49.4755 41.6815 48.5815C41.7685 48.5441 41.8572 48.5067 41.9442 48.4676C41.8824 48.5267 41.8241 48.5891 41.7607 48.6482L41.7574 48.6481C40.6999 49.7419 39.6044 50.5923 38.488 51.2306C38.1844 51.119 37.8664 50.9516 37.5361 50.7515ZM42.1748 48.244C42.1715 48.2472 42.1683 48.252 42.1634 48.2552C42.1618 48.2568 42.1585 48.2567 42.1552 48.2567C42.1617 48.2519 42.1682 48.2488 42.1748 48.244ZM43.4557 47.5535C44.0204 47.3118 44.5617 47.0551 45.0811 46.7833C45.1103 46.9174 45.1513 47.0631 45.172 47.1873C45.1964 47.3278 45.1988 47.4468 45.2113 47.574C44.3777 47.8643 43.4515 48.0828 42.4326 48.218C42.7844 48.0097 43.1259 47.7882 43.4557 47.5535ZM42.1744 48.3906C42.7662 48.7472 43.2763 48.998 43.6962 49.1249C43.9294 49.1962 44.1388 49.2311 44.3227 49.2362C44.1788 49.3247 44.0366 49.4181 43.891 49.5032C42.9025 50.0805 41.8813 50.5968 40.8785 51.0336C41.4234 50.5506 41.8352 49.7099 42.09 48.4737C42.1176 48.4449 42.1452 48.4177 42.1744 48.3906ZM42.301 48.3425C43.3762 48.2084 44.347 47.9842 45.2234 47.6801C45.2426 47.9704 45.2413 48.2342 45.1941 48.4386C45.1637 48.5732 45.1179 48.683 45.0569 48.778C44.8788 48.8951 44.6956 49.0056 44.5141 49.1194C44.3027 49.1495 44.0439 49.1234 43.7256 49.0261C43.3375 48.9096 42.8541 48.6707 42.301 48.3425ZM49.9232 44.1852C49.8784 44.2609 49.8451 44.3352 49.797 44.4108C49.7081 44.5215 49.616 44.6305 49.5255 44.7411C49.6675 44.5614 49.7979 44.375 49.9232 44.1852ZM41.9276 48.6318C41.6065 50.0247 41.0873 50.878 40.4072 51.2315C40.284 51.2812 40.1642 51.3311 40.0426 51.3792C39.616 51.4932 39.135 51.4531 38.6132 51.2786C39.713 50.64 40.7922 49.8007 41.8335 48.7261C41.8351 48.7245 41.8351 48.7229 41.8367 48.7213C41.8676 48.6926 41.8967 48.6605 41.9276 48.6318ZM34.7917 52.6812C34.9947 52.6476 35.1976 52.6124 35.402 52.5658C35.4815 52.5673 35.5512 52.5719 35.634 52.5735C35.3517 52.6153 35.0725 52.6491 34.7917 52.6812ZM49.3703 44.9287C48.5296 45.9322 47.5848 46.8653 46.5456 47.7201C46.1266 48.0411 45.6908 48.3536 45.2382 48.6544C45.2619 48.5962 45.2838 48.5347 45.299 48.4666C45.3507 48.2412 45.3499 47.9562 45.3254 47.6446C47.0532 47.0278 48.3938 46.0974 49.3703 44.9287ZM35.7611 52.4717C36.6818 52.2303 37.5966 51.8586 38.4987 51.3465C38.9007 51.491 39.2828 51.5553 39.6385 51.5393C38.9549 51.7966 38.2918 52.007 37.6691 52.1645C37.5867 52.1841 37.5043 52.2021 37.4219 52.2217C36.8697 52.3496 36.3483 52.4422 35.8821 52.4756L35.8787 52.4756C35.8357 52.4764 35.8042 52.4725 35.7611 52.4717Z" stroke="#1A3645" shape-rendering="crispEdges"/>
</g>
<path d="M22.3189 39.6467L20.3523 39.7722L20.1575 35.7967L18.3208 35.9117L18.2559 34.604L23.8959 34.2483L23.9608 35.556L22.1241 35.6711L22.3189 39.6467Z" fill="white"/>
<path d="M26.8818 39.7675C25.8725 39.8093 25.1246 39.5739 24.6381 39.0559C24.2078 38.5903 23.9826 37.9441 23.9625 37.1201C23.9404 36.2987 24.1334 35.6421 24.5416 35.1529C25.008 34.5957 25.7438 34.2948 26.7531 34.253C27.7544 34.2111 28.5003 34.4492 28.9888 34.9645C29.4171 35.4249 29.6422 36.0685 29.6644 36.8899C29.6845 37.7139 29.4915 38.3731 29.0853 38.8676C28.6189 39.4274 27.883 39.7256 26.8818 39.7675ZM26.8496 38.3444C27.2558 38.3313 27.5533 38.1665 27.7423 37.8526C27.8911 37.6014 27.9615 37.3058 27.9514 36.9631C27.9454 36.6283 27.8629 36.3432 27.7021 36.1051C27.497 35.799 27.1914 35.6525 26.7853 35.6656C26.3711 35.6813 26.0716 35.8513 25.8846 36.1783C25.7338 36.4295 25.6614 36.7225 25.6674 37.0573C25.6775 37.4 25.7639 37.6904 25.9248 37.9258C26.1279 38.2188 26.4355 38.3601 26.8496 38.3444Z" fill="white"/>
<path d="M33.4827 39.7613L30.8225 39.7722L30.8068 34.2593L33.467 34.2484C34.5499 34.243 35.3288 34.4445 35.8055 34.8585C36.1978 35.2017 36.4195 35.6648 36.4725 36.2531C36.498 36.5091 36.5117 36.7515 36.5117 36.9831C36.5117 37.2173 36.498 37.4597 36.4725 37.713C36.4509 37.9691 36.3901 38.2142 36.292 38.4539C36.1978 38.6936 36.0409 38.9115 35.8212 39.1076C35.6054 39.3037 35.3111 39.4617 34.9344 39.5761C34.5578 39.6932 34.0732 39.7559 33.4827 39.7613ZM33.3257 38.3994C34.1732 38.394 34.648 38.0916 34.7539 37.4951C34.7794 37.329 34.7932 37.1628 34.7932 36.994C34.7932 36.8278 34.7775 36.6617 34.7461 36.4928C34.7186 36.3266 34.6559 36.1768 34.5578 36.0461C34.4577 35.9099 34.3086 35.8009 34.1105 35.7192C33.9162 35.6402 33.6514 35.6048 33.3179 35.6103H32.4861L32.4939 38.3994H33.3257Z" fill="white"/>
<path d="M43.3578 39.7722L41.9062 39.719L41.5957 38.8249L39.442 38.7398L39.1044 39.6126L37.6528 39.5487L39.9281 34.2483L41.2581 34.3015L43.3578 39.7722ZM41.1298 37.4732L40.5695 35.8235L39.9416 37.4307L41.1298 37.4732Z" fill="white"/>
<path d="M46.8047 39.7722L45.2196 39.6578L45.3168 37.1611L43.3578 34.2483L45.1149 34.3835L46.1467 36.0376L47.3057 34.55L49.0628 34.6748L46.9019 37.2755L46.8047 39.7722Z" fill="white"/>
<path d="M23.5978 33.1433L31.4231 32.8989C31.7278 32.8899 31.9554 32.612 31.9476 32.2609L31.9096 30.6542C31.9007 30.303 31.6608 30.0406 31.3562 30.0496L26.5537 30.1988C26.2602 30.2091 26.0192 29.9454 26.0114 29.6084C26.0035 29.2701 26.2312 28.9793 26.5246 28.9703L30.8585 28.8353C31.1632 28.8263 31.3908 28.5484 31.383 28.1972L31.3495 26.7797C31.3417 26.4285 31.1007 26.1661 30.796 26.1751L26.4622 26.3101C26.1687 26.3191 25.9288 26.0567 25.921 25.7184C25.912 25.3672 26.1397 25.0907 26.4331 25.0816L31.2357 24.9311C31.5403 24.9221 31.7679 24.6443 31.7601 24.2931L31.7233 22.6993C31.7144 22.3481 31.4745 22.0857 31.1699 22.096L23.3445 22.3391C23.0399 22.3494 22.8112 22.626 22.8201 22.9772L23.0444 32.5387C23.0522 32.8899 23.2932 33.1523 23.5978 33.1433Z" fill="#D9D9D9"/>
<path d="M35.6549 32.9545L41.4203 33.1432C41.7269 33.1536 41.9694 32.8769 41.9784 32.524L42.0234 30.7181C42.0312 30.3652 41.8032 30.086 41.4967 30.077L36.6746 29.918C36.3792 29.9089 36.1513 29.6297 36.1591 29.2897L36.2456 25.7891C36.2546 25.4362 36.4972 25.1724 36.7914 25.1815L41.6135 25.3405C41.92 25.3508 42.1626 25.0871 42.1716 24.7342L42.2165 22.9296C42.2244 22.5767 41.9953 22.2975 41.6887 22.2871L35.9244 22.0971C34.3916 22.048 33.2517 23.2864 33.2079 25.0509L33.09 29.8145C33.0462 31.5778 34.1232 32.9041 35.6549 32.9545Z" fill="#D9D9D9"/>
<path d="M43.9405 33.707L46.2322 33.8813C46.5886 33.9089 46.8847 33.6668 46.9122 33.3257L47.1297 30.6993C47.1585 30.3581 47.4547 30.116 47.7979 30.1424C48.1543 30.1687 48.4059 30.466 48.3771 30.8071L48.1609 33.4197C48.1321 33.7609 48.385 34.0444 48.7413 34.072L51.033 34.2463C51.3894 34.2726 51.6855 34.0306 51.7144 33.6894L52.4835 24.3929C52.5123 24.0517 52.2595 23.7682 51.9031 23.7407L49.6127 23.5663C49.255 23.54 48.9589 23.782 48.9313 24.1232L48.7151 26.7358C48.6863 27.077 48.3902 27.319 48.0338 27.2927C47.6905 27.2664 47.4376 26.9829 47.4664 26.6417L47.6826 24.0279C47.7115 23.6867 47.4586 23.4033 47.1022 23.3769L44.8105 23.2026C44.4541 23.175 44.158 23.4171 44.1305 23.7582L43.36 33.056C43.3312 33.3972 43.5841 33.6806 43.9405 33.707Z" fill="#D9D9D9"/>
<path d="M16.6818 34.2456L19.0852 34.0685C19.483 34.0392 19.7057 33.7946 19.6731 33.4074L19.1327 26.9524C19.1042 26.6186 19.3812 26.3307 19.7356 26.304L21.0867 26.2046C21.4845 26.1753 21.7072 25.9307 21.676 25.5574L21.5252 23.7561C21.494 23.3828 21.2333 23.1739 20.8355 23.2032L13.1433 23.7574C12.7305 23.7879 12.5227 24.0313 12.554 24.4045L12.7061 26.2186C12.7373 26.5919 12.998 26.8008 13.3958 26.7715L14.732 26.6734C15.1013 26.6454 15.4217 26.89 15.4503 27.2237L15.9907 33.68C16.0233 34.066 16.284 34.2749 16.6818 34.2456Z" fill="#D9D9D9"/>
<defs>
<filter id="filter0_d_116_1285" x="3.98877" y="7.56738" width="55.0243" height="53.8645" filterUnits="userSpaceOnUse" color-interpolation-filters="sRGB">
<feFlood flood-opacity="0" result="BackgroundImageFix"/>
<feColorMatrix in="SourceAlpha" type="matrix" values="0 0 0 0 0 0 0 0 0 0 0 0 0 0 0 0 0 0 127 0" result="hardAlpha"/>
<feOffset dy="4"/>
<feGaussianBlur stdDeviation="2"/>
<feComposite in2="hardAlpha" operator="out"/>
<feColorMatrix type="matrix" values="0 0 0 0 0 0 0 0 0 0 0 0 0 0 0 0 0 0 0.25 0"/>
<feBlend mode="normal" in2="BackgroundImageFix" result="effect1_dropShadow_116_1285"/>
<feBlend mode="normal" in="SourceGraphic" in2="effect1_dropShadow_116_1285" result="shape"/>
</filter>
</defs>
</svg>
