<svg width="110" height="110" viewBox="0 0 110 110" fill="none" xmlns="http://www.w3.org/2000/svg">
<g filter="url(#filter0_d_111_969)">
<path d="M30.0605 7.66392C28.4822 8.55591 26.9732 9.52804 25.5334 10.5622C21.6937 13.1657 18.4841 15.9804 16.6733 18.4951L16.6661 18.5059L16.6589 18.5094C16.5914 18.6428 16.5561 18.751 16.4922 18.8808C15.3782 20.0225 14.449 21.2489 13.7011 22.5491C3.17983 37.705 1.60641 58.124 11.3032 75.275C11.3069 75.2932 11.3107 75.3113 11.3144 75.3294L11.3291 75.3549C11.3584 75.4094 11.3985 75.4531 11.4278 75.5076C11.4498 75.544 11.4645 75.5802 11.4865 75.6166C16.3245 84.0274 23.2597 90.5047 31.2535 94.7943C32.1548 95.4961 33.2569 96.0259 34.5384 96.4124C44.8569 101.021 56.6173 102.138 67.8361 99.2279C71.9806 98.1537 76.0485 96.5398 79.942 94.3347C81.2686 93.5855 82.5369 92.7779 83.7652 91.9338C83.8047 91.9051 83.8515 91.8802 83.8873 91.8479C85.252 90.8999 86.5549 89.8972 87.7996 88.8362C90.674 86.5507 93.1172 84.0844 94.6973 81.6222C98.7794 76.3794 101.729 70.4077 103.437 64.0967C103.441 64.0787 103.444 64.0606 103.451 64.0426C104.433 60.8194 104.966 57.4913 105.066 54.1381C105.633 44.7789 103.563 35.1455 98.5196 26.3821C93.1103 16.9862 85.0912 9.99738 75.899 5.78515C75.7903 5.73725 75.6816 5.68935 75.5728 5.64146C67.0554 1.81088 57.5495 0.36041 48.1698 1.59921C48.1626 1.59915 48.1554 1.60271 48.1518 1.60268C44.4187 1.7322 39.9945 3.04658 35.6113 4.97275C33.7323 5.75018 31.876 6.63634 30.0605 7.66392ZM29.3371 8.42883C30.1099 7.97548 30.9009 7.53312 31.6992 7.11253C32.8608 6.49944 34.0408 5.93354 35.2247 5.40024C35.4298 5.31142 35.6386 5.23348 35.8474 5.1483C34.526 6.10022 33.4098 7.86061 32.5057 10.4078C32.4949 10.415 32.4841 10.4221 32.4734 10.4329C32.2932 10.4749 32.1201 10.5061 31.9399 10.5517L31.911 10.555L31.8895 10.573C31.7604 10.6877 31.6385 10.7989 31.513 10.9137C30.4187 10.4527 29.43 10.112 28.642 10.0117C27.8177 9.9038 27.1395 9.98886 26.6252 10.2598C26.4526 10.3488 26.2946 10.4597 26.1548 10.5925C25.6028 11.1127 25.3421 11.932 25.3217 12.9919C25.3187 13.0606 25.3411 13.1513 25.3416 13.2236C23.9809 13.7664 22.6963 14.3532 21.5495 15.0062C20.338 15.6948 19.2751 16.4534 18.292 17.2525C20.5442 14.8317 23.0652 12.6122 25.8482 10.6371C25.8589 10.6299 25.8697 10.6192 25.8805 10.612C26.994 9.86469 28.1401 9.12847 29.3371 8.42883ZM26.7352 10.4632C27.2027 10.2209 27.8196 10.139 28.6149 10.2394C29.3524 10.3357 30.2939 10.6544 31.3302 11.0859C31.194 11.2078 31.0649 11.3298 30.9287 11.4518C28.986 11.9284 27.1956 12.4894 25.5684 13.1278C25.5681 13.0916 25.5532 13.0408 25.5529 13.001C25.5736 11.9772 25.8276 11.2231 26.3186 10.7602C26.4441 10.6454 26.5805 10.5452 26.7352 10.4632ZM36.5143 4.99441C36.7588 4.86248 37.0035 4.7595 37.2556 4.67467C38.3362 4.31421 39.5177 4.39235 40.7781 4.84017C40.5731 4.94708 40.3715 5.02869 40.1665 5.13923C37.7825 6.42642 35.3402 8.09666 32.8537 10.1211C33.8509 7.46974 35.0832 5.77178 36.5143 4.99441ZM38.1912 4.25155C41.4935 3.08745 44.8601 2.28204 48.2476 1.83862C48.522 1.82995 48.7714 1.85364 49.0387 1.85939C46.4678 2.36357 43.7994 3.31925 41.0623 4.70494C40.0625 4.3207 39.1005 4.15748 38.1912 4.25155ZM19.2527 15.9069C19.113 16.0505 18.9697 16.1905 18.83 16.3341C18.9697 16.1905 19.1094 16.0505 19.2527 15.9069ZM21.6703 15.1989C22.7883 14.5638 24.0369 13.9984 25.3616 13.4662C25.3842 14.0236 25.4577 14.6393 25.5859 15.3132C20.9835 18.732 17.2595 22.2445 14.305 25.8029C14.5723 24.0069 15.3524 21.7662 16.6564 19.0956C16.778 18.9518 16.8961 18.8116 17.0177 18.6679C18.3221 17.401 19.8476 16.23 21.6703 15.1989ZM25.5812 13.3739C27.104 12.7745 28.7646 12.245 30.563 11.7853C30.4411 11.9002 30.3192 12.0077 30.1973 12.1225C28.6561 13.1234 27.1763 14.1355 25.7905 15.1593C25.6661 14.5034 25.5963 13.9095 25.5812 13.3739ZM40.2729 5.33907C40.5425 5.19287 40.8054 5.09365 41.0715 4.95466C41.7381 5.22047 42.4312 5.62759 43.1355 6.09269C40.0925 7.16841 36.9289 8.51814 33.6341 10.1635C33.4178 10.2125 33.1979 10.2614 32.978 10.3139C35.4645 8.28941 37.8997 6.62634 40.2729 5.33907ZM41.3521 4.81579C44.4347 3.27726 47.4101 2.33127 50.2742 1.91263C52.0102 2.23759 53.4114 2.67567 54.5279 3.20194C51.0289 3.7096 47.3202 4.62806 43.4056 5.99353C42.7084 5.52487 42.0188 5.09968 41.3521 4.81579ZM32.0355 10.7659C32.0463 10.766 32.0571 10.7624 32.0679 10.7589C31.9998 10.8199 31.928 10.8736 31.8563 10.9345C31.9172 10.8807 31.9709 10.8233 32.0355 10.7659ZM16.0664 19.8326C14.9235 22.3164 14.2326 24.4311 14.0368 26.1373C13.1821 27.1834 12.3779 28.2299 11.6569 29.2842C11.9674 27.0326 12.6546 24.907 13.7331 22.9401C14.4649 21.8749 15.2475 20.8428 16.0664 19.8326ZM31.573 11.1891C31.5839 11.1965 31.602 11.2002 31.6129 11.2076C31.5518 11.2433 31.4979 11.2862 31.4369 11.3256C31.4333 11.3255 31.4296 11.3255 31.4224 11.3254C31.4762 11.2825 31.5228 11.2358 31.573 11.1891ZM32.6735 10.619C32.706 10.612 32.7384 10.6087 32.7672 10.598C32.7313 10.6195 32.6953 10.6373 32.6594 10.6551C32.6665 10.6443 32.67 10.6334 32.6735 10.619ZM32.1903 11.1543C32.2083 11.1472 32.2299 11.1401 32.2478 11.1294C32.2443 11.1402 32.2408 11.1474 32.2372 11.1546C32.2228 11.1545 32.2047 11.158 32.1903 11.1543ZM32.5464 10.9762C32.9384 10.7731 33.3269 10.5808 33.7189 10.3849C38.0123 9.40958 42.1276 8.7621 46.0686 8.42438C46.4324 8.76738 46.804 9.16833 47.1682 9.55112C45.2352 10.3354 43.3028 11.2028 41.3928 12.1464C38.4997 11.6531 35.5285 11.3219 32.4757 11.1746C32.4968 11.106 32.5216 11.0447 32.5464 10.9762ZM31.3133 11.6792C29.6502 14.1516 28.1933 16.6654 26.928 19.2062C26.6251 18.3571 26.3658 17.5518 26.1612 16.8049C26.1315 16.7033 26.12 16.62 26.0939 16.5185C27.4404 15.1 28.8701 13.6895 30.3864 12.2832C30.6954 12.0831 30.9971 11.8793 31.3133 11.6792ZM31.7091 11.4942C31.8316 11.4662 31.9433 11.4345 32.0695 11.4066C32.0913 11.4176 32.1094 11.425 32.1311 11.436C32.1207 11.483 32.1065 11.5154 32.0924 11.5623L32.0852 11.5623L32.0853 11.5731C31.6962 13.4913 31.5034 15.5774 31.456 17.766C30.0871 18.6451 28.7473 19.5535 27.4366 20.4766C27.3076 20.1499 27.1604 19.8122 27.0423 19.4965C28.3785 16.7936 29.9208 14.1176 31.7091 11.4942ZM34.5894 9.94679C37.6291 8.46582 40.5554 7.24445 43.3751 6.25379C43.662 6.44784 43.9413 6.5984 44.232 6.82504C44.7553 7.23081 45.29 7.71265 45.8285 8.21262C42.2269 8.53132 38.4829 9.09854 34.5894 9.94679ZM29.1972 13.0517C28.0897 14.1066 27.0438 15.1729 26.0339 16.2394C25.963 15.953 25.903 15.6776 25.8467 15.4094C26.9201 14.6183 28.0298 13.8312 29.1972 13.0517ZM32.3522 11.5282C32.4791 11.5907 32.5768 11.6168 32.7073 11.683C32.711 11.6866 32.7146 11.6867 32.7182 11.6903C33.8747 12.7017 35.0426 13.782 36.2108 14.8948C35.8729 15.0875 35.5313 15.2729 35.1934 15.4729C34.169 16.0689 33.1519 16.6832 32.1529 17.312C32.002 17.4085 31.8548 17.5086 31.7039 17.6051C31.7592 15.4962 31.9381 13.4823 32.3133 11.6328C32.3238 11.5931 32.3416 11.5679 32.3522 11.5282ZM32.6546 11.4112C35.5195 11.5534 38.3137 11.8687 41.033 12.3209C39.4791 13.0973 37.9401 13.9208 36.4193 14.7771C35.2257 13.6423 34.0396 12.5402 32.8612 11.5106L32.8503 11.5032L32.8358 11.4886C32.7705 11.4556 32.7198 11.4407 32.6546 11.4112ZM49.9362 1.64944C50.4955 1.59238 51.0549 1.53893 51.6143 1.50358C51.1777 1.54352 50.7341 1.61598 50.294 1.68123C50.2506 1.67364 50.2144 1.6625 50.171 1.65492L50.1638 1.65486C50.0915 1.64705 50.0085 1.65363 49.9362 1.64944ZM25.6385 15.5669C25.7022 15.8533 25.7586 16.1359 25.8369 16.4441C21.4288 21.1162 17.9277 25.8643 15.2427 30.6008C14.816 30.0909 14.5005 29.4769 14.3356 28.723C14.1782 28.0126 14.1607 27.1731 14.265 26.2223C17.2227 22.6096 20.9751 19.0394 25.6385 15.5669ZM50.9452 1.82389C54.3439 1.42036 57.5751 1.75359 60.6091 2.71481C58.7856 2.73649 56.8943 2.87341 54.9391 3.14008C53.8875 2.60347 52.5586 2.16597 50.9452 1.82389ZM43.6452 6.15463C47.6139 4.77874 51.3661 3.87148 54.8977 3.38217C56.2322 4.07299 57.1164 4.89771 57.5933 5.83137C57.6484 5.94035 57.6818 6.05639 57.726 6.16529C57.6143 6.18972 57.5061 6.20696 57.3979 6.23142C55.4658 6.6828 53.5058 7.25335 51.5393 7.91792C49.7844 7.94377 47.9867 8.03078 46.1497 8.18261C45.5529 7.62067 44.9564 7.09492 44.3714 6.64162C44.1243 6.45151 43.8885 6.323 43.6452 6.15463ZM25.9042 16.7268C25.9154 16.7776 25.923 16.8174 25.9342 16.8646C26.161 17.6768 26.457 18.5584 26.7966 19.4837C26.4377 20.2117 26.0933 20.9435 25.7633 21.6789C22.0618 24.4065 18.6722 27.2849 15.7484 30.1743C18.3595 25.676 21.7289 21.1693 25.9042 16.7268ZM52.979 1.44569C53.5458 1.42487 54.1127 1.4149 54.676 1.41215C59.8149 1.40235 64.9132 2.17375 69.7898 3.68872C67.1521 3.06352 64.3326 2.73718 61.3386 2.71699C59.2056 1.97641 56.9917 1.50654 54.676 1.41215C54.1197 1.38963 53.5458 1.42849 52.979 1.44569ZM12.7805 24.3942C12.0857 26.0132 11.6082 27.7136 11.3805 29.4991C11.3703 29.575 11.3709 29.6546 11.3643 29.7306C8.33456 34.2617 6.48965 38.8312 5.66626 43.3364C6.70314 36.6294 9.11431 30.1686 12.7805 24.3942ZM13.9968 26.5495C13.9312 27.3739 13.966 28.1195 14.1084 28.7683C14.292 29.5874 14.6369 30.2631 15.1144 30.8169C14.0397 31.901 13.0155 32.9891 12.0888 34.0672C11.9028 34.2828 11.7419 34.4914 11.5631 34.7071C11.4052 33.027 11.4101 31.3916 11.5889 29.8119C12.3204 28.7215 13.1207 27.6352 13.9968 26.5495ZM55.2908 3.32379C57.376 3.05092 59.3758 2.93656 61.3116 2.94834C61.6629 3.07053 62.0176 3.17466 62.3654 3.31129C63.5502 3.79107 64.6961 4.37546 65.8137 5.03923C63.2722 5.15289 60.6424 5.51912 57.9568 6.11647C57.9051 5.9858 57.8644 5.85523 57.7984 5.72807C57.3287 4.80895 56.5061 4.0028 55.2908 3.32379ZM46.397 8.40166C47.9128 8.27984 49.4144 8.18686 50.8767 8.15145C49.7207 8.55472 48.5613 8.99054 47.4022 9.45891C47.0671 9.10529 46.7282 8.72269 46.397 8.40166ZM26.9109 19.7741C27.0106 20.0462 27.1321 20.333 27.2427 20.6161C26.8764 20.8737 26.5065 21.1277 26.1474 21.3889C26.3923 20.8482 26.648 20.3111 26.9109 19.7741ZM35.3106 15.6728C35.6665 15.4658 36.0296 15.266 36.3891 15.0627C39.013 17.5692 41.6495 20.3001 44.273 23.2119C42.6096 24.2913 40.8772 25.3268 39.1117 26.2788C36.9758 27.4341 34.8063 28.4552 32.6755 29.3428C31.9749 25.2922 31.6262 21.4361 31.6917 17.8945C31.8894 17.7694 32.0797 17.6334 32.2809 17.5084C33.2762 16.8795 34.2897 16.2689 35.3106 15.6728ZM36.5941 14.9485C38.1867 14.0494 39.8013 13.1903 41.4308 12.3855C44.9749 12.9999 48.3766 13.8735 51.6571 14.9489C52.0368 15.4693 52.4202 15.9897 52.8038 16.5391C50.5068 18.7749 47.6466 21.0208 44.4743 23.0904C41.8544 20.1787 39.2179 17.455 36.5941 14.9485ZM31.4438 18.0553C31.3927 21.5862 31.7521 25.4207 32.4523 29.4351C32.222 29.5274 31.9951 29.616 31.7683 29.7047C30.0229 26.4019 28.5756 23.3656 27.5215 20.7052C28.7999 19.8 30.1073 18.9167 31.4438 18.0553ZM41.7906 12.2147C43.6324 11.3176 45.4892 10.4857 47.3466 9.72983C48.6833 11.1371 50.0471 12.7833 51.4271 14.6431C48.3278 13.6416 45.125 12.8057 41.7906 12.2147ZM27.3275 20.8411C28.3817 23.4944 29.8143 26.516 31.5488 29.797C28.2079 31.1055 25.0334 31.9884 22.3236 32.2889C23.1984 28.7899 24.4091 25.2935 25.9488 21.836C26.4047 21.5031 26.8643 21.1703 27.3275 20.8411ZM47.5806 9.64124C48.9197 9.10193 50.2555 8.59516 51.5917 8.14266C53.7908 8.11311 55.9256 8.17712 58.0034 8.33475C57.8757 9.51686 57.3695 10.8009 56.5208 12.1437C55.8397 13.2237 54.9241 14.3453 53.8642 15.473C53.1833 15.2251 52.4916 14.9845 51.7964 14.7546C50.3724 12.8184 48.9647 11.1031 47.5806 9.64124ZM25.5575 22.1296C24.0857 25.4972 22.9321 28.9035 22.0818 32.3087C20.9199 32.4261 19.8224 32.4644 18.8716 32.3374C17.6605 32.1794 16.6464 31.8168 15.876 31.2245C15.7162 31.1039 15.5742 30.9616 15.4358 30.8194C18.3663 27.8722 21.7988 24.9291 25.5575 22.1296ZM11.3177 30.2223C11.1747 31.7552 11.1946 33.3401 11.3593 34.9623C8.70187 38.1867 6.74433 41.3189 5.77035 44.1586C5.80825 43.9309 5.83171 43.7032 5.86961 43.4756C6.65788 39.093 8.42786 34.6387 11.3177 30.2223ZM52.2905 7.91666C54.023 7.35153 55.7453 6.85507 57.4467 6.45613C57.5692 6.42817 57.6919 6.41466 57.8109 6.38666C57.9958 6.93085 58.069 7.50672 58.0269 8.11061C56.1659 7.96918 54.255 7.90695 52.2905 7.91666ZM62.0448 2.96502C66.2854 3.06387 70.1627 3.80385 73.6545 5.10519C74.3137 5.34923 74.9587 5.61486 75.5893 5.89847C76.162 6.15268 76.7131 6.42841 77.2643 6.71139C73.9385 5.38966 70.1966 4.87509 66.2179 5.00989C64.9986 4.27295 63.7438 3.62256 62.4468 3.09847C62.3163 3.04316 62.1752 3.0131 62.0448 2.96502ZM58.0416 6.33423C60.8246 5.71957 63.5445 5.33958 66.1584 5.24458C68.7133 6.80622 71.0877 8.82593 73.2701 11.2095C68.7143 9.63199 63.704 8.5646 58.2582 8.13054C58.3001 7.50494 58.2339 6.9038 58.0416 6.33423ZM15.2856 30.9991C15.4276 31.145 15.5732 31.2873 15.7367 31.4116C16.547 32.0367 17.6045 32.4069 18.8445 32.5688C19.7953 32.6957 20.8785 32.6645 22.0261 32.5579C20.4384 39.0289 19.952 45.4907 20.3127 51.7384C20.1552 51.9072 19.9832 52.0759 19.8293 52.2483C19.4212 52.701 19.0637 53.1576 18.6773 53.6104C15.3881 48.2946 13.0335 42.8957 12.014 37.7969C12.9204 35.5428 14.0109 33.272 15.2856 30.9991ZM14.7051 31.5626C13.6516 33.5007 12.7281 35.4327 11.9382 37.3549C11.7911 36.5722 11.6802 35.8007 11.5982 35.033C11.8236 34.7634 12.0272 34.4937 12.2634 34.2206C13.022 33.3402 13.8491 32.4531 14.7051 31.5626ZM58.2311 8.35465C63.8142 8.79704 68.9404 9.90514 73.5798 11.5521C75.9703 14.2268 78.1044 17.359 79.9882 20.7895C79.5876 20.8333 79.2086 20.8556 78.801 20.9103C75.7166 21.3308 72.411 22.0788 68.9953 23.0575C64.4645 20.0871 59.482 17.5402 54.096 15.5616C55.1345 14.4519 56.0392 13.3411 56.7168 12.2683C57.5762 10.9038 58.1001 9.58377 58.2311 8.35103L58.2311 8.35465ZM11.3908 35.2882C11.484 36.1103 11.6062 36.9326 11.7718 37.7733C9.53064 43.3636 8.3759 48.8829 8.14387 54.178C6.83069 52.9952 5.89371 51.4392 5.42261 49.4347C5.40001 49.3187 5.40619 49.1885 5.39078 49.069C5.38957 48.0161 5.43886 46.9564 5.5459 45.8935C6.21401 42.7402 8.29379 39.0879 11.3908 35.2846L11.3908 35.2882ZM66.5627 5.21885C71.4335 5.09838 75.9222 5.97348 79.7025 8.12738C81.6044 10.2229 82.3314 12.6167 82.1247 15.2128C79.5307 13.7305 76.736 12.4383 73.7372 11.3688C71.5399 8.91997 69.1434 6.83858 66.5627 5.21885ZM52.0263 15.0604C52.5912 15.2494 53.1454 15.4528 53.7031 15.6526C53.4739 15.8932 53.2158 16.1335 52.9686 16.3776C52.6544 15.9265 52.3404 15.4934 52.0263 15.0604ZM11.8618 38.1865C12.9279 43.2386 15.2674 48.5614 18.5199 53.801C17.6149 54.8792 16.7713 55.9615 16.0072 57.0518C14.1787 56.9106 12.522 56.5682 11.0908 55.9887C10.0618 55.5717 9.15465 55.029 8.36568 54.3679C8.57301 49.1449 9.6887 43.7085 11.8618 38.1865ZM22.2642 32.5381C25.0354 32.2453 28.2676 31.3448 31.6624 30.0077C32.1208 30.8725 32.5901 31.7518 33.0884 32.6494C33.565 34.8856 34.1358 37.166 34.7863 39.4723C29.3703 43.2065 24.477 47.2814 20.5347 51.505C20.1963 45.3262 20.6868 38.9332 22.2642 32.5344L22.2642 32.5381ZM53.935 15.7449C59.2702 17.6941 64.2018 20.2081 68.6962 23.1383C65.594 24.0363 62.403 25.1253 59.174 26.4166C57.1769 22.8188 55.1352 19.5064 53.1038 16.5741C53.3833 16.2977 53.6736 16.0214 53.935 15.7413L53.935 15.7449ZM52.9354 16.7392C54.9522 19.6461 56.9756 22.933 58.958 26.5053C56.1789 27.6193 53.3866 28.8743 50.6131 30.238C48.6402 27.838 46.646 25.4993 44.6346 23.2618C47.7889 21.2028 50.642 18.9714 52.9354 16.7392ZM31.8784 29.919C32.08 29.841 32.2852 29.7594 32.4904 29.6742C32.619 30.4061 32.7911 31.1528 32.9415 31.8921C32.5714 31.2198 32.2267 30.573 31.8784 29.919ZM32.7135 29.5819C34.8696 28.6873 37.0642 27.6519 39.2253 26.4859C41.0052 25.5232 42.7556 24.477 44.4333 23.3868C46.4411 25.6207 48.4316 27.9485 50.4009 30.3413C49.4225 30.8255 48.444 31.3026 47.473 31.8123C46.1352 32.5108 44.812 33.2347 43.4999 33.9841C41.1452 35.3294 38.8417 36.7475 36.6109 38.224C35.4614 36.2973 34.3229 34.3815 33.3116 32.5572C33.0977 31.5569 32.8875 30.5602 32.7135 29.5819ZM5.12794 48.7159C5.136 48.8209 5.14045 48.9259 5.15574 49.0309C5.15821 54.2953 6.48832 59.393 8.82699 64.1622C9.27267 66.6007 9.91275 68.9612 10.7399 71.2327C10.7486 72.3219 10.8765 73.4047 11.1125 74.4703C6.65917 66.2905 4.74253 57.4036 5.12794 48.7159ZM33.4621 33.3073C34.3743 34.9355 35.3992 36.6441 36.4205 38.3528C35.9355 38.6746 35.4651 39.0037 34.991 39.3292C34.4186 37.2985 33.8968 35.2863 33.4621 33.3073ZM5.42197 50.256C5.97046 52.0043 6.88817 53.4082 8.13186 54.4818C8.02253 57.5129 8.21597 60.4705 8.68311 63.3325C6.75023 59.178 5.60268 54.7801 5.42197 50.256ZM74.0433 11.715C76.9228 12.7654 79.6126 14.0278 82.1087 15.4624C82.072 15.8384 82.0136 16.2178 81.9336 16.6043C81.6663 17.9409 81.1249 19.3296 80.4247 20.7423C80.3634 20.749 80.2985 20.7558 80.2371 20.7625C78.4119 17.4229 76.3541 14.3529 74.0433 11.715ZM80.3233 8.53031C85.1886 11.7819 89.0706 16.2667 91.9729 21.5107C91.6614 21.4069 91.35 21.3031 91.0243 21.2173C90.7963 21.1576 90.5361 21.1302 90.3009 21.0777C87.9221 18.9567 85.2668 17.0324 82.346 15.3412C82.5646 12.8754 81.9394 10.5693 80.3233 8.53031ZM81.2942 8.91432C87.8015 12.9279 93.4618 18.4906 97.6776 25.413C96.4068 23.6589 94.5694 22.4069 92.2878 21.6073C89.5244 16.5561 85.8635 12.178 81.2942 8.91432ZM43.6171 34.1949C44.9257 33.4455 46.2488 32.7179 47.583 32.0194C48.5648 31.5025 49.5576 31.0148 50.5504 30.527C53.4754 34.096 56.3076 37.8198 59.0535 41.5756C56.6609 43.1449 54.1739 44.6448 51.6355 46.0537C49.1152 47.4556 46.5471 48.7594 43.9781 49.9511C42.2711 47.3867 40.6219 44.8301 39.0524 42.3138C38.2292 40.9903 37.5004 39.7254 36.7281 38.4348C38.9589 36.9583 41.2624 35.5366 43.6171 34.1949ZM50.7555 30.4237C53.5218 29.0708 56.2998 27.8265 59.068 26.7161C59.6543 27.7736 60.2371 28.842 60.8093 29.9392C62.1112 32.4243 63.3815 35.0178 64.6089 37.6615C62.8894 38.954 61.1011 40.2206 59.2402 41.4432C56.5017 37.6948 53.6767 33.9854 50.7555 30.4237ZM36.5377 38.5636C37.3101 39.8541 38.0352 41.1154 38.8584 42.4353C40.4205 44.9443 42.0625 47.4972 43.7623 50.0507C42.2583 50.7442 40.7574 51.3836 39.2636 51.994C37.9842 48.7167 36.8057 45.4184 35.8009 42.1505C35.5339 41.2873 35.2996 40.4315 35.0543 39.5757C35.5464 39.2359 36.0348 38.8961 36.5377 38.5636ZM8.35717 54.6572C9.13143 55.2857 10.0096 55.8065 10.9987 56.2087C12.4225 56.7808 14.0541 57.1303 15.8465 57.2748C13.4331 60.758 11.7459 64.2795 11.073 67.7367C10.3303 66.5404 9.64882 65.3193 9.03932 64.0698C8.48778 61.0407 8.24947 57.891 8.35717 54.6572ZM34.8568 39.7152C35.0946 40.5457 35.3216 41.376 35.5775 42.2139C36.586 45.4927 37.7645 48.7945 39.044 52.0755C33.0577 54.4954 27.2138 56.211 22.116 56.8471C21.7444 56.8948 21.4014 56.9029 21.0405 56.9362C20.8104 55.2556 20.6522 53.5502 20.5481 51.8271C24.4866 47.5746 29.4049 43.4745 34.8568 39.7152ZM59.284 26.6273C62.5671 25.3183 65.8084 24.2116 68.9575 23.3068C71.1975 24.7791 73.3156 26.3554 75.326 28.0104C72.4662 31.2258 68.8698 34.4463 64.7956 37.5219C63.5719 34.889 62.3089 32.3065 61.0142 29.8287C60.4421 28.7387 59.863 27.6776 59.284 26.6273ZM82.3227 15.5871C85.0802 17.1901 87.6083 19.0048 89.8814 20.9984C87.2082 20.4597 84.1091 20.3844 80.6954 20.7191C81.3705 19.3387 81.8941 17.9753 82.158 16.6567C82.2309 16.2991 82.2822 15.9413 82.3191 15.587L82.3227 15.5871ZM69.2566 23.226C72.5932 22.2792 75.8231 21.5523 78.8317 21.1421C79.2682 21.0804 79.6797 21.0584 80.1055 21.0111C80.1421 21.0765 80.1823 21.1347 80.2153 21.2001C79.2905 22.962 78.0771 24.7614 76.5893 26.5768C76.2459 26.9937 75.8521 27.4139 75.4835 27.8343C73.5167 26.2122 71.4422 24.6689 69.2566 23.226ZM20.3225 52.0605C20.4256 53.6605 20.5756 55.2465 20.7903 56.8112C20.0998 55.818 19.4274 54.8249 18.8018 53.8213C19.2025 53.3505 19.5743 52.8759 19.9966 52.4053C20.1004 52.2903 20.2187 52.1755 20.3225 52.0605ZM18.6444 54.0118C19.2663 55.0009 19.9315 55.9903 20.6146 56.969C19.0989 57.0981 17.6403 57.1516 16.289 57.0649C17.0139 56.0431 17.7966 55.0254 18.6444 54.0118ZM16.1175 57.2951C17.5592 57.397 19.1297 57.3335 20.7609 57.1909C20.7901 57.2309 20.8157 57.2745 20.8485 57.3146C22.1187 66.1963 25.1423 74.4227 29.3106 81.2724C27.3512 81.4739 25.5061 81.5098 23.7647 81.4164C20.5634 78.9632 17.6309 76.248 15.1152 73.2792C13.6933 71.5999 12.4044 69.8421 11.2559 68.0312C11.8957 64.4941 13.6182 60.8788 16.1175 57.2951ZM80.5818 20.9642C84.1939 20.6022 87.4556 20.686 90.216 21.2941C91.3982 22.3564 92.5086 23.4651 93.5542 24.6132C94.146 25.9059 94.6876 27.2381 95.1715 28.5987C96.2467 31.6212 97.0233 34.7968 97.5657 38.043C96.608 40.2026 95.3004 42.4174 93.6029 44.6616C92.5769 44.6064 91.5151 44.6016 90.3997 44.6723C89.4522 43.156 88.4218 41.6571 87.3121 40.1757C86.2471 35.2611 84.7642 30.477 82.8545 26.0585C82.1259 24.3703 81.3221 22.7611 80.4789 21.1914C80.518 21.1157 80.5427 21.0399 80.5818 20.9642ZM80.3582 21.4545C81.1649 22.9697 81.9394 24.528 82.6421 26.1509C84.4819 30.406 85.9308 34.9981 86.987 39.7209C83.8154 35.5565 80.0097 31.5861 75.6652 27.9805C76.0338 27.5601 76.4313 27.1399 76.7746 26.7194C78.2266 24.9472 79.4367 23.1839 80.3582 21.4545ZM21.0676 57.1644C21.4321 57.1275 21.7787 57.123 22.1503 57.0753C27.277 56.4358 33.1353 54.7204 39.1324 52.2933C40.8172 56.5905 42.7038 60.8315 44.7119 64.9034C41.2484 67.5858 38.1288 70.3651 35.5474 73.1522C30.1576 68.442 25.2577 63.1278 21.3203 57.6005C21.2327 57.4805 21.1631 57.3569 21.0791 57.2404C21.0753 57.2151 21.0714 57.1897 21.0676 57.1644ZM21.1336 57.7402C25.0819 63.2784 29.9855 68.6034 35.3862 73.3246C34.5055 74.2836 33.6681 75.243 32.921 76.1959C31.5948 77.8931 30.5032 79.5777 29.6713 81.221C29.6352 81.2243 29.5956 81.2312 29.5595 81.2381C25.45 74.5156 22.4458 66.4558 21.1336 57.7402ZM9.19782 64.9213C9.7517 65.9895 10.356 67.0435 11.0071 68.0762C10.8586 68.9253 10.7823 69.7605 10.7565 70.5997C10.1134 68.7638 9.59261 66.8674 9.19782 64.9213ZM75.5077 28.1565C79.983 31.8645 83.8728 35.9658 87.0925 40.2572C87.4263 41.8048 87.7096 43.3592 87.9532 44.9242C87.6538 44.9616 87.3722 44.9775 87.0657 45.0257C81.9003 45.7878 76.0644 47.6048 70.1221 50.1047C68.525 45.942 66.769 41.7744 64.9021 37.7398C69.0051 34.6464 72.6229 31.4008 75.5077 28.1565ZM90.6211 21.3733C90.7333 21.3995 90.8598 21.4114 90.9683 21.4412C91.3664 21.5457 91.7538 21.6682 92.1304 21.7978C92.5043 22.4846 92.8638 23.1821 93.2017 23.8903C92.3859 23.0264 91.5196 22.1873 90.6211 21.3733ZM92.46 21.9198C95.0499 22.8811 97.0269 24.4345 98.2005 26.6762C98.9574 28.2959 99.2639 30.0278 99.1845 31.8471C97.6579 29.2625 95.836 26.7986 93.7411 24.4952C93.3404 23.6201 92.911 22.7592 92.46 21.9198ZM39.3484 52.2118C40.8603 51.5979 42.3755 50.9478 43.8938 50.2471C46.1785 53.6808 48.5639 57.0754 50.9706 60.416C48.8547 61.8211 46.8259 63.274 44.8949 64.7601C42.8943 60.7064 41.0259 56.4873 39.3484 52.2118ZM64.7082 37.8794C66.5677 41.8995 68.3164 46.0489 69.9061 50.197C68.7544 50.6836 67.5993 51.199 66.4444 51.7398C64.2181 48.3825 61.8328 44.9987 59.379 41.6361C61.2219 40.4206 62.9995 39.1647 64.7082 37.8794ZM11.1938 68.3816C12.3092 70.1236 13.565 71.8124 14.9359 73.4297C17.3895 76.3257 20.2494 78.986 23.3601 81.3987C21.9942 81.3046 20.6784 81.1494 19.4807 80.8505C17.5701 80.3758 15.9028 79.6244 14.5041 78.5858C13.1059 76.2627 11.916 73.7892 10.9671 71.1911C10.9596 70.2612 11.0388 69.3284 11.1938 68.3816ZM44.1097 50.1511C46.6751 48.9594 49.236 47.6556 51.7527 46.2573C54.2946 44.8447 56.7889 43.3413 59.1887 41.7684C61.6352 45.1238 64.0096 48.493 66.2285 51.8394C63.2494 53.234 60.2751 54.7661 57.3777 56.4364C55.2532 57.6605 53.1835 58.961 51.1646 60.2909C48.7652 56.9613 46.3907 53.5739 44.1097 50.1511ZM10.9945 71.915C11.8391 74.107 12.8455 76.2099 14.0099 78.2055C13.0319 77.3909 12.1971 76.4182 11.5415 75.2697C11.5378 75.2624 11.5341 75.2552 11.5305 75.2479C11.5304 75.2443 11.5268 75.2443 11.5268 75.2443C11.5268 75.2406 11.5268 75.2406 11.5232 75.237C11.2183 74.1455 11.0541 73.0371 10.9945 71.915ZM94.0025 25.1196C95.9814 27.3605 97.7123 29.7478 99.1588 32.2413C99.0579 33.619 98.7478 35.0385 98.2287 36.4997C98.0944 36.8713 97.8989 37.2569 97.7394 37.6355C97.1979 34.5088 96.4259 31.4489 95.3877 28.5317C94.9703 27.367 94.4954 26.2379 94.0025 25.1196ZM98.4903 26.7799C102.49 33.8381 104.556 41.4526 104.877 49.0279C104.418 44.4762 103.186 39.9546 101.198 35.6658C100.65 34.4892 100.049 33.3302 99.3895 32.1925C99.5224 30.294 99.2442 28.4755 98.4903 26.7799ZM12.8407 77.4183C13.2924 77.9031 13.7943 78.3413 14.3248 78.7399C14.9909 79.8415 15.6965 80.9145 16.4523 81.948C17.8983 83.9278 19.5164 85.7642 21.2671 87.4605C18.0875 84.5552 15.2437 81.1967 12.8407 77.4183ZM14.826 79.1021C16.1549 79.9919 17.695 80.6481 19.4247 81.078C20.731 81.4031 22.1733 81.5666 23.6727 81.6508C25.1515 82.7806 26.6769 83.8565 28.2667 84.8569C28.1583 85.2938 28.0642 85.7272 27.9991 86.1536C27.5741 89.0122 28.2635 91.6589 30.2966 93.9075C24.9459 90.9234 20.2794 86.7906 16.639 81.812C16 80.9386 15.4004 80.0293 14.826 79.1021ZM99.3641 32.6265C99.9466 33.655 100.493 34.6978 100.985 35.7582C103.341 40.8387 104.638 46.2472 104.825 51.6397C103.764 48.5884 101.574 46.61 98.5902 45.5623C98.4869 43.0361 98.2069 40.5337 97.797 38.0665C98.0134 37.5689 98.2658 37.0716 98.4388 36.581C98.9191 35.2316 99.2336 33.9099 99.3641 32.6265ZM57.4913 56.6399C60.3995 54.9661 63.3774 53.4304 66.3637 52.0322C68.8422 55.7822 71.0816 59.429 73.1649 62.9732C70.2196 64.9723 67.1581 66.8909 64.0124 68.6677C62.4737 69.542 60.9166 70.3726 59.3522 71.1815C56.6999 67.8317 53.9948 64.2138 51.3034 60.4838C53.3151 59.1539 55.374 57.8605 57.4913 56.6399ZM51.1057 60.6089C53.7899 64.3352 56.4912 67.9386 59.1399 71.2847C56.2914 72.7455 53.4238 74.0795 50.5696 75.2797C50.5111 75.1816 50.449 75.0906 50.3904 74.9925C48.5342 71.8444 46.7267 68.4688 45.0014 64.9781C46.9396 63.4811 48.9791 62.0211 51.1021 60.6088L51.1057 60.6089ZM66.576 51.9398C67.7165 51.4062 68.8572 50.8942 69.9946 50.4148C71.5364 54.4468 72.9012 58.4666 74.0736 62.3545C73.8366 62.5191 73.5959 62.6836 73.3589 62.8445C71.2793 59.3112 69.0436 55.6753 66.576 51.9398ZM70.207 50.3297C76.1349 47.8333 81.9599 46.0162 87.1 45.2539C87.403 45.2093 87.6846 45.1934 87.984 45.156C88.2507 46.8948 88.4561 48.6332 88.6073 50.3819C84.5989 54.4602 79.6727 58.4806 74.2747 62.2186C73.1061 58.3452 71.7415 54.3435 70.207 50.3297ZM87.4176 40.7193C88.3851 42.0295 89.2913 43.3573 90.1327 44.6955C89.501 44.7375 88.8408 44.8227 88.1842 44.9043C87.9635 43.4987 87.7104 42.1074 87.4176 40.7193ZM44.8112 65.1249C46.5364 68.6048 48.3365 71.9659 50.189 75.103C50.2439 75.1939 50.2952 75.2812 50.3501 75.372C47.5714 76.5331 44.8241 77.5496 42.1333 78.4111C39.9357 76.8197 37.7913 75.1166 35.7184 73.3128C38.2784 70.5508 41.3728 67.7894 44.8112 65.1249ZM35.5536 73.4779C37.5901 75.2489 39.6982 76.9264 41.8559 78.4957C38.5058 79.5581 35.2479 80.3969 32.1859 80.9008C31.4249 81.025 30.696 81.0988 29.9563 81.187C30.7707 79.6052 31.8194 77.9853 33.0992 76.3456C33.8427 75.3927 34.6729 74.4369 35.5536 73.4779ZM97.6234 38.4812C97.9922 40.7889 98.2493 43.1246 98.3477 45.4844C97.0007 45.0395 95.4855 44.7959 93.856 44.6889C95.4318 42.5921 96.6863 40.5144 97.6234 38.4812ZM88.2186 45.1325C88.9077 45.0512 89.6075 44.9554 90.2716 44.9101C90.7289 45.6446 91.1718 46.3826 91.5894 47.1204C91.4678 47.2641 91.3678 47.4044 91.2426 47.5482C90.4875 48.4141 89.6711 49.2832 88.8293 50.1485C88.6787 48.4721 88.4739 46.8025 88.2186 45.1325ZM24.07 81.6685C25.7644 81.7398 27.5479 81.6853 29.4351 81.4832C29.4534 81.5159 29.4717 81.5486 29.49 81.5777C28.9891 82.6157 28.6036 83.6294 28.3299 84.6294C26.8599 83.7023 25.4434 82.7033 24.07 81.6685ZM90.5424 44.905C91.5423 44.8478 92.5065 44.8374 93.4313 44.8773C92.9059 45.5606 92.33 46.2471 91.7504 46.9299C91.3658 46.2539 90.9631 45.5777 90.5424 44.905ZM93.706 44.9048C95.4078 45.0052 96.9808 45.2673 98.3677 45.7343C98.5512 50.5985 98.1282 55.5013 97.1695 60.2443C96.3289 56.7461 95 53.1536 93.1981 49.5718C92.7908 48.7653 92.3257 47.9584 91.8714 47.1515C92.5082 46.4004 93.1378 45.6529 93.706 44.9048ZM29.8247 81.432C30.6184 81.3406 31.4123 81.2601 32.2346 81.1219C35.3543 80.6076 38.6771 79.7512 42.092 78.664C43.9591 80.0139 45.8509 81.3062 47.7743 82.472C50.6158 84.1952 53.4987 85.6726 56.3797 86.9112C54.5463 88.8612 53.1711 90.757 52.4807 92.4846C52.3391 92.8417 52.2372 93.1918 52.1533 93.5349C46.0719 92.6508 40.0434 90.7142 34.4202 87.9776C32.8199 86.1087 31.312 84.0706 29.933 81.8743C29.8708 81.7797 29.823 81.6744 29.7609 81.5799C29.7857 81.5294 29.7998 81.4825 29.8247 81.432ZM29.651 81.8467C29.6803 81.894 29.706 81.9485 29.7353 81.9994C31.0302 84.0539 32.4431 85.9574 33.9271 87.7312C32.0852 86.8121 30.2825 85.8353 28.5439 84.7469C28.8 83.8046 29.1858 82.8308 29.651 81.8467ZM91.714 47.3421C92.1536 48.1198 92.6004 48.894 92.9931 49.6751C94.8757 53.4203 96.2276 57.1722 97.0512 60.8077C96.8806 61.6024 96.7354 62.4044 96.5322 63.1916C95.9019 65.6505 95.0795 68.0356 94.1302 70.3436C92.7762 69.4753 90.9068 69.1891 88.7196 69.349C88.4958 69.3653 88.2543 69.4141 88.027 69.4412C88.5192 66.869 88.8663 64.2233 89.036 61.5183C89.2634 57.8947 89.1759 54.1819 88.8572 50.4671C89.7599 49.5481 90.6192 48.6214 91.4244 47.7016C91.5281 47.5794 91.6138 47.4607 91.714 47.3384L91.714 47.3421ZM88.6386 50.6789C88.9422 54.3175 89.0219 57.9543 88.8012 61.502C88.6316 64.2251 88.2809 66.8852 87.7852 69.4718C85.0397 69.8082 81.8621 70.7635 78.5364 72.1553C77.6044 70.3316 76.6035 68.4531 75.5007 66.4869C75.2289 65.4717 74.9535 64.4528 74.6491 63.412C74.5562 63.0965 74.4489 62.77 74.3561 62.4508C79.7253 58.7343 84.6264 54.7391 88.6386 50.6789ZM28.4808 84.9816C30.35 86.147 32.2942 87.2081 34.2882 88.1791C37.3358 91.731 40.75 94.6129 44.3747 96.7221C41.2065 97.0515 38.364 97.0072 36.0057 96.5434C34.2525 95.8891 32.5562 95.1122 30.9168 94.2344C28.569 91.9327 27.7887 89.202 28.2341 86.1881C28.2959 85.7906 28.3793 85.386 28.4808 84.9816ZM98.6031 45.8157C101.577 46.885 103.719 48.8558 104.709 51.9717C104.641 57.4779 102.16 62.8999 98.1632 67.9805C98.1266 65.6718 97.8402 63.2816 97.2897 60.8277C98.3266 55.9298 98.7879 50.8536 98.6031 45.8157ZM42.3766 78.5794C45.0313 77.7213 47.739 76.7117 50.4781 75.5684C52.755 79.3892 55.0833 82.8666 57.3863 85.8952C57.0997 86.1752 56.8202 86.4552 56.5552 86.7316C53.6561 85.4893 50.7551 84.0045 47.8955 82.2704C46.0266 81.1411 44.1892 79.8855 42.3766 78.5794ZM50.6976 75.4761C53.5554 74.2759 56.4302 72.9347 59.2859 71.4704C59.4829 71.7216 59.6874 72.0018 59.8844 72.2494C61.8834 74.751 63.8197 77.0747 65.6858 79.2026C62.6184 81.2875 59.8194 83.5158 57.5547 85.7229C55.2735 82.7198 52.9562 79.2678 50.6976 75.4761ZM74.1549 62.5903C74.244 62.8841 74.3403 63.1852 74.4257 63.4789C74.6447 64.226 74.8347 64.9511 75.0393 65.6873C74.5521 64.8295 73.9959 63.9314 73.4833 63.0517C73.706 62.8979 73.9323 62.7441 74.1549 62.5903ZM73.2893 63.1804C73.9227 64.2601 74.6142 65.3763 75.2041 66.4267C75.2297 66.4739 75.2518 66.5175 75.2774 66.5647C75.8656 68.7584 76.3701 70.879 76.7874 72.9229C74.6248 73.908 72.4346 75.0375 70.2886 76.2904C69.3684 76.8258 68.4556 77.383 67.5609 77.9547C66.9896 78.3193 66.4365 78.6948 65.8797 79.0702C64.0136 76.9388 62.0701 74.6113 60.0674 72.1062C59.8813 71.8695 59.6842 71.6038 59.4981 71.3672C61.0518 70.5654 62.6017 69.7383 64.1368 68.8713C67.2788 67.0909 70.344 65.1759 73.2893 63.1804ZM34.843 88.4513C40.3279 91.0638 46.1895 92.905 52.101 93.7697C51.9898 94.3187 51.9616 94.8468 52.027 95.3502C50.56 95.704 49.1216 96.0254 47.7368 96.264C46.7162 96.4404 45.7241 96.5773 44.7572 96.6854C41.2054 94.6635 37.857 91.8799 34.843 88.4513ZM75.7796 67.4913C76.6811 69.1194 77.5389 70.7146 78.3204 72.2441C77.8813 72.4287 77.4458 72.6206 77.0032 72.8197C76.6463 71.0946 76.253 69.3259 75.7796 67.4913ZM104.855 53.127C104.854 53.4345 104.846 53.7384 104.837 54.0459C104.633 57.4525 104.09 60.8239 103.195 64.1057C103.188 64.1201 103.185 64.1382 103.181 64.1526C101.931 68.1805 99.9544 72.0362 97.2561 75.5569C97.9026 73.3115 98.1757 70.8859 98.1662 68.3532C102.013 63.5318 104.478 58.3848 104.852 53.127L104.855 53.127ZM70.4094 76.4903C72.5302 75.2517 74.6989 74.1401 76.8327 73.1657C77.6938 77.4238 78.1763 81.3063 78.159 84.5516C76.6673 85.4298 75.1464 86.2644 73.6143 87.0627C71.3919 85.0803 68.8173 82.4186 66.0365 79.2524C66.5861 78.8841 67.1248 78.5085 67.6853 78.1511C68.5799 77.5793 69.4928 77.0258 70.4094 76.4903ZM97.1678 61.3912C97.6635 63.7541 97.9166 66.0537 97.9344 68.2717C97.0977 69.3143 96.2104 70.3493 95.2543 71.362C94.9879 71.027 94.6679 70.7495 94.3265 70.5008C95.29 68.1639 96.1229 65.7463 96.7638 63.2549C96.9214 62.6411 97.0283 62.0124 97.1678 61.3912ZM65.8461 79.3811C68.6088 82.5292 71.1689 85.1871 73.3986 87.1767C73.0785 87.3442 72.7585 87.519 72.4348 87.6828C70.7551 88.5306 69.0568 89.3131 67.3618 90.063C64.6748 89.5966 61.924 88.8222 59.153 87.7907C58.6716 87.1971 58.1825 86.5564 57.6971 85.9194C59.9618 83.7086 62.7716 81.4733 65.8461 79.3811ZM77.0521 73.0589C77.5163 72.8527 77.977 72.6538 78.4377 72.4585C80.1878 75.8915 81.6142 79.0361 82.6399 81.747C81.2497 82.6695 79.8376 83.5664 78.3891 84.4232C78.3954 81.1597 77.913 77.2953 77.0521 73.0589ZM78.6536 72.3697C81.929 71.0028 85.0489 70.0543 87.7402 69.7103C86.9733 73.6045 85.8292 77.3004 84.2671 80.6601C83.8003 80.9856 83.3188 81.2965 82.8411 81.6148C81.8154 78.9039 80.3892 75.7809 78.6536 72.3697ZM35.9967 96.7821C36.0112 96.7859 36.0257 96.7896 36.0401 96.7897C40.4809 98.4351 45.248 99.345 50.1958 99.3735C50.6773 99.5293 51.1588 99.6706 51.6437 99.7938C53.5363 100.279 55.4596 100.53 57.399 100.545C50.0524 100.863 42.7434 99.5602 35.9967 96.7821ZM37.2551 96.9803C39.4458 97.2582 41.9591 97.2276 44.7121 96.9202C46.272 97.8009 47.8599 98.5625 49.486 99.1326C45.2382 99.0337 41.1261 98.2883 37.2551 96.9803ZM57.5287 86.0881C57.9229 86.6014 58.3207 87.122 58.711 87.6099C58.0734 87.366 57.4357 87.1005 56.798 86.8313C57.0343 86.5835 57.2779 86.3358 57.5287 86.0881ZM56.6188 87.0035C57.416 87.3427 58.2133 87.6892 59.0065 87.9849C60.2356 89.4926 61.4489 90.8265 62.6322 92.019C60.6844 92.7633 58.7469 93.439 56.8484 94.0245C55.3598 93.9439 53.8671 93.7873 52.3775 93.5765C52.458 93.2515 52.5528 92.9194 52.6909 92.5731C53.3706 90.8708 54.7638 88.9643 56.6188 87.0035ZM87.9855 69.6797C88.2345 69.6491 88.5014 69.6042 88.7432 69.588C90.9232 69.4281 92.7457 69.7247 94.0417 70.5745C93.5244 71.8114 92.9744 73.0299 92.3663 74.2082C90.0146 76.3749 87.4202 78.4491 84.655 80.3918C86.149 77.0931 87.2395 73.4764 87.9855 69.6797ZM59.4811 88.1696C62.0056 89.087 64.5138 89.7835 66.9768 90.2336C65.6056 90.8306 64.2415 91.4059 62.8771 91.9341C61.7667 90.8218 60.6335 89.5681 59.4811 88.1696ZM45.0946 96.8871C45.9677 96.7818 46.8659 96.6515 47.7819 96.4923C49.1632 96.2573 50.598 95.9394 52.0578 95.5856C52.2385 96.5097 52.7506 97.3242 53.6371 97.9861C54.084 98.3189 54.628 98.6055 55.2656 98.8602C53.5735 99.0566 51.8986 99.1554 50.2409 99.1495C48.4921 98.5893 46.7705 97.8121 45.0946 96.8871ZM52.3288 93.8077C53.6376 93.9917 54.9423 94.1215 56.2504 94.2115C54.8922 94.6204 53.566 94.9717 52.254 95.2941C52.1961 94.8269 52.2247 94.3315 52.3288 93.8077ZM94.2416 70.7244C94.5576 70.9585 94.8487 71.2213 95.0931 71.5308C95 71.6277 94.9249 71.7248 94.8318 71.8218C94.2157 72.4573 93.5635 73.0816 92.904 73.706C93.3873 72.7329 93.8199 71.7305 94.2416 70.7244ZM97.9337 68.6408C97.9181 71.195 97.6163 73.6421 96.9192 75.887C96.8982 75.9592 96.8699 76.0314 96.8452 76.1036C96.6807 76.3121 96.4981 76.5133 96.3264 76.7181C96.5971 74.4445 96.2476 72.7448 95.3894 71.5512C96.2954 70.5996 97.1363 69.6258 97.9337 68.6408ZM52.2812 95.5331C53.7806 95.1651 55.3049 94.7467 56.8647 94.2634C59.5419 94.4113 62.203 94.3493 64.8261 94.0554C65.6007 94.7164 66.3638 95.3122 67.1008 95.7921C63.3068 97.3394 59.5191 98.3187 55.796 98.7957C54.9776 98.5178 54.2996 98.1868 53.7765 97.7991C52.9227 97.1664 52.4471 96.4028 52.2812 95.5331ZM95.2283 71.7308C96.0649 72.9242 96.4001 74.6491 96.0581 77.038C92.9921 80.6462 89.0994 83.8499 84.3499 86.475C84.2863 86.2032 84.2409 85.9459 84.1627 85.6559C87.5643 82.4592 90.3611 78.6064 92.566 74.3437C93.4085 73.5689 94.222 72.783 94.9992 71.9823C95.078 71.8997 95.1459 71.8134 95.2283 71.7308ZM101.814 68.3677C100.297 72.4441 98.2337 76.3317 95.6622 79.9113L95.6621 79.9004C95.743 79.6261 95.7988 79.3733 95.8653 79.1097C96.3381 78.1763 96.7348 77.199 97.0625 76.1813C99.0074 73.7292 100.586 71.1041 101.814 68.3677ZM57.4915 94.0658C59.2422 93.5117 61.0177 92.8962 62.807 92.2085C63.4077 92.8031 64.0006 93.3397 64.5825 93.8436C62.2443 94.0927 59.8722 94.1679 57.4915 94.0658ZM92.0748 74.7848C89.9471 78.7731 87.2855 82.3737 84.0921 85.402C83.8875 84.6587 83.6391 83.8535 83.3434 83.0081C83.7349 82.2948 84.1046 81.5597 84.4561 80.8099C87.1784 78.9139 89.7335 76.8973 92.0748 74.7848ZM63.0555 92.1164C64.4991 91.5563 65.9496 90.9418 67.3999 90.3021C70.6618 90.8563 73.8334 90.9647 76.8383 90.5472C76.7629 90.5973 76.6911 90.6474 76.6193 90.6974C72.8982 92.3322 68.9519 93.3465 64.9 93.8063C64.2963 93.2877 63.6816 92.7329 63.0554 92.1128L63.0555 92.1164ZM50.9757 99.358C52.5501 99.3379 54.1455 99.2312 55.7545 99.0269C57.2609 99.5382 59.3217 99.8223 61.8683 99.8968C58.4464 100.561 55.0253 100.421 51.6961 99.5699C51.4536 99.5065 51.2146 99.4286 50.9757 99.358ZM67.7957 90.1316C69.3827 89.4242 70.9694 88.6843 72.5412 87.8899C72.8901 87.7154 73.2352 87.5228 73.5841 87.341C74.9807 88.575 76.2453 89.5511 77.3375 90.1894C77.3123 90.2109 77.2836 90.2288 77.2585 90.2503C74.2576 90.7221 71.0755 90.6606 67.7957 90.1316ZM84.0754 81.0638C83.809 81.6225 83.5281 82.1738 83.2363 82.7142C83.1329 82.4275 83.0367 82.1409 82.9259 81.8398C83.3103 81.5859 83.6946 81.3249 84.0754 81.0638ZM82.7248 81.9756C82.854 82.324 82.9686 82.6614 83.0833 82.9952C81.8197 85.2935 80.3378 87.402 78.6338 89.2771C78.3538 89.4847 78.0665 89.6778 77.7828 89.8781C77.7863 89.8673 77.7898 89.8565 77.7933 89.8457C77.7933 89.842 77.7897 89.8384 77.7896 89.8348C78.1896 88.3726 78.3815 86.6338 78.402 84.6838C79.8721 83.8163 81.313 82.9124 82.7248 81.9756ZM73.7962 87.2269C75.2707 86.4571 76.7305 85.6583 78.1647 84.8158C78.1401 86.7043 77.9477 88.3743 77.5653 89.7787L77.5653 89.786L77.5582 89.7895C77.5444 89.8763 77.5196 89.9376 77.5023 90.0243C76.4355 89.4043 75.182 88.45 73.7962 87.2269ZM83.194 83.2892C83.4713 84.0982 83.7086 84.8671 83.8985 85.5778C82.8267 86.5823 81.6894 87.5176 80.4974 88.3837C80.0871 88.565 79.6769 88.7499 79.2558 88.9238C80.7444 87.2134 82.0583 85.328 83.194 83.2892ZM56.2957 98.9625C59.9427 98.456 63.6437 97.4651 67.3511 95.9388C68.0698 96.3895 68.7697 96.7569 69.4436 97.0191C67.2831 98.2683 65.0981 99.1482 62.903 99.6807C60.1475 99.6697 57.921 99.4349 56.2957 98.9625ZM65.1364 94.0216C68.6903 93.6013 72.154 92.7532 75.4659 91.4372C72.7784 93.1526 70.0703 94.5638 67.3636 95.6856C67.3381 95.6673 67.3128 95.6599 67.2874 95.6416C66.5904 95.191 65.8709 94.6353 65.1364 94.0216ZM96.6405 76.6989C96.4815 77.1427 96.3081 77.5827 96.1201 78.0118C96.1791 77.7119 96.2416 77.4049 96.2863 77.1194C96.4043 76.9792 96.5224 76.8391 96.6405 76.6989ZM95.9787 77.4896C95.8959 77.9702 95.7844 78.4795 95.6514 79.0103C93.5362 83.2013 89.9334 86.5231 84.6767 88.5002C84.6529 88.2323 84.6509 87.9862 84.6052 87.6928C84.5558 87.3885 84.4663 87.0368 84.3951 86.707C89.0657 84.139 92.9228 81.0111 95.9787 77.4896ZM83.9763 85.8317C84.0471 86.1 84.0779 86.3318 84.1341 86.5891C83.2891 87.0491 82.4187 87.4945 81.5193 87.9179C82.3735 87.2589 83.1877 86.5635 83.9763 85.8317ZM79.0383 89.2767C79.0491 89.2731 79.0563 89.2659 79.0635 89.2624C79.2506 89.1843 79.427 89.1025 79.6105 89.028C79.2765 89.2496 78.935 89.4567 78.5936 89.6675C78.6581 89.5993 78.7153 89.5274 78.7797 89.4555C78.8659 89.3947 78.9521 89.3375 79.0383 89.2767ZM67.6284 95.8324C70.6698 94.5577 73.7119 92.9284 76.7257 90.9081C76.9164 90.8228 77.1107 90.7375 77.3014 90.6486C77.1652 90.7814 77.0364 90.9215 76.8966 91.0542L76.8894 91.0542C74.5544 93.5104 72.1429 95.4269 69.6916 96.8728C69.0324 96.6324 68.3433 96.2687 67.6284 95.8324ZM77.8102 90.1461C77.803 90.1533 77.7959 90.1641 77.7851 90.1712C77.7815 90.1748 77.7743 90.1748 77.7671 90.1747C77.7814 90.164 77.7958 90.1568 77.8102 90.1461ZM80.6217 88.5801C81.8596 88.0291 83.0467 87.4452 84.1866 86.8283C84.2467 87.1255 84.3324 87.4482 84.3743 87.7235C84.4238 88.035 84.4259 88.2992 84.4498 88.5816C82.6242 89.2473 80.5987 89.7558 78.3731 90.0818C79.1457 89.6104 79.8965 89.1098 80.6217 88.5801ZM77.8056 90.4717C79.0866 91.2489 80.1925 91.7932 81.1047 92.0646C81.6115 92.2169 82.0671 92.2893 82.468 92.2961C82.1518 92.4962 81.8393 92.7072 81.5195 92.9C79.3487 94.207 77.1082 95.3796 74.9096 96.3752C76.1107 95.2884 77.031 93.4107 77.6193 90.6584C77.6802 90.5937 77.7411 90.5327 77.8056 90.4717ZM78.0828 90.3617C80.4312 90.0367 82.5541 89.5145 84.4734 88.817C84.5074 89.4613 84.4977 90.0473 84.3894 90.5023C84.3195 90.8021 84.2168 91.0473 84.0812 91.2597C83.6897 91.5243 83.2873 91.7744 82.8885 92.0317C82.4268 92.104 81.863 92.0525 81.1715 91.8444C80.3281 91.5953 79.2803 91.0768 78.0828 90.3617ZM94.8145 80.9357C94.7148 81.1049 94.6403 81.2708 94.5333 81.44C94.3367 81.6881 94.1328 81.9325 93.9325 82.1805C94.2471 81.7778 94.5363 81.3604 94.8145 80.9357ZM77.261 91.0137C76.5239 94.1158 75.3691 96.0242 73.8768 96.8265C73.6068 96.9401 73.3441 97.0538 73.0778 97.1638C72.1445 97.4278 71.0966 97.3507 69.9632 96.9762C72.3785 95.5301 74.7541 93.6386 77.0532 91.2255C77.0568 91.2219 77.0568 91.2183 77.0604 91.2147C77.1285 91.1501 77.1929 91.0783 77.261 91.0137ZM61.5926 100.188C62.0361 100.108 62.4796 100.025 62.9266 99.9161C63.0999 99.9175 63.2517 99.9259 63.4323 99.9274C62.8155 100.027 62.2059 100.109 61.5926 100.188ZM93.5892 82.6011C91.7293 84.8513 89.6443 86.9477 87.3557 88.8724C86.4334 89.596 85.4748 90.3011 84.4799 90.9807C84.533 90.8508 84.5825 90.7137 84.6173 90.562C84.7361 90.0601 84.7419 89.4269 84.6966 88.7355C88.4808 87.322 91.4289 85.2216 93.5892 82.6011ZM63.7121 99.698C65.7264 99.1388 67.7311 98.29 69.7117 97.1298C70.5845 97.4407 71.4162 97.5739 72.1923 97.5294C70.6947 98.1181 69.2432 98.6023 67.881 98.9677C67.7008 99.0134 67.5206 99.0553 67.3404 99.1009C66.133 99.3989 64.9935 99.6178 63.9758 99.7037C63.9722 99.7037 63.9686 99.7037 63.9686 99.7037C63.8747 99.7065 63.806 99.6988 63.7121 99.698Z" fill="#C0E0EF" fill-opacity="0.5" shape-rendering="crispEdges"/>
<path d="M54.676 1.41215C54.1127 1.4149 53.5458 1.42487 52.979 1.44569C53.5458 1.42849 54.1197 1.38963 54.676 1.41215ZM54.676 1.41215C59.8149 1.40235 64.9132 2.17375 69.7898 3.68872C67.1521 3.06352 64.3326 2.73718 61.3386 2.71699C59.2056 1.97641 56.9917 1.50654 54.676 1.41215ZM30.0605 7.66392C28.4822 8.55591 26.9732 9.52804 25.5334 10.5622C21.6937 13.1657 18.4841 15.9804 16.6733 18.4951L16.6661 18.5059L16.6589 18.5094C16.5914 18.6428 16.5561 18.751 16.4922 18.8808C15.3782 20.0225 14.449 21.2489 13.7011 22.5491C3.17983 37.705 1.60641 58.124 11.3032 75.275C11.3069 75.2932 11.3107 75.3113 11.3144 75.3294L11.3291 75.3549C11.3584 75.4094 11.3985 75.4531 11.4278 75.5076C11.4498 75.544 11.4645 75.5802 11.4865 75.6166C16.3245 84.0274 23.2597 90.5047 31.2535 94.7943C32.1548 95.4961 33.2569 96.0259 34.5384 96.4124C44.8569 101.021 56.6173 102.138 67.8361 99.2279C71.9806 98.1537 76.0485 96.5398 79.942 94.3347C81.2686 93.5855 82.5369 92.7779 83.7652 91.9338C83.8047 91.9051 83.8515 91.8802 83.8873 91.8479C85.252 90.8999 86.5549 89.8972 87.7996 88.8362C90.674 86.5507 93.1172 84.0844 94.6973 81.6222C98.7794 76.3794 101.729 70.4077 103.437 64.0967C103.441 64.0787 103.444 64.0606 103.451 64.0426C104.433 60.8194 104.966 57.4913 105.066 54.1381C105.633 44.7789 103.563 35.1455 98.5196 26.3821C93.1103 16.9862 85.0912 9.99738 75.899 5.78515C75.7903 5.73725 75.6815 5.68936 75.5728 5.64146C67.0554 1.81088 57.5495 0.360409 48.1698 1.59921C48.1626 1.59915 48.1554 1.60271 48.1518 1.60268C44.4187 1.7322 39.9945 3.04658 35.6113 4.97275C33.7323 5.75018 31.876 6.63634 30.0605 7.66392ZM29.3371 8.42883C30.1099 7.97548 30.9009 7.53312 31.6992 7.11253C32.8608 6.49944 34.0408 5.93354 35.2247 5.40024C35.4298 5.31142 35.6386 5.23348 35.8474 5.1483C34.526 6.10022 33.4098 7.86061 32.5057 10.4078C32.4949 10.415 32.4841 10.4221 32.4734 10.4329C32.2932 10.4749 32.1201 10.5061 31.9399 10.5517L31.911 10.555L31.8895 10.573C31.7604 10.6877 31.6385 10.7989 31.513 10.9137C30.4187 10.4527 29.43 10.112 28.642 10.0117C27.8177 9.9038 27.1395 9.98886 26.6252 10.2598C26.4526 10.3488 26.2946 10.4597 26.1548 10.5925C25.6028 11.1127 25.3421 11.932 25.3217 12.9919C25.3187 13.0606 25.3411 13.1513 25.3416 13.2236C23.9809 13.7664 22.6963 14.3532 21.5495 15.0062C20.338 15.6948 19.2751 16.4534 18.292 17.2525C20.5442 14.8317 23.0652 12.6122 25.8482 10.6371C25.8589 10.6299 25.8697 10.6192 25.8805 10.612C26.994 9.86469 28.1401 9.12847 29.3371 8.42883ZM26.7352 10.4632C27.2027 10.2209 27.8196 10.139 28.6149 10.2394C29.3524 10.3357 30.2939 10.6544 31.3302 11.0859C31.194 11.2078 31.0649 11.3298 30.9287 11.4518C28.986 11.9284 27.1956 12.4894 25.5684 13.1278C25.5681 13.0916 25.5532 13.0408 25.5529 13.001C25.5736 11.9772 25.8276 11.2231 26.3186 10.7602C26.4441 10.6454 26.5805 10.5452 26.7352 10.4632ZM36.5143 4.99441C36.7588 4.86248 37.0035 4.7595 37.2556 4.67467C38.3362 4.31421 39.5177 4.39235 40.7781 4.84017C40.5731 4.94708 40.3715 5.02869 40.1665 5.13923C37.7825 6.42641 35.3402 8.09666 32.8537 10.1211C33.8509 7.46974 35.0832 5.77178 36.5143 4.99441ZM38.1912 4.25155C41.4935 3.08745 44.8601 2.28204 48.2476 1.83862C48.522 1.82995 48.7714 1.85364 49.0387 1.85939C46.4678 2.36357 43.7994 3.31925 41.0623 4.70494C40.0625 4.3207 39.1005 4.15748 38.1912 4.25155ZM19.2527 15.9069C19.113 16.0505 18.9697 16.1905 18.83 16.3341C18.9697 16.1905 19.1094 16.0505 19.2527 15.9069ZM21.6703 15.1989C22.7883 14.5638 24.0369 13.9984 25.3616 13.4662C25.3842 14.0236 25.4577 14.6393 25.5859 15.3132C20.9835 18.732 17.2595 22.2445 14.305 25.8029C14.5723 24.0069 15.3524 21.7662 16.6564 19.0956C16.778 18.9518 16.8961 18.8116 17.0177 18.6679C18.3221 17.401 19.8476 16.23 21.6703 15.1989ZM25.5812 13.3739C27.104 12.7745 28.7646 12.245 30.563 11.7853C30.4411 11.9002 30.3192 12.0077 30.1973 12.1225C28.6561 13.1234 27.1763 14.1355 25.7905 15.1593C25.6661 14.5034 25.5963 13.9095 25.5812 13.3739ZM40.2729 5.33907C40.5425 5.19287 40.8054 5.09365 41.0715 4.95466C41.7381 5.22047 42.4312 5.62759 43.1355 6.09269C40.0925 7.16841 36.9289 8.51814 33.6341 10.1635C33.4178 10.2125 33.1979 10.2614 32.978 10.3139C35.4645 8.28941 37.8997 6.62634 40.2729 5.33907ZM41.3521 4.81579C44.4347 3.27727 47.4101 2.33127 50.2742 1.91263C52.0102 2.23759 53.4113 2.67567 54.5279 3.20194C51.0289 3.7096 47.3202 4.62806 43.4056 5.99353C42.7084 5.52487 42.0188 5.09968 41.3521 4.81579ZM32.0355 10.7659C32.0463 10.766 32.0571 10.7624 32.0679 10.7589C31.9998 10.8199 31.928 10.8736 31.8563 10.9345C31.9172 10.8807 31.9709 10.8233 32.0355 10.7659ZM16.0664 19.8326C14.9235 22.3164 14.2326 24.4311 14.0368 26.1373C13.1821 27.1834 12.3779 28.2299 11.6569 29.2842C11.9674 27.0326 12.6546 24.907 13.7331 22.9401C14.4649 21.8749 15.2475 20.8428 16.0664 19.8326ZM31.573 11.1891C31.5839 11.1965 31.602 11.2002 31.6129 11.2076C31.5518 11.2433 31.4979 11.2862 31.4369 11.3256C31.4333 11.3255 31.4296 11.3255 31.4224 11.3254C31.4762 11.2825 31.5228 11.2358 31.573 11.1891ZM32.6735 10.619C32.706 10.612 32.7384 10.6087 32.7672 10.598C32.7313 10.6195 32.6953 10.6373 32.6594 10.6551C32.6665 10.6443 32.67 10.6334 32.6735 10.619ZM32.1903 11.1543C32.2083 11.1472 32.2299 11.1401 32.2478 11.1294C32.2443 11.1402 32.2408 11.1474 32.2372 11.1546C32.2228 11.1545 32.2047 11.158 32.1903 11.1543ZM32.5464 10.9762C32.9384 10.7731 33.3269 10.5808 33.7189 10.3849C38.0123 9.40958 42.1276 8.7621 46.0686 8.42438C46.4324 8.76738 46.804 9.16833 47.1682 9.55112C45.2352 10.3354 43.3028 11.2028 41.3928 12.1464C38.4997 11.6531 35.5285 11.3219 32.4757 11.1746C32.4968 11.106 32.5216 11.0447 32.5464 10.9762ZM31.3133 11.6792C29.6502 14.1516 28.1933 16.6654 26.928 19.2062C26.6251 18.3571 26.3658 17.5518 26.1612 16.8049C26.1315 16.7033 26.12 16.62 26.0939 16.5185C27.4404 15.1 28.8701 13.6895 30.3864 12.2832C30.6954 12.0831 30.9971 11.8793 31.3133 11.6792ZM31.7091 11.4942C31.8316 11.4662 31.9433 11.4345 32.0695 11.4066C32.0913 11.4176 32.1094 11.425 32.1311 11.436C32.1207 11.483 32.1065 11.5154 32.0924 11.5623L32.0852 11.5623L32.0853 11.5731C31.6962 13.4913 31.5034 15.5774 31.456 17.766C30.0871 18.6451 28.7473 19.5535 27.4366 20.4766C27.3076 20.1499 27.1604 19.8122 27.0423 19.4965C28.3785 16.7936 29.9208 14.1175 31.7091 11.4942ZM34.5894 9.94679C37.6291 8.46582 40.5554 7.24445 43.3751 6.25379C43.662 6.44784 43.9413 6.5984 44.232 6.82504C44.7553 7.23081 45.29 7.71265 45.8285 8.21262C42.2269 8.53132 38.4829 9.09854 34.5894 9.94679ZM29.1972 13.0517C28.0897 14.1066 27.0438 15.1729 26.0339 16.2394C25.963 15.953 25.903 15.6776 25.8467 15.4094C26.9201 14.6183 28.0298 13.8312 29.1972 13.0517ZM32.3522 11.5282C32.4791 11.5907 32.5768 11.6168 32.7073 11.683C32.711 11.6866 32.7146 11.6867 32.7182 11.6903C33.8747 12.7017 35.0426 13.782 36.2108 14.8948C35.8729 15.0875 35.5313 15.2729 35.1934 15.4729C34.169 16.0689 33.1519 16.6832 32.1529 17.312C32.002 17.4085 31.8548 17.5086 31.7039 17.6051C31.7592 15.4962 31.9381 13.4823 32.3133 11.6328C32.3238 11.5931 32.3416 11.5679 32.3522 11.5282ZM32.6546 11.4112C35.5195 11.5534 38.3137 11.8687 41.033 12.3209C39.4791 13.0973 37.9401 13.9208 36.4193 14.7771C35.2257 13.6423 34.0396 12.5402 32.8612 11.5106L32.8503 11.5032L32.8358 11.4886C32.7705 11.4556 32.7198 11.4407 32.6546 11.4112ZM49.9362 1.64944C50.4955 1.59238 51.0549 1.53893 51.6143 1.50358C51.1777 1.54353 50.7341 1.61598 50.294 1.68123C50.2506 1.67364 50.2144 1.6625 50.171 1.65492L50.1638 1.65486C50.0915 1.64705 50.0085 1.65363 49.9362 1.64944ZM25.6385 15.5669C25.7022 15.8533 25.7586 16.1359 25.8369 16.4441C21.4288 21.1162 17.9277 25.8643 15.2427 30.6008C14.816 30.0909 14.5005 29.4769 14.3356 28.723C14.1782 28.0126 14.1607 27.1731 14.265 26.2223C17.2227 22.6096 20.9751 19.0394 25.6385 15.5669ZM50.9452 1.82389C54.3439 1.42036 57.5751 1.75359 60.6091 2.71481C58.7856 2.73649 56.8943 2.87341 54.9391 3.14008C53.8875 2.60347 52.5586 2.16597 50.9452 1.82389ZM43.6452 6.15463C47.6139 4.77874 51.3661 3.87148 54.8977 3.38217C56.2322 4.07299 57.1164 4.89771 57.5933 5.83137C57.6484 5.94035 57.6818 6.05639 57.726 6.16529C57.6143 6.18972 57.5061 6.20695 57.3979 6.23142C55.4658 6.6828 53.5058 7.25335 51.5393 7.91792C49.7844 7.94377 47.9867 8.03078 46.1497 8.18261C45.5529 7.62067 44.9564 7.09492 44.3714 6.64162C44.1243 6.45151 43.8885 6.323 43.6452 6.15463ZM25.9042 16.7268C25.9154 16.7776 25.923 16.8174 25.9342 16.8646C26.161 17.6768 26.457 18.5584 26.7966 19.4837C26.4377 20.2117 26.0933 20.9435 25.7633 21.6789C22.0618 24.4065 18.6722 27.2849 15.7484 30.1743C18.3595 25.676 21.7289 21.1693 25.9042 16.7268ZM12.7805 24.3942C12.0857 26.0132 11.6082 27.7136 11.3805 29.4991C11.3703 29.575 11.3709 29.6546 11.3643 29.7306C8.33456 34.2617 6.48966 38.8312 5.66626 43.3364C6.70314 36.6294 9.11431 30.1686 12.7805 24.3942ZM13.9968 26.5495C13.9312 27.3739 13.966 28.1195 14.1084 28.7683C14.292 29.5874 14.6369 30.2631 15.1144 30.8169C14.0397 31.901 13.0155 32.9891 12.0888 34.0672C11.9028 34.2828 11.7419 34.4914 11.5631 34.7071C11.4052 33.027 11.4101 31.3916 11.5889 29.8119C12.3204 28.7215 13.1207 27.6352 13.9968 26.5495ZM55.2908 3.32379C57.376 3.05091 59.3758 2.93656 61.3116 2.94834C61.6629 3.07053 62.0176 3.17466 62.3654 3.31129C63.5502 3.79107 64.6961 4.37546 65.8137 5.03923C63.2722 5.15289 60.6424 5.51912 57.9568 6.11647C57.9051 5.9858 57.8644 5.85523 57.7984 5.72807C57.3287 4.80895 56.5061 4.0028 55.2908 3.32379ZM46.397 8.40166C47.9128 8.27984 49.4144 8.18686 50.8767 8.15145C49.7207 8.55472 48.5613 8.99054 47.4022 9.45891C47.0671 9.10529 46.7282 8.72269 46.397 8.40166ZM26.9109 19.7741C27.0106 20.0462 27.1321 20.333 27.2427 20.6161C26.8764 20.8737 26.5065 21.1277 26.1474 21.3889C26.3923 20.8482 26.648 20.3111 26.9109 19.7741ZM35.3106 15.6728C35.6665 15.4658 36.0296 15.266 36.3891 15.0627C39.013 17.5692 41.6495 20.3001 44.273 23.2119C42.6096 24.2913 40.8772 25.3268 39.1117 26.2788C36.9758 27.4341 34.8063 28.4552 32.6755 29.3428C31.9749 25.2922 31.6262 21.4361 31.6917 17.8945C31.8894 17.7694 32.0797 17.6334 32.2809 17.5084C33.2762 16.8795 34.2897 16.2689 35.3106 15.6728ZM36.5941 14.9485C38.1867 14.0494 39.8013 13.1903 41.4308 12.3855C44.9749 12.9999 48.3766 13.8735 51.6571 14.9489C52.0368 15.4693 52.4202 15.9897 52.8038 16.5391C50.5068 18.7749 47.6466 21.0208 44.4743 23.0904C41.8544 20.1787 39.2179 17.455 36.5941 14.9485ZM31.4438 18.0553C31.3927 21.5862 31.7521 25.4207 32.4523 29.4351C32.222 29.5274 31.9951 29.616 31.7683 29.7047C30.0229 26.4019 28.5756 23.3656 27.5215 20.7052C28.7999 19.8 30.1073 18.9167 31.4438 18.0553ZM41.7906 12.2147C43.6324 11.3176 45.4892 10.4857 47.3466 9.72983C48.6833 11.1371 50.0471 12.7833 51.4271 14.6431C48.3278 13.6416 45.125 12.8057 41.7906 12.2147ZM27.3275 20.8411C28.3817 23.4943 29.8143 26.516 31.5488 29.797C28.2079 31.1055 25.0334 31.9884 22.3236 32.2889C23.1984 28.7899 24.4091 25.2935 25.9488 21.836C26.4047 21.5031 26.8643 21.1703 27.3275 20.8411ZM47.5806 9.64124C48.9197 9.10193 50.2555 8.59516 51.5917 8.14266C53.7908 8.11311 55.9256 8.17712 58.0034 8.33475C57.8757 9.51686 57.3695 10.8009 56.5208 12.1437C55.8397 13.2237 54.9241 14.3453 53.8642 15.473C53.1833 15.2251 52.4916 14.9845 51.7964 14.7546C50.3724 12.8184 48.9647 11.1031 47.5806 9.64124ZM25.5575 22.1296C24.0857 25.4972 22.9321 28.9035 22.0818 32.3087C20.9199 32.4261 19.8224 32.4644 18.8716 32.3374C17.6605 32.1794 16.6464 31.8168 15.876 31.2245C15.7162 31.1039 15.5742 30.9616 15.4358 30.8194C18.3663 27.8722 21.7988 24.9291 25.5575 22.1296ZM11.3177 30.2223C11.1747 31.7552 11.1946 33.3401 11.3593 34.9623C8.70187 38.1867 6.74433 41.3189 5.77035 44.1586C5.80825 43.9309 5.83171 43.7032 5.86961 43.4756C6.65788 39.093 8.42786 34.6387 11.3177 30.2223ZM52.2905 7.91666C54.023 7.35154 55.7453 6.85507 57.4467 6.45613C57.5692 6.42816 57.6919 6.41466 57.8109 6.38666C57.9958 6.93085 58.069 7.50672 58.0269 8.11061C56.1659 7.96918 54.255 7.90695 52.2905 7.91666ZM62.0448 2.96502C66.2854 3.06387 70.1627 3.80385 73.6545 5.10519C74.3137 5.34923 74.9587 5.61486 75.5893 5.89847C76.162 6.15268 76.7131 6.42841 77.2643 6.71139C73.9385 5.38966 70.1966 4.87509 66.2179 5.00989C64.9986 4.27295 63.7438 3.62256 62.4468 3.09847C62.3163 3.04316 62.1752 3.0131 62.0448 2.96502ZM58.0416 6.33423C60.8246 5.71957 63.5445 5.33958 66.1584 5.24458C68.7133 6.80622 71.0877 8.82592 73.2701 11.2095C68.7143 9.63199 63.704 8.5646 58.2582 8.13054C58.3001 7.50494 58.2339 6.9038 58.0416 6.33423ZM15.2856 30.9991C15.4276 31.145 15.5732 31.2873 15.7367 31.4116C16.547 32.0367 17.6045 32.4069 18.8445 32.5688C19.7953 32.6957 20.8785 32.6645 22.0261 32.5579C20.4384 39.0289 19.952 45.4907 20.3127 51.7384C20.1552 51.9072 19.9832 52.0759 19.8293 52.2483C19.4212 52.701 19.0637 53.1576 18.6773 53.6104C15.3881 48.2946 13.0335 42.8957 12.014 37.7969C12.9204 35.5428 14.0109 33.272 15.2856 30.9991ZM14.7051 31.5626C13.6516 33.5007 12.7281 35.4327 11.9382 37.3549C11.7911 36.5722 11.6802 35.8007 11.5982 35.033C11.8236 34.7634 12.0272 34.4937 12.2634 34.2206C13.022 33.3402 13.8491 32.4531 14.7051 31.5626ZM58.2311 8.35465C63.8142 8.79704 68.9404 9.90514 73.5798 11.5521C75.9703 14.2268 78.1044 17.359 79.9882 20.7895C79.5876 20.8333 79.2086 20.8556 78.801 20.9103C75.7166 21.3308 72.411 22.0788 68.9953 23.0575C64.4645 20.0871 59.482 17.5402 54.096 15.5616C55.1345 14.4519 56.0392 13.3411 56.7168 12.2683C57.5762 10.9038 58.1001 9.58377 58.2311 8.35103L58.2311 8.35465ZM11.3908 35.2882C11.484 36.1103 11.6062 36.9326 11.7718 37.7733C9.53064 43.3636 8.3759 48.8829 8.14387 54.178C6.83069 52.9952 5.89371 51.4392 5.42261 49.4347C5.40001 49.3187 5.40619 49.1885 5.39078 49.069C5.38957 48.0161 5.43886 46.9564 5.5459 45.8935C6.21401 42.7402 8.29379 39.0879 11.3908 35.2846L11.3908 35.2882ZM66.5627 5.21885C71.4335 5.09838 75.9222 5.97348 79.7025 8.12738C81.6044 10.2229 82.3314 12.6167 82.1247 15.2128C79.5307 13.7305 76.736 12.4383 73.7372 11.3688C71.5399 8.91997 69.1433 6.83858 66.5627 5.21885ZM52.0263 15.0604C52.5912 15.2494 53.1454 15.4528 53.7031 15.6526C53.4739 15.8932 53.2158 16.1335 52.9686 16.3776C52.6544 15.9265 52.3404 15.4934 52.0263 15.0604ZM11.8618 38.1865C12.9279 43.2386 15.2674 48.5614 18.5199 53.801C17.6149 54.8792 16.7713 55.9615 16.0072 57.0518C14.1787 56.9106 12.522 56.5682 11.0908 55.9887C10.0618 55.5717 9.15465 55.029 8.36568 54.3679C8.57301 49.1449 9.68869 43.7085 11.8618 38.1865ZM22.2642 32.5381C25.0354 32.2453 28.2676 31.3448 31.6624 30.0077C32.1208 30.8725 32.5901 31.7518 33.0884 32.6494C33.565 34.8856 34.1358 37.166 34.7863 39.4723C29.3703 43.2065 24.477 47.2814 20.5347 51.505C20.1963 45.3262 20.6868 38.9332 22.2642 32.5344L22.2642 32.5381ZM53.935 15.7449C59.2702 17.6941 64.2018 20.2081 68.6962 23.1383C65.594 24.0363 62.403 25.1253 59.174 26.4166C57.1769 22.8188 55.1352 19.5064 53.1038 16.5741C53.3833 16.2977 53.6736 16.0214 53.935 15.7413L53.935 15.7449ZM52.9354 16.7392C54.9522 19.6461 56.9756 22.933 58.958 26.5053C56.1789 27.6193 53.3866 28.8743 50.6131 30.238C48.6402 27.838 46.646 25.4993 44.6346 23.2618C47.7889 21.2028 50.642 18.9714 52.9354 16.7392ZM31.8784 29.919C32.08 29.841 32.2852 29.7594 32.4904 29.6742C32.619 30.4061 32.7911 31.1528 32.9415 31.8921C32.5714 31.2198 32.2267 30.573 31.8784 29.919ZM32.7135 29.5819C34.8696 28.6873 37.0642 27.6519 39.2253 26.4859C41.0052 25.5232 42.7556 24.477 44.4333 23.3868C46.4411 25.6207 48.4316 27.9485 50.4009 30.3413C49.4225 30.8255 48.444 31.3026 47.473 31.8123C46.1352 32.5108 44.812 33.2347 43.4999 33.9841C41.1452 35.3294 38.8417 36.7475 36.6109 38.224C35.4614 36.2973 34.3229 34.3815 33.3116 32.5572C33.0977 31.5569 32.8875 30.5602 32.7135 29.5819ZM5.12794 48.7159C5.136 48.8209 5.14045 48.9259 5.15574 49.0309C5.15821 54.2953 6.48832 59.393 8.82699 64.1622C9.27267 66.6007 9.91275 68.9612 10.7399 71.2327C10.7486 72.3219 10.8765 73.4047 11.1125 74.4703C6.65917 66.2905 4.74253 57.4036 5.12794 48.7159ZM33.4621 33.3073C34.3743 34.9355 35.3992 36.6441 36.4205 38.3528C35.9355 38.6746 35.4651 39.0037 34.991 39.3292C34.4186 37.2985 33.8968 35.2863 33.4621 33.3073ZM5.42197 50.256C5.97046 52.0043 6.88817 53.4082 8.13186 54.4818C8.02253 57.5129 8.21597 60.4705 8.68311 63.3325C6.75023 59.178 5.60268 54.7801 5.42197 50.256ZM74.0433 11.715C76.9228 12.7654 79.6126 14.0278 82.1087 15.4624C82.072 15.8384 82.0136 16.2178 81.9336 16.6043C81.6663 17.9409 81.1249 19.3296 80.4247 20.7423C80.3634 20.749 80.2985 20.7558 80.2371 20.7625C78.4119 17.4229 76.3541 14.3529 74.0433 11.715ZM80.3233 8.53031C85.1886 11.7819 89.0706 16.2667 91.9729 21.5107C91.6614 21.4069 91.35 21.3031 91.0243 21.2173C90.7963 21.1576 90.5361 21.1302 90.3009 21.0777C87.9221 18.9567 85.2668 17.0324 82.346 15.3412C82.5646 12.8754 81.9394 10.5693 80.3233 8.53031ZM81.2942 8.91432C87.8015 12.9279 93.4618 18.4906 97.6776 25.413C96.4068 23.6589 94.5694 22.4069 92.2878 21.6073C89.5244 16.5561 85.8635 12.178 81.2942 8.91432ZM43.6171 34.1949C44.9257 33.4455 46.2488 32.7179 47.583 32.0194C48.5648 31.5025 49.5576 31.0148 50.5504 30.527C53.4754 34.096 56.3076 37.8198 59.0535 41.5756C56.6609 43.1449 54.1738 44.6448 51.6355 46.0537C49.1152 47.4556 46.5471 48.7594 43.9781 49.9511C42.2711 47.3867 40.6219 44.8301 39.0524 42.3138C38.2292 40.9903 37.5004 39.7254 36.7281 38.4348C38.9589 36.9583 41.2624 35.5366 43.6171 34.1949ZM50.7555 30.4237C53.5218 29.0708 56.2998 27.8265 59.068 26.7161C59.6543 27.7736 60.2371 28.842 60.8093 29.9392C62.1112 32.4243 63.3815 35.0178 64.6089 37.6615C62.8894 38.954 61.1011 40.2206 59.2402 41.4432C56.5017 37.6948 53.6767 33.9854 50.7555 30.4237ZM36.5377 38.5636C37.3101 39.8541 38.0352 41.1154 38.8584 42.4353C40.4205 44.9443 42.0625 47.4972 43.7623 50.0507C42.2583 50.7442 40.7574 51.3836 39.2636 51.994C37.9842 48.7167 36.8057 45.4184 35.8009 42.1505C35.5339 41.2873 35.2996 40.4315 35.0543 39.5757C35.5464 39.2359 36.0348 38.8961 36.5377 38.5636ZM8.35717 54.6572C9.13143 55.2857 10.0096 55.8065 10.9987 56.2087C12.4225 56.7808 14.0541 57.1303 15.8465 57.2748C13.4331 60.758 11.7459 64.2795 11.073 67.7367C10.3303 66.5404 9.64882 65.3193 9.03932 64.0698C8.48778 61.0407 8.24947 57.891 8.35717 54.6572ZM34.8568 39.7152C35.0946 40.5457 35.3216 41.376 35.5775 42.2139C36.586 45.4927 37.7645 48.7945 39.044 52.0755C33.0577 54.4954 27.2138 56.211 22.116 56.8471C21.7444 56.8948 21.4014 56.9029 21.0405 56.9362C20.8104 55.2556 20.6522 53.5502 20.5481 51.8271C24.4866 47.5746 29.4049 43.4745 34.8568 39.7152ZM59.284 26.6273C62.5671 25.3183 65.8084 24.2116 68.9575 23.3068C71.1975 24.7791 73.3156 26.3554 75.326 28.0104C72.4662 31.2258 68.8698 34.4463 64.7956 37.5219C63.5719 34.889 62.3089 32.3065 61.0142 29.8287C60.4421 28.7387 59.863 27.6776 59.284 26.6273ZM82.3227 15.5871C85.0802 17.1901 87.6083 19.0048 89.8814 20.9984C87.2082 20.4597 84.1091 20.3844 80.6954 20.7191C81.3705 19.3387 81.8941 17.9753 82.158 16.6567C82.2309 16.2991 82.2822 15.9413 82.3191 15.587L82.3227 15.5871ZM69.2566 23.226C72.5932 22.2792 75.8231 21.5523 78.8317 21.1421C79.2682 21.0804 79.6797 21.0584 80.1055 21.0111C80.1421 21.0765 80.1823 21.1347 80.2153 21.2001C79.2905 22.962 78.0771 24.7614 76.5893 26.5768C76.2459 26.9937 75.8521 27.4139 75.4835 27.8343C73.5167 26.2122 71.4422 24.6689 69.2566 23.226ZM20.3225 52.0605C20.4256 53.6605 20.5756 55.2465 20.7903 56.8112C20.0998 55.818 19.4274 54.8249 18.8018 53.8213C19.2025 53.3505 19.5743 52.8759 19.9966 52.4053C20.1004 52.2903 20.2187 52.1755 20.3225 52.0605ZM18.6444 54.0118C19.2663 55.0009 19.9315 55.9903 20.6146 56.969C19.0989 57.0981 17.6403 57.1516 16.289 57.0649C17.0139 56.0431 17.7966 55.0254 18.6444 54.0118ZM16.1175 57.2951C17.5592 57.397 19.1297 57.3335 20.7609 57.1909C20.7901 57.2309 20.8157 57.2745 20.8485 57.3146C22.1187 66.1963 25.1423 74.4227 29.3106 81.2724C27.3512 81.4739 25.5061 81.5098 23.7647 81.4164C20.5634 78.9632 17.6309 76.248 15.1152 73.2792C13.6933 71.5999 12.4044 69.8421 11.2559 68.0312C11.8957 64.4941 13.6182 60.8788 16.1175 57.2951ZM80.5818 20.9642C84.1939 20.6022 87.4556 20.686 90.216 21.2941C91.3982 22.3564 92.5086 23.4651 93.5542 24.6132C94.146 25.9059 94.6876 27.2381 95.1715 28.5987C96.2467 31.6212 97.0233 34.7968 97.5657 38.043C96.608 40.2026 95.3004 42.4174 93.6029 44.6616C92.5769 44.6064 91.5151 44.6016 90.3997 44.6723C89.4522 43.156 88.4218 41.6571 87.3121 40.1757C86.2471 35.2611 84.7642 30.477 82.8545 26.0585C82.1259 24.3703 81.3221 22.7611 80.4789 21.1914C80.518 21.1157 80.5427 21.0399 80.5818 20.9642ZM80.3582 21.4545C81.1649 22.9697 81.9394 24.528 82.6421 26.1509C84.4819 30.406 85.9308 34.9981 86.987 39.7209C83.8154 35.5565 80.0097 31.5861 75.6652 27.9805C76.0338 27.5601 76.4313 27.1399 76.7746 26.7194C78.2266 24.9472 79.4367 23.1839 80.3582 21.4545ZM21.0676 57.1644C21.4321 57.1275 21.7787 57.123 22.1503 57.0753C27.277 56.4358 33.1353 54.7204 39.1324 52.2933C40.8172 56.5905 42.7038 60.8315 44.7119 64.9034C41.2484 67.5858 38.1288 70.3651 35.5474 73.1522C30.1576 68.442 25.2577 63.1278 21.3203 57.6005C21.2327 57.4805 21.1631 57.3569 21.0791 57.2404C21.0753 57.2151 21.0714 57.1897 21.0676 57.1644ZM21.1336 57.7402C25.0819 63.2784 29.9855 68.6034 35.3862 73.3246C34.5055 74.2836 33.6681 75.243 32.921 76.1959C31.5948 77.8931 30.5032 79.5777 29.6713 81.221C29.6352 81.2243 29.5956 81.2312 29.5595 81.2381C25.45 74.5156 22.4458 66.4558 21.1336 57.7402ZM9.19782 64.9213C9.7517 65.9895 10.356 67.0435 11.0071 68.0762C10.8586 68.9253 10.7823 69.7605 10.7565 70.5997C10.1134 68.7638 9.59261 66.8674 9.19782 64.9213ZM75.5077 28.1565C79.983 31.8645 83.8728 35.9658 87.0925 40.2572C87.4263 41.8048 87.7096 43.3592 87.9532 44.9242C87.6538 44.9616 87.3722 44.9775 87.0657 45.0257C81.9003 45.7878 76.0644 47.6048 70.1221 50.1047C68.525 45.942 66.769 41.7744 64.9021 37.7398C69.0051 34.6464 72.6229 31.4008 75.5077 28.1565ZM90.6211 21.3733C90.7333 21.3995 90.8597 21.4114 90.9683 21.4412C91.3664 21.5457 91.7538 21.6682 92.1304 21.7978C92.5043 22.4846 92.8638 23.1821 93.2017 23.8903C92.3859 23.0264 91.5196 22.1873 90.6211 21.3733ZM92.46 21.9198C95.0499 22.8811 97.0269 24.4345 98.2005 26.6762C98.9575 28.2959 99.2638 30.0279 99.1845 31.8471C97.6579 29.2625 95.8361 26.7986 93.7411 24.4952C93.3404 23.6201 92.911 22.7592 92.46 21.9198ZM39.3484 52.2118C40.8603 51.5979 42.3755 50.9478 43.8938 50.2471C46.1785 53.6808 48.5639 57.0754 50.9706 60.416C48.8547 61.8211 46.8259 63.274 44.8949 64.7601C42.8943 60.7064 41.0259 56.4873 39.3484 52.2118ZM64.7082 37.8794C66.5677 41.8995 68.3164 46.0489 69.9061 50.197C68.7544 50.6836 67.5993 51.199 66.4444 51.7398C64.2181 48.3825 61.8328 44.9987 59.379 41.6361C61.2219 40.4206 62.9995 39.1647 64.7082 37.8794ZM11.1938 68.3816C12.3092 70.1236 13.565 71.8124 14.9359 73.4297C17.3895 76.3257 20.2494 78.986 23.3601 81.3987C21.9942 81.3046 20.6784 81.1494 19.4807 80.8505C17.5701 80.3758 15.9028 79.6244 14.5041 78.5858C13.1059 76.2627 11.916 73.7892 10.9671 71.1911C10.9596 70.2612 11.0388 69.3284 11.1938 68.3816ZM44.1097 50.1511C46.6751 48.9594 49.236 47.6556 51.7527 46.2573C54.2946 44.8447 56.7889 43.3413 59.1887 41.7684C61.6352 45.1238 64.0096 48.4931 66.2285 51.8394C63.2494 53.234 60.2751 54.7661 57.3777 56.4364C55.2532 57.6605 53.1835 58.961 51.1646 60.2909C48.7652 56.9613 46.3907 53.5739 44.1097 50.1511ZM10.9945 71.915C11.8391 74.107 12.8455 76.2099 14.0099 78.2055C13.0319 77.3909 12.1971 76.4182 11.5415 75.2697C11.5378 75.2624 11.5341 75.2552 11.5305 75.2479C11.5304 75.2443 11.5268 75.2443 11.5268 75.2443C11.5268 75.2406 11.5268 75.2406 11.5232 75.237C11.2183 74.1455 11.0541 73.0371 10.9945 71.915ZM94.0025 25.1196C95.9814 27.3605 97.7123 29.7478 99.1588 32.2413C99.0579 33.619 98.7479 35.0385 98.2287 36.4997C98.0944 36.8713 97.8989 37.2569 97.7394 37.6355C97.1979 34.5088 96.4259 31.4489 95.3877 28.5317C94.9703 27.367 94.4954 26.2379 94.0025 25.1196ZM98.4903 26.7799C102.49 33.8381 104.556 41.4526 104.877 49.0279C104.418 44.4762 103.186 39.9546 101.198 35.6658C100.65 34.4892 100.049 33.3302 99.3895 32.1925C99.5224 30.294 99.2442 28.4755 98.4903 26.7799ZM12.8407 77.4183C13.2924 77.9031 13.7943 78.3413 14.3248 78.7399C14.9909 79.8415 15.6965 80.9145 16.4523 81.948C17.8983 83.9278 19.5164 85.7642 21.2671 87.4605C18.0875 84.5552 15.2437 81.1967 12.8407 77.4183ZM14.826 79.1021C16.1549 79.9919 17.695 80.6481 19.4247 81.078C20.731 81.4031 22.1733 81.5666 23.6727 81.6508C25.1515 82.7806 26.6769 83.8565 28.2667 84.8569C28.1583 85.2938 28.0642 85.7272 27.9991 86.1536C27.5742 89.0122 28.2635 91.6589 30.2966 93.9075C24.9459 90.9234 20.2794 86.7905 16.639 81.812C16 80.9386 15.4004 80.0293 14.826 79.1021ZM99.3641 32.6265C99.9466 33.655 100.493 34.6978 100.985 35.7582C103.341 40.8387 104.638 46.2472 104.825 51.6397C103.764 48.5884 101.574 46.61 98.5902 45.5623C98.4869 43.0361 98.2068 40.5337 97.797 38.0665C98.0134 37.5689 98.2658 37.0716 98.4388 36.581C98.9191 35.2316 99.2336 33.9099 99.3641 32.6265ZM57.4913 56.6399C60.3995 54.9661 63.3774 53.4304 66.3637 52.0322C68.8422 55.7822 71.0816 59.429 73.1649 62.9732C70.2196 64.9723 67.1581 66.8909 64.0124 68.6677C62.4737 69.542 60.9166 70.3726 59.3522 71.1815C56.6999 67.8317 53.9948 64.2138 51.3034 60.4838C53.3151 59.1538 55.374 57.8605 57.4913 56.6399ZM51.1057 60.6089C53.7899 64.3352 56.4912 67.9386 59.1399 71.2847C56.2914 72.7455 53.4238 74.0795 50.5696 75.2797C50.5111 75.1816 50.449 75.0906 50.3904 74.9925C48.5342 71.8444 46.7267 68.4688 45.0014 64.9781C46.9396 63.4811 48.9791 62.0211 51.1021 60.6088L51.1057 60.6089ZM66.576 51.9398C67.7165 51.4062 68.8572 50.8942 69.9946 50.4148C71.5364 54.4468 72.9012 58.4666 74.0736 62.3545C73.8366 62.5191 73.5959 62.6836 73.3589 62.8445C71.2793 59.3112 69.0436 55.6753 66.576 51.9398ZM70.207 50.3297C76.1349 47.8333 81.9599 46.0163 87.1 45.2539C87.403 45.2093 87.6846 45.1934 87.984 45.156C88.2507 46.8948 88.4561 48.6332 88.6073 50.3819C84.5989 54.4602 79.6727 58.4806 74.2747 62.2186C73.1061 58.3452 71.7415 54.3435 70.207 50.3297ZM87.4176 40.7193C88.3851 42.0295 89.2913 43.3573 90.1327 44.6955C89.501 44.7375 88.8408 44.8227 88.1842 44.9043C87.9635 43.4987 87.7104 42.1074 87.4176 40.7193ZM44.8112 65.1249C46.5364 68.6048 48.3365 71.9658 50.189 75.103C50.2439 75.1939 50.2952 75.2812 50.3501 75.372C47.5714 76.5331 44.8241 77.5496 42.1333 78.4111C39.9357 76.8197 37.7913 75.1166 35.7184 73.3128C38.2784 70.5508 41.3728 67.7894 44.8112 65.1249ZM35.5536 73.4779C37.5901 75.2489 39.6982 76.9264 41.8559 78.4957C38.5058 79.5581 35.2479 80.3969 32.1859 80.9008C31.4249 81.025 30.696 81.0988 29.9563 81.187C30.7707 79.6052 31.8194 77.9853 33.0992 76.3456C33.8427 75.3927 34.6729 74.4369 35.5536 73.4779ZM97.6234 38.4812C97.9922 40.7889 98.2493 43.1246 98.3477 45.4844C97.0007 45.0395 95.4855 44.7959 93.856 44.6889C95.4318 42.5921 96.6863 40.5144 97.6234 38.4812ZM88.2186 45.1325C88.9077 45.0512 89.6075 44.9554 90.2716 44.9101C90.7289 45.6446 91.1718 46.3826 91.5894 47.1204C91.4678 47.2641 91.3678 47.4044 91.2426 47.5482C90.4875 48.4141 89.6711 49.2832 88.8293 50.1485C88.6787 48.4721 88.4739 46.8025 88.2186 45.1325ZM24.07 81.6685C25.7644 81.7398 27.5479 81.6853 29.4351 81.4832C29.4534 81.5159 29.4717 81.5486 29.49 81.5777C28.9891 82.6157 28.6036 83.6294 28.3299 84.6294C26.8599 83.7023 25.4434 82.7033 24.07 81.6685ZM90.5424 44.905C91.5423 44.8478 92.5065 44.8374 93.4313 44.8773C92.9059 45.5606 92.33 46.247 91.7504 46.9299C91.3658 46.2539 90.9631 45.5777 90.5424 44.905ZM93.706 44.9048C95.4078 45.0052 96.9808 45.2673 98.3677 45.7343C98.5512 50.5985 98.1282 55.5013 97.1695 60.2443C96.3289 56.7461 95 53.1536 93.1981 49.5718C92.7908 48.7653 92.3257 47.9584 91.8714 47.1515C92.5082 46.4004 93.1378 45.6529 93.706 44.9048ZM29.8247 81.432C30.6184 81.3406 31.4123 81.2601 32.2346 81.1219C35.3543 80.6076 38.6771 79.7512 42.092 78.664C43.9591 80.0139 45.8509 81.3062 47.7743 82.472C50.6158 84.1952 53.4987 85.6726 56.3797 86.9112C54.5463 88.8612 53.1711 90.757 52.4807 92.4846C52.3391 92.8417 52.2372 93.1918 52.1533 93.5349C46.0719 92.6508 40.0434 90.7142 34.4202 87.9776C32.8199 86.1087 31.312 84.0706 29.933 81.8743C29.8708 81.7797 29.823 81.6744 29.7609 81.5799C29.7857 81.5294 29.7998 81.4825 29.8247 81.432ZM29.651 81.8467C29.6803 81.894 29.706 81.9485 29.7353 81.9994C31.0302 84.0539 32.4431 85.9574 33.9271 87.7312C32.0852 86.8121 30.2825 85.8353 28.5439 84.7469C28.8 83.8046 29.1858 82.8308 29.651 81.8467ZM91.714 47.3421C92.1536 48.1198 92.6004 48.894 92.9931 49.6751C94.8757 53.4203 96.2276 57.1722 97.0512 60.8077C96.8806 61.6024 96.7354 62.4044 96.5322 63.1916C95.9019 65.6505 95.0795 68.0356 94.1302 70.3436C92.7762 69.4753 90.9068 69.1891 88.7196 69.349C88.4958 69.3653 88.2543 69.4141 88.027 69.4412C88.5192 66.869 88.8663 64.2233 89.036 61.5183C89.2634 57.8947 89.1759 54.1819 88.8572 50.4671C89.7599 49.5481 90.6192 48.6214 91.4244 47.7016C91.5281 47.5794 91.6138 47.4607 91.714 47.3384L91.714 47.3421ZM88.6386 50.6789C88.9422 54.3175 89.0219 57.9543 88.8012 61.502C88.6316 64.2251 88.2809 66.8852 87.7852 69.4718C85.0397 69.8082 81.8621 70.7634 78.5364 72.1553C77.6044 70.3316 76.6035 68.4531 75.5007 66.4869C75.2289 65.4717 74.9535 64.4528 74.6491 63.412C74.5562 63.0965 74.4489 62.77 74.3561 62.4508C79.7253 58.7343 84.6264 54.7391 88.6386 50.6789ZM28.4808 84.9816C30.35 86.147 32.2942 87.2081 34.2882 88.1791C37.3358 91.731 40.75 94.6129 44.3747 96.7221C41.2065 97.0515 38.364 97.0072 36.0057 96.5434C34.2525 95.8891 32.5562 95.1122 30.9168 94.2344C28.569 91.9327 27.7887 89.202 28.2341 86.1881C28.2959 85.7906 28.3793 85.386 28.4808 84.9816ZM98.6031 45.8157C101.577 46.885 103.72 48.8558 104.709 51.9717C104.641 57.4779 102.16 62.8998 98.1632 67.9805C98.1266 65.6718 97.8402 63.2816 97.2897 60.8277C98.3266 55.9298 98.7879 50.8536 98.6031 45.8157ZM42.3766 78.5794C45.0313 77.7213 47.739 76.7117 50.4781 75.5684C52.755 79.3892 55.0833 82.8666 57.3863 85.8952C57.0997 86.1752 56.8202 86.4552 56.5552 86.7316C53.6561 85.4893 50.7551 84.0045 47.8955 82.2704C46.0266 81.1411 44.1892 79.8855 42.3766 78.5794ZM50.6976 75.4761C53.5554 74.2759 56.4302 72.9347 59.2859 71.4704C59.4829 71.7216 59.6874 72.0018 59.8844 72.2494C61.8834 74.751 63.8197 77.0747 65.6858 79.2026C62.6184 81.2875 59.8194 83.5158 57.5547 85.7229C55.2735 82.7198 52.9562 79.2678 50.6976 75.4761ZM74.1549 62.5903C74.244 62.8841 74.3403 63.1852 74.4257 63.4789C74.6447 64.226 74.8347 64.9511 75.0393 65.6873C74.5521 64.8295 73.9959 63.9314 73.4833 63.0517C73.706 62.8979 73.9323 62.7441 74.1549 62.5903ZM73.2893 63.1804C73.9227 64.2601 74.6142 65.3763 75.2041 66.4267C75.2297 66.4739 75.2518 66.5175 75.2774 66.5647C75.8656 68.7584 76.3701 70.879 76.7874 72.9229C74.6248 73.908 72.4346 75.0375 70.2886 76.2904C69.3684 76.8258 68.4556 77.383 67.5609 77.9547C66.9896 78.3193 66.4365 78.6948 65.8797 79.0702C64.0136 76.9388 62.0701 74.6114 60.0674 72.1062C59.8813 71.8695 59.6842 71.6038 59.4981 71.3672C61.0518 70.5654 62.6017 69.7383 64.1368 68.8713C67.2788 67.0909 70.344 65.1759 73.2893 63.1804ZM34.843 88.4513C40.3279 91.0638 46.1895 92.905 52.101 93.7697C51.9898 94.3187 51.9616 94.8468 52.027 95.3502C50.56 95.704 49.1216 96.0254 47.7368 96.264C46.7162 96.4404 45.7241 96.5773 44.7572 96.6854C41.2054 94.6635 37.857 91.8799 34.843 88.4513ZM75.7796 67.4913C76.6811 69.1194 77.5389 70.7146 78.3204 72.2441C77.8813 72.4287 77.4458 72.6206 77.0032 72.8197C76.6463 71.0946 76.253 69.3259 75.7796 67.4913ZM104.855 53.127C104.854 53.4345 104.846 53.7384 104.837 54.0459C104.633 57.4525 104.09 60.8239 103.195 64.1057C103.188 64.1201 103.185 64.1382 103.181 64.1526C101.931 68.1805 99.9544 72.0362 97.2561 75.5569C97.9026 73.3115 98.1757 70.8859 98.1662 68.3532C102.013 63.5318 104.478 58.3848 104.852 53.127L104.855 53.127ZM70.4094 76.4903C72.5302 75.2517 74.6989 74.1401 76.8327 73.1657C77.6938 77.4238 78.1763 81.3063 78.159 84.5516C76.6673 85.4298 75.1464 86.2644 73.6143 87.0627C71.3919 85.0803 68.8173 82.4186 66.0365 79.2524C66.5861 78.8841 67.1248 78.5085 67.6853 78.1511C68.5799 77.5793 69.4928 77.0258 70.4094 76.4903ZM97.1678 61.3912C97.6635 63.7541 97.9166 66.0537 97.9344 68.2717C97.0977 69.3143 96.2104 70.3493 95.2543 71.362C94.9879 71.027 94.6679 70.7495 94.3265 70.5008C95.29 68.1639 96.1229 65.7463 96.7638 63.2549C96.9214 62.6411 97.0283 62.0124 97.1678 61.3912ZM65.8461 79.3811C68.6088 82.5292 71.1689 85.1871 73.3986 87.1767C73.0785 87.3442 72.7585 87.519 72.4348 87.6828C70.7551 88.5306 69.0568 89.3131 67.3618 90.063C64.6748 89.5966 61.924 88.8222 59.153 87.7907C58.6716 87.1971 58.1825 86.5564 57.6971 85.9194C59.9618 83.7086 62.7716 81.4733 65.8461 79.3811ZM77.0521 73.0589C77.5163 72.8527 77.977 72.6538 78.4377 72.4585C80.1878 75.8915 81.6142 79.0361 82.6399 81.747C81.2497 82.6695 79.8376 83.5664 78.3891 84.4232C78.3954 81.1597 77.913 77.2953 77.0521 73.0589ZM78.6536 72.3697C81.929 71.0028 85.0489 70.0543 87.7402 69.7103C86.9733 73.6045 85.8292 77.3004 84.2671 80.6601C83.8003 80.9856 83.3188 81.2965 82.8411 81.6148C81.8154 78.9039 80.3892 75.7809 78.6536 72.3697ZM35.9967 96.7821C36.0112 96.7859 36.0257 96.7896 36.0401 96.7897C40.4809 98.4351 45.248 99.345 50.1958 99.3735C50.6773 99.5293 51.1588 99.6706 51.6437 99.7938C53.5363 100.279 55.4596 100.53 57.399 100.545C50.0524 100.863 42.7434 99.5602 35.9967 96.7821ZM37.2551 96.9803C39.4458 97.2582 41.9591 97.2276 44.7121 96.9202C46.272 97.8009 47.8599 98.5625 49.486 99.1326C45.2382 99.0337 41.1261 98.2883 37.2551 96.9803ZM57.5287 86.0881C57.9229 86.6014 58.3207 87.122 58.711 87.6099C58.0734 87.366 57.4357 87.1005 56.798 86.8313C57.0343 86.5835 57.2779 86.3358 57.5287 86.0881ZM56.6188 87.0035C57.416 87.3427 58.2133 87.6892 59.0065 87.9849C60.2356 89.4926 61.4489 90.8265 62.6322 92.019C60.6844 92.7633 58.7469 93.439 56.8484 94.0245C55.3598 93.9439 53.8671 93.7873 52.3775 93.5765C52.458 93.2515 52.5528 92.9194 52.6909 92.5731C53.3706 90.8708 54.7638 88.9643 56.6188 87.0035ZM87.9855 69.6797C88.2345 69.6491 88.5014 69.6042 88.7432 69.588C90.9232 69.4281 92.7457 69.7247 94.0417 70.5745C93.5244 71.8114 92.9744 73.0299 92.3663 74.2082C90.0146 76.3749 87.4202 78.4491 84.655 80.3918C86.149 77.0931 87.2395 73.4764 87.9855 69.6797ZM59.4811 88.1696C62.0056 89.087 64.5138 89.7835 66.9768 90.2336C65.6056 90.8306 64.2415 91.4059 62.8771 91.9341C61.7667 90.8218 60.6335 89.5681 59.4811 88.1696ZM45.0946 96.8871C45.9677 96.7818 46.8659 96.6515 47.7819 96.4923C49.1632 96.2573 50.598 95.9394 52.0578 95.5856C52.2385 96.5097 52.7506 97.3242 53.6371 97.9861C54.084 98.3189 54.628 98.6055 55.2656 98.8602C53.5735 99.0566 51.8986 99.1554 50.2409 99.1495C48.4921 98.5893 46.7705 97.8121 45.0946 96.8871ZM52.3288 93.8077C53.6376 93.9917 54.9423 94.1215 56.2504 94.2115C54.8922 94.6204 53.566 94.9717 52.254 95.2941C52.1961 94.8269 52.2247 94.3315 52.3288 93.8077ZM94.2416 70.7244C94.5576 70.9585 94.8487 71.2213 95.0931 71.5308C95 71.6277 94.9249 71.7248 94.8318 71.8218C94.2157 72.4573 93.5635 73.0816 92.904 73.706C93.3873 72.7329 93.8199 71.7305 94.2416 70.7244ZM97.9337 68.6408C97.9181 71.195 97.6163 73.6421 96.9192 75.887C96.8982 75.9592 96.8699 76.0314 96.8452 76.1036C96.6807 76.3121 96.4981 76.5133 96.3264 76.7181C96.5971 74.4445 96.2476 72.7448 95.3894 71.5512C96.2954 70.5996 97.1363 69.6258 97.9337 68.6408ZM52.2812 95.5331C53.7806 95.1651 55.3049 94.7467 56.8647 94.2634C59.5419 94.4113 62.203 94.3493 64.8261 94.0554C65.6007 94.7164 66.3638 95.3122 67.1008 95.7921C63.3068 97.3394 59.5191 98.3187 55.796 98.7957C54.9776 98.5178 54.2996 98.1868 53.7765 97.7991C52.9227 97.1664 52.4471 96.4028 52.2812 95.5331ZM95.2283 71.7308C96.0649 72.9242 96.4001 74.6491 96.0581 77.038C92.9921 80.6462 89.0994 83.8499 84.3499 86.475C84.2863 86.2032 84.2409 85.9459 84.1627 85.6559C87.5643 82.4592 90.3611 78.6064 92.566 74.3437C93.4085 73.5689 94.222 72.783 94.9992 71.9823C95.078 71.8997 95.1459 71.8134 95.2283 71.7308ZM101.814 68.3677C100.297 72.4441 98.2337 76.3317 95.6622 79.9113L95.6621 79.9004C95.743 79.6261 95.7988 79.3733 95.8653 79.1097C96.3381 78.1763 96.7347 77.199 97.0625 76.1813C99.0074 73.7292 100.586 71.1041 101.814 68.3677ZM57.4915 94.0658C59.2422 93.5117 61.0177 92.8962 62.807 92.2085C63.4077 92.8031 64.0006 93.3396 64.5825 93.8436C62.2443 94.0927 59.8722 94.1679 57.4915 94.0658ZM92.0748 74.7848C89.9471 78.7731 87.2855 82.3737 84.0921 85.402C83.8875 84.6587 83.6391 83.8535 83.3434 83.0081C83.7349 82.2948 84.1046 81.5597 84.4561 80.8099C87.1784 78.9139 89.7335 76.8973 92.0748 74.7848ZM63.0555 92.1164C64.4991 91.5563 65.9496 90.9419 67.3999 90.3021C70.6618 90.8563 73.8334 90.9647 76.8383 90.5472C76.7629 90.5973 76.6911 90.6474 76.6193 90.6974C72.8982 92.3322 68.9519 93.3465 64.9 93.8063C64.2963 93.2877 63.6816 92.7329 63.0554 92.1128L63.0555 92.1164ZM50.9757 99.358C52.5501 99.3379 54.1455 99.2312 55.7545 99.0269C57.2609 99.5382 59.3217 99.8223 61.8683 99.8968C58.4464 100.561 55.0253 100.421 51.6961 99.5699C51.4536 99.5065 51.2146 99.4286 50.9757 99.358ZM67.7957 90.1316C69.3827 89.4242 70.9694 88.6843 72.5412 87.8899C72.8901 87.7154 73.2352 87.5228 73.5841 87.341C74.9807 88.575 76.2453 89.5511 77.3375 90.1894C77.3123 90.2109 77.2836 90.2288 77.2585 90.2503C74.2576 90.7221 71.0755 90.6606 67.7957 90.1316ZM84.0754 81.0638C83.809 81.6225 83.5281 82.1738 83.2363 82.7142C83.1329 82.4275 83.0367 82.141 82.9259 81.8398C83.3103 81.5859 83.6946 81.3249 84.0754 81.0638ZM82.7248 81.9756C82.854 82.324 82.9686 82.6614 83.0833 82.9952C81.8197 85.2935 80.3378 87.402 78.6338 89.2771C78.3538 89.4847 78.0665 89.6778 77.7828 89.8781C77.7863 89.8673 77.7898 89.8565 77.7933 89.8457C77.7933 89.842 77.7897 89.8384 77.7896 89.8348C78.1896 88.3726 78.3815 86.6338 78.402 84.6838C79.8721 83.8163 81.313 82.9124 82.7248 81.9756ZM73.7962 87.2269C75.2707 86.4571 76.7305 85.6583 78.1647 84.8158C78.1401 86.7043 77.9477 88.3743 77.5653 89.7787L77.5653 89.786L77.5582 89.7895C77.5444 89.8763 77.5196 89.9376 77.5023 90.0243C76.4355 89.4043 75.182 88.45 73.7962 87.2269ZM83.194 83.2892C83.4713 84.0982 83.7086 84.8671 83.8985 85.5778C82.8267 86.5823 81.6894 87.5176 80.4974 88.3837C80.0871 88.565 79.6769 88.7499 79.2558 88.9238C80.7444 87.2134 82.0583 85.328 83.194 83.2892ZM56.2957 98.9625C59.9427 98.456 63.6437 97.4651 67.3511 95.9388C68.0698 96.3895 68.7697 96.7569 69.4436 97.0191C67.2831 98.2683 65.0981 99.1482 62.903 99.6807C60.1475 99.6697 57.921 99.4349 56.2957 98.9625ZM65.1364 94.0216C68.6903 93.6013 72.154 92.7532 75.4659 91.4372C72.7784 93.1526 70.0703 94.5638 67.3636 95.6856C67.3381 95.6673 67.3128 95.6599 67.2874 95.6416C66.5904 95.191 65.8709 94.6353 65.1364 94.0216ZM96.6405 76.6989C96.4815 77.1427 96.3081 77.5827 96.1201 78.0118C96.1791 77.7119 96.2416 77.4049 96.2863 77.1194C96.4044 76.9792 96.5224 76.8391 96.6405 76.6989ZM95.9787 77.4896C95.8959 77.9702 95.7844 78.4795 95.6514 79.0103C93.5362 83.2013 89.9334 86.5231 84.6767 88.5002C84.6529 88.2323 84.6509 87.9862 84.6052 87.6928C84.5558 87.3885 84.4663 87.0368 84.3951 86.707C89.0657 84.1391 92.9228 81.0111 95.9787 77.4896ZM83.9763 85.8317C84.0471 86.1 84.0779 86.3318 84.1341 86.5891C83.2891 87.0491 82.4187 87.4945 81.5193 87.9179C82.3735 87.2589 83.1877 86.5635 83.9763 85.8317ZM79.0383 89.2767C79.0491 89.2731 79.0563 89.2659 79.0635 89.2624C79.2506 89.1843 79.427 89.1025 79.6105 89.028C79.2765 89.2496 78.935 89.4567 78.5936 89.6675C78.6581 89.5993 78.7153 89.5274 78.7797 89.4555C78.8659 89.3947 78.9521 89.3375 79.0383 89.2767ZM67.6284 95.8324C70.6698 94.5577 73.7119 92.9284 76.7257 90.9081C76.9164 90.8228 77.1107 90.7375 77.3014 90.6486C77.1652 90.7814 77.0364 90.9215 76.8966 91.0542L76.8894 91.0542C74.5544 93.5104 72.1429 95.4269 69.6916 96.8728C69.0324 96.6323 68.3433 96.2687 67.6284 95.8324ZM77.8102 90.1461C77.803 90.1533 77.7959 90.1641 77.7851 90.1712C77.7815 90.1748 77.7743 90.1748 77.7671 90.1747C77.7814 90.164 77.7958 90.1568 77.8102 90.1461ZM80.6217 88.5801C81.8596 88.0291 83.0467 87.4452 84.1866 86.8283C84.2467 87.1255 84.3324 87.4482 84.3743 87.7235C84.4238 88.035 84.4259 88.2992 84.4498 88.5816C82.6242 89.2473 80.5987 89.7558 78.3731 90.0818C79.1457 89.6104 79.8965 89.1098 80.6217 88.5801ZM77.8056 90.4717C79.0866 91.2489 80.1925 91.7932 81.1047 92.0646C81.6115 92.2169 82.0671 92.2893 82.468 92.2961C82.1518 92.4962 81.8393 92.7072 81.5195 92.9C79.3487 94.207 77.1082 95.3796 74.9096 96.3752C76.1107 95.2884 77.031 93.4107 77.6193 90.6584C77.6802 90.5937 77.7411 90.5327 77.8056 90.4717ZM78.0828 90.3617C80.4312 90.0367 82.5541 89.5145 84.4734 88.817C84.5074 89.4613 84.4977 90.0473 84.3894 90.5023C84.3195 90.8021 84.2168 91.0473 84.0812 91.2597C83.6897 91.5243 83.2873 91.7744 82.8885 92.0317C82.4268 92.104 81.863 92.0525 81.1715 91.8444C80.3281 91.5953 79.2803 91.0768 78.0828 90.3617ZM94.8145 80.9357C94.7148 81.1049 94.6403 81.2708 94.5333 81.44C94.3367 81.6881 94.1328 81.9325 93.9325 82.1805C94.2471 81.7778 94.5363 81.3604 94.8145 80.9357ZM77.261 91.0137C76.5239 94.1158 75.3691 96.0242 73.8768 96.8265C73.6068 96.9401 73.3441 97.0538 73.0778 97.1638C72.1445 97.4278 71.0966 97.3507 69.9632 96.9762C72.3785 95.5301 74.7541 93.6386 77.0532 91.2255C77.0568 91.2219 77.0568 91.2183 77.0604 91.2147C77.1285 91.1501 77.1929 91.0783 77.261 91.0137ZM61.5926 100.188C62.0361 100.108 62.4796 100.025 62.9266 99.9161C63.0999 99.9175 63.2517 99.9259 63.4323 99.9274C62.8155 100.027 62.2059 100.109 61.5926 100.188ZM93.5892 82.6011C91.7293 84.8513 89.6443 86.9477 87.3557 88.8724C86.4334 89.596 85.4748 90.3011 84.4799 90.9807C84.533 90.8508 84.5825 90.7137 84.6173 90.562C84.7361 90.0601 84.7419 89.4269 84.6966 88.7355C88.4808 87.322 91.4289 85.2216 93.5892 82.6011ZM63.7121 99.698C65.7264 99.1388 67.7311 98.29 69.7117 97.1298C70.5845 97.4407 71.4162 97.5739 72.1923 97.5294C70.6947 98.1181 69.2432 98.6023 67.881 98.9677C67.7008 99.0133 67.5206 99.0553 67.3404 99.1009C66.133 99.3989 64.9935 99.6178 63.9758 99.7037C63.9722 99.7037 63.9686 99.7037 63.9686 99.7037C63.8747 99.7065 63.806 99.6988 63.7121 99.698Z" stroke="#C0E0EF" stroke-opacity="0.5" stroke-width="1.25" shape-rendering="crispEdges"/>
</g>
<g clip-path="url(#clip0_111_969)">
<path d="M36.7228 74.8278L34.1471 75.0664L33.889 67.3443L31.4834 67.5677L31.3983 65.0292L38.7851 64.3387L38.8702 66.8772L36.4646 67.1006L36.7228 74.8278Z" stroke="#041116" stroke-width="1.59894"/>
<path d="M43.9819 74.5486C42.4633 74.6247 41.3334 74.1627 40.5983 73.1524C39.9453 72.2588 39.6051 71.015 39.5778 69.4157C39.5474 67.8215 39.839 66.5472 40.4556 65.5877C41.1542 64.5012 42.2628 63.9224 43.7815 63.8462C45.3001 63.765 46.427 64.227 47.1651 65.2373C47.815 66.1309 48.1552 67.3748 48.1856 68.9689C48.216 70.5682 47.9213 71.8476 47.3048 72.8021C46.6092 73.8886 45.5006 74.4673 43.9819 74.5486ZM43.9303 71.7918C44.5529 71.7562 45.0025 71.4364 45.2819 70.8221C45.5097 70.3296 45.616 69.7559 45.6039 69.1009C45.5917 68.446 45.4641 67.8875 45.2212 67.4255C44.9174 66.8366 44.4557 66.5624 43.8331 66.5929C43.2104 66.6234 42.7579 66.9483 42.4754 67.5677C42.2506 68.0551 42.1413 68.6288 42.1534 69.2837C42.1686 69.9336 42.2962 70.4971 42.5392 70.9693C42.8429 71.5481 43.3076 71.8222 43.9303 71.7918Z" stroke="#041116" stroke-width="1.59895"/>
<path d="M53.3642 74.0512L49.2486 74.0766L49.2273 63.7956L53.3399 63.7703C55.0226 63.7601 56.2345 64.146 56.9725 64.9278C57.5678 65.5624 57.908 66.4255 57.9931 67.5171C58.0326 67.9892 58.0508 68.4462 58.0538 68.8828C58.0538 69.3194 58.0356 69.7713 58.0022 70.2485C57.9688 70.7257 57.8746 71.1878 57.7197 71.6345C57.5678 72.0813 57.3218 72.4824 56.9877 72.8429C56.6536 73.2033 56.195 73.4927 55.6118 73.711C55.0256 73.9293 54.2784 74.041 53.3642 74.0512ZM53.1151 71.5076C54.4242 71.4975 55.1653 70.939 55.3354 69.8322C55.3779 69.5225 55.4022 69.2128 55.3992 68.898C55.3992 68.5833 55.3749 68.2736 55.3263 67.9639C55.2807 67.6592 55.1805 67.38 55.0256 67.1312C54.8737 66.8825 54.6429 66.6794 54.3361 66.5321C54.0294 66.3849 53.6193 66.3088 53.103 66.3138L51.8121 66.324L51.8242 71.5178L53.1151 71.5076Z" stroke="#041116" stroke-width="1.59894"/>
<path d="M68.6694 74.4468L66.0543 74.3351L65.5015 72.6292L61.6259 72.4617L61.0214 74.1218L58.4093 74.0102L62.4976 63.912L64.891 64.0085L68.6694 74.4468ZM64.6723 70.0501L63.6518 66.8871L62.534 69.9587L64.6723 70.0501Z" stroke="#041116" stroke-width="1.59894"/>
<path d="M74.6621 74.9956L72.0865 74.762L72.2414 69.8983L69.0643 64.1968L71.9194 64.4557L73.6052 67.6847L75.4822 64.7756L78.3373 65.0294L74.817 70.1318L74.6621 74.9956Z" stroke="#041116" stroke-width="1.59895"/>
<path d="M36.494 75.0446L33.9468 75.2959L33.6945 67.3357L31.3155 67.5661L31.2314 64.9476L38.5365 64.2354L38.6206 66.8539L36.2417 67.0843L36.494 75.0446Z" fill="white"/>
<path d="M43.8004 74.3655C42.3298 74.4424 41.24 74.0102 40.531 73.0595C39.9041 72.2049 39.576 71.0189 39.5467 69.5064C39.5144 67.9987 39.7957 66.7936 40.3904 65.8957C41.07 64.873 42.1423 64.3208 43.6129 64.244C45.0718 64.1671 46.1587 64.6041 46.8706 65.55C47.4946 66.395 47.8227 67.5762 47.8549 69.0839C47.8842 70.5964 47.603 71.8063 47.0112 72.7138C46.3316 73.7413 45.2593 74.2887 43.8004 74.3655ZM43.7535 71.7535C44.3453 71.7295 44.7789 71.427 45.0543 70.8508C45.271 70.3899 45.3736 69.8473 45.3589 69.2183C45.3501 68.6037 45.23 68.0804 44.9957 67.6434C44.6969 67.0817 44.2516 66.8128 43.6598 66.8368C43.0563 66.8656 42.6198 67.1777 42.3473 67.7779C42.1276 68.2388 42.0222 68.7766 42.0309 69.3912C42.0456 70.0202 42.1716 70.5531 42.4059 70.9853C42.7018 71.523 43.15 71.7823 43.7535 71.7535Z" fill="white"/>
<path d="M53.113 74.3542L48.806 74.3742L48.7806 64.2555L53.0876 64.2355C54.8409 64.2255 56.1018 64.5955 56.8737 65.3554C57.5089 65.9853 57.8678 66.8352 57.9536 67.9151C57.9949 68.385 58.0171 68.8299 58.0171 69.2549C58.0171 69.6848 57.9949 70.1298 57.9536 70.5947C57.9186 71.0647 57.8202 71.5146 57.6614 71.9545C57.5089 72.3945 57.2548 72.7944 56.8991 73.1544C56.5497 73.5143 56.0732 73.8043 55.4634 74.0143C54.8536 74.2292 54.069 74.3442 53.113 74.3542ZM52.8589 71.8546C54.231 71.8446 54.9997 71.2896 55.1712 70.1948C55.2125 69.8898 55.2347 69.5848 55.2347 69.2749C55.2347 68.9699 55.2093 68.665 55.1585 68.355C55.114 68.0501 55.0124 67.7751 54.8536 67.5351C54.6916 67.2852 54.4502 67.0852 54.1294 66.9352C53.815 66.7902 53.3862 66.7252 52.8462 66.7352H51.4995L51.5122 71.8546H52.8589Z" fill="white"/>
<path d="M69.1008 74.3742L66.2807 74.2765L65.6773 72.6356L61.4931 72.4793L60.8372 74.0812L58.0171 73.964L62.4375 64.2354L65.0215 64.333L69.1008 74.3742ZM64.7723 70.1546L63.6836 67.1266L62.4637 70.0764L64.7723 70.1546Z" fill="white"/>
<path d="M74.6816 75.2959L72.1152 75.0668L72.2726 70.0677L69.101 64.2354L71.9457 64.5061L73.6163 67.8181L75.4926 64.8394L78.3374 65.0894L74.8389 70.2968L74.6816 75.2959Z" fill="white"/>
<path d="M20.9017 58.4987L25.4429 58.1473C26.1947 58.0891 26.6154 57.6037 26.5539 56.8351L25.5327 44.0241C25.4788 43.3617 26.0022 42.7903 26.6719 42.7372L29.2247 42.54C29.9765 42.4818 30.3973 41.9964 30.3382 41.2556L30.0534 37.6806C29.9944 36.9398 29.5018 36.5251 28.7501 36.5833L14.2155 37.6831C13.4355 37.7438 13.043 38.2267 13.102 38.9675L13.3893 42.5678C13.4484 43.3086 13.941 43.7232 14.6927 43.6651L17.2173 43.4704C17.9152 43.4148 18.5207 43.9002 18.5746 44.5626L19.5957 57.3762C19.6573 58.1422 20.1499 58.5569 20.9017 58.4987Z" fill="white"/>
<path d="M34.8376 57.4887L52.8307 57.0083C53.5311 56.9906 54.0545 56.4445 54.0366 55.7542L53.9493 52.5964C53.9288 51.9061 53.3772 51.3904 52.6768 51.4081L41.6341 51.7013C40.9593 51.7216 40.4051 51.2033 40.3871 50.5408C40.3692 49.8759 40.8926 49.3045 41.5674 49.2868L51.5325 49.0213C52.2329 49.0036 52.7563 48.4575 52.7383 47.7673L52.6614 44.9811C52.6434 44.2908 52.0892 43.7751 51.3888 43.7928L41.4237 44.0582C40.7489 44.0759 40.1973 43.5602 40.1793 42.8952C40.1588 42.205 40.6822 41.6614 41.357 41.6437L52.3997 41.3479C53.1001 41.3302 53.6235 40.7841 53.6055 40.0938L53.5209 36.9613C53.5003 36.271 52.9487 35.7553 52.2483 35.7755L34.2552 36.2533C33.5547 36.2736 33.0288 36.8171 33.0493 37.5074L33.565 56.3004C33.5829 56.9906 34.1371 57.5064 34.8376 57.4887Z" fill="white"/>
<path d="M62.0152 57.1478L75.1874 57.5169C75.8878 57.5371 76.442 56.9961 76.4625 56.3058L76.5652 52.7738C76.5831 52.0835 76.0623 51.5374 75.3619 51.5197L64.3448 51.2087C63.67 51.191 63.1492 50.6449 63.1672 49.98L63.3647 43.1333C63.3853 42.4431 63.9394 41.9273 64.6117 41.945L75.6287 42.256C76.3291 42.2762 76.8833 41.7604 76.9038 41.0702L77.0065 37.5407C77.0244 36.8504 76.501 36.3043 75.8006 36.2841L62.6309 35.9124C59.1288 35.8164 56.5246 38.2385 56.4246 41.6896L56.1552 51.0065C56.0551 54.4551 58.5156 57.0492 62.0152 57.1478Z" fill="white"/>
<path d="M79.6186 57.802L84.106 58.1535C84.8039 58.2091 85.3837 57.7211 85.4376 57.0334L85.8635 51.7391C85.92 51.0514 86.4998 50.5634 87.172 50.6165C87.8699 50.6696 88.3625 51.2688 88.306 51.9565L87.8827 57.223C87.8263 57.9107 88.3214 58.4821 89.0193 58.5378L93.5067 58.8892C94.2045 58.9423 94.7844 58.4543 94.8408 57.7666L96.3469 39.0267C96.4033 38.339 95.9081 37.7676 95.2103 37.712L90.7255 37.3606C90.025 37.3075 89.4452 37.7954 89.3913 38.4831L88.968 43.7496C88.9115 44.4373 88.3317 44.9253 87.6338 44.8722C86.9616 44.8191 86.4664 44.2477 86.5229 43.56L86.9462 38.291C87.0027 37.6033 86.5075 37.0319 85.8096 36.9788L81.3223 36.6274C80.6244 36.5717 80.0445 37.0597 79.9907 37.7474L78.482 56.4898C78.4256 57.1775 78.9208 57.7489 79.6186 57.802Z" fill="white"/>
</g>
<defs>
<filter id="filter0_d_111_969" x="0.220459" y="0.544434" width="109.563" height="108.91" filterUnits="userSpaceOnUse" color-interpolation-filters="sRGB">
<feFlood flood-opacity="0" result="BackgroundImageFix"/>
<feColorMatrix in="SourceAlpha" type="matrix" values="0 0 0 0 0 0 0 0 0 0 0 0 0 0 0 0 0 0 127 0" result="hardAlpha"/>
<feOffset dy="4"/>
<feGaussianBlur stdDeviation="2"/>
<feComposite in2="hardAlpha" operator="out"/>
<feColorMatrix type="matrix" values="0 0 0 0 0 0 0 0 0 0 0 0 0 0 0 0 0 0 0.25 0"/>
<feBlend mode="normal" in2="BackgroundImageFix" result="effect1_dropShadow_111_969"/>
<feBlend mode="normal" in="SourceGraphic" in2="effect1_dropShadow_111_969" result="shape"/>
</filter>
<clipPath id="clip0_111_969">
<rect width="100" height="50" fill="white" transform="translate(5 25.1667)"/>
</clipPath>
</defs>
</svg>
